G04 #@! TF.GenerationSoftware,KiCad,Pcbnew,5.1.10-88a1d61d58~90~ubuntu20.04.1*
G04 #@! TF.CreationDate,2021-11-15T23:18:05+00:00*
G04 #@! TF.ProjectId,pulse_stretcher,70756c73-655f-4737-9472-657463686572,rev?*
G04 #@! TF.SameCoordinates,PX5ee3fe0PY6209a80*
G04 #@! TF.FileFunction,Copper,L1,Top*
G04 #@! TF.FilePolarity,Positive*
%FSLAX46Y46*%
G04 Gerber Fmt 4.6, Leading zero omitted, Abs format (unit mm)*
G04 Created by KiCad (PCBNEW 5.1.10-88a1d61d58~90~ubuntu20.04.1) date 2021-11-15 23:18:05*
%MOMM*%
%LPD*%
G01*
G04 APERTURE LIST*
G04 #@! TA.AperFunction,SMDPad,CuDef*
%ADD10R,0.650000X1.060000*%
G04 #@! TD*
G04 #@! TA.AperFunction,SMDPad,CuDef*
%ADD11R,1.060000X0.650000*%
G04 #@! TD*
G04 #@! TA.AperFunction,ComponentPad*
%ADD12C,2.800000*%
G04 #@! TD*
G04 #@! TA.AperFunction,ComponentPad*
%ADD13R,1.800000X1.800000*%
G04 #@! TD*
G04 #@! TA.AperFunction,ComponentPad*
%ADD14C,1.800000*%
G04 #@! TD*
G04 #@! TA.AperFunction,ComponentPad*
%ADD15C,7.600000*%
G04 #@! TD*
G04 #@! TA.AperFunction,ComponentPad*
%ADD16R,3.500000X4.000000*%
G04 #@! TD*
G04 #@! TA.AperFunction,ComponentPad*
%ADD17R,4.000000X3.500000*%
G04 #@! TD*
G04 #@! TA.AperFunction,SMDPad,CuDef*
%ADD18C,0.100000*%
G04 #@! TD*
G04 #@! TA.AperFunction,SMDPad,CuDef*
%ADD19R,1.000000X1.500000*%
G04 #@! TD*
G04 #@! TA.AperFunction,SMDPad,CuDef*
%ADD20R,2.000000X1.200000*%
G04 #@! TD*
G04 #@! TA.AperFunction,SMDPad,CuDef*
%ADD21R,2.000000X1.500000*%
G04 #@! TD*
G04 #@! TA.AperFunction,SMDPad,CuDef*
%ADD22R,2.000000X3.800000*%
G04 #@! TD*
G04 #@! TA.AperFunction,SMDPad,CuDef*
%ADD23R,3.800000X2.000000*%
G04 #@! TD*
G04 #@! TA.AperFunction,SMDPad,CuDef*
%ADD24R,1.500000X2.000000*%
G04 #@! TD*
G04 #@! TA.AperFunction,SMDPad,CuDef*
%ADD25R,1.560000X0.650000*%
G04 #@! TD*
G04 #@! TA.AperFunction,ViaPad*
%ADD26C,1.000000*%
G04 #@! TD*
G04 #@! TA.AperFunction,ViaPad*
%ADD27C,1.200000*%
G04 #@! TD*
G04 #@! TA.AperFunction,ViaPad*
%ADD28C,0.600000*%
G04 #@! TD*
G04 #@! TA.AperFunction,Conductor*
%ADD29C,2.000000*%
G04 #@! TD*
G04 #@! TA.AperFunction,Conductor*
%ADD30C,0.508000*%
G04 #@! TD*
G04 #@! TA.AperFunction,Conductor*
%ADD31C,1.024000*%
G04 #@! TD*
G04 #@! TA.AperFunction,Conductor*
%ADD32C,0.762000*%
G04 #@! TD*
G04 #@! TA.AperFunction,Conductor*
%ADD33C,1.500000*%
G04 #@! TD*
G04 #@! TA.AperFunction,Conductor*
%ADD34C,1.200000*%
G04 #@! TD*
G04 #@! TA.AperFunction,Conductor*
%ADD35C,0.254000*%
G04 #@! TD*
G04 #@! TA.AperFunction,Conductor*
%ADD36C,0.100000*%
G04 #@! TD*
G04 APERTURE END LIST*
D10*
G04 #@! TO.P,U7,5*
G04 #@! TO.N,+3V3*
X28074000Y4332000D03*
G04 #@! TO.P,U7,4*
G04 #@! TO.N,/~ENABLEBUF*
X29974000Y4332000D03*
G04 #@! TO.P,U7,3*
G04 #@! TO.N,GND*
X29974000Y2132000D03*
G04 #@! TO.P,U7,2*
G04 #@! TO.N,/~ENABLE*
X29024000Y2132000D03*
G04 #@! TO.P,U7,1*
G04 #@! TO.N,N/C*
X28074000Y2132000D03*
G04 #@! TD*
D11*
G04 #@! TO.P,U6,5*
G04 #@! TO.N,+3V3*
X27670000Y8759000D03*
G04 #@! TO.P,U6,4*
G04 #@! TO.N,Net-(R18-Pad1)*
X27670000Y10659000D03*
G04 #@! TO.P,U6,3*
G04 #@! TO.N,GND*
X29870000Y10659000D03*
G04 #@! TO.P,U6,2*
G04 #@! TO.N,/OUTPUT*
X29870000Y9709000D03*
G04 #@! TO.P,U6,1*
G04 #@! TO.N,/~ENABLEBUF*
X29870000Y8759000D03*
G04 #@! TD*
G04 #@! TO.P,R26,2*
G04 #@! TO.N,/~ENABLE*
G04 #@! TA.AperFunction,SMDPad,CuDef*
G36*
G01*
X29436000Y694250D02*
X29436000Y181750D01*
G75*
G02*
X29217250Y-37000I-218750J0D01*
G01*
X28779750Y-37000D01*
G75*
G02*
X28561000Y181750I0J218750D01*
G01*
X28561000Y694250D01*
G75*
G02*
X28779750Y913000I218750J0D01*
G01*
X29217250Y913000D01*
G75*
G02*
X29436000Y694250I0J-218750D01*
G01*
G37*
G04 #@! TD.AperFunction*
G04 #@! TO.P,R26,1*
G04 #@! TO.N,GND*
G04 #@! TA.AperFunction,SMDPad,CuDef*
G36*
G01*
X31011000Y694250D02*
X31011000Y181750D01*
G75*
G02*
X30792250Y-37000I-218750J0D01*
G01*
X30354750Y-37000D01*
G75*
G02*
X30136000Y181750I0J218750D01*
G01*
X30136000Y694250D01*
G75*
G02*
X30354750Y913000I218750J0D01*
G01*
X30792250Y913000D01*
G75*
G02*
X31011000Y694250I0J-218750D01*
G01*
G37*
G04 #@! TD.AperFunction*
G04 #@! TD*
G04 #@! TO.P,R11,2*
G04 #@! TO.N,/~ENABLEBUF*
G04 #@! TA.AperFunction,SMDPad,CuDef*
G36*
G01*
X10225750Y8470000D02*
X10738250Y8470000D01*
G75*
G02*
X10957000Y8251250I0J-218750D01*
G01*
X10957000Y7813750D01*
G75*
G02*
X10738250Y7595000I-218750J0D01*
G01*
X10225750Y7595000D01*
G75*
G02*
X10007000Y7813750I0J218750D01*
G01*
X10007000Y8251250D01*
G75*
G02*
X10225750Y8470000I218750J0D01*
G01*
G37*
G04 #@! TD.AperFunction*
G04 #@! TO.P,R11,1*
G04 #@! TO.N,/SET*
G04 #@! TA.AperFunction,SMDPad,CuDef*
G36*
G01*
X10225750Y10045000D02*
X10738250Y10045000D01*
G75*
G02*
X10957000Y9826250I0J-218750D01*
G01*
X10957000Y9388750D01*
G75*
G02*
X10738250Y9170000I-218750J0D01*
G01*
X10225750Y9170000D01*
G75*
G02*
X10007000Y9388750I0J218750D01*
G01*
X10007000Y9826250D01*
G75*
G02*
X10225750Y10045000I218750J0D01*
G01*
G37*
G04 #@! TD.AperFunction*
G04 #@! TD*
D12*
G04 #@! TO.P,J4,4*
G04 #@! TO.N,GND*
X55988000Y13432000D03*
G04 #@! TO.P,J4,5*
X55988000Y18432000D03*
G04 #@! TO.P,J4,2*
X60988000Y18432000D03*
G04 #@! TO.P,J4,3*
X60988000Y13432000D03*
G04 #@! TO.P,J4,1*
G04 #@! TO.N,/~ENABLE*
X58488000Y15932000D03*
G04 #@! TD*
G04 #@! TO.P,C25,2*
G04 #@! TO.N,GND*
G04 #@! TA.AperFunction,SMDPad,CuDef*
G36*
G01*
X26565500Y3804000D02*
X26910500Y3804000D01*
G75*
G02*
X27058000Y3656500I0J-147500D01*
G01*
X27058000Y3361500D01*
G75*
G02*
X26910500Y3214000I-147500J0D01*
G01*
X26565500Y3214000D01*
G75*
G02*
X26418000Y3361500I0J147500D01*
G01*
X26418000Y3656500D01*
G75*
G02*
X26565500Y3804000I147500J0D01*
G01*
G37*
G04 #@! TD.AperFunction*
G04 #@! TO.P,C25,1*
G04 #@! TO.N,+3V3*
G04 #@! TA.AperFunction,SMDPad,CuDef*
G36*
G01*
X26565500Y4774000D02*
X26910500Y4774000D01*
G75*
G02*
X27058000Y4626500I0J-147500D01*
G01*
X27058000Y4331500D01*
G75*
G02*
X26910500Y4184000I-147500J0D01*
G01*
X26565500Y4184000D01*
G75*
G02*
X26418000Y4331500I0J147500D01*
G01*
X26418000Y4626500D01*
G75*
G02*
X26565500Y4774000I147500J0D01*
G01*
G37*
G04 #@! TD.AperFunction*
G04 #@! TD*
G04 #@! TO.P,J3,4*
G04 #@! TO.N,GND*
X55988000Y29568000D03*
G04 #@! TO.P,J3,5*
X55988000Y34568000D03*
G04 #@! TO.P,J3,2*
X60988000Y34568000D03*
G04 #@! TO.P,J3,3*
X60988000Y29568000D03*
G04 #@! TO.P,J3,1*
G04 #@! TO.N,/BUFFEREDOUT*
X58488000Y32068000D03*
G04 #@! TD*
G04 #@! TO.P,J2,4*
G04 #@! TO.N,GND*
X-988000Y18432000D03*
G04 #@! TO.P,J2,5*
X-988000Y13432000D03*
G04 #@! TO.P,J2,2*
X-5988000Y13432000D03*
G04 #@! TO.P,J2,3*
X-5988000Y18432000D03*
G04 #@! TO.P,J2,1*
G04 #@! TO.N,/INPUT*
X-3488000Y15932000D03*
G04 #@! TD*
G04 #@! TO.P,C1,1*
G04 #@! TO.N,Net-(C1-Pad1)*
G04 #@! TA.AperFunction,SMDPad,CuDef*
G36*
G01*
X11615000Y41085000D02*
X10365000Y41085000D01*
G75*
G02*
X10115000Y41335000I0J250000D01*
G01*
X10115000Y42085000D01*
G75*
G02*
X10365000Y42335000I250000J0D01*
G01*
X11615000Y42335000D01*
G75*
G02*
X11865000Y42085000I0J-250000D01*
G01*
X11865000Y41335000D01*
G75*
G02*
X11615000Y41085000I-250000J0D01*
G01*
G37*
G04 #@! TD.AperFunction*
G04 #@! TO.P,C1,2*
G04 #@! TO.N,Net-(C1-Pad2)*
G04 #@! TA.AperFunction,SMDPad,CuDef*
G36*
G01*
X11615000Y43885000D02*
X10365000Y43885000D01*
G75*
G02*
X10115000Y44135000I0J250000D01*
G01*
X10115000Y44885000D01*
G75*
G02*
X10365000Y45135000I250000J0D01*
G01*
X11615000Y45135000D01*
G75*
G02*
X11865000Y44885000I0J-250000D01*
G01*
X11865000Y44135000D01*
G75*
G02*
X11615000Y43885000I-250000J0D01*
G01*
G37*
G04 #@! TD.AperFunction*
G04 #@! TD*
G04 #@! TO.P,C2,2*
G04 #@! TO.N,Net-(C1-Pad2)*
G04 #@! TA.AperFunction,SMDPad,CuDef*
G36*
G01*
X13901000Y43885000D02*
X12651000Y43885000D01*
G75*
G02*
X12401000Y44135000I0J250000D01*
G01*
X12401000Y44885000D01*
G75*
G02*
X12651000Y45135000I250000J0D01*
G01*
X13901000Y45135000D01*
G75*
G02*
X14151000Y44885000I0J-250000D01*
G01*
X14151000Y44135000D01*
G75*
G02*
X13901000Y43885000I-250000J0D01*
G01*
G37*
G04 #@! TD.AperFunction*
G04 #@! TO.P,C2,1*
G04 #@! TO.N,Net-(C1-Pad1)*
G04 #@! TA.AperFunction,SMDPad,CuDef*
G36*
G01*
X13901000Y41085000D02*
X12651000Y41085000D01*
G75*
G02*
X12401000Y41335000I0J250000D01*
G01*
X12401000Y42085000D01*
G75*
G02*
X12651000Y42335000I250000J0D01*
G01*
X13901000Y42335000D01*
G75*
G02*
X14151000Y42085000I0J-250000D01*
G01*
X14151000Y41335000D01*
G75*
G02*
X13901000Y41085000I-250000J0D01*
G01*
G37*
G04 #@! TD.AperFunction*
G04 #@! TD*
G04 #@! TO.P,C3,1*
G04 #@! TO.N,+5V*
G04 #@! TA.AperFunction,SMDPad,CuDef*
G36*
G01*
X27617000Y41085000D02*
X26367000Y41085000D01*
G75*
G02*
X26117000Y41335000I0J250000D01*
G01*
X26117000Y42085000D01*
G75*
G02*
X26367000Y42335000I250000J0D01*
G01*
X27617000Y42335000D01*
G75*
G02*
X27867000Y42085000I0J-250000D01*
G01*
X27867000Y41335000D01*
G75*
G02*
X27617000Y41085000I-250000J0D01*
G01*
G37*
G04 #@! TD.AperFunction*
G04 #@! TO.P,C3,2*
G04 #@! TO.N,GND*
G04 #@! TA.AperFunction,SMDPad,CuDef*
G36*
G01*
X27617000Y43885000D02*
X26367000Y43885000D01*
G75*
G02*
X26117000Y44135000I0J250000D01*
G01*
X26117000Y44885000D01*
G75*
G02*
X26367000Y45135000I250000J0D01*
G01*
X27617000Y45135000D01*
G75*
G02*
X27867000Y44885000I0J-250000D01*
G01*
X27867000Y44135000D01*
G75*
G02*
X27617000Y43885000I-250000J0D01*
G01*
G37*
G04 #@! TD.AperFunction*
G04 #@! TD*
G04 #@! TO.P,C4,2*
G04 #@! TO.N,GND*
G04 #@! TA.AperFunction,SMDPad,CuDef*
G36*
G01*
X29903000Y43885000D02*
X28653000Y43885000D01*
G75*
G02*
X28403000Y44135000I0J250000D01*
G01*
X28403000Y44885000D01*
G75*
G02*
X28653000Y45135000I250000J0D01*
G01*
X29903000Y45135000D01*
G75*
G02*
X30153000Y44885000I0J-250000D01*
G01*
X30153000Y44135000D01*
G75*
G02*
X29903000Y43885000I-250000J0D01*
G01*
G37*
G04 #@! TD.AperFunction*
G04 #@! TO.P,C4,1*
G04 #@! TO.N,+5V*
G04 #@! TA.AperFunction,SMDPad,CuDef*
G36*
G01*
X29903000Y41085000D02*
X28653000Y41085000D01*
G75*
G02*
X28403000Y41335000I0J250000D01*
G01*
X28403000Y42085000D01*
G75*
G02*
X28653000Y42335000I250000J0D01*
G01*
X29903000Y42335000D01*
G75*
G02*
X30153000Y42085000I0J-250000D01*
G01*
X30153000Y41335000D01*
G75*
G02*
X29903000Y41085000I-250000J0D01*
G01*
G37*
G04 #@! TD.AperFunction*
G04 #@! TD*
G04 #@! TO.P,C5,1*
G04 #@! TO.N,Net-(C5-Pad1)*
G04 #@! TA.AperFunction,SMDPad,CuDef*
G36*
G01*
X4912000Y16231500D02*
X4912000Y15886500D01*
G75*
G02*
X4764500Y15739000I-147500J0D01*
G01*
X4469500Y15739000D01*
G75*
G02*
X4322000Y15886500I0J147500D01*
G01*
X4322000Y16231500D01*
G75*
G02*
X4469500Y16379000I147500J0D01*
G01*
X4764500Y16379000D01*
G75*
G02*
X4912000Y16231500I0J-147500D01*
G01*
G37*
G04 #@! TD.AperFunction*
G04 #@! TO.P,C5,2*
G04 #@! TO.N,/INPUT*
G04 #@! TA.AperFunction,SMDPad,CuDef*
G36*
G01*
X3942000Y16231500D02*
X3942000Y15886500D01*
G75*
G02*
X3794500Y15739000I-147500J0D01*
G01*
X3499500Y15739000D01*
G75*
G02*
X3352000Y15886500I0J147500D01*
G01*
X3352000Y16231500D01*
G75*
G02*
X3499500Y16379000I147500J0D01*
G01*
X3794500Y16379000D01*
G75*
G02*
X3942000Y16231500I0J-147500D01*
G01*
G37*
G04 #@! TD.AperFunction*
G04 #@! TD*
G04 #@! TO.P,C6,1*
G04 #@! TO.N,+5V*
G04 #@! TA.AperFunction,SMDPad,CuDef*
G36*
G01*
X20639750Y37985000D02*
X21152250Y37985000D01*
G75*
G02*
X21371000Y37766250I0J-218750D01*
G01*
X21371000Y37328750D01*
G75*
G02*
X21152250Y37110000I-218750J0D01*
G01*
X20639750Y37110000D01*
G75*
G02*
X20421000Y37328750I0J218750D01*
G01*
X20421000Y37766250D01*
G75*
G02*
X20639750Y37985000I218750J0D01*
G01*
G37*
G04 #@! TD.AperFunction*
G04 #@! TO.P,C6,2*
G04 #@! TO.N,GND*
G04 #@! TA.AperFunction,SMDPad,CuDef*
G36*
G01*
X20639750Y36410000D02*
X21152250Y36410000D01*
G75*
G02*
X21371000Y36191250I0J-218750D01*
G01*
X21371000Y35753750D01*
G75*
G02*
X21152250Y35535000I-218750J0D01*
G01*
X20639750Y35535000D01*
G75*
G02*
X20421000Y35753750I0J218750D01*
G01*
X20421000Y36191250D01*
G75*
G02*
X20639750Y36410000I218750J0D01*
G01*
G37*
G04 #@! TD.AperFunction*
G04 #@! TD*
G04 #@! TO.P,C7,2*
G04 #@! TO.N,GND*
G04 #@! TA.AperFunction,SMDPad,CuDef*
G36*
G01*
X39534000Y41583750D02*
X39534000Y42096250D01*
G75*
G02*
X39752750Y42315000I218750J0D01*
G01*
X40190250Y42315000D01*
G75*
G02*
X40409000Y42096250I0J-218750D01*
G01*
X40409000Y41583750D01*
G75*
G02*
X40190250Y41365000I-218750J0D01*
G01*
X39752750Y41365000D01*
G75*
G02*
X39534000Y41583750I0J218750D01*
G01*
G37*
G04 #@! TD.AperFunction*
G04 #@! TO.P,C7,1*
G04 #@! TO.N,+5V*
G04 #@! TA.AperFunction,SMDPad,CuDef*
G36*
G01*
X37959000Y41583750D02*
X37959000Y42096250D01*
G75*
G02*
X38177750Y42315000I218750J0D01*
G01*
X38615250Y42315000D01*
G75*
G02*
X38834000Y42096250I0J-218750D01*
G01*
X38834000Y41583750D01*
G75*
G02*
X38615250Y41365000I-218750J0D01*
G01*
X38177750Y41365000D01*
G75*
G02*
X37959000Y41583750I0J218750D01*
G01*
G37*
G04 #@! TD.AperFunction*
G04 #@! TD*
G04 #@! TO.P,C8,1*
G04 #@! TO.N,VPP*
G04 #@! TA.AperFunction,SMDPad,CuDef*
G36*
G01*
X16423000Y29953750D02*
X16423000Y30866250D01*
G75*
G02*
X16666750Y31110000I243750J0D01*
G01*
X17154250Y31110000D01*
G75*
G02*
X17398000Y30866250I0J-243750D01*
G01*
X17398000Y29953750D01*
G75*
G02*
X17154250Y29710000I-243750J0D01*
G01*
X16666750Y29710000D01*
G75*
G02*
X16423000Y29953750I0J243750D01*
G01*
G37*
G04 #@! TD.AperFunction*
G04 #@! TO.P,C8,2*
G04 #@! TO.N,+3V3*
G04 #@! TA.AperFunction,SMDPad,CuDef*
G36*
G01*
X18298000Y29953750D02*
X18298000Y30866250D01*
G75*
G02*
X18541750Y31110000I243750J0D01*
G01*
X19029250Y31110000D01*
G75*
G02*
X19273000Y30866250I0J-243750D01*
G01*
X19273000Y29953750D01*
G75*
G02*
X19029250Y29710000I-243750J0D01*
G01*
X18541750Y29710000D01*
G75*
G02*
X18298000Y29953750I0J243750D01*
G01*
G37*
G04 #@! TD.AperFunction*
G04 #@! TD*
G04 #@! TO.P,C9,1*
G04 #@! TO.N,+3V3*
G04 #@! TA.AperFunction,SMDPad,CuDef*
G36*
G01*
X21352250Y31779000D02*
X20439750Y31779000D01*
G75*
G02*
X20196000Y32022750I0J243750D01*
G01*
X20196000Y32510250D01*
G75*
G02*
X20439750Y32754000I243750J0D01*
G01*
X21352250Y32754000D01*
G75*
G02*
X21596000Y32510250I0J-243750D01*
G01*
X21596000Y32022750D01*
G75*
G02*
X21352250Y31779000I-243750J0D01*
G01*
G37*
G04 #@! TD.AperFunction*
G04 #@! TO.P,C9,2*
G04 #@! TO.N,GND*
G04 #@! TA.AperFunction,SMDPad,CuDef*
G36*
G01*
X21352250Y33654000D02*
X20439750Y33654000D01*
G75*
G02*
X20196000Y33897750I0J243750D01*
G01*
X20196000Y34385250D01*
G75*
G02*
X20439750Y34629000I243750J0D01*
G01*
X21352250Y34629000D01*
G75*
G02*
X21596000Y34385250I0J-243750D01*
G01*
X21596000Y33897750D01*
G75*
G02*
X21352250Y33654000I-243750J0D01*
G01*
G37*
G04 #@! TD.AperFunction*
G04 #@! TD*
G04 #@! TO.P,C10,2*
G04 #@! TO.N,GND*
G04 #@! TA.AperFunction,SMDPad,CuDef*
G36*
G01*
X42290000Y42296250D02*
X42290000Y41383750D01*
G75*
G02*
X42046250Y41140000I-243750J0D01*
G01*
X41558750Y41140000D01*
G75*
G02*
X41315000Y41383750I0J243750D01*
G01*
X41315000Y42296250D01*
G75*
G02*
X41558750Y42540000I243750J0D01*
G01*
X42046250Y42540000D01*
G75*
G02*
X42290000Y42296250I0J-243750D01*
G01*
G37*
G04 #@! TD.AperFunction*
G04 #@! TO.P,C10,1*
G04 #@! TO.N,+2V5*
G04 #@! TA.AperFunction,SMDPad,CuDef*
G36*
G01*
X44165000Y42296250D02*
X44165000Y41383750D01*
G75*
G02*
X43921250Y41140000I-243750J0D01*
G01*
X43433750Y41140000D01*
G75*
G02*
X43190000Y41383750I0J243750D01*
G01*
X43190000Y42296250D01*
G75*
G02*
X43433750Y42540000I243750J0D01*
G01*
X43921250Y42540000D01*
G75*
G02*
X44165000Y42296250I0J-243750D01*
G01*
G37*
G04 #@! TD.AperFunction*
G04 #@! TD*
G04 #@! TO.P,C11,1*
G04 #@! TO.N,+3V3*
G04 #@! TA.AperFunction,SMDPad,CuDef*
G36*
G01*
X15834000Y20041500D02*
X15834000Y19696500D01*
G75*
G02*
X15686500Y19549000I-147500J0D01*
G01*
X15391500Y19549000D01*
G75*
G02*
X15244000Y19696500I0J147500D01*
G01*
X15244000Y20041500D01*
G75*
G02*
X15391500Y20189000I147500J0D01*
G01*
X15686500Y20189000D01*
G75*
G02*
X15834000Y20041500I0J-147500D01*
G01*
G37*
G04 #@! TD.AperFunction*
G04 #@! TO.P,C11,2*
G04 #@! TO.N,GND*
G04 #@! TA.AperFunction,SMDPad,CuDef*
G36*
G01*
X14864000Y20041500D02*
X14864000Y19696500D01*
G75*
G02*
X14716500Y19549000I-147500J0D01*
G01*
X14421500Y19549000D01*
G75*
G02*
X14274000Y19696500I0J147500D01*
G01*
X14274000Y20041500D01*
G75*
G02*
X14421500Y20189000I147500J0D01*
G01*
X14716500Y20189000D01*
G75*
G02*
X14864000Y20041500I0J-147500D01*
G01*
G37*
G04 #@! TD.AperFunction*
G04 #@! TD*
G04 #@! TO.P,C12,2*
G04 #@! TO.N,GND*
G04 #@! TA.AperFunction,SMDPad,CuDef*
G36*
G01*
X14864000Y21057500D02*
X14864000Y20712500D01*
G75*
G02*
X14716500Y20565000I-147500J0D01*
G01*
X14421500Y20565000D01*
G75*
G02*
X14274000Y20712500I0J147500D01*
G01*
X14274000Y21057500D01*
G75*
G02*
X14421500Y21205000I147500J0D01*
G01*
X14716500Y21205000D01*
G75*
G02*
X14864000Y21057500I0J-147500D01*
G01*
G37*
G04 #@! TD.AperFunction*
G04 #@! TO.P,C12,1*
G04 #@! TO.N,+3V3*
G04 #@! TA.AperFunction,SMDPad,CuDef*
G36*
G01*
X15834000Y21057500D02*
X15834000Y20712500D01*
G75*
G02*
X15686500Y20565000I-147500J0D01*
G01*
X15391500Y20565000D01*
G75*
G02*
X15244000Y20712500I0J147500D01*
G01*
X15244000Y21057500D01*
G75*
G02*
X15391500Y21205000I147500J0D01*
G01*
X15686500Y21205000D01*
G75*
G02*
X15834000Y21057500I0J-147500D01*
G01*
G37*
G04 #@! TD.AperFunction*
G04 #@! TD*
G04 #@! TO.P,C13,2*
G04 #@! TO.N,GND*
G04 #@! TA.AperFunction,SMDPad,CuDef*
G36*
G01*
X14704000Y22411250D02*
X14704000Y21898750D01*
G75*
G02*
X14485250Y21680000I-218750J0D01*
G01*
X14047750Y21680000D01*
G75*
G02*
X13829000Y21898750I0J218750D01*
G01*
X13829000Y22411250D01*
G75*
G02*
X14047750Y22630000I218750J0D01*
G01*
X14485250Y22630000D01*
G75*
G02*
X14704000Y22411250I0J-218750D01*
G01*
G37*
G04 #@! TD.AperFunction*
G04 #@! TO.P,C13,1*
G04 #@! TO.N,+3V3*
G04 #@! TA.AperFunction,SMDPad,CuDef*
G36*
G01*
X16279000Y22411250D02*
X16279000Y21898750D01*
G75*
G02*
X16060250Y21680000I-218750J0D01*
G01*
X15622750Y21680000D01*
G75*
G02*
X15404000Y21898750I0J218750D01*
G01*
X15404000Y22411250D01*
G75*
G02*
X15622750Y22630000I218750J0D01*
G01*
X16060250Y22630000D01*
G75*
G02*
X16279000Y22411250I0J-218750D01*
G01*
G37*
G04 #@! TD.AperFunction*
G04 #@! TD*
G04 #@! TO.P,C14,2*
G04 #@! TO.N,/SET*
G04 #@! TA.AperFunction,SMDPad,CuDef*
G36*
G01*
X15499000Y11024500D02*
X15499000Y10679500D01*
G75*
G02*
X15351500Y10532000I-147500J0D01*
G01*
X15056500Y10532000D01*
G75*
G02*
X14909000Y10679500I0J147500D01*
G01*
X14909000Y11024500D01*
G75*
G02*
X15056500Y11172000I147500J0D01*
G01*
X15351500Y11172000D01*
G75*
G02*
X15499000Y11024500I0J-147500D01*
G01*
G37*
G04 #@! TD.AperFunction*
G04 #@! TO.P,C14,1*
G04 #@! TO.N,Net-(C14-Pad1)*
G04 #@! TA.AperFunction,SMDPad,CuDef*
G36*
G01*
X16469000Y11024500D02*
X16469000Y10679500D01*
G75*
G02*
X16321500Y10532000I-147500J0D01*
G01*
X16026500Y10532000D01*
G75*
G02*
X15879000Y10679500I0J147500D01*
G01*
X15879000Y11024500D01*
G75*
G02*
X16026500Y11172000I147500J0D01*
G01*
X16321500Y11172000D01*
G75*
G02*
X16469000Y11024500I0J-147500D01*
G01*
G37*
G04 #@! TD.AperFunction*
G04 #@! TD*
G04 #@! TO.P,C15,1*
G04 #@! TO.N,VPP*
G04 #@! TA.AperFunction,SMDPad,CuDef*
G36*
G01*
X17830000Y24014500D02*
X17830000Y24359500D01*
G75*
G02*
X17977500Y24507000I147500J0D01*
G01*
X18272500Y24507000D01*
G75*
G02*
X18420000Y24359500I0J-147500D01*
G01*
X18420000Y24014500D01*
G75*
G02*
X18272500Y23867000I-147500J0D01*
G01*
X17977500Y23867000D01*
G75*
G02*
X17830000Y24014500I0J147500D01*
G01*
G37*
G04 #@! TD.AperFunction*
G04 #@! TO.P,C15,2*
G04 #@! TO.N,GND*
G04 #@! TA.AperFunction,SMDPad,CuDef*
G36*
G01*
X18800000Y24014500D02*
X18800000Y24359500D01*
G75*
G02*
X18947500Y24507000I147500J0D01*
G01*
X19242500Y24507000D01*
G75*
G02*
X19390000Y24359500I0J-147500D01*
G01*
X19390000Y24014500D01*
G75*
G02*
X19242500Y23867000I-147500J0D01*
G01*
X18947500Y23867000D01*
G75*
G02*
X18800000Y24014500I0J147500D01*
G01*
G37*
G04 #@! TD.AperFunction*
G04 #@! TD*
G04 #@! TO.P,C16,1*
G04 #@! TO.N,VPP*
G04 #@! TA.AperFunction,SMDPad,CuDef*
G36*
G01*
X17385000Y25200750D02*
X17385000Y25713250D01*
G75*
G02*
X17603750Y25932000I218750J0D01*
G01*
X18041250Y25932000D01*
G75*
G02*
X18260000Y25713250I0J-218750D01*
G01*
X18260000Y25200750D01*
G75*
G02*
X18041250Y24982000I-218750J0D01*
G01*
X17603750Y24982000D01*
G75*
G02*
X17385000Y25200750I0J218750D01*
G01*
G37*
G04 #@! TD.AperFunction*
G04 #@! TO.P,C16,2*
G04 #@! TO.N,GND*
G04 #@! TA.AperFunction,SMDPad,CuDef*
G36*
G01*
X18960000Y25200750D02*
X18960000Y25713250D01*
G75*
G02*
X19178750Y25932000I218750J0D01*
G01*
X19616250Y25932000D01*
G75*
G02*
X19835000Y25713250I0J-218750D01*
G01*
X19835000Y25200750D01*
G75*
G02*
X19616250Y24982000I-218750J0D01*
G01*
X19178750Y24982000D01*
G75*
G02*
X18960000Y25200750I0J218750D01*
G01*
G37*
G04 #@! TD.AperFunction*
G04 #@! TD*
G04 #@! TO.P,C18,2*
G04 #@! TO.N,GND*
G04 #@! TA.AperFunction,SMDPad,CuDef*
G36*
G01*
X26294000Y20041500D02*
X26294000Y19696500D01*
G75*
G02*
X26146500Y19549000I-147500J0D01*
G01*
X25851500Y19549000D01*
G75*
G02*
X25704000Y19696500I0J147500D01*
G01*
X25704000Y20041500D01*
G75*
G02*
X25851500Y20189000I147500J0D01*
G01*
X26146500Y20189000D01*
G75*
G02*
X26294000Y20041500I0J-147500D01*
G01*
G37*
G04 #@! TD.AperFunction*
G04 #@! TO.P,C18,1*
G04 #@! TO.N,+3V3*
G04 #@! TA.AperFunction,SMDPad,CuDef*
G36*
G01*
X27264000Y20041500D02*
X27264000Y19696500D01*
G75*
G02*
X27116500Y19549000I-147500J0D01*
G01*
X26821500Y19549000D01*
G75*
G02*
X26674000Y19696500I0J147500D01*
G01*
X26674000Y20041500D01*
G75*
G02*
X26821500Y20189000I147500J0D01*
G01*
X27116500Y20189000D01*
G75*
G02*
X27264000Y20041500I0J-147500D01*
G01*
G37*
G04 #@! TD.AperFunction*
G04 #@! TD*
G04 #@! TO.P,C19,1*
G04 #@! TO.N,+3V3*
G04 #@! TA.AperFunction,SMDPad,CuDef*
G36*
G01*
X27264000Y21057500D02*
X27264000Y20712500D01*
G75*
G02*
X27116500Y20565000I-147500J0D01*
G01*
X26821500Y20565000D01*
G75*
G02*
X26674000Y20712500I0J147500D01*
G01*
X26674000Y21057500D01*
G75*
G02*
X26821500Y21205000I147500J0D01*
G01*
X27116500Y21205000D01*
G75*
G02*
X27264000Y21057500I0J-147500D01*
G01*
G37*
G04 #@! TD.AperFunction*
G04 #@! TO.P,C19,2*
G04 #@! TO.N,GND*
G04 #@! TA.AperFunction,SMDPad,CuDef*
G36*
G01*
X26294000Y21057500D02*
X26294000Y20712500D01*
G75*
G02*
X26146500Y20565000I-147500J0D01*
G01*
X25851500Y20565000D01*
G75*
G02*
X25704000Y20712500I0J147500D01*
G01*
X25704000Y21057500D01*
G75*
G02*
X25851500Y21205000I147500J0D01*
G01*
X26146500Y21205000D01*
G75*
G02*
X26294000Y21057500I0J-147500D01*
G01*
G37*
G04 #@! TD.AperFunction*
G04 #@! TD*
G04 #@! TO.P,C20,2*
G04 #@! TO.N,GND*
G04 #@! TA.AperFunction,SMDPad,CuDef*
G36*
G01*
X26134000Y22411250D02*
X26134000Y21898750D01*
G75*
G02*
X25915250Y21680000I-218750J0D01*
G01*
X25477750Y21680000D01*
G75*
G02*
X25259000Y21898750I0J218750D01*
G01*
X25259000Y22411250D01*
G75*
G02*
X25477750Y22630000I218750J0D01*
G01*
X25915250Y22630000D01*
G75*
G02*
X26134000Y22411250I0J-218750D01*
G01*
G37*
G04 #@! TD.AperFunction*
G04 #@! TO.P,C20,1*
G04 #@! TO.N,+3V3*
G04 #@! TA.AperFunction,SMDPad,CuDef*
G36*
G01*
X27709000Y22411250D02*
X27709000Y21898750D01*
G75*
G02*
X27490250Y21680000I-218750J0D01*
G01*
X27052750Y21680000D01*
G75*
G02*
X26834000Y21898750I0J218750D01*
G01*
X26834000Y22411250D01*
G75*
G02*
X27052750Y22630000I218750J0D01*
G01*
X27490250Y22630000D01*
G75*
G02*
X27709000Y22411250I0J-218750D01*
G01*
G37*
G04 #@! TD.AperFunction*
G04 #@! TD*
G04 #@! TO.P,C21,2*
G04 #@! TO.N,/VBB*
G04 #@! TA.AperFunction,SMDPad,CuDef*
G36*
G01*
X22738000Y22327500D02*
X22738000Y21982500D01*
G75*
G02*
X22590500Y21835000I-147500J0D01*
G01*
X22295500Y21835000D01*
G75*
G02*
X22148000Y21982500I0J147500D01*
G01*
X22148000Y22327500D01*
G75*
G02*
X22295500Y22475000I147500J0D01*
G01*
X22590500Y22475000D01*
G75*
G02*
X22738000Y22327500I0J-147500D01*
G01*
G37*
G04 #@! TD.AperFunction*
G04 #@! TO.P,C21,1*
G04 #@! TO.N,+3V3*
G04 #@! TA.AperFunction,SMDPad,CuDef*
G36*
G01*
X23708000Y22327500D02*
X23708000Y21982500D01*
G75*
G02*
X23560500Y21835000I-147500J0D01*
G01*
X23265500Y21835000D01*
G75*
G02*
X23118000Y21982500I0J147500D01*
G01*
X23118000Y22327500D01*
G75*
G02*
X23265500Y22475000I147500J0D01*
G01*
X23560500Y22475000D01*
G75*
G02*
X23708000Y22327500I0J-147500D01*
G01*
G37*
G04 #@! TD.AperFunction*
G04 #@! TD*
G04 #@! TO.P,C23,1*
G04 #@! TO.N,+3V3*
G04 #@! TA.AperFunction,SMDPad,CuDef*
G36*
G01*
X27482000Y7250500D02*
X27482000Y7595500D01*
G75*
G02*
X27629500Y7743000I147500J0D01*
G01*
X27924500Y7743000D01*
G75*
G02*
X28072000Y7595500I0J-147500D01*
G01*
X28072000Y7250500D01*
G75*
G02*
X27924500Y7103000I-147500J0D01*
G01*
X27629500Y7103000D01*
G75*
G02*
X27482000Y7250500I0J147500D01*
G01*
G37*
G04 #@! TD.AperFunction*
G04 #@! TO.P,C23,2*
G04 #@! TO.N,GND*
G04 #@! TA.AperFunction,SMDPad,CuDef*
G36*
G01*
X28452000Y7250500D02*
X28452000Y7595500D01*
G75*
G02*
X28599500Y7743000I147500J0D01*
G01*
X28894500Y7743000D01*
G75*
G02*
X29042000Y7595500I0J-147500D01*
G01*
X29042000Y7250500D01*
G75*
G02*
X28894500Y7103000I-147500J0D01*
G01*
X28599500Y7103000D01*
G75*
G02*
X28452000Y7250500I0J147500D01*
G01*
G37*
G04 #@! TD.AperFunction*
G04 #@! TD*
G04 #@! TO.P,C24,1*
G04 #@! TO.N,+3V3*
G04 #@! TA.AperFunction,SMDPad,CuDef*
G36*
G01*
X27037000Y5896750D02*
X27037000Y6409250D01*
G75*
G02*
X27255750Y6628000I218750J0D01*
G01*
X27693250Y6628000D01*
G75*
G02*
X27912000Y6409250I0J-218750D01*
G01*
X27912000Y5896750D01*
G75*
G02*
X27693250Y5678000I-218750J0D01*
G01*
X27255750Y5678000D01*
G75*
G02*
X27037000Y5896750I0J218750D01*
G01*
G37*
G04 #@! TD.AperFunction*
G04 #@! TO.P,C24,2*
G04 #@! TO.N,GND*
G04 #@! TA.AperFunction,SMDPad,CuDef*
G36*
G01*
X28612000Y5896750D02*
X28612000Y6409250D01*
G75*
G02*
X28830750Y6628000I218750J0D01*
G01*
X29268250Y6628000D01*
G75*
G02*
X29487000Y6409250I0J-218750D01*
G01*
X29487000Y5896750D01*
G75*
G02*
X29268250Y5678000I-218750J0D01*
G01*
X28830750Y5678000D01*
G75*
G02*
X28612000Y5896750I0J218750D01*
G01*
G37*
G04 #@! TD.AperFunction*
G04 #@! TD*
D13*
G04 #@! TO.P,D1,1*
G04 #@! TO.N,Net-(C1-Pad2)*
X24500000Y50000000D03*
D14*
G04 #@! TO.P,D1,2*
G04 #@! TO.N,Net-(D1-Pad2)*
X24500000Y47460000D03*
G04 #@! TD*
D15*
G04 #@! TO.P,H1,1*
G04 #@! TO.N,GND*
X12500000Y52000000D03*
G04 #@! TD*
G04 #@! TO.P,H2,1*
G04 #@! TO.N,GND*
X51500000Y52000000D03*
G04 #@! TD*
G04 #@! TO.P,H3,1*
G04 #@! TO.N,GND*
X3500000Y-4000000D03*
G04 #@! TD*
G04 #@! TO.P,H4,1*
G04 #@! TO.N,GND*
X42500000Y-4000000D03*
G04 #@! TD*
D16*
G04 #@! TO.P,J1,1*
G04 #@! TO.N,Net-(C1-Pad1)*
X6164000Y40062000D03*
G04 #@! TO.P,J1,2*
G04 #@! TO.N,Net-(C1-Pad2)*
X-36000Y40062000D03*
D17*
G04 #@! TO.P,J1,3*
G04 #@! TO.N,N/C*
X3064000Y35062000D03*
G04 #@! TD*
G04 #@! TA.AperFunction,SMDPad,CuDef*
D18*
G04 #@! TO.P,JP1,1*
G04 #@! TO.N,/VBB*
G36*
X20122000Y22905000D02*
G01*
X20672000Y22905000D01*
X20672000Y22904398D01*
X20696534Y22904398D01*
X20745365Y22899588D01*
X20793490Y22890016D01*
X20840445Y22875772D01*
X20885778Y22856995D01*
X20929051Y22833864D01*
X20969850Y22806604D01*
X21007779Y22775476D01*
X21042476Y22740779D01*
X21073604Y22702850D01*
X21100864Y22662051D01*
X21123995Y22618778D01*
X21142772Y22573445D01*
X21157016Y22526490D01*
X21166588Y22478365D01*
X21171398Y22429534D01*
X21171398Y22405000D01*
X21172000Y22405000D01*
X21172000Y21905000D01*
X21171398Y21905000D01*
X21171398Y21880466D01*
X21166588Y21831635D01*
X21157016Y21783510D01*
X21142772Y21736555D01*
X21123995Y21691222D01*
X21100864Y21647949D01*
X21073604Y21607150D01*
X21042476Y21569221D01*
X21007779Y21534524D01*
X20969850Y21503396D01*
X20929051Y21476136D01*
X20885778Y21453005D01*
X20840445Y21434228D01*
X20793490Y21419984D01*
X20745365Y21410412D01*
X20696534Y21405602D01*
X20672000Y21405602D01*
X20672000Y21405000D01*
X20122000Y21405000D01*
X20122000Y22905000D01*
G37*
G04 #@! TD.AperFunction*
G04 #@! TA.AperFunction,SMDPad,CuDef*
G04 #@! TO.P,JP1,3*
G04 #@! TO.N,VPP*
G36*
X18072000Y21405602D02*
G01*
X18047466Y21405602D01*
X17998635Y21410412D01*
X17950510Y21419984D01*
X17903555Y21434228D01*
X17858222Y21453005D01*
X17814949Y21476136D01*
X17774150Y21503396D01*
X17736221Y21534524D01*
X17701524Y21569221D01*
X17670396Y21607150D01*
X17643136Y21647949D01*
X17620005Y21691222D01*
X17601228Y21736555D01*
X17586984Y21783510D01*
X17577412Y21831635D01*
X17572602Y21880466D01*
X17572602Y21905000D01*
X17572000Y21905000D01*
X17572000Y22405000D01*
X17572602Y22405000D01*
X17572602Y22429534D01*
X17577412Y22478365D01*
X17586984Y22526490D01*
X17601228Y22573445D01*
X17620005Y22618778D01*
X17643136Y22662051D01*
X17670396Y22702850D01*
X17701524Y22740779D01*
X17736221Y22775476D01*
X17774150Y22806604D01*
X17814949Y22833864D01*
X17858222Y22856995D01*
X17903555Y22875772D01*
X17950510Y22890016D01*
X17998635Y22899588D01*
X18047466Y22904398D01*
X18072000Y22904398D01*
X18072000Y22905000D01*
X18622000Y22905000D01*
X18622000Y21405000D01*
X18072000Y21405000D01*
X18072000Y21405602D01*
G37*
G04 #@! TD.AperFunction*
D19*
G04 #@! TO.P,JP1,2*
G04 #@! TO.N,/TERMINATION*
X19372000Y22155000D03*
G04 #@! TD*
D20*
G04 #@! TO.P,L1,1*
G04 #@! TO.N,Net-(C1-Pad2)*
X16384000Y44360000D03*
G04 #@! TO.P,L1,2*
G04 #@! TO.N,Net-(C1-Pad1)*
X16384000Y41860000D03*
G04 #@! TO.P,L1,3*
G04 #@! TO.N,+5V*
X23884000Y41860000D03*
G04 #@! TO.P,L1,4*
G04 #@! TO.N,GND*
X23884000Y44360000D03*
G04 #@! TD*
G04 #@! TO.P,R1,2*
G04 #@! TO.N,Net-(D1-Pad2)*
G04 #@! TA.AperFunction,SMDPad,CuDef*
G36*
G01*
X22262000Y47171750D02*
X22262000Y47684250D01*
G75*
G02*
X22480750Y47903000I218750J0D01*
G01*
X22918250Y47903000D01*
G75*
G02*
X23137000Y47684250I0J-218750D01*
G01*
X23137000Y47171750D01*
G75*
G02*
X22918250Y46953000I-218750J0D01*
G01*
X22480750Y46953000D01*
G75*
G02*
X22262000Y47171750I0J218750D01*
G01*
G37*
G04 #@! TD.AperFunction*
G04 #@! TO.P,R1,1*
G04 #@! TO.N,Net-(C1-Pad1)*
G04 #@! TA.AperFunction,SMDPad,CuDef*
G36*
G01*
X20687000Y47171750D02*
X20687000Y47684250D01*
G75*
G02*
X20905750Y47903000I218750J0D01*
G01*
X21343250Y47903000D01*
G75*
G02*
X21562000Y47684250I0J-218750D01*
G01*
X21562000Y47171750D01*
G75*
G02*
X21343250Y46953000I-218750J0D01*
G01*
X20905750Y46953000D01*
G75*
G02*
X20687000Y47171750I0J218750D01*
G01*
G37*
G04 #@! TD.AperFunction*
G04 #@! TD*
G04 #@! TO.P,R2,1*
G04 #@! TO.N,/INPUT*
G04 #@! TA.AperFunction,SMDPad,CuDef*
G36*
G01*
X2102250Y16358000D02*
X1589750Y16358000D01*
G75*
G02*
X1371000Y16576750I0J218750D01*
G01*
X1371000Y17014250D01*
G75*
G02*
X1589750Y17233000I218750J0D01*
G01*
X2102250Y17233000D01*
G75*
G02*
X2321000Y17014250I0J-218750D01*
G01*
X2321000Y16576750D01*
G75*
G02*
X2102250Y16358000I-218750J0D01*
G01*
G37*
G04 #@! TD.AperFunction*
G04 #@! TO.P,R2,2*
G04 #@! TO.N,GND*
G04 #@! TA.AperFunction,SMDPad,CuDef*
G36*
G01*
X2102250Y17933000D02*
X1589750Y17933000D01*
G75*
G02*
X1371000Y18151750I0J218750D01*
G01*
X1371000Y18589250D01*
G75*
G02*
X1589750Y18808000I218750J0D01*
G01*
X2102250Y18808000D01*
G75*
G02*
X2321000Y18589250I0J-218750D01*
G01*
X2321000Y18151750D01*
G75*
G02*
X2102250Y17933000I-218750J0D01*
G01*
G37*
G04 #@! TD.AperFunction*
G04 #@! TD*
G04 #@! TO.P,R3,2*
G04 #@! TO.N,GND*
G04 #@! TA.AperFunction,SMDPad,CuDef*
G36*
G01*
X1589750Y14185000D02*
X2102250Y14185000D01*
G75*
G02*
X2321000Y13966250I0J-218750D01*
G01*
X2321000Y13528750D01*
G75*
G02*
X2102250Y13310000I-218750J0D01*
G01*
X1589750Y13310000D01*
G75*
G02*
X1371000Y13528750I0J218750D01*
G01*
X1371000Y13966250D01*
G75*
G02*
X1589750Y14185000I218750J0D01*
G01*
G37*
G04 #@! TD.AperFunction*
G04 #@! TO.P,R3,1*
G04 #@! TO.N,/INPUT*
G04 #@! TA.AperFunction,SMDPad,CuDef*
G36*
G01*
X1589750Y15760000D02*
X2102250Y15760000D01*
G75*
G02*
X2321000Y15541250I0J-218750D01*
G01*
X2321000Y15103750D01*
G75*
G02*
X2102250Y14885000I-218750J0D01*
G01*
X1589750Y14885000D01*
G75*
G02*
X1371000Y15103750I0J218750D01*
G01*
X1371000Y15541250D01*
G75*
G02*
X1589750Y15760000I218750J0D01*
G01*
G37*
G04 #@! TD.AperFunction*
G04 #@! TD*
G04 #@! TO.P,R4,1*
G04 #@! TO.N,+3V3*
G04 #@! TA.AperFunction,SMDPad,CuDef*
G36*
G01*
X6161750Y18808000D02*
X6674250Y18808000D01*
G75*
G02*
X6893000Y18589250I0J-218750D01*
G01*
X6893000Y18151750D01*
G75*
G02*
X6674250Y17933000I-218750J0D01*
G01*
X6161750Y17933000D01*
G75*
G02*
X5943000Y18151750I0J218750D01*
G01*
X5943000Y18589250D01*
G75*
G02*
X6161750Y18808000I218750J0D01*
G01*
G37*
G04 #@! TD.AperFunction*
G04 #@! TO.P,R4,2*
G04 #@! TO.N,Net-(C5-Pad1)*
G04 #@! TA.AperFunction,SMDPad,CuDef*
G36*
G01*
X6161750Y17233000D02*
X6674250Y17233000D01*
G75*
G02*
X6893000Y17014250I0J-218750D01*
G01*
X6893000Y16576750D01*
G75*
G02*
X6674250Y16358000I-218750J0D01*
G01*
X6161750Y16358000D01*
G75*
G02*
X5943000Y16576750I0J218750D01*
G01*
X5943000Y17014250D01*
G75*
G02*
X6161750Y17233000I218750J0D01*
G01*
G37*
G04 #@! TD.AperFunction*
G04 #@! TD*
G04 #@! TO.P,R5,2*
G04 #@! TO.N,GND*
G04 #@! TA.AperFunction,SMDPad,CuDef*
G36*
G01*
X6161750Y14185000D02*
X6674250Y14185000D01*
G75*
G02*
X6893000Y13966250I0J-218750D01*
G01*
X6893000Y13528750D01*
G75*
G02*
X6674250Y13310000I-218750J0D01*
G01*
X6161750Y13310000D01*
G75*
G02*
X5943000Y13528750I0J218750D01*
G01*
X5943000Y13966250D01*
G75*
G02*
X6161750Y14185000I218750J0D01*
G01*
G37*
G04 #@! TD.AperFunction*
G04 #@! TO.P,R5,1*
G04 #@! TO.N,Net-(C5-Pad1)*
G04 #@! TA.AperFunction,SMDPad,CuDef*
G36*
G01*
X6161750Y15760000D02*
X6674250Y15760000D01*
G75*
G02*
X6893000Y15541250I0J-218750D01*
G01*
X6893000Y15103750D01*
G75*
G02*
X6674250Y14885000I-218750J0D01*
G01*
X6161750Y14885000D01*
G75*
G02*
X5943000Y15103750I0J218750D01*
G01*
X5943000Y15541250D01*
G75*
G02*
X6161750Y15760000I218750J0D01*
G01*
G37*
G04 #@! TD.AperFunction*
G04 #@! TD*
G04 #@! TO.P,R6,1*
G04 #@! TO.N,VPP*
G04 #@! TA.AperFunction,SMDPad,CuDef*
G36*
G01*
X15310250Y31471000D02*
X14797750Y31471000D01*
G75*
G02*
X14579000Y31689750I0J218750D01*
G01*
X14579000Y32127250D01*
G75*
G02*
X14797750Y32346000I218750J0D01*
G01*
X15310250Y32346000D01*
G75*
G02*
X15529000Y32127250I0J-218750D01*
G01*
X15529000Y31689750D01*
G75*
G02*
X15310250Y31471000I-218750J0D01*
G01*
G37*
G04 #@! TD.AperFunction*
G04 #@! TO.P,R6,2*
G04 #@! TO.N,/1.25V*
G04 #@! TA.AperFunction,SMDPad,CuDef*
G36*
G01*
X15310250Y33046000D02*
X14797750Y33046000D01*
G75*
G02*
X14579000Y33264750I0J218750D01*
G01*
X14579000Y33702250D01*
G75*
G02*
X14797750Y33921000I218750J0D01*
G01*
X15310250Y33921000D01*
G75*
G02*
X15529000Y33702250I0J-218750D01*
G01*
X15529000Y33264750D01*
G75*
G02*
X15310250Y33046000I-218750J0D01*
G01*
G37*
G04 #@! TD.AperFunction*
G04 #@! TD*
G04 #@! TO.P,R7,2*
G04 #@! TO.N,+3V3*
G04 #@! TA.AperFunction,SMDPad,CuDef*
G36*
G01*
X14797750Y29298000D02*
X15310250Y29298000D01*
G75*
G02*
X15529000Y29079250I0J-218750D01*
G01*
X15529000Y28641750D01*
G75*
G02*
X15310250Y28423000I-218750J0D01*
G01*
X14797750Y28423000D01*
G75*
G02*
X14579000Y28641750I0J218750D01*
G01*
X14579000Y29079250D01*
G75*
G02*
X14797750Y29298000I218750J0D01*
G01*
G37*
G04 #@! TD.AperFunction*
G04 #@! TO.P,R7,1*
G04 #@! TO.N,/1.25V*
G04 #@! TA.AperFunction,SMDPad,CuDef*
G36*
G01*
X14797750Y30873000D02*
X15310250Y30873000D01*
G75*
G02*
X15529000Y30654250I0J-218750D01*
G01*
X15529000Y30216750D01*
G75*
G02*
X15310250Y29998000I-218750J0D01*
G01*
X14797750Y29998000D01*
G75*
G02*
X14579000Y30216750I0J218750D01*
G01*
X14579000Y30654250D01*
G75*
G02*
X14797750Y30873000I218750J0D01*
G01*
G37*
G04 #@! TD.AperFunction*
G04 #@! TD*
G04 #@! TO.P,R8,1*
G04 #@! TO.N,+3V3*
G04 #@! TA.AperFunction,SMDPad,CuDef*
G36*
G01*
X8701750Y19570000D02*
X9214250Y19570000D01*
G75*
G02*
X9433000Y19351250I0J-218750D01*
G01*
X9433000Y18913750D01*
G75*
G02*
X9214250Y18695000I-218750J0D01*
G01*
X8701750Y18695000D01*
G75*
G02*
X8483000Y18913750I0J218750D01*
G01*
X8483000Y19351250D01*
G75*
G02*
X8701750Y19570000I218750J0D01*
G01*
G37*
G04 #@! TD.AperFunction*
G04 #@! TO.P,R8,2*
G04 #@! TO.N,/LVPECL_LOW_1V65*
G04 #@! TA.AperFunction,SMDPad,CuDef*
G36*
G01*
X8701750Y17995000D02*
X9214250Y17995000D01*
G75*
G02*
X9433000Y17776250I0J-218750D01*
G01*
X9433000Y17338750D01*
G75*
G02*
X9214250Y17120000I-218750J0D01*
G01*
X8701750Y17120000D01*
G75*
G02*
X8483000Y17338750I0J218750D01*
G01*
X8483000Y17776250D01*
G75*
G02*
X8701750Y17995000I218750J0D01*
G01*
G37*
G04 #@! TD.AperFunction*
G04 #@! TD*
G04 #@! TO.P,R9,2*
G04 #@! TO.N,GND*
G04 #@! TA.AperFunction,SMDPad,CuDef*
G36*
G01*
X8701750Y13169000D02*
X9214250Y13169000D01*
G75*
G02*
X9433000Y12950250I0J-218750D01*
G01*
X9433000Y12512750D01*
G75*
G02*
X9214250Y12294000I-218750J0D01*
G01*
X8701750Y12294000D01*
G75*
G02*
X8483000Y12512750I0J218750D01*
G01*
X8483000Y12950250D01*
G75*
G02*
X8701750Y13169000I218750J0D01*
G01*
G37*
G04 #@! TD.AperFunction*
G04 #@! TO.P,R9,1*
G04 #@! TO.N,/LVPECL_LOW_1V65*
G04 #@! TA.AperFunction,SMDPad,CuDef*
G36*
G01*
X8701750Y14744000D02*
X9214250Y14744000D01*
G75*
G02*
X9433000Y14525250I0J-218750D01*
G01*
X9433000Y14087750D01*
G75*
G02*
X9214250Y13869000I-218750J0D01*
G01*
X8701750Y13869000D01*
G75*
G02*
X8483000Y14087750I0J218750D01*
G01*
X8483000Y14525250D01*
G75*
G02*
X8701750Y14744000I218750J0D01*
G01*
G37*
G04 #@! TD.AperFunction*
G04 #@! TD*
G04 #@! TO.P,R12,1*
G04 #@! TO.N,+3V3*
G04 #@! TA.AperFunction,SMDPad,CuDef*
G36*
G01*
X10987750Y22110000D02*
X11500250Y22110000D01*
G75*
G02*
X11719000Y21891250I0J-218750D01*
G01*
X11719000Y21453750D01*
G75*
G02*
X11500250Y21235000I-218750J0D01*
G01*
X10987750Y21235000D01*
G75*
G02*
X10769000Y21453750I0J218750D01*
G01*
X10769000Y21891250D01*
G75*
G02*
X10987750Y22110000I218750J0D01*
G01*
G37*
G04 #@! TD.AperFunction*
G04 #@! TO.P,R12,2*
G04 #@! TO.N,/SET*
G04 #@! TA.AperFunction,SMDPad,CuDef*
G36*
G01*
X10987750Y20535000D02*
X11500250Y20535000D01*
G75*
G02*
X11719000Y20316250I0J-218750D01*
G01*
X11719000Y19878750D01*
G75*
G02*
X11500250Y19660000I-218750J0D01*
G01*
X10987750Y19660000D01*
G75*
G02*
X10769000Y19878750I0J218750D01*
G01*
X10769000Y20316250D01*
G75*
G02*
X10987750Y20535000I218750J0D01*
G01*
G37*
G04 #@! TD.AperFunction*
G04 #@! TD*
G04 #@! TO.P,R13,2*
G04 #@! TO.N,GND*
G04 #@! TA.AperFunction,SMDPad,CuDef*
G36*
G01*
X14896000Y12500750D02*
X14896000Y13013250D01*
G75*
G02*
X15114750Y13232000I218750J0D01*
G01*
X15552250Y13232000D01*
G75*
G02*
X15771000Y13013250I0J-218750D01*
G01*
X15771000Y12500750D01*
G75*
G02*
X15552250Y12282000I-218750J0D01*
G01*
X15114750Y12282000D01*
G75*
G02*
X14896000Y12500750I0J218750D01*
G01*
G37*
G04 #@! TD.AperFunction*
G04 #@! TO.P,R13,1*
G04 #@! TO.N,/SET*
G04 #@! TA.AperFunction,SMDPad,CuDef*
G36*
G01*
X13321000Y12500750D02*
X13321000Y13013250D01*
G75*
G02*
X13539750Y13232000I218750J0D01*
G01*
X13977250Y13232000D01*
G75*
G02*
X14196000Y13013250I0J-218750D01*
G01*
X14196000Y12500750D01*
G75*
G02*
X13977250Y12282000I-218750J0D01*
G01*
X13539750Y12282000D01*
G75*
G02*
X13321000Y12500750I0J218750D01*
G01*
G37*
G04 #@! TD.AperFunction*
G04 #@! TD*
G04 #@! TO.P,R14,1*
G04 #@! TO.N,/TERMINATION*
G04 #@! TA.AperFunction,SMDPad,CuDef*
G36*
G01*
X19628250Y13818000D02*
X19115750Y13818000D01*
G75*
G02*
X18897000Y14036750I0J218750D01*
G01*
X18897000Y14474250D01*
G75*
G02*
X19115750Y14693000I218750J0D01*
G01*
X19628250Y14693000D01*
G75*
G02*
X19847000Y14474250I0J-218750D01*
G01*
X19847000Y14036750D01*
G75*
G02*
X19628250Y13818000I-218750J0D01*
G01*
G37*
G04 #@! TD.AperFunction*
G04 #@! TO.P,R14,2*
G04 #@! TO.N,/~Q*
G04 #@! TA.AperFunction,SMDPad,CuDef*
G36*
G01*
X19628250Y15393000D02*
X19115750Y15393000D01*
G75*
G02*
X18897000Y15611750I0J218750D01*
G01*
X18897000Y16049250D01*
G75*
G02*
X19115750Y16268000I218750J0D01*
G01*
X19628250Y16268000D01*
G75*
G02*
X19847000Y16049250I0J-218750D01*
G01*
X19847000Y15611750D01*
G75*
G02*
X19628250Y15393000I-218750J0D01*
G01*
G37*
G04 #@! TD.AperFunction*
G04 #@! TD*
G04 #@! TO.P,R15,1*
G04 #@! TO.N,/TERMINATION*
G04 #@! TA.AperFunction,SMDPad,CuDef*
G36*
G01*
X19115750Y19316000D02*
X19628250Y19316000D01*
G75*
G02*
X19847000Y19097250I0J-218750D01*
G01*
X19847000Y18659750D01*
G75*
G02*
X19628250Y18441000I-218750J0D01*
G01*
X19115750Y18441000D01*
G75*
G02*
X18897000Y18659750I0J218750D01*
G01*
X18897000Y19097250D01*
G75*
G02*
X19115750Y19316000I218750J0D01*
G01*
G37*
G04 #@! TD.AperFunction*
G04 #@! TO.P,R15,2*
G04 #@! TO.N,/Q*
G04 #@! TA.AperFunction,SMDPad,CuDef*
G36*
G01*
X19115750Y17741000D02*
X19628250Y17741000D01*
G75*
G02*
X19847000Y17522250I0J-218750D01*
G01*
X19847000Y17084750D01*
G75*
G02*
X19628250Y16866000I-218750J0D01*
G01*
X19115750Y16866000D01*
G75*
G02*
X18897000Y17084750I0J218750D01*
G01*
X18897000Y17522250D01*
G75*
G02*
X19115750Y17741000I218750J0D01*
G01*
G37*
G04 #@! TD.AperFunction*
G04 #@! TD*
G04 #@! TO.P,R16,1*
G04 #@! TO.N,Net-(C14-Pad1)*
G04 #@! TA.AperFunction,SMDPad,CuDef*
G36*
G01*
X17850250Y10516000D02*
X17337750Y10516000D01*
G75*
G02*
X17119000Y10734750I0J218750D01*
G01*
X17119000Y11172250D01*
G75*
G02*
X17337750Y11391000I218750J0D01*
G01*
X17850250Y11391000D01*
G75*
G02*
X18069000Y11172250I0J-218750D01*
G01*
X18069000Y10734750D01*
G75*
G02*
X17850250Y10516000I-218750J0D01*
G01*
G37*
G04 #@! TD.AperFunction*
G04 #@! TO.P,R16,2*
G04 #@! TO.N,GND*
G04 #@! TA.AperFunction,SMDPad,CuDef*
G36*
G01*
X17850250Y12091000D02*
X17337750Y12091000D01*
G75*
G02*
X17119000Y12309750I0J218750D01*
G01*
X17119000Y12747250D01*
G75*
G02*
X17337750Y12966000I218750J0D01*
G01*
X17850250Y12966000D01*
G75*
G02*
X18069000Y12747250I0J-218750D01*
G01*
X18069000Y12309750D01*
G75*
G02*
X17850250Y12091000I-218750J0D01*
G01*
G37*
G04 #@! TD.AperFunction*
G04 #@! TD*
G04 #@! TO.P,R17,2*
G04 #@! TO.N,Net-(C14-Pad1)*
G04 #@! TA.AperFunction,SMDPad,CuDef*
G36*
G01*
X19784000Y10981250D02*
X19784000Y10468750D01*
G75*
G02*
X19565250Y10250000I-218750J0D01*
G01*
X19127750Y10250000D01*
G75*
G02*
X18909000Y10468750I0J218750D01*
G01*
X18909000Y10981250D01*
G75*
G02*
X19127750Y11200000I218750J0D01*
G01*
X19565250Y11200000D01*
G75*
G02*
X19784000Y10981250I0J-218750D01*
G01*
G37*
G04 #@! TD.AperFunction*
G04 #@! TO.P,R17,1*
G04 #@! TO.N,Net-(C17-Pad1)*
G04 #@! TA.AperFunction,SMDPad,CuDef*
G36*
G01*
X21359000Y10981250D02*
X21359000Y10468750D01*
G75*
G02*
X21140250Y10250000I-218750J0D01*
G01*
X20702750Y10250000D01*
G75*
G02*
X20484000Y10468750I0J218750D01*
G01*
X20484000Y10981250D01*
G75*
G02*
X20702750Y11200000I218750J0D01*
G01*
X21140250Y11200000D01*
G75*
G02*
X21359000Y10981250I0J-218750D01*
G01*
G37*
G04 #@! TD.AperFunction*
G04 #@! TD*
G04 #@! TO.P,R18,2*
G04 #@! TO.N,Net-(C17-Pad1)*
G04 #@! TA.AperFunction,SMDPad,CuDef*
G36*
G01*
X24356000Y10981250D02*
X24356000Y10468750D01*
G75*
G02*
X24137250Y10250000I-218750J0D01*
G01*
X23699750Y10250000D01*
G75*
G02*
X23481000Y10468750I0J218750D01*
G01*
X23481000Y10981250D01*
G75*
G02*
X23699750Y11200000I218750J0D01*
G01*
X24137250Y11200000D01*
G75*
G02*
X24356000Y10981250I0J-218750D01*
G01*
G37*
G04 #@! TD.AperFunction*
G04 #@! TO.P,R18,1*
G04 #@! TO.N,Net-(R18-Pad1)*
G04 #@! TA.AperFunction,SMDPad,CuDef*
G36*
G01*
X25931000Y10981250D02*
X25931000Y10468750D01*
G75*
G02*
X25712250Y10250000I-218750J0D01*
G01*
X25274750Y10250000D01*
G75*
G02*
X25056000Y10468750I0J218750D01*
G01*
X25056000Y10981250D01*
G75*
G02*
X25274750Y11200000I218750J0D01*
G01*
X25712250Y11200000D01*
G75*
G02*
X25931000Y10981250I0J-218750D01*
G01*
G37*
G04 #@! TD.AperFunction*
G04 #@! TD*
G04 #@! TO.P,R19,1*
G04 #@! TO.N,/OUTPUT*
G04 #@! TA.AperFunction,SMDPad,CuDef*
G36*
G01*
X31773000Y17331250D02*
X31773000Y16818750D01*
G75*
G02*
X31554250Y16600000I-218750J0D01*
G01*
X31116750Y16600000D01*
G75*
G02*
X30898000Y16818750I0J218750D01*
G01*
X30898000Y17331250D01*
G75*
G02*
X31116750Y17550000I218750J0D01*
G01*
X31554250Y17550000D01*
G75*
G02*
X31773000Y17331250I0J-218750D01*
G01*
G37*
G04 #@! TD.AperFunction*
G04 #@! TO.P,R19,2*
G04 #@! TO.N,Net-(R19-Pad2)*
G04 #@! TA.AperFunction,SMDPad,CuDef*
G36*
G01*
X30198000Y17331250D02*
X30198000Y16818750D01*
G75*
G02*
X29979250Y16600000I-218750J0D01*
G01*
X29541750Y16600000D01*
G75*
G02*
X29323000Y16818750I0J218750D01*
G01*
X29323000Y17331250D01*
G75*
G02*
X29541750Y17550000I218750J0D01*
G01*
X29979250Y17550000D01*
G75*
G02*
X30198000Y17331250I0J-218750D01*
G01*
G37*
G04 #@! TD.AperFunction*
G04 #@! TD*
G04 #@! TO.P,R20,1*
G04 #@! TO.N,/BUFFEREDOUT*
G04 #@! TA.AperFunction,SMDPad,CuDef*
G36*
G01*
X48092000Y26833500D02*
X48092000Y26488500D01*
G75*
G02*
X47944500Y26341000I-147500J0D01*
G01*
X47649500Y26341000D01*
G75*
G02*
X47502000Y26488500I0J147500D01*
G01*
X47502000Y26833500D01*
G75*
G02*
X47649500Y26981000I147500J0D01*
G01*
X47944500Y26981000D01*
G75*
G02*
X48092000Y26833500I0J-147500D01*
G01*
G37*
G04 #@! TD.AperFunction*
G04 #@! TO.P,R20,2*
G04 #@! TO.N,Net-(R20-Pad2)*
G04 #@! TA.AperFunction,SMDPad,CuDef*
G36*
G01*
X47122000Y26833500D02*
X47122000Y26488500D01*
G75*
G02*
X46974500Y26341000I-147500J0D01*
G01*
X46679500Y26341000D01*
G75*
G02*
X46532000Y26488500I0J147500D01*
G01*
X46532000Y26833500D01*
G75*
G02*
X46679500Y26981000I147500J0D01*
G01*
X46974500Y26981000D01*
G75*
G02*
X47122000Y26833500I0J-147500D01*
G01*
G37*
G04 #@! TD.AperFunction*
G04 #@! TD*
G04 #@! TO.P,R21,2*
G04 #@! TO.N,Net-(R21-Pad2)*
G04 #@! TA.AperFunction,SMDPad,CuDef*
G36*
G01*
X47122000Y24933500D02*
X47122000Y24588500D01*
G75*
G02*
X46974500Y24441000I-147500J0D01*
G01*
X46679500Y24441000D01*
G75*
G02*
X46532000Y24588500I0J147500D01*
G01*
X46532000Y24933500D01*
G75*
G02*
X46679500Y25081000I147500J0D01*
G01*
X46974500Y25081000D01*
G75*
G02*
X47122000Y24933500I0J-147500D01*
G01*
G37*
G04 #@! TD.AperFunction*
G04 #@! TO.P,R21,1*
G04 #@! TO.N,/BUFFEREDOUT*
G04 #@! TA.AperFunction,SMDPad,CuDef*
G36*
G01*
X48092000Y24933500D02*
X48092000Y24588500D01*
G75*
G02*
X47944500Y24441000I-147500J0D01*
G01*
X47649500Y24441000D01*
G75*
G02*
X47502000Y24588500I0J147500D01*
G01*
X47502000Y24933500D01*
G75*
G02*
X47649500Y25081000I147500J0D01*
G01*
X47944500Y25081000D01*
G75*
G02*
X48092000Y24933500I0J-147500D01*
G01*
G37*
G04 #@! TD.AperFunction*
G04 #@! TD*
G04 #@! TO.P,R22,1*
G04 #@! TO.N,/BUFFEREDOUT*
G04 #@! TA.AperFunction,SMDPad,CuDef*
G36*
G01*
X48092000Y23277500D02*
X48092000Y22932500D01*
G75*
G02*
X47944500Y22785000I-147500J0D01*
G01*
X47649500Y22785000D01*
G75*
G02*
X47502000Y22932500I0J147500D01*
G01*
X47502000Y23277500D01*
G75*
G02*
X47649500Y23425000I147500J0D01*
G01*
X47944500Y23425000D01*
G75*
G02*
X48092000Y23277500I0J-147500D01*
G01*
G37*
G04 #@! TD.AperFunction*
G04 #@! TO.P,R22,2*
G04 #@! TO.N,Net-(R22-Pad2)*
G04 #@! TA.AperFunction,SMDPad,CuDef*
G36*
G01*
X47122000Y23277500D02*
X47122000Y22932500D01*
G75*
G02*
X46974500Y22785000I-147500J0D01*
G01*
X46679500Y22785000D01*
G75*
G02*
X46532000Y22932500I0J147500D01*
G01*
X46532000Y23277500D01*
G75*
G02*
X46679500Y23425000I147500J0D01*
G01*
X46974500Y23425000D01*
G75*
G02*
X47122000Y23277500I0J-147500D01*
G01*
G37*
G04 #@! TD.AperFunction*
G04 #@! TD*
G04 #@! TO.P,R23,2*
G04 #@! TO.N,Net-(R23-Pad2)*
G04 #@! TA.AperFunction,SMDPad,CuDef*
G36*
G01*
X47122000Y21377500D02*
X47122000Y21032500D01*
G75*
G02*
X46974500Y20885000I-147500J0D01*
G01*
X46679500Y20885000D01*
G75*
G02*
X46532000Y21032500I0J147500D01*
G01*
X46532000Y21377500D01*
G75*
G02*
X46679500Y21525000I147500J0D01*
G01*
X46974500Y21525000D01*
G75*
G02*
X47122000Y21377500I0J-147500D01*
G01*
G37*
G04 #@! TD.AperFunction*
G04 #@! TO.P,R23,1*
G04 #@! TO.N,/BUFFEREDOUT*
G04 #@! TA.AperFunction,SMDPad,CuDef*
G36*
G01*
X48092000Y21377500D02*
X48092000Y21032500D01*
G75*
G02*
X47944500Y20885000I-147500J0D01*
G01*
X47649500Y20885000D01*
G75*
G02*
X47502000Y21032500I0J147500D01*
G01*
X47502000Y21377500D01*
G75*
G02*
X47649500Y21525000I147500J0D01*
G01*
X47944500Y21525000D01*
G75*
G02*
X48092000Y21377500I0J-147500D01*
G01*
G37*
G04 #@! TD.AperFunction*
G04 #@! TD*
G04 #@! TO.P,R24,1*
G04 #@! TO.N,/BUFFEREDOUT*
G04 #@! TA.AperFunction,SMDPad,CuDef*
G36*
G01*
X48092000Y19721500D02*
X48092000Y19376500D01*
G75*
G02*
X47944500Y19229000I-147500J0D01*
G01*
X47649500Y19229000D01*
G75*
G02*
X47502000Y19376500I0J147500D01*
G01*
X47502000Y19721500D01*
G75*
G02*
X47649500Y19869000I147500J0D01*
G01*
X47944500Y19869000D01*
G75*
G02*
X48092000Y19721500I0J-147500D01*
G01*
G37*
G04 #@! TD.AperFunction*
G04 #@! TO.P,R24,2*
G04 #@! TO.N,Net-(R24-Pad2)*
G04 #@! TA.AperFunction,SMDPad,CuDef*
G36*
G01*
X47122000Y19721500D02*
X47122000Y19376500D01*
G75*
G02*
X46974500Y19229000I-147500J0D01*
G01*
X46679500Y19229000D01*
G75*
G02*
X46532000Y19376500I0J147500D01*
G01*
X46532000Y19721500D01*
G75*
G02*
X46679500Y19869000I147500J0D01*
G01*
X46974500Y19869000D01*
G75*
G02*
X47122000Y19721500I0J-147500D01*
G01*
G37*
G04 #@! TD.AperFunction*
G04 #@! TD*
G04 #@! TO.P,R25,2*
G04 #@! TO.N,Net-(R25-Pad2)*
G04 #@! TA.AperFunction,SMDPad,CuDef*
G36*
G01*
X47122000Y17821500D02*
X47122000Y17476500D01*
G75*
G02*
X46974500Y17329000I-147500J0D01*
G01*
X46679500Y17329000D01*
G75*
G02*
X46532000Y17476500I0J147500D01*
G01*
X46532000Y17821500D01*
G75*
G02*
X46679500Y17969000I147500J0D01*
G01*
X46974500Y17969000D01*
G75*
G02*
X47122000Y17821500I0J-147500D01*
G01*
G37*
G04 #@! TD.AperFunction*
G04 #@! TO.P,R25,1*
G04 #@! TO.N,/BUFFEREDOUT*
G04 #@! TA.AperFunction,SMDPad,CuDef*
G36*
G01*
X48092000Y17821500D02*
X48092000Y17476500D01*
G75*
G02*
X47944500Y17329000I-147500J0D01*
G01*
X47649500Y17329000D01*
G75*
G02*
X47502000Y17476500I0J147500D01*
G01*
X47502000Y17821500D01*
G75*
G02*
X47649500Y17969000I147500J0D01*
G01*
X47944500Y17969000D01*
G75*
G02*
X48092000Y17821500I0J-147500D01*
G01*
G37*
G04 #@! TD.AperFunction*
G04 #@! TD*
D11*
G04 #@! TO.P,U1,1*
G04 #@! TO.N,+3V3*
X18948000Y32254000D03*
G04 #@! TO.P,U1,2*
G04 #@! TO.N,GND*
X18948000Y33204000D03*
G04 #@! TO.P,U1,3*
X18948000Y34154000D03*
G04 #@! TO.P,U1,4*
G04 #@! TO.N,/1.25V*
X16748000Y34154000D03*
G04 #@! TO.P,U1,5*
G04 #@! TO.N,VPP*
X16748000Y32254000D03*
G04 #@! TD*
D21*
G04 #@! TO.P,U2,1*
G04 #@! TO.N,+5V*
X23334000Y37282000D03*
G04 #@! TO.P,U2,3*
G04 #@! TO.N,+3V3*
X23334000Y32682000D03*
G04 #@! TO.P,U2,2*
G04 #@! TO.N,GND*
X23334000Y34982000D03*
D22*
X29634000Y34982000D03*
G04 #@! TD*
D23*
G04 #@! TO.P,U3,2*
G04 #@! TO.N,GND*
X40962000Y50578000D03*
D24*
X40962000Y44278000D03*
G04 #@! TO.P,U3,3*
G04 #@! TO.N,+2V5*
X43262000Y44278000D03*
G04 #@! TO.P,U3,1*
G04 #@! TO.N,+5V*
X38662000Y44278000D03*
G04 #@! TD*
G04 #@! TO.P,U4,1*
G04 #@! TO.N,/SET*
G04 #@! TA.AperFunction,SMDPad,CuDef*
G36*
G01*
X10334000Y18322000D02*
X10334000Y18622000D01*
G75*
G02*
X10484000Y18772000I150000J0D01*
G01*
X12134000Y18772000D01*
G75*
G02*
X12284000Y18622000I0J-150000D01*
G01*
X12284000Y18322000D01*
G75*
G02*
X12134000Y18172000I-150000J0D01*
G01*
X10484000Y18172000D01*
G75*
G02*
X10334000Y18322000I0J150000D01*
G01*
G37*
G04 #@! TD.AperFunction*
G04 #@! TO.P,U4,2*
G04 #@! TO.N,/LVPECL_LOW_1V65*
G04 #@! TA.AperFunction,SMDPad,CuDef*
G36*
G01*
X10334000Y17052000D02*
X10334000Y17352000D01*
G75*
G02*
X10484000Y17502000I150000J0D01*
G01*
X12134000Y17502000D01*
G75*
G02*
X12284000Y17352000I0J-150000D01*
G01*
X12284000Y17052000D01*
G75*
G02*
X12134000Y16902000I-150000J0D01*
G01*
X10484000Y16902000D01*
G75*
G02*
X10334000Y17052000I0J150000D01*
G01*
G37*
G04 #@! TD.AperFunction*
G04 #@! TO.P,U4,3*
G04 #@! TO.N,Net-(C5-Pad1)*
G04 #@! TA.AperFunction,SMDPad,CuDef*
G36*
G01*
X10334000Y15782000D02*
X10334000Y16082000D01*
G75*
G02*
X10484000Y16232000I150000J0D01*
G01*
X12134000Y16232000D01*
G75*
G02*
X12284000Y16082000I0J-150000D01*
G01*
X12284000Y15782000D01*
G75*
G02*
X12134000Y15632000I-150000J0D01*
G01*
X10484000Y15632000D01*
G75*
G02*
X10334000Y15782000I0J150000D01*
G01*
G37*
G04 #@! TD.AperFunction*
G04 #@! TO.P,U4,4*
G04 #@! TO.N,/LVPECL_LOW_1V65*
G04 #@! TA.AperFunction,SMDPad,CuDef*
G36*
G01*
X10334000Y14512000D02*
X10334000Y14812000D01*
G75*
G02*
X10484000Y14962000I150000J0D01*
G01*
X12134000Y14962000D01*
G75*
G02*
X12284000Y14812000I0J-150000D01*
G01*
X12284000Y14512000D01*
G75*
G02*
X12134000Y14362000I-150000J0D01*
G01*
X10484000Y14362000D01*
G75*
G02*
X10334000Y14512000I0J150000D01*
G01*
G37*
G04 #@! TD.AperFunction*
G04 #@! TO.P,U4,5*
G04 #@! TO.N,GND*
G04 #@! TA.AperFunction,SMDPad,CuDef*
G36*
G01*
X15284000Y14512000D02*
X15284000Y14812000D01*
G75*
G02*
X15434000Y14962000I150000J0D01*
G01*
X17084000Y14962000D01*
G75*
G02*
X17234000Y14812000I0J-150000D01*
G01*
X17234000Y14512000D01*
G75*
G02*
X17084000Y14362000I-150000J0D01*
G01*
X15434000Y14362000D01*
G75*
G02*
X15284000Y14512000I0J150000D01*
G01*
G37*
G04 #@! TD.AperFunction*
G04 #@! TO.P,U4,6*
G04 #@! TO.N,/~Q*
G04 #@! TA.AperFunction,SMDPad,CuDef*
G36*
G01*
X15284000Y15782000D02*
X15284000Y16082000D01*
G75*
G02*
X15434000Y16232000I150000J0D01*
G01*
X17084000Y16232000D01*
G75*
G02*
X17234000Y16082000I0J-150000D01*
G01*
X17234000Y15782000D01*
G75*
G02*
X17084000Y15632000I-150000J0D01*
G01*
X15434000Y15632000D01*
G75*
G02*
X15284000Y15782000I0J150000D01*
G01*
G37*
G04 #@! TD.AperFunction*
G04 #@! TO.P,U4,7*
G04 #@! TO.N,/Q*
G04 #@! TA.AperFunction,SMDPad,CuDef*
G36*
G01*
X15284000Y17052000D02*
X15284000Y17352000D01*
G75*
G02*
X15434000Y17502000I150000J0D01*
G01*
X17084000Y17502000D01*
G75*
G02*
X17234000Y17352000I0J-150000D01*
G01*
X17234000Y17052000D01*
G75*
G02*
X17084000Y16902000I-150000J0D01*
G01*
X15434000Y16902000D01*
G75*
G02*
X15284000Y17052000I0J150000D01*
G01*
G37*
G04 #@! TD.AperFunction*
G04 #@! TO.P,U4,8*
G04 #@! TO.N,+3V3*
G04 #@! TA.AperFunction,SMDPad,CuDef*
G36*
G01*
X15284000Y18322000D02*
X15284000Y18622000D01*
G75*
G02*
X15434000Y18772000I150000J0D01*
G01*
X17084000Y18772000D01*
G75*
G02*
X17234000Y18622000I0J-150000D01*
G01*
X17234000Y18322000D01*
G75*
G02*
X17084000Y18172000I-150000J0D01*
G01*
X15434000Y18172000D01*
G75*
G02*
X15284000Y18322000I0J150000D01*
G01*
G37*
G04 #@! TD.AperFunction*
G04 #@! TD*
G04 #@! TO.P,U5,8*
G04 #@! TO.N,+3V3*
G04 #@! TA.AperFunction,SMDPad,CuDef*
G36*
G01*
X26714000Y18322000D02*
X26714000Y18622000D01*
G75*
G02*
X26864000Y18772000I150000J0D01*
G01*
X28514000Y18772000D01*
G75*
G02*
X28664000Y18622000I0J-150000D01*
G01*
X28664000Y18322000D01*
G75*
G02*
X28514000Y18172000I-150000J0D01*
G01*
X26864000Y18172000D01*
G75*
G02*
X26714000Y18322000I0J150000D01*
G01*
G37*
G04 #@! TD.AperFunction*
G04 #@! TO.P,U5,7*
G04 #@! TO.N,Net-(R19-Pad2)*
G04 #@! TA.AperFunction,SMDPad,CuDef*
G36*
G01*
X26714000Y17052000D02*
X26714000Y17352000D01*
G75*
G02*
X26864000Y17502000I150000J0D01*
G01*
X28514000Y17502000D01*
G75*
G02*
X28664000Y17352000I0J-150000D01*
G01*
X28664000Y17052000D01*
G75*
G02*
X28514000Y16902000I-150000J0D01*
G01*
X26864000Y16902000D01*
G75*
G02*
X26714000Y17052000I0J150000D01*
G01*
G37*
G04 #@! TD.AperFunction*
G04 #@! TO.P,U5,6*
G04 #@! TO.N,N/C*
G04 #@! TA.AperFunction,SMDPad,CuDef*
G36*
G01*
X26714000Y15782000D02*
X26714000Y16082000D01*
G75*
G02*
X26864000Y16232000I150000J0D01*
G01*
X28514000Y16232000D01*
G75*
G02*
X28664000Y16082000I0J-150000D01*
G01*
X28664000Y15782000D01*
G75*
G02*
X28514000Y15632000I-150000J0D01*
G01*
X26864000Y15632000D01*
G75*
G02*
X26714000Y15782000I0J150000D01*
G01*
G37*
G04 #@! TD.AperFunction*
G04 #@! TO.P,U5,5*
G04 #@! TO.N,GND*
G04 #@! TA.AperFunction,SMDPad,CuDef*
G36*
G01*
X26714000Y14512000D02*
X26714000Y14812000D01*
G75*
G02*
X26864000Y14962000I150000J0D01*
G01*
X28514000Y14962000D01*
G75*
G02*
X28664000Y14812000I0J-150000D01*
G01*
X28664000Y14512000D01*
G75*
G02*
X28514000Y14362000I-150000J0D01*
G01*
X26864000Y14362000D01*
G75*
G02*
X26714000Y14512000I0J150000D01*
G01*
G37*
G04 #@! TD.AperFunction*
G04 #@! TO.P,U5,4*
G04 #@! TO.N,/VBB*
G04 #@! TA.AperFunction,SMDPad,CuDef*
G36*
G01*
X21764000Y14512000D02*
X21764000Y14812000D01*
G75*
G02*
X21914000Y14962000I150000J0D01*
G01*
X23564000Y14962000D01*
G75*
G02*
X23714000Y14812000I0J-150000D01*
G01*
X23714000Y14512000D01*
G75*
G02*
X23564000Y14362000I-150000J0D01*
G01*
X21914000Y14362000D01*
G75*
G02*
X21764000Y14512000I0J150000D01*
G01*
G37*
G04 #@! TD.AperFunction*
G04 #@! TO.P,U5,3*
G04 #@! TO.N,/~Q*
G04 #@! TA.AperFunction,SMDPad,CuDef*
G36*
G01*
X21764000Y15782000D02*
X21764000Y16082000D01*
G75*
G02*
X21914000Y16232000I150000J0D01*
G01*
X23564000Y16232000D01*
G75*
G02*
X23714000Y16082000I0J-150000D01*
G01*
X23714000Y15782000D01*
G75*
G02*
X23564000Y15632000I-150000J0D01*
G01*
X21914000Y15632000D01*
G75*
G02*
X21764000Y15782000I0J150000D01*
G01*
G37*
G04 #@! TD.AperFunction*
G04 #@! TO.P,U5,2*
G04 #@! TO.N,/Q*
G04 #@! TA.AperFunction,SMDPad,CuDef*
G36*
G01*
X21764000Y17052000D02*
X21764000Y17352000D01*
G75*
G02*
X21914000Y17502000I150000J0D01*
G01*
X23564000Y17502000D01*
G75*
G02*
X23714000Y17352000I0J-150000D01*
G01*
X23714000Y17052000D01*
G75*
G02*
X23564000Y16902000I-150000J0D01*
G01*
X21914000Y16902000D01*
G75*
G02*
X21764000Y17052000I0J150000D01*
G01*
G37*
G04 #@! TD.AperFunction*
G04 #@! TO.P,U5,1*
G04 #@! TO.N,N/C*
G04 #@! TA.AperFunction,SMDPad,CuDef*
G36*
G01*
X21764000Y18322000D02*
X21764000Y18622000D01*
G75*
G02*
X21914000Y18772000I150000J0D01*
G01*
X23564000Y18772000D01*
G75*
G02*
X23714000Y18622000I0J-150000D01*
G01*
X23714000Y18322000D01*
G75*
G02*
X23564000Y18172000I-150000J0D01*
G01*
X21914000Y18172000D01*
G75*
G02*
X21764000Y18322000I0J150000D01*
G01*
G37*
G04 #@! TD.AperFunction*
G04 #@! TD*
D25*
G04 #@! TO.P,U8,1*
G04 #@! TO.N,/OUTPUT*
X42406000Y26661000D03*
G04 #@! TO.P,U8,2*
G04 #@! TO.N,GND*
X42406000Y25711000D03*
G04 #@! TO.P,U8,3*
G04 #@! TO.N,/OUTPUT*
X42406000Y24761000D03*
G04 #@! TO.P,U8,4*
G04 #@! TO.N,Net-(R21-Pad2)*
X45106000Y24761000D03*
G04 #@! TO.P,U8,6*
G04 #@! TO.N,Net-(R20-Pad2)*
X45106000Y26661000D03*
G04 #@! TO.P,U8,5*
G04 #@! TO.N,+2V5*
X45106000Y25711000D03*
G04 #@! TD*
G04 #@! TO.P,U9,5*
G04 #@! TO.N,+2V5*
X45106000Y22155000D03*
G04 #@! TO.P,U9,6*
G04 #@! TO.N,Net-(R22-Pad2)*
X45106000Y23105000D03*
G04 #@! TO.P,U9,4*
G04 #@! TO.N,Net-(R23-Pad2)*
X45106000Y21205000D03*
G04 #@! TO.P,U9,3*
G04 #@! TO.N,/OUTPUT*
X42406000Y21205000D03*
G04 #@! TO.P,U9,2*
G04 #@! TO.N,GND*
X42406000Y22155000D03*
G04 #@! TO.P,U9,1*
G04 #@! TO.N,/OUTPUT*
X42406000Y23105000D03*
G04 #@! TD*
G04 #@! TO.P,U10,1*
G04 #@! TO.N,/OUTPUT*
X42406000Y19549000D03*
G04 #@! TO.P,U10,2*
G04 #@! TO.N,GND*
X42406000Y18599000D03*
G04 #@! TO.P,U10,3*
G04 #@! TO.N,/OUTPUT*
X42406000Y17649000D03*
G04 #@! TO.P,U10,4*
G04 #@! TO.N,Net-(R25-Pad2)*
X45106000Y17649000D03*
G04 #@! TO.P,U10,6*
G04 #@! TO.N,Net-(R24-Pad2)*
X45106000Y19549000D03*
G04 #@! TO.P,U10,5*
G04 #@! TO.N,+2V5*
X45106000Y18599000D03*
G04 #@! TD*
D13*
G04 #@! TO.P,D2,1*
G04 #@! TO.N,/~ENABLEBUF*
X24500000Y-2000000D03*
D14*
G04 #@! TO.P,D2,2*
G04 #@! TO.N,Net-(D2-Pad2)*
X24500000Y540000D03*
G04 #@! TD*
G04 #@! TO.P,R10,1*
G04 #@! TO.N,+3V3*
G04 #@! TA.AperFunction,SMDPad,CuDef*
G36*
G01*
X24195750Y4736500D02*
X24708250Y4736500D01*
G75*
G02*
X24927000Y4517750I0J-218750D01*
G01*
X24927000Y4080250D01*
G75*
G02*
X24708250Y3861500I-218750J0D01*
G01*
X24195750Y3861500D01*
G75*
G02*
X23977000Y4080250I0J218750D01*
G01*
X23977000Y4517750D01*
G75*
G02*
X24195750Y4736500I218750J0D01*
G01*
G37*
G04 #@! TD.AperFunction*
G04 #@! TO.P,R10,2*
G04 #@! TO.N,Net-(D2-Pad2)*
G04 #@! TA.AperFunction,SMDPad,CuDef*
G36*
G01*
X24195750Y3161500D02*
X24708250Y3161500D01*
G75*
G02*
X24927000Y2942750I0J-218750D01*
G01*
X24927000Y2505250D01*
G75*
G02*
X24708250Y2286500I-218750J0D01*
G01*
X24195750Y2286500D01*
G75*
G02*
X23977000Y2505250I0J218750D01*
G01*
X23977000Y2942750D01*
G75*
G02*
X24195750Y3161500I218750J0D01*
G01*
G37*
G04 #@! TD.AperFunction*
G04 #@! TD*
G04 #@! TO.P,C17,2*
G04 #@! TO.N,GND*
G04 #@! TA.AperFunction,SMDPad,CuDef*
G36*
G01*
X22676250Y11837000D02*
X22163750Y11837000D01*
G75*
G02*
X21945000Y12055750I0J218750D01*
G01*
X21945000Y12493250D01*
G75*
G02*
X22163750Y12712000I218750J0D01*
G01*
X22676250Y12712000D01*
G75*
G02*
X22895000Y12493250I0J-218750D01*
G01*
X22895000Y12055750D01*
G75*
G02*
X22676250Y11837000I-218750J0D01*
G01*
G37*
G04 #@! TD.AperFunction*
G04 #@! TO.P,C17,1*
G04 #@! TO.N,Net-(C17-Pad1)*
G04 #@! TA.AperFunction,SMDPad,CuDef*
G36*
G01*
X22676250Y10262000D02*
X22163750Y10262000D01*
G75*
G02*
X21945000Y10480750I0J218750D01*
G01*
X21945000Y10918250D01*
G75*
G02*
X22163750Y11137000I218750J0D01*
G01*
X22676250Y11137000D01*
G75*
G02*
X22895000Y10918250I0J-218750D01*
G01*
X22895000Y10480750D01*
G75*
G02*
X22676250Y10262000I-218750J0D01*
G01*
G37*
G04 #@! TD.AperFunction*
G04 #@! TD*
G04 #@! TO.P,C22,1*
G04 #@! TO.N,/OUTPUT*
G04 #@! TA.AperFunction,SMDPad,CuDef*
G36*
G01*
X31773000Y14918250D02*
X31773000Y14405750D01*
G75*
G02*
X31554250Y14187000I-218750J0D01*
G01*
X31116750Y14187000D01*
G75*
G02*
X30898000Y14405750I0J218750D01*
G01*
X30898000Y14918250D01*
G75*
G02*
X31116750Y15137000I218750J0D01*
G01*
X31554250Y15137000D01*
G75*
G02*
X31773000Y14918250I0J-218750D01*
G01*
G37*
G04 #@! TD.AperFunction*
G04 #@! TO.P,C22,2*
G04 #@! TO.N,GND*
G04 #@! TA.AperFunction,SMDPad,CuDef*
G36*
G01*
X30198000Y14918250D02*
X30198000Y14405750D01*
G75*
G02*
X29979250Y14187000I-218750J0D01*
G01*
X29541750Y14187000D01*
G75*
G02*
X29323000Y14405750I0J218750D01*
G01*
X29323000Y14918250D01*
G75*
G02*
X29541750Y15137000I218750J0D01*
G01*
X29979250Y15137000D01*
G75*
G02*
X30198000Y14918250I0J-218750D01*
G01*
G37*
G04 #@! TD.AperFunction*
G04 #@! TD*
D26*
G04 #@! TO.N,+3V3*
X12260000Y22028000D03*
X11244000Y21672500D03*
X10228000Y22028000D03*
X12514000Y9074000D03*
X12514000Y10090000D03*
X12514000Y11106000D03*
D27*
G04 #@! TO.N,GND*
X-440000Y1200000D03*
X-5520000Y1200000D03*
D28*
X41978000Y22155000D03*
X41216000Y25711000D03*
X40454000Y25711000D03*
X41978000Y25711000D03*
X43248000Y25711000D03*
X43248000Y22155000D03*
X43248000Y18599000D03*
X40454000Y22155000D03*
X40454000Y18599000D03*
X41978000Y18599000D03*
X41216000Y18599000D03*
X41216000Y22155000D03*
D26*
X14266500Y22155000D03*
D28*
X14569000Y19869000D03*
X14569000Y20885000D03*
X17086000Y14662000D03*
X15308000Y14662000D03*
D26*
X15333500Y12757000D03*
X17594000Y12528500D03*
X16259000Y13835000D03*
X16476500Y12528500D03*
D28*
X25999000Y19869000D03*
X25999000Y20885000D03*
D26*
X25696500Y22155000D03*
D28*
X28516000Y14662000D03*
X26738000Y14662000D03*
X28516000Y13900000D03*
X26738000Y13900000D03*
X28747000Y7423000D03*
X29049500Y6153000D03*
X30120000Y10659000D03*
D26*
X14576990Y15139010D03*
X1846000Y13747500D03*
X8958000Y12731500D03*
D27*
X42968500Y27997000D03*
X42968500Y15805000D03*
D26*
X19397500Y25457000D03*
D28*
X19397500Y24489500D03*
D26*
X20515000Y25457000D03*
X1846000Y18370500D03*
D27*
X2100000Y3740000D03*
X-2980000Y3740000D03*
X-440000Y6280000D03*
X-5520000Y6280000D03*
X2100000Y8820000D03*
X-2980000Y8820000D03*
X4640000Y11360000D03*
X9720000Y11360000D03*
X9720000Y6280000D03*
X4640000Y6280000D03*
X7180000Y3740000D03*
X12260000Y3740000D03*
X9720000Y1200000D03*
X4640000Y1200000D03*
X17340000Y-1340000D03*
X12260000Y-1340000D03*
X14800000Y-3880000D03*
X9720000Y-3880000D03*
X12260000Y-6420000D03*
X17340000Y-6420000D03*
X19880000Y1200000D03*
X14800000Y1200000D03*
X22420000Y3740000D03*
X24960000Y-3880000D03*
X19880000Y-3880000D03*
X22420000Y-1340000D03*
X27500000Y-6420000D03*
X22420000Y-6420000D03*
X32580000Y3740000D03*
X37660000Y-1340000D03*
X35120000Y-3880000D03*
X30040000Y-3880000D03*
X32580000Y-6420000D03*
X37660000Y-6420000D03*
X40200000Y1200000D03*
X35120000Y1200000D03*
X42740000Y3740000D03*
X37660000Y3740000D03*
X52900000Y3740000D03*
X47820000Y3740000D03*
X50360000Y1200000D03*
X45280000Y1200000D03*
X60520000Y1200000D03*
X55440000Y1200000D03*
X60520000Y6280000D03*
X55440000Y6280000D03*
X57980000Y8820000D03*
X52900000Y8820000D03*
X52900000Y13900000D03*
X52900000Y18980000D03*
X60520000Y21520000D03*
X55440000Y21520000D03*
X57980000Y24060000D03*
X60520000Y26600000D03*
X57980000Y3740000D03*
X7180000Y8820000D03*
X35120000Y6280000D03*
X40200000Y6280000D03*
X50360000Y6280000D03*
X45280000Y6280000D03*
X42740000Y8820000D03*
X47820000Y8820000D03*
X32580000Y8820000D03*
X37660000Y8820000D03*
X40200000Y11360000D03*
X35120000Y11360000D03*
X42740000Y13900000D03*
X37660000Y13900000D03*
X45280000Y11360000D03*
X50360000Y11360000D03*
X47820000Y13900000D03*
X50360000Y16440000D03*
X40200000Y16440000D03*
X35120000Y16440000D03*
X30040000Y21520000D03*
X32580000Y24060000D03*
X35120000Y26600000D03*
X37660000Y29140000D03*
X27500000Y29140000D03*
X40200000Y31680000D03*
X35120000Y31680000D03*
X30040000Y31680000D03*
X27500000Y34220000D03*
X30040000Y36760000D03*
X32580000Y34220000D03*
X35120000Y36760000D03*
X37660000Y34220000D03*
X40200000Y36760000D03*
X42740000Y34220000D03*
X42740000Y39300000D03*
X37660000Y39300000D03*
X32580000Y39300000D03*
X32580000Y44380000D03*
X35120000Y46920000D03*
X40200000Y46920000D03*
X45280000Y46920000D03*
X50360000Y46920000D03*
X55440000Y46920000D03*
X60520000Y46920000D03*
X57980000Y44380000D03*
X60520000Y41840000D03*
X57980000Y39300000D03*
X60520000Y36760000D03*
X55440000Y36760000D03*
X52900000Y39300000D03*
X55440000Y41840000D03*
X52900000Y44380000D03*
X50360000Y41840000D03*
X50360000Y36760000D03*
X52900000Y34220000D03*
X50360000Y31680000D03*
X52900000Y29140000D03*
X47820000Y44380000D03*
X42740000Y49460000D03*
X37660000Y49460000D03*
X40200000Y52000000D03*
X37660000Y54540000D03*
X42740000Y54540000D03*
X32580000Y54540000D03*
X35120000Y52000000D03*
X32580000Y49460000D03*
X30040000Y52000000D03*
X30040000Y46920000D03*
X27500000Y49460000D03*
X27500000Y54540000D03*
X24960000Y52000000D03*
X22420000Y54540000D03*
X19880000Y52000000D03*
X17340000Y54540000D03*
X17340000Y49460000D03*
X14800000Y46920000D03*
X19991999Y41728001D03*
X9720000Y46920000D03*
X4640000Y46920000D03*
X-440000Y46920000D03*
X-2980000Y44380000D03*
X-5520000Y46920000D03*
X-5520000Y41840000D03*
X-2980000Y39300000D03*
X-5520000Y36760000D03*
X-2980000Y34220000D03*
X-5520000Y31680000D03*
X-2980000Y29140000D03*
X-5520000Y26600000D03*
X-2980000Y24060000D03*
X-5520000Y21520000D03*
X-440000Y21520000D03*
X2100000Y24060000D03*
X4640000Y21520000D03*
X7180000Y24060000D03*
X9720000Y26600000D03*
X12260000Y29140000D03*
X9720000Y31680000D03*
X12260000Y34220000D03*
X12260000Y34220000D03*
X14800000Y36760000D03*
X17340000Y39300000D03*
X12260000Y39300000D03*
X9720000Y36760000D03*
X7180000Y34220000D03*
X7180000Y29140000D03*
X2100000Y29140000D03*
X4640000Y31680000D03*
X4640000Y26600000D03*
X-440000Y26600000D03*
X-440000Y31680000D03*
X-440000Y36760000D03*
X26992000Y44510000D03*
X29340000Y44572000D03*
D28*
X26738000Y3509000D03*
X29974000Y2132000D03*
D26*
X30573500Y463500D03*
D28*
X24960000Y9201000D03*
X19880000Y9201000D03*
X21150000Y19996000D03*
X17848000Y19996000D03*
X14800000Y9201000D03*
D27*
X17340000Y3740000D03*
X30040000Y26600000D03*
X32580000Y29140000D03*
D28*
X29760500Y14662000D03*
D26*
G04 #@! TO.N,VPP*
X16910500Y30410000D03*
D28*
X16748000Y32254000D03*
X15054000Y31908500D03*
X18125000Y24187000D03*
X17822500Y25457000D03*
G04 #@! TO.N,+2V5*
X44264000Y25711000D03*
X44264000Y22155000D03*
X44264000Y18599000D03*
X46550000Y25711000D03*
X45788000Y25711000D03*
X46550000Y22155000D03*
X45788000Y22155000D03*
X46550000Y18599000D03*
X45788000Y18599000D03*
X47312000Y18599000D03*
X47312000Y22155000D03*
X47312000Y25711000D03*
D27*
X44543500Y27997000D03*
X46296000Y27997000D03*
X48074000Y27997000D03*
X45407000Y28886000D03*
X47185000Y28886000D03*
D28*
G04 #@! TO.N,/TERMINATION*
X20134000Y14255500D03*
X18610000Y14255500D03*
X19372000Y14255500D03*
X20134000Y18878500D03*
X18610000Y18878500D03*
X19372000Y18878500D03*
D26*
G04 #@! TO.N,/~ENABLE*
X29024000Y463500D03*
G04 #@! TD*
D29*
G04 #@! TO.N,Net-(C1-Pad1)*
X7812000Y41710000D02*
X6164000Y40062000D01*
X10990000Y41710000D02*
X7812000Y41710000D01*
X10990000Y41710000D02*
X13276000Y41710000D01*
X16234000Y41710000D02*
X16384000Y41860000D01*
X13276000Y41710000D02*
X16234000Y41710000D01*
D30*
X16384000Y41860000D02*
X21124500Y46600500D01*
X21124500Y46600500D02*
X21124500Y47428000D01*
D29*
G04 #@! TO.N,Net-(C1-Pad2)*
X4412000Y44510000D02*
X10990000Y44510000D01*
X-36000Y40062000D02*
X4412000Y44510000D01*
X10990000Y44510000D02*
X13276000Y44510000D01*
X16234000Y44510000D02*
X16384000Y44360000D01*
X13276000Y44510000D02*
X16234000Y44510000D01*
D30*
X22024000Y50000000D02*
X24500000Y50000000D01*
X16384000Y44360000D02*
X22024000Y50000000D01*
D31*
G04 #@! TO.N,+3V3*
X27420000Y6207500D02*
X27474500Y6153000D01*
X27420000Y8759000D02*
X27420000Y8759000D01*
D32*
X16259000Y18472000D02*
X16259000Y18915000D01*
D31*
X16259000Y21737500D02*
X15841500Y22155000D01*
D32*
X15539000Y21852500D02*
X15841500Y22155000D01*
X15539000Y20885000D02*
X15539000Y21852500D01*
X15539000Y20885000D02*
X15539000Y19869000D01*
X15539000Y19192000D02*
X16259000Y18472000D01*
X15539000Y19869000D02*
X15539000Y19192000D01*
X27689000Y21737500D02*
X27271500Y22155000D01*
X26969000Y21852500D02*
X27271500Y22155000D01*
X26969000Y20885000D02*
X26969000Y21852500D01*
X26969000Y20885000D02*
X26969000Y19869000D01*
X26969000Y19192000D02*
X27689000Y18472000D01*
X26969000Y19869000D02*
X26969000Y19869000D01*
X27689000Y20823000D02*
X27689000Y21737500D01*
X27627000Y19869000D02*
X27689000Y19807000D01*
X26969000Y19869000D02*
X27627000Y19869000D01*
X27689000Y19807000D02*
X27689000Y20823000D01*
X26969000Y19869000D02*
X26969000Y19192000D01*
X27031000Y20823000D02*
X26969000Y20885000D01*
X27689000Y20823000D02*
X27031000Y20823000D01*
D31*
X27474500Y6153000D02*
X27474500Y6153000D01*
D32*
X27476000Y7122000D02*
X27777000Y7423000D01*
X27420000Y7122000D02*
X27476000Y7122000D01*
D31*
X27420000Y7122000D02*
X27420000Y6207500D01*
D32*
X6418000Y18370500D02*
X6468750Y18421250D01*
X11244000Y21672500D02*
X11244000Y21672500D01*
X11904500Y21672500D02*
X12260000Y22028000D01*
X11244000Y21672500D02*
X11244000Y21672500D01*
X11244000Y21672500D02*
X11904500Y21672500D01*
X11244000Y21672500D02*
X10583500Y21672500D01*
X10583500Y21672500D02*
X10228000Y22028000D01*
D31*
X7180000Y19132500D02*
X8958000Y19132500D01*
X6418000Y18370500D02*
X7180000Y19132500D01*
X10769000Y21672500D02*
X11244000Y21672500D01*
X8958000Y19861500D02*
X10769000Y21672500D01*
X8958000Y19132500D02*
X8958000Y19861500D01*
D29*
X7332500Y19132500D02*
X10228000Y22028000D01*
X7180000Y19132500D02*
X7332500Y19132500D01*
X10228000Y22028000D02*
X12260000Y22028000D01*
X16070000Y27870000D02*
X18522000Y27870000D01*
X12260000Y24060000D02*
X13022000Y24822000D01*
X12260000Y22028000D02*
X12260000Y24060000D01*
X10228000Y22028000D02*
X13022000Y24822000D01*
D31*
X15054000Y27108000D02*
X15181000Y26981000D01*
X15054000Y28860500D02*
X15054000Y27108000D01*
D29*
X15181000Y26981000D02*
X16070000Y27870000D01*
X13022000Y24822000D02*
X15181000Y26981000D01*
D31*
X15079500Y28860500D02*
X16070000Y27870000D01*
X15054000Y28860500D02*
X15079500Y28860500D01*
X18785500Y29710000D02*
X18785500Y30410000D01*
X17936000Y28860500D02*
X18785500Y29710000D01*
X15054000Y28860500D02*
X17936000Y28860500D01*
D30*
X18785500Y32091500D02*
X18948000Y32254000D01*
X20883500Y32254000D02*
X20896000Y32266500D01*
X19535000Y32254000D02*
X18785500Y31504500D01*
X19946000Y32254000D02*
X19535000Y32254000D01*
X18785500Y30410000D02*
X18785500Y31504500D01*
X18948000Y32254000D02*
X19946000Y32254000D01*
X18785500Y31504500D02*
X18785500Y32091500D01*
X19946000Y32254000D02*
X20883500Y32254000D01*
X19946000Y32254000D02*
X19946000Y32000000D01*
X18785500Y30839500D02*
X18785500Y30410000D01*
X19946000Y32000000D02*
X18785500Y30839500D01*
D31*
X18785500Y30410000D02*
X19626000Y30410000D01*
X20896000Y31680000D02*
X20896000Y32266500D01*
X19626000Y30410000D02*
X20896000Y31680000D01*
X19582000Y30952500D02*
X19582000Y28930000D01*
X20896000Y32266500D02*
X19582000Y30952500D01*
D29*
X18522000Y27870000D02*
X19582000Y28930000D01*
D31*
X22918500Y32266500D02*
X23334000Y32682000D01*
X20896000Y32266500D02*
X22918500Y32266500D01*
D29*
X20344000Y29692000D02*
X23334000Y32682000D01*
X19582000Y28930000D02*
X20344000Y29692000D01*
X27499001Y19488999D02*
X27689000Y19299000D01*
X27499001Y23298999D02*
X27499001Y19488999D01*
X23334000Y27464000D02*
X27499001Y23298999D01*
D32*
X27689000Y19299000D02*
X27689000Y19807000D01*
X27689000Y18472000D02*
X27689000Y19299000D01*
X23413000Y22155000D02*
X23413000Y22259000D01*
X24452999Y23298999D02*
X27499001Y23298999D01*
X23413000Y22259000D02*
X24452999Y23298999D01*
D29*
X22928000Y27870000D02*
X23334000Y27464000D01*
X23334000Y30562000D02*
X20642000Y27870000D01*
X23334000Y30816000D02*
X23334000Y30562000D01*
X20642000Y27870000D02*
X22928000Y27870000D01*
X18522000Y27870000D02*
X20642000Y27870000D01*
X23334000Y32682000D02*
X23334000Y30816000D01*
X23334000Y30816000D02*
X23334000Y27464000D01*
D33*
X12514000Y11106000D02*
X12514000Y9074000D01*
D31*
X27420000Y7978000D02*
X27420000Y7122000D01*
X27420000Y8759000D02*
X27420000Y7978000D01*
D29*
X12514000Y10090000D02*
X12514000Y8312000D01*
X12514000Y8312000D02*
X13530000Y7296000D01*
D31*
X25957000Y7296000D02*
X24452000Y7296000D01*
X27420000Y8759000D02*
X25957000Y7296000D01*
D29*
X13530000Y7296000D02*
X24452000Y7296000D01*
D31*
X26738000Y6889500D02*
X26738000Y7296000D01*
X27474500Y6153000D02*
X26738000Y6889500D01*
D33*
X16259000Y21737500D02*
X16070000Y21926500D01*
X16259000Y18915000D02*
X16259000Y21737500D01*
X15181000Y23679000D02*
X16070000Y22790000D01*
X15181000Y26981000D02*
X15181000Y23679000D01*
X16070000Y22790000D02*
X16070000Y27870000D01*
X16070000Y21926500D02*
X16070000Y22790000D01*
D31*
X28074000Y4332000D02*
X27474500Y4931500D01*
D32*
X27022000Y4479000D02*
X27474500Y4931500D01*
X26738000Y4479000D02*
X27022000Y4479000D01*
X27927000Y4479000D02*
X28074000Y4332000D01*
X26738000Y4479000D02*
X27927000Y4479000D01*
X26738000Y5010000D02*
X24452000Y7296000D01*
X26738000Y4479000D02*
X26738000Y5010000D01*
D31*
X27474500Y5492500D02*
X27017500Y5492500D01*
D29*
X25214000Y7296000D02*
X26738000Y7296000D01*
X24452000Y7296000D02*
X25214000Y7296000D01*
D31*
X27474500Y4931500D02*
X27474500Y5492500D01*
X27017500Y5492500D02*
X25214000Y7296000D01*
X27474500Y5492500D02*
X27474500Y6153000D01*
D32*
X24452000Y4299000D02*
X24452000Y7296000D01*
G04 #@! TO.N,GND*
X43248000Y25711000D02*
X40454000Y25711000D01*
X43248000Y22155000D02*
X40454000Y22155000D01*
X43248000Y18599000D02*
X40454000Y18599000D01*
D30*
X30120000Y10659000D02*
X30120000Y10659000D01*
X29085000Y10659000D02*
X28770000Y10344000D01*
D32*
X29085000Y10659000D02*
X29300000Y10659000D01*
X15333500Y13736500D02*
X16259000Y14662000D01*
X15333500Y12757000D02*
X15333500Y12757000D01*
X14266500Y22155000D02*
X14266500Y22155000D01*
D30*
X14368000Y20885000D02*
X14266500Y20986500D01*
X14569000Y20885000D02*
X14569000Y20885000D01*
D32*
X14266500Y20986500D02*
X14266500Y22155000D01*
D30*
X14368000Y19869000D02*
X14266500Y19970500D01*
X14569000Y19869000D02*
X14569000Y19869000D01*
D32*
X14266500Y19970500D02*
X14266500Y20986500D01*
D30*
X14569000Y19869000D02*
X14368000Y19869000D01*
X14569000Y20885000D02*
X14368000Y20885000D01*
X17086000Y14662000D02*
X17086000Y14662000D01*
X16259000Y14662000D02*
X15308000Y14662000D01*
X17086000Y14662000D02*
X16259000Y14662000D01*
X15308000Y14662000D02*
X15308000Y14662000D01*
D32*
X15333500Y12757000D02*
X15333500Y13736500D01*
D30*
X17086000Y13036500D02*
X17594000Y12528500D01*
X17086000Y14662000D02*
X17086000Y13036500D01*
X17594000Y12528500D02*
X17594000Y12528500D01*
X16259000Y14662000D02*
X16259000Y13835000D01*
X16259000Y13835000D02*
X16259000Y13711000D01*
X15562000Y12528500D02*
X15333500Y12757000D01*
X17594000Y12528500D02*
X16476500Y12528500D01*
X16476500Y12528500D02*
X15562000Y12528500D01*
D32*
X26714000Y14662000D02*
X25696500Y15679500D01*
X27689000Y14662000D02*
X26738000Y14662000D01*
D30*
X25798000Y20885000D02*
X25696500Y20783500D01*
X25999000Y20885000D02*
X25999000Y20885000D01*
D32*
X25696500Y20783500D02*
X25696500Y22155000D01*
D30*
X25849000Y19869000D02*
X25696500Y20021500D01*
X25999000Y19869000D02*
X25999000Y19869000D01*
D32*
X25696500Y20021500D02*
X25696500Y20783500D01*
X25696500Y15679500D02*
X25696500Y20021500D01*
D30*
X25999000Y19869000D02*
X25849000Y19869000D01*
X25999000Y20885000D02*
X25798000Y20885000D01*
D32*
X25696500Y22155000D02*
X25696500Y22155000D01*
X27689000Y14662000D02*
X28516000Y14662000D01*
X26738000Y14662000D02*
X26714000Y14662000D01*
X28516000Y14662000D02*
X28516000Y13900000D01*
D31*
X28516000Y13900000D02*
X26738000Y13900000D01*
D32*
X29049500Y7120500D02*
X28747000Y7423000D01*
X29049500Y6153000D02*
X29049500Y7120500D01*
X29049500Y6153000D02*
X29049500Y6153000D01*
D30*
X30120000Y10659000D02*
X29085000Y10659000D01*
D32*
X14576990Y21844510D02*
X14266500Y22155000D01*
X15333500Y13736500D02*
X14576990Y14493010D01*
X16259000Y14662000D02*
X15054000Y14662000D01*
X14576990Y15139010D02*
X14576990Y21844510D01*
X15054000Y14662000D02*
X14576990Y15139010D01*
X14576990Y14493010D02*
X14576990Y15139010D01*
X1530500Y13432000D02*
X1846000Y13747500D01*
X-988000Y13432000D02*
X1530500Y13432000D01*
X1846000Y13747500D02*
X6418000Y13747500D01*
X8483000Y12731500D02*
X8958000Y12731500D01*
X7467000Y13747500D02*
X8483000Y12731500D01*
X6418000Y13747500D02*
X7467000Y13747500D01*
D31*
X21736500Y34982000D02*
X20896000Y34141500D01*
X23334000Y34982000D02*
X21736500Y34982000D01*
X21736500Y35132000D02*
X20896000Y35972500D01*
X21736500Y34982000D02*
X21736500Y35132000D01*
D30*
X20883500Y34154000D02*
X20896000Y34141500D01*
X18948000Y34154000D02*
X20883500Y34154000D01*
X18948000Y33204000D02*
X18948000Y34154000D01*
X23334000Y34982000D02*
X29634000Y34982000D01*
D33*
X20896000Y34982000D02*
X23334000Y34982000D01*
D29*
X19183992Y36694008D02*
X20896000Y34982000D01*
X19183992Y40919994D02*
X19183992Y36694008D01*
X22623998Y44360000D02*
X19991999Y41728001D01*
X23884000Y44360000D02*
X22623998Y44360000D01*
D32*
X19397500Y24489500D02*
X19397500Y24489500D01*
X19397500Y25457000D02*
X19397500Y25457000D01*
X19397500Y25457000D02*
X19397500Y24489500D01*
X19397500Y24489500D02*
X19095000Y24187000D01*
X19397500Y25457000D02*
X20515000Y25457000D01*
D30*
X21863500Y12528500D02*
X22420000Y11972000D01*
X17594000Y12528500D02*
X21863500Y12528500D01*
X24348000Y13900000D02*
X22420000Y11972000D01*
X26738000Y13900000D02*
X24348000Y13900000D01*
X29085000Y13331000D02*
X28516000Y13900000D01*
X29085000Y10659000D02*
X29085000Y13331000D01*
X3500000Y7273500D02*
X8958000Y12731500D01*
X3500000Y-4000000D02*
X3500000Y7273500D01*
X-926500Y18370500D02*
X-988000Y18432000D01*
X1846000Y18370500D02*
X1846000Y18370500D01*
X-988000Y18432000D02*
X-5988000Y18432000D01*
X-5988000Y18432000D02*
X-5988000Y13432000D01*
X-988000Y13432000D02*
X-5988000Y13432000D01*
X1846000Y18370500D02*
X-926500Y18370500D01*
D34*
X40962000Y42830500D02*
X40962000Y44278000D01*
X39971500Y41840000D02*
X40962000Y42830500D01*
X40962000Y42680500D02*
X40962000Y44278000D01*
X41802500Y41840000D02*
X40962000Y42680500D01*
X40962000Y50578000D02*
X40962000Y44278000D01*
D29*
X24034000Y44510000D02*
X23884000Y44360000D01*
X26992000Y44510000D02*
X26992000Y44510000D01*
X29278000Y44510000D02*
X26992000Y44510000D01*
X35346000Y50578000D02*
X29340000Y44572000D01*
X40962000Y50578000D02*
X35346000Y50578000D01*
D30*
X42384000Y52000000D02*
X40962000Y50578000D01*
X51500000Y52000000D02*
X42384000Y52000000D01*
X51500000Y39056000D02*
X55988000Y34568000D01*
X51500000Y52000000D02*
X51500000Y39056000D01*
X60988000Y34568000D02*
X55988000Y34568000D01*
X55988000Y34568000D02*
X55988000Y29568000D01*
X60988000Y29568000D02*
X60988000Y34568000D01*
D29*
X19991999Y41728001D02*
X19183992Y40919994D01*
X26992000Y44510000D02*
X24034000Y44510000D01*
X29340000Y44572000D02*
X29278000Y44510000D01*
D32*
X28770000Y6432500D02*
X29049500Y6153000D01*
X28770000Y8058000D02*
X28770000Y6432500D01*
D30*
X28770000Y10344000D02*
X28770000Y8058000D01*
X29974000Y2854202D02*
X29596202Y3232000D01*
X29974000Y2132000D02*
X29974000Y2132000D01*
D32*
X27015000Y3232000D02*
X26738000Y3509000D01*
X27500000Y3232000D02*
X27015000Y3232000D01*
D30*
X29596202Y3232000D02*
X27500000Y3232000D01*
D32*
X26738000Y3509000D02*
X26738000Y3509000D01*
D30*
X29974000Y2132000D02*
X29974000Y2854202D01*
X30573500Y1532500D02*
X29974000Y2132000D01*
D31*
X30573500Y438000D02*
X30573500Y463500D01*
D30*
X30573500Y463500D02*
X30573500Y1532500D01*
D32*
X28516000Y14662000D02*
X29760500Y14662000D01*
X29760500Y14662000D02*
X29760500Y14662000D01*
D29*
G04 #@! TO.N,+5V*
X23884000Y37832000D02*
X23334000Y37282000D01*
D31*
X23884000Y40535500D02*
X23884000Y40630000D01*
X20896000Y37547500D02*
X23884000Y40535500D01*
D29*
X23884000Y40630000D02*
X23884000Y37832000D01*
X23884000Y41860000D02*
X23884000Y40630000D01*
D31*
X21161500Y37282000D02*
X20896000Y37547500D01*
X21898000Y37282000D02*
X21898000Y37762000D01*
X23334000Y37282000D02*
X21898000Y37282000D01*
X21898000Y37282000D02*
X21161500Y37282000D01*
X21898000Y37762000D02*
X22674000Y38538000D01*
D29*
X24964000Y41710000D02*
X23884000Y40630000D01*
X24814000Y41860000D02*
X24964000Y41710000D01*
X23884000Y41860000D02*
X24814000Y41860000D01*
X27762000Y41710000D02*
X28386000Y41710000D01*
X23334000Y37282000D02*
X27762000Y41710000D01*
X28386000Y41710000D02*
X24964000Y41710000D01*
X29278000Y41710000D02*
X28386000Y41710000D01*
X36094000Y41710000D02*
X38662000Y44278000D01*
X29278000Y41710000D02*
X36094000Y41710000D01*
D34*
X38396500Y44012500D02*
X38662000Y44278000D01*
X38396500Y41840000D02*
X38396500Y44012500D01*
X36224000Y41840000D02*
X36094000Y41710000D01*
X38396500Y41840000D02*
X36224000Y41840000D01*
D32*
G04 #@! TO.N,/INPUT*
X2582500Y16059000D02*
X1846000Y15322500D01*
X2582500Y16059000D02*
X1846000Y16795500D01*
D31*
X-3361000Y16059000D02*
X-3488000Y15932000D01*
D32*
X3647000Y16059000D02*
X2989000Y16059000D01*
X2989000Y16059000D02*
X2582500Y16059000D01*
X1846000Y16795500D02*
X1109500Y16059000D01*
D31*
X957000Y16059000D02*
X-3361000Y16059000D01*
X2989000Y16059000D02*
X957000Y16059000D01*
D32*
X1109500Y16059000D02*
X957000Y16059000D01*
X1846000Y15322500D02*
X1109500Y16059000D01*
D30*
G04 #@! TO.N,VPP*
X16552500Y30410000D02*
X15054000Y31908500D01*
X16910500Y30410000D02*
X16910500Y30410000D01*
X16748000Y30572500D02*
X16910500Y30410000D01*
D34*
X16748000Y32254000D02*
X16748000Y30572500D01*
D30*
X16910500Y30410000D02*
X16552500Y30410000D01*
X16748000Y32254000D02*
X16748000Y32254000D01*
X15054000Y31908500D02*
X15054000Y31908500D01*
X17822500Y24489500D02*
X18125000Y24187000D01*
X17822500Y25457000D02*
X17822500Y25457000D01*
X18125000Y24187000D02*
X18125000Y24187000D01*
X17822500Y25457000D02*
X17822500Y24489500D01*
D32*
X15054000Y31908500D02*
X15790500Y31908500D01*
X15790500Y31908500D02*
X16070000Y32188000D01*
D34*
X16748000Y32254000D02*
X16748000Y32104000D01*
X16748000Y32104000D02*
X16070000Y31426000D01*
D31*
X17822500Y22404500D02*
X18072000Y22155000D01*
X17822500Y25457000D02*
X17822500Y22404500D01*
D32*
G04 #@! TO.N,+2V5*
X44264000Y25711000D02*
X47312000Y25711000D01*
X44264000Y22155000D02*
X47312000Y22155000D01*
X44264000Y18599000D02*
X47312000Y18599000D01*
D34*
X47185000Y38332500D02*
X43677500Y41840000D01*
X43677500Y43862500D02*
X43262000Y44278000D01*
X43677500Y41840000D02*
X43677500Y43862500D01*
D33*
X45407000Y30664000D02*
X45407000Y31553000D01*
X48074000Y27997000D02*
X45407000Y30664000D01*
D29*
X45407000Y31553000D02*
X45407000Y28886000D01*
X45407000Y42133000D02*
X45407000Y31553000D01*
D33*
X44543500Y28403500D02*
X47185000Y31045000D01*
X44543500Y27997000D02*
X44543500Y28403500D01*
D29*
X47185000Y31045000D02*
X47185000Y38332500D01*
X47185000Y28886000D02*
X47185000Y31045000D01*
D33*
X48074000Y27997000D02*
X44543500Y27997000D01*
D29*
X47185000Y40355000D02*
X44347000Y43193000D01*
X47185000Y38332500D02*
X47185000Y40355000D01*
X44347000Y43193000D02*
X45407000Y42133000D01*
X43262000Y44278000D02*
X44347000Y43193000D01*
D32*
G04 #@! TO.N,/VBB*
X21064806Y22155000D02*
X20672000Y22155000D01*
X24295010Y15243010D02*
X24295010Y18924796D01*
X23714000Y14662000D02*
X24295010Y15243010D01*
X22739000Y14662000D02*
X23714000Y14662000D01*
X22443000Y20781000D02*
X22440903Y20778903D01*
X22440903Y20778903D02*
X21064806Y22155000D01*
X24295010Y18924796D02*
X22440903Y20778903D01*
X21785000Y22155000D02*
X22443000Y21497000D01*
X22443000Y21497000D02*
X22443000Y20781000D01*
X22443000Y22155000D02*
X22443000Y21497000D01*
X22443000Y22155000D02*
X21785000Y22155000D01*
X21785000Y22155000D02*
X20672000Y22155000D01*
D30*
G04 #@! TO.N,/OUTPUT*
X42406000Y17649000D02*
X40008000Y17649000D01*
X42406000Y19549000D02*
X40008000Y19549000D01*
X42406000Y21205000D02*
X40008000Y21205000D01*
X42406000Y23105000D02*
X40008000Y23105000D01*
X42406000Y24761000D02*
X40008000Y24761000D01*
X42406000Y26661000D02*
X40008000Y26661000D01*
X40008000Y17649000D02*
X32008000Y17649000D01*
X40008000Y19549000D02*
X32008000Y17649000D01*
X40008000Y21205000D02*
X32008000Y17649000D01*
X40008000Y23105000D02*
X32008000Y17649000D01*
X40008000Y24761000D02*
X32008000Y17649000D01*
X40008000Y26661000D02*
X32008000Y17649000D01*
D33*
X31909500Y17649000D02*
X31335500Y17075000D01*
X32008000Y17649000D02*
X31909500Y17649000D01*
D32*
X31287000Y17026500D02*
X31335500Y17075000D01*
D30*
X30120000Y9709000D02*
X31183000Y9709000D01*
D32*
X31183000Y9709000D02*
X31818000Y10344000D01*
X31818000Y16592500D02*
X31335500Y17075000D01*
D31*
X31818000Y10344000D02*
X31818000Y16592500D01*
X31818000Y17459000D02*
X32008000Y17649000D01*
X31818000Y16592500D02*
X31818000Y17459000D01*
D32*
X31183000Y9709000D02*
X30900000Y9709000D01*
X31335500Y17075000D02*
X31335500Y14662000D01*
D30*
G04 #@! TO.N,Net-(D1-Pad2)*
X24468000Y47428000D02*
X24500000Y47460000D01*
X22699500Y47428000D02*
X24468000Y47428000D01*
G04 #@! TO.N,/BUFFEREDOUT*
X47797000Y26661000D02*
X49508000Y26661000D01*
X47797000Y24761000D02*
X49508000Y24761000D01*
X47797000Y23105000D02*
X49508000Y23105000D01*
X47797000Y21205000D02*
X49508000Y21205000D01*
X47797000Y19549000D02*
X49508000Y19549000D01*
X47797000Y17649000D02*
X49508000Y17649000D01*
X49508000Y17649000D02*
X57508000Y26661000D01*
X49508000Y19549000D02*
X57508000Y26661000D01*
X49508000Y21205000D02*
X57508000Y26661000D01*
X49508000Y23105000D02*
X57508000Y26661000D01*
X49508000Y24761000D02*
X57508000Y26661000D01*
D33*
X58488000Y27738000D02*
X57411000Y26661000D01*
X58488000Y32068000D02*
X58488000Y27738000D01*
D30*
X57411000Y26661000D02*
X57508000Y26661000D01*
X49508000Y26661000D02*
X57411000Y26661000D01*
G04 #@! TO.N,/TERMINATION*
X19372000Y14255500D02*
X19372000Y14255500D01*
D34*
X19372000Y14255500D02*
X18711500Y14255500D01*
D30*
X20032500Y14255500D02*
X20032500Y14255500D01*
X18711500Y14255500D02*
X18711500Y14255500D01*
D34*
X19372000Y14255500D02*
X20032500Y14255500D01*
X19372000Y18878500D02*
X20032500Y18878500D01*
X19372000Y18878500D02*
X18711500Y18878500D01*
D31*
X19372000Y19640500D02*
X20134000Y18878500D01*
X19372000Y22155000D02*
X19372000Y19640500D01*
X18610000Y18878500D02*
X19372000Y19640500D01*
D30*
G04 #@! TO.N,/1.25V*
X15724500Y34154000D02*
X15054000Y33483500D01*
X16748000Y34154000D02*
X15724500Y34154000D01*
X14124990Y32554490D02*
X15054000Y33483500D01*
X14124990Y31364510D02*
X14124990Y32554490D01*
X15054000Y30435500D02*
X14124990Y31364510D01*
G04 #@! TO.N,/LVPECL_LOW_1V65*
X9313500Y17202000D02*
X8958000Y17557500D01*
X11309000Y17202000D02*
X9313500Y17202000D01*
X9313500Y14662000D02*
X8958000Y14306500D01*
X11309000Y14662000D02*
X9313500Y14662000D01*
X12284000Y17202000D02*
X11309000Y17202000D01*
X12738010Y16747990D02*
X12284000Y17202000D01*
X12738010Y15116010D02*
X12738010Y16747990D01*
X12284000Y14662000D02*
X12738010Y15116010D01*
X11309000Y14662000D02*
X12284000Y14662000D01*
D32*
G04 #@! TO.N,/~Q*
X22739000Y15932000D02*
X16259000Y15932000D01*
G04 #@! TO.N,/Q*
X16259000Y17202000D02*
X22739000Y17202000D01*
D31*
G04 #@! TO.N,Net-(R19-Pad2)*
X29633500Y17202000D02*
X29760500Y17075000D01*
X27689000Y17202000D02*
X29633500Y17202000D01*
D30*
G04 #@! TO.N,Net-(R20-Pad2)*
X45106000Y26661000D02*
X46827000Y26661000D01*
G04 #@! TO.N,Net-(R21-Pad2)*
X45106000Y24761000D02*
X46827000Y24761000D01*
G04 #@! TO.N,Net-(R22-Pad2)*
X45106000Y23105000D02*
X46827000Y23105000D01*
G04 #@! TO.N,Net-(R23-Pad2)*
X45106000Y21205000D02*
X46827000Y21205000D01*
D32*
G04 #@! TO.N,Net-(C5-Pad1)*
X9720000Y15932000D02*
X11309000Y15932000D01*
D31*
X9593000Y16059000D02*
X9720000Y15932000D01*
D32*
X4617000Y16059000D02*
X5275000Y16059000D01*
D31*
X5681500Y16059000D02*
X5275000Y16059000D01*
X6418000Y16795500D02*
X5681500Y16059000D01*
X6418000Y15322500D02*
X5681500Y16059000D01*
X6418000Y15322500D02*
X7154500Y16059000D01*
X7561000Y16059000D02*
X5275000Y16059000D01*
X9593000Y16059000D02*
X7561000Y16059000D01*
X7154500Y16059000D02*
X7561000Y16059000D01*
X6418000Y16795500D02*
X7154500Y16059000D01*
D32*
G04 #@! TO.N,Net-(C14-Pad1)*
X16338010Y10725000D02*
X16211010Y10852000D01*
D31*
X19346500Y10725000D02*
X16338010Y10725000D01*
G04 #@! TO.N,Net-(C17-Pad1)*
X23918500Y10725000D02*
X20921500Y10725000D01*
G04 #@! TO.N,/SET*
X13758500Y12207500D02*
X15114000Y10852000D01*
X13758500Y12757000D02*
X13758500Y12207500D01*
D32*
X11244000Y18537000D02*
X11309000Y18472000D01*
X11244000Y20097500D02*
X11244000Y18537000D01*
X11244000Y19512000D02*
X11244000Y20097500D01*
D30*
X12284000Y18472000D02*
X13530000Y17226000D01*
X11309000Y18472000D02*
X12284000Y18472000D01*
D32*
X13530000Y12985500D02*
X13758500Y12757000D01*
X10901001Y10026501D02*
X10482000Y9607500D01*
X10901001Y11375333D02*
X10901001Y10026501D01*
X11962678Y12437010D02*
X10901001Y11375333D01*
X13530000Y13900000D02*
X13530000Y13646000D01*
X13530000Y13900000D02*
X13530000Y12985500D01*
X13530000Y14004332D02*
X13530000Y14154000D01*
X10901001Y11375333D02*
X13530000Y14004332D01*
D30*
X13530000Y14154000D02*
X13530000Y13900000D01*
X13530000Y17226000D02*
X13530000Y14154000D01*
G04 #@! TO.N,/~ENABLE*
X29024000Y463500D02*
X29024000Y463500D01*
X29024000Y2132000D02*
X29024000Y463500D01*
X29024000Y463500D02*
X28998500Y438000D01*
D32*
G04 #@! TO.N,/~ENABLEBUF*
X30548000Y4906000D02*
X29974000Y4332000D01*
X30548000Y8312000D02*
X30548000Y4906000D01*
X29974000Y4332000D02*
X30046238Y4332000D01*
X32326000Y2052238D02*
X32326000Y-832000D01*
X32326000Y-832000D02*
X30548000Y-2610000D01*
X21124500Y-2610000D02*
X10482000Y8032500D01*
X30548000Y8312000D02*
X30101000Y8759000D01*
X30548000Y3830238D02*
X30593119Y3785119D01*
X30548000Y4906000D02*
X30548000Y3830238D01*
X30593119Y3785119D02*
X32326000Y2052238D01*
X30046238Y4332000D02*
X30593119Y3785119D01*
X24500000Y-2404000D02*
X24706000Y-2610000D01*
X24500000Y-2000000D02*
X24500000Y-2404000D01*
X24706000Y-2610000D02*
X21124500Y-2610000D01*
X30548000Y-2610000D02*
X24706000Y-2610000D01*
D30*
G04 #@! TO.N,Net-(R24-Pad2)*
X45106000Y19549000D02*
X46827000Y19549000D01*
D32*
G04 #@! TO.N,Net-(D2-Pad2)*
X24452000Y588000D02*
X24500000Y540000D01*
X24452000Y2724000D02*
X24452000Y588000D01*
D31*
G04 #@! TO.N,Net-(R18-Pad1)*
X27354000Y10725000D02*
X27420000Y10659000D01*
X25493500Y10725000D02*
X27354000Y10725000D01*
D30*
G04 #@! TO.N,Net-(R25-Pad2)*
X45106000Y17649000D02*
X46827000Y17649000D01*
G04 #@! TD*
D35*
G04 #@! TO.N,GND*
X51638370Y55224002D02*
X52252424Y55038608D01*
X52818773Y54737475D01*
X53315848Y54332072D01*
X53724712Y53837841D01*
X54029790Y53273611D01*
X54219467Y52660863D01*
X54290000Y51989796D01*
X54290001Y48034887D01*
X54286565Y48000000D01*
X54300273Y47860816D01*
X54340872Y47726980D01*
X54406800Y47603637D01*
X54495525Y47495525D01*
X54603637Y47406800D01*
X54726980Y47340872D01*
X54860816Y47300273D01*
X54965123Y47290000D01*
X55000000Y47286565D01*
X55034877Y47290000D01*
X60965279Y47290000D01*
X61249899Y47262093D01*
X61490285Y47189516D01*
X61711991Y47071632D01*
X61906577Y46912932D01*
X62066635Y46719455D01*
X62186064Y46498576D01*
X62260317Y46258703D01*
X62290000Y45976284D01*
X62290001Y2034731D01*
X62262093Y1750101D01*
X62189517Y1509718D01*
X62071633Y1288011D01*
X61912929Y1093420D01*
X61719455Y933365D01*
X61498576Y813936D01*
X61258701Y739683D01*
X60976291Y710000D01*
X46034877Y710000D01*
X46000000Y713435D01*
X45965123Y710000D01*
X45860816Y699727D01*
X45726980Y659128D01*
X45603637Y593200D01*
X45495525Y504475D01*
X45406800Y396363D01*
X45340872Y273020D01*
X45300273Y139184D01*
X45286565Y0D01*
X45290001Y-34887D01*
X45290000Y-3965280D01*
X45224004Y-4638366D01*
X45038607Y-5252428D01*
X44737474Y-5818775D01*
X44332071Y-6315847D01*
X43837842Y-6724710D01*
X43273611Y-7029790D01*
X42660862Y-7219467D01*
X41989787Y-7290000D01*
X4034720Y-7290000D01*
X3361634Y-7224004D01*
X2747572Y-7038607D01*
X2181225Y-6737474D01*
X1684153Y-6332071D01*
X1275290Y-5837842D01*
X970210Y-5273611D01*
X780533Y-4660862D01*
X710000Y-3989787D01*
X710000Y-34877D01*
X713435Y0D01*
X699727Y139184D01*
X659128Y273020D01*
X593200Y396363D01*
X504475Y504475D01*
X396363Y593200D01*
X273020Y659128D01*
X139184Y699727D01*
X34877Y710000D01*
X0Y713435D01*
X-34877Y710000D01*
X-5965279Y710000D01*
X-6249899Y737907D01*
X-6490282Y810483D01*
X-6711989Y928367D01*
X-6906580Y1087071D01*
X-7066635Y1280545D01*
X-7186064Y1501424D01*
X-7260317Y1741299D01*
X-7290000Y2023709D01*
X-7290000Y16132430D01*
X-5523000Y16132430D01*
X-5523000Y15731570D01*
X-5444796Y15338413D01*
X-5291393Y14968066D01*
X-5068687Y14634763D01*
X-4785237Y14351313D01*
X-4451934Y14128607D01*
X-4081587Y13975204D01*
X-3688430Y13897000D01*
X-3287570Y13897000D01*
X-2894413Y13975204D01*
X-2524066Y14128607D01*
X-2190763Y14351313D01*
X-1907313Y14634763D01*
X-1722069Y14912000D01*
X756852Y14912000D01*
X798150Y14775858D01*
X877329Y14627725D01*
X983885Y14497885D01*
X1113725Y14391329D01*
X1261858Y14312150D01*
X1422592Y14263392D01*
X1589750Y14246928D01*
X2102250Y14246928D01*
X2269408Y14263392D01*
X2430142Y14312150D01*
X2578275Y14391329D01*
X2708115Y14497885D01*
X2814671Y14627725D01*
X2893850Y14775858D01*
X2935148Y14912000D01*
X3045340Y14912000D01*
X3213851Y14928597D01*
X3430061Y14994184D01*
X3521390Y15043000D01*
X3696902Y15043000D01*
X3846171Y15057702D01*
X4037687Y15115798D01*
X4132000Y15166209D01*
X4226313Y15115798D01*
X4417829Y15057702D01*
X4567098Y15043000D01*
X4742610Y15043000D01*
X4833939Y14994184D01*
X5050149Y14928597D01*
X5205058Y14913340D01*
X5401854Y14716544D01*
X5449329Y14627725D01*
X5555885Y14497885D01*
X5685725Y14391329D01*
X5833858Y14312150D01*
X5929082Y14283264D01*
X5976938Y14257685D01*
X6193149Y14192098D01*
X6417999Y14169952D01*
X6418000Y14169952D01*
X6642850Y14192098D01*
X6859061Y14257685D01*
X6906915Y14283263D01*
X7002142Y14312150D01*
X7150275Y14391329D01*
X7280115Y14497885D01*
X7386671Y14627725D01*
X7434146Y14716544D01*
X7629602Y14912000D01*
X7941610Y14912000D01*
X7910150Y14853142D01*
X7861392Y14692408D01*
X7844928Y14525250D01*
X7844928Y14087750D01*
X7861392Y13920592D01*
X7910150Y13759858D01*
X7989329Y13611725D01*
X8095885Y13481885D01*
X8225725Y13375329D01*
X8373858Y13296150D01*
X8534592Y13247392D01*
X8701750Y13230928D01*
X9214250Y13230928D01*
X9381408Y13247392D01*
X9542142Y13296150D01*
X9690275Y13375329D01*
X9820115Y13481885D01*
X9926671Y13611725D01*
X10005850Y13759858D01*
X10009837Y13773000D01*
X10218404Y13773000D01*
X10330255Y13739071D01*
X10484000Y13723928D01*
X11812755Y13723928D01*
X11279543Y13190716D01*
X10683641Y12594813D01*
X10217873Y12129045D01*
X10179105Y12097229D01*
X10052141Y11942523D01*
X9957799Y11766019D01*
X9914133Y11622072D01*
X9899703Y11574503D01*
X9880086Y11375333D01*
X9885001Y11325431D01*
X9885002Y10610978D01*
X9749725Y10538671D01*
X9619885Y10432115D01*
X9513329Y10302275D01*
X9434150Y10154142D01*
X9385392Y9993408D01*
X9368928Y9826250D01*
X9368928Y9388750D01*
X9385392Y9221592D01*
X9434150Y9060858D01*
X9513329Y8912725D01*
X9589426Y8820000D01*
X9513329Y8727275D01*
X9434150Y8579142D01*
X9385392Y8418408D01*
X9368928Y8251250D01*
X9368928Y7813750D01*
X9385392Y7646592D01*
X9434150Y7485858D01*
X9513329Y7337725D01*
X9619885Y7207885D01*
X9749725Y7101329D01*
X9897858Y7022150D01*
X10058592Y6973392D01*
X10109258Y6968402D01*
X20370792Y-3293133D01*
X20402604Y-3331896D01*
X20557310Y-3458860D01*
X20705507Y-3538072D01*
X20733813Y-3553202D01*
X20925329Y-3611298D01*
X21124500Y-3630915D01*
X21174402Y-3626000D01*
X24656098Y-3626000D01*
X24706000Y-3630915D01*
X24755902Y-3626000D01*
X30498098Y-3626000D01*
X30548000Y-3630915D01*
X30597902Y-3626000D01*
X30747171Y-3611298D01*
X30938687Y-3553202D01*
X31115190Y-3458860D01*
X31269896Y-3331896D01*
X31301712Y-3293128D01*
X33009133Y-1585708D01*
X33047896Y-1553896D01*
X33174860Y-1399190D01*
X33269202Y-1222687D01*
X33327298Y-1031171D01*
X33342000Y-881902D01*
X33346915Y-832000D01*
X33342000Y-782098D01*
X33342000Y2002336D01*
X33346915Y2052238D01*
X33332757Y2195989D01*
X33327298Y2251409D01*
X33269202Y2442925D01*
X33174860Y2619428D01*
X33047896Y2774134D01*
X33009133Y2805946D01*
X31564000Y4251078D01*
X31564000Y4856098D01*
X31568915Y4906000D01*
X31564000Y4955902D01*
X31564000Y8262107D01*
X31568914Y8312001D01*
X31564000Y8361895D01*
X31564000Y8361902D01*
X31549298Y8511171D01*
X31543002Y8531928D01*
X31522446Y8599689D01*
X31491202Y8702687D01*
X31473683Y8735462D01*
X31573687Y8765798D01*
X31750190Y8860140D01*
X31904896Y8987104D01*
X31936713Y9025873D01*
X32159963Y9249123D01*
X32259060Y9279184D01*
X32458321Y9385691D01*
X32632975Y9529025D01*
X32776309Y9703678D01*
X32882816Y9902939D01*
X32948403Y10119149D01*
X32965000Y10287660D01*
X32965000Y16132430D01*
X56453000Y16132430D01*
X56453000Y15731570D01*
X56531204Y15338413D01*
X56684607Y14968066D01*
X56907313Y14634763D01*
X57190763Y14351313D01*
X57524066Y14128607D01*
X57894413Y13975204D01*
X58287570Y13897000D01*
X58688430Y13897000D01*
X59081587Y13975204D01*
X59451934Y14128607D01*
X59785237Y14351313D01*
X60068687Y14634763D01*
X60291393Y14968066D01*
X60444796Y15338413D01*
X60523000Y15731570D01*
X60523000Y16132430D01*
X60444796Y16525587D01*
X60291393Y16895934D01*
X60068687Y17229237D01*
X59785237Y17512687D01*
X59451934Y17735393D01*
X59081587Y17888796D01*
X58688430Y17967000D01*
X58287570Y17967000D01*
X57894413Y17888796D01*
X57524066Y17735393D01*
X57190763Y17512687D01*
X56907313Y17229237D01*
X56684607Y16895934D01*
X56531204Y16525587D01*
X56453000Y16132430D01*
X32965000Y16132430D01*
X32965000Y16642694D01*
X32992081Y16664919D01*
X33070112Y16760000D01*
X41334110Y16760000D01*
X41381820Y16734498D01*
X41501518Y16698188D01*
X41626000Y16685928D01*
X43186000Y16685928D01*
X43310482Y16698188D01*
X43430180Y16734498D01*
X43540494Y16793463D01*
X43637185Y16872815D01*
X43716537Y16969506D01*
X43756000Y17043335D01*
X43795463Y16969506D01*
X43874815Y16872815D01*
X43971506Y16793463D01*
X44081820Y16734498D01*
X44201518Y16698188D01*
X44326000Y16685928D01*
X45886000Y16685928D01*
X46010482Y16698188D01*
X46130180Y16734498D01*
X46177890Y16760000D01*
X46361525Y16760000D01*
X46378875Y16750726D01*
X46526243Y16706023D01*
X46679500Y16690928D01*
X46974500Y16690928D01*
X47127757Y16706023D01*
X47275125Y16750726D01*
X47312000Y16770436D01*
X47348875Y16750726D01*
X47496243Y16706023D01*
X47649500Y16690928D01*
X47944500Y16690928D01*
X48097757Y16706023D01*
X48245125Y16750726D01*
X48262475Y16760000D01*
X49490794Y16760000D01*
X49561046Y16757276D01*
X49621425Y16766871D01*
X49682274Y16772864D01*
X49707727Y16780585D01*
X49733994Y16784759D01*
X49791339Y16805948D01*
X49849851Y16823697D01*
X49873310Y16836236D01*
X49898257Y16845454D01*
X49950365Y16877423D01*
X50004291Y16906247D01*
X50024855Y16923124D01*
X50047522Y16937030D01*
X50092392Y16978550D01*
X50139659Y17017341D01*
X50184269Y17071698D01*
X57466145Y25274731D01*
X57682507Y25296040D01*
X57943580Y25375236D01*
X58184188Y25503844D01*
X58342233Y25633548D01*
X59419236Y26710550D01*
X59472081Y26753919D01*
X59517663Y26809460D01*
X59618645Y26932507D01*
X59645157Y26964812D01*
X59773764Y27205419D01*
X59785191Y27243089D01*
X59852960Y27466492D01*
X59858762Y27525404D01*
X59873000Y27669963D01*
X59873000Y27669970D01*
X59879700Y27737999D01*
X59873000Y27806028D01*
X59873000Y30575076D01*
X60068687Y30770763D01*
X60291393Y31104066D01*
X60444796Y31474413D01*
X60523000Y31867570D01*
X60523000Y32268430D01*
X60444796Y32661587D01*
X60291393Y33031934D01*
X60068687Y33365237D01*
X59785237Y33648687D01*
X59451934Y33871393D01*
X59081587Y34024796D01*
X58688430Y34103000D01*
X58287570Y34103000D01*
X57894413Y34024796D01*
X57524066Y33871393D01*
X57190763Y33648687D01*
X56907313Y33365237D01*
X56684607Y33031934D01*
X56531204Y32661587D01*
X56453000Y32268430D01*
X56453000Y31867570D01*
X56531204Y31474413D01*
X56684607Y31104066D01*
X56907313Y30770763D01*
X57103000Y30575076D01*
X57103001Y28311686D01*
X56383548Y27592233D01*
X56348888Y27550000D01*
X49385725Y27550000D01*
X49438960Y27725493D01*
X49465701Y27997000D01*
X49438960Y28268507D01*
X49359764Y28529581D01*
X49231157Y28770188D01*
X49101452Y28928234D01*
X49101450Y28928236D01*
X49058081Y28981081D01*
X49005236Y29024450D01*
X48820000Y29209686D01*
X48820000Y40274681D01*
X48827911Y40355001D01*
X48817176Y40463992D01*
X48796343Y40675516D01*
X48702852Y40983715D01*
X48551031Y41267752D01*
X48346714Y41516714D01*
X48284319Y41567920D01*
X46619923Y43232315D01*
X46568714Y43294714D01*
X46506316Y43345922D01*
X45559920Y44292318D01*
X45559916Y44292323D01*
X44650072Y45202166D01*
X44650072Y45278000D01*
X44637812Y45402482D01*
X44601502Y45522180D01*
X44542537Y45632494D01*
X44463185Y45729185D01*
X44366494Y45808537D01*
X44256180Y45867502D01*
X44136482Y45903812D01*
X44012000Y45916072D01*
X43311130Y45916072D01*
X43262000Y45920911D01*
X43212870Y45916072D01*
X42512000Y45916072D01*
X42387518Y45903812D01*
X42267820Y45867502D01*
X42157506Y45808537D01*
X42060815Y45729185D01*
X41981463Y45632494D01*
X41922498Y45522180D01*
X41886188Y45402482D01*
X41873928Y45278000D01*
X41873928Y45149514D01*
X41744148Y44906714D01*
X41650658Y44598516D01*
X41619089Y44278000D01*
X41650658Y43957484D01*
X41744148Y43649286D01*
X41873928Y43406486D01*
X41873928Y43278000D01*
X41886188Y43153518D01*
X41922498Y43033820D01*
X41981463Y42923506D01*
X42060815Y42826815D01*
X42157506Y42747463D01*
X42267820Y42688498D01*
X42387518Y42652188D01*
X42442500Y42646773D01*
X42442500Y41900666D01*
X42436525Y41840000D01*
X42451491Y41688048D01*
X42460370Y41597899D01*
X42530989Y41365100D01*
X42558910Y41312864D01*
X42568872Y41211715D01*
X42619053Y41046291D01*
X42700542Y40893836D01*
X42810208Y40760208D01*
X42943836Y40650542D01*
X43096291Y40569053D01*
X43247877Y40523070D01*
X43772000Y39998947D01*
X43772001Y31633331D01*
X43772000Y31633321D01*
X43772001Y29590686D01*
X43612264Y29430949D01*
X43559420Y29387581D01*
X43516050Y29334735D01*
X43516048Y29334733D01*
X43488824Y29301560D01*
X43386343Y29176688D01*
X43257736Y28936081D01*
X43178540Y28675007D01*
X43158500Y28471537D01*
X43158500Y28471529D01*
X43151800Y28403500D01*
X43158500Y28335471D01*
X43158500Y28065037D01*
X43151799Y27997000D01*
X43178540Y27725493D01*
X43210023Y27621706D01*
X43186000Y27624072D01*
X41626000Y27624072D01*
X41501518Y27611812D01*
X41381820Y27575502D01*
X41334110Y27550000D01*
X40025206Y27550000D01*
X39954953Y27552724D01*
X39894573Y27543129D01*
X39833726Y27537136D01*
X39808274Y27529415D01*
X39782005Y27525241D01*
X39724661Y27504052D01*
X39666149Y27486303D01*
X39642687Y27473762D01*
X39617742Y27464545D01*
X39565636Y27432577D01*
X39511709Y27403753D01*
X39491147Y27386878D01*
X39468477Y27372970D01*
X39423604Y27331447D01*
X39376341Y27292659D01*
X39331732Y27238304D01*
X32048730Y19034000D01*
X31977529Y19034000D01*
X31909500Y19040700D01*
X31841471Y19034000D01*
X31841463Y19034000D01*
X31637993Y19013960D01*
X31376919Y18934764D01*
X31136312Y18806157D01*
X30925419Y18633081D01*
X30882046Y18580231D01*
X30383729Y18081914D01*
X30342485Y18103959D01*
X30273822Y18160309D01*
X30074561Y18266816D01*
X29858351Y18332403D01*
X29689840Y18349000D01*
X29689829Y18349000D01*
X29633500Y18354548D01*
X29577171Y18349000D01*
X29302072Y18349000D01*
X29302072Y18622000D01*
X29286929Y18775745D01*
X29262886Y18855007D01*
X29300342Y18978484D01*
X29331911Y19299001D01*
X29300342Y19619516D01*
X29206851Y19927714D01*
X29134001Y20064007D01*
X29134001Y23218680D01*
X29141912Y23298999D01*
X29129439Y23425637D01*
X29110344Y23619515D01*
X29016853Y23927714D01*
X28865032Y24211751D01*
X28660715Y24460713D01*
X28598321Y24511918D01*
X24969000Y28141238D01*
X24969000Y30481680D01*
X24976911Y30562000D01*
X24969000Y30642319D01*
X24969000Y31900808D01*
X24972072Y31932000D01*
X24972072Y32632860D01*
X24976912Y32682000D01*
X24972072Y32731140D01*
X24972072Y33432000D01*
X24959812Y33556482D01*
X24923502Y33676180D01*
X24864537Y33786494D01*
X24785185Y33883185D01*
X24688494Y33962537D01*
X24578180Y34021502D01*
X24458482Y34057812D01*
X24334000Y34070072D01*
X24205515Y34070072D01*
X24003082Y34178275D01*
X23962715Y34199852D01*
X23654516Y34293343D01*
X23334000Y34324912D01*
X23013483Y34293343D01*
X22792314Y34226252D01*
X22705285Y34199852D01*
X22462484Y34070072D01*
X22334000Y34070072D01*
X22209518Y34057812D01*
X22089820Y34021502D01*
X21979506Y33962537D01*
X21882815Y33883185D01*
X21803463Y33786494D01*
X21744498Y33676180D01*
X21708188Y33556482D01*
X21695928Y33432000D01*
X21695928Y33413500D01*
X20952340Y33413500D01*
X20896000Y33419049D01*
X20839661Y33413500D01*
X20839660Y33413500D01*
X20671149Y33396903D01*
X20655223Y33392072D01*
X20439750Y33392072D01*
X20267715Y33375128D01*
X20102291Y33324947D01*
X19949836Y33243458D01*
X19827428Y33143000D01*
X19769890Y33143000D01*
X19722180Y33168502D01*
X19602482Y33204812D01*
X19478000Y33217072D01*
X18418000Y33217072D01*
X18293518Y33204812D01*
X18173820Y33168502D01*
X18063506Y33109537D01*
X17966815Y33030185D01*
X17887463Y32933494D01*
X17848000Y32859665D01*
X17808537Y32933494D01*
X17729185Y33030185D01*
X17666291Y33081801D01*
X17625502Y33131502D01*
X17501538Y33233236D01*
X17522180Y33239498D01*
X17632494Y33298463D01*
X17729185Y33377815D01*
X17808537Y33474506D01*
X17867502Y33584820D01*
X17903812Y33704518D01*
X17916072Y33829000D01*
X17916072Y34479000D01*
X17903812Y34603482D01*
X17867502Y34723180D01*
X17808537Y34833494D01*
X17729185Y34930185D01*
X17632494Y35009537D01*
X17522180Y35068502D01*
X17402482Y35104812D01*
X17278000Y35117072D01*
X16218000Y35117072D01*
X16093518Y35104812D01*
X15973820Y35068502D01*
X15926110Y35043000D01*
X15768159Y35043000D01*
X15724499Y35047300D01*
X15680839Y35043000D01*
X15680833Y35043000D01*
X15583424Y35033406D01*
X15550224Y35030136D01*
X15448558Y34999296D01*
X15382649Y34979303D01*
X15228209Y34896753D01*
X15092841Y34785659D01*
X15065005Y34751741D01*
X14872336Y34559072D01*
X14797750Y34559072D01*
X14630592Y34542608D01*
X14469858Y34493850D01*
X14321725Y34414671D01*
X14191885Y34308115D01*
X14085329Y34178275D01*
X14006150Y34030142D01*
X13957392Y33869408D01*
X13940928Y33702250D01*
X13940928Y33627663D01*
X13527249Y33213984D01*
X13493332Y33186149D01*
X13465497Y33152232D01*
X13465495Y33152230D01*
X13382238Y33050781D01*
X13299688Y32896342D01*
X13248854Y32728764D01*
X13231690Y32554490D01*
X13235991Y32510821D01*
X13235990Y31408171D01*
X13231690Y31364510D01*
X13235990Y31320850D01*
X13235990Y31320844D01*
X13242254Y31257247D01*
X13248854Y31190236D01*
X13259605Y31154794D01*
X13296744Y31032364D01*
X13299688Y31022658D01*
X13307074Y31008840D01*
X13382237Y30868220D01*
X13493331Y30732851D01*
X13527254Y30705011D01*
X13940928Y30291337D01*
X13940928Y30216750D01*
X13957392Y30049592D01*
X14006150Y29888858D01*
X14085329Y29740725D01*
X14161426Y29648000D01*
X14085329Y29555275D01*
X14006150Y29407142D01*
X13957392Y29246408D01*
X13950151Y29172886D01*
X13923597Y29085351D01*
X13901451Y28860500D01*
X13907000Y28804160D01*
X13907000Y28019239D01*
X11922687Y26034925D01*
X11922676Y26034916D01*
X11160674Y25272913D01*
X11098287Y25221714D01*
X11047087Y25159327D01*
X9128686Y23240924D01*
X9066286Y23189714D01*
X9015080Y23127319D01*
X6522990Y20635228D01*
X6267248Y20498531D01*
X6018286Y20294214D01*
X5813969Y20045252D01*
X5662148Y19761215D01*
X5568657Y19453016D01*
X5541534Y19177628D01*
X5449329Y19065275D01*
X5370150Y18917142D01*
X5321392Y18756408D01*
X5314150Y18682880D01*
X5287598Y18595350D01*
X5265452Y18370500D01*
X5287598Y18145650D01*
X5314150Y18058120D01*
X5321392Y17984592D01*
X5370150Y17823858D01*
X5449329Y17675725D01*
X5525426Y17583000D01*
X5449329Y17490275D01*
X5401854Y17401456D01*
X5205058Y17204660D01*
X5050149Y17189403D01*
X4833939Y17123816D01*
X4742610Y17075000D01*
X4567098Y17075000D01*
X4417829Y17060298D01*
X4226313Y17002202D01*
X4132000Y16951791D01*
X4037687Y17002202D01*
X3846171Y17060298D01*
X3696902Y17075000D01*
X3521390Y17075000D01*
X3430061Y17123816D01*
X3213851Y17189403D01*
X3045340Y17206000D01*
X2935148Y17206000D01*
X2893850Y17342142D01*
X2814671Y17490275D01*
X2708115Y17620115D01*
X2578275Y17726671D01*
X2430142Y17805850D01*
X2269408Y17854608D01*
X2102250Y17871072D01*
X1589750Y17871072D01*
X1422592Y17854608D01*
X1261858Y17805850D01*
X1113725Y17726671D01*
X983885Y17620115D01*
X877329Y17490275D01*
X798150Y17342142D01*
X756852Y17206000D01*
X-1891787Y17206000D01*
X-1907313Y17229237D01*
X-2190763Y17512687D01*
X-2524066Y17735393D01*
X-2894413Y17888796D01*
X-3287570Y17967000D01*
X-3688430Y17967000D01*
X-4081587Y17888796D01*
X-4451934Y17735393D01*
X-4785237Y17512687D01*
X-5068687Y17229237D01*
X-5291393Y16895934D01*
X-5444796Y16525587D01*
X-5523000Y16132430D01*
X-7290000Y16132430D01*
X-7290000Y42062000D01*
X-2424072Y42062000D01*
X-2424072Y38062000D01*
X-2411812Y37937518D01*
X-2375502Y37817820D01*
X-2316537Y37707506D01*
X-2237185Y37610815D01*
X-2140494Y37531463D01*
X-2030180Y37472498D01*
X-1910482Y37436188D01*
X-1786000Y37423928D01*
X893749Y37423928D01*
X819820Y37401502D01*
X709506Y37342537D01*
X612815Y37263185D01*
X533463Y37166494D01*
X474498Y37056180D01*
X438188Y36936482D01*
X425928Y36812000D01*
X425928Y33312000D01*
X438188Y33187518D01*
X474498Y33067820D01*
X533463Y32957506D01*
X612815Y32860815D01*
X709506Y32781463D01*
X819820Y32722498D01*
X939518Y32686188D01*
X1064000Y32673928D01*
X5064000Y32673928D01*
X5188482Y32686188D01*
X5308180Y32722498D01*
X5418494Y32781463D01*
X5515185Y32860815D01*
X5594537Y32957506D01*
X5653502Y33067820D01*
X5689812Y33187518D01*
X5702072Y33312000D01*
X5702072Y36812000D01*
X5689812Y36936482D01*
X5653502Y37056180D01*
X5594537Y37166494D01*
X5515185Y37263185D01*
X5418494Y37342537D01*
X5308180Y37401502D01*
X5234251Y37423928D01*
X7914000Y37423928D01*
X8038482Y37436188D01*
X8158180Y37472498D01*
X8268494Y37531463D01*
X8288035Y37547500D01*
X19743452Y37547500D01*
X19765598Y37322650D01*
X19792150Y37235120D01*
X19799392Y37161592D01*
X19848150Y37000858D01*
X19927329Y36852725D01*
X20033885Y36722885D01*
X20163725Y36616329D01*
X20252544Y36568854D01*
X20310608Y36510790D01*
X20346525Y36467025D01*
X20521178Y36323691D01*
X20720439Y36217184D01*
X20936649Y36151597D01*
X21105160Y36135000D01*
X21105168Y36135000D01*
X21161500Y36129452D01*
X21217832Y36135000D01*
X21838347Y36135000D01*
X21882815Y36080815D01*
X21979506Y36001463D01*
X22089820Y35942498D01*
X22209518Y35906188D01*
X22334000Y35893928D01*
X22462486Y35893928D01*
X22705286Y35764148D01*
X23013484Y35670658D01*
X23334000Y35639089D01*
X23654516Y35670658D01*
X23962714Y35764148D01*
X24205514Y35893928D01*
X24334000Y35893928D01*
X24458482Y35906188D01*
X24578180Y35942498D01*
X24688494Y36001463D01*
X24785185Y36080815D01*
X24864537Y36177506D01*
X24923502Y36287820D01*
X24959812Y36407518D01*
X24972072Y36532000D01*
X24972072Y36607834D01*
X24983315Y36619076D01*
X25045714Y36670286D01*
X25096923Y36732685D01*
X28439240Y40075000D01*
X36013681Y40075000D01*
X36094000Y40067089D01*
X36174319Y40075000D01*
X36174322Y40075000D01*
X36414516Y40098657D01*
X36722715Y40192148D01*
X37006752Y40343969D01*
X37255714Y40548286D01*
X37302258Y40605000D01*
X38335835Y40605000D01*
X38396500Y40599025D01*
X38457165Y40605000D01*
X38638602Y40622870D01*
X38871401Y40693489D01*
X39085949Y40808167D01*
X39274002Y40962498D01*
X39428333Y41150551D01*
X39543011Y41365099D01*
X39613630Y41597898D01*
X39637475Y41840000D01*
X39631500Y41900665D01*
X39631500Y42681011D01*
X39656180Y42688498D01*
X39766494Y42747463D01*
X39863185Y42826815D01*
X39942537Y42923506D01*
X40001502Y43033820D01*
X40037812Y43153518D01*
X40050072Y43278000D01*
X40050072Y43406485D01*
X40179851Y43649284D01*
X40273342Y43957483D01*
X40304911Y44277999D01*
X40273342Y44598516D01*
X40179851Y44906714D01*
X40050072Y45149514D01*
X40050072Y45278000D01*
X40037812Y45402482D01*
X40001502Y45522180D01*
X39942537Y45632494D01*
X39863185Y45729185D01*
X39766494Y45808537D01*
X39656180Y45867502D01*
X39536482Y45903812D01*
X39412000Y45916072D01*
X38711129Y45916072D01*
X38661999Y45920911D01*
X38612869Y45916072D01*
X37912000Y45916072D01*
X37787518Y45903812D01*
X37667820Y45867502D01*
X37557506Y45808537D01*
X37460815Y45729185D01*
X37381463Y45632494D01*
X37322498Y45522180D01*
X37286188Y45402482D01*
X37273928Y45278000D01*
X37273928Y45202167D01*
X35416762Y43345000D01*
X27842322Y43345000D01*
X27762000Y43352911D01*
X27681678Y43345000D01*
X25504177Y43345000D01*
X25442715Y43377852D01*
X25134516Y43471343D01*
X24894322Y43495000D01*
X24894319Y43495000D01*
X24814000Y43502911D01*
X24733681Y43495000D01*
X23964322Y43495000D01*
X23884000Y43502911D01*
X23803678Y43495000D01*
X23563484Y43471343D01*
X23255285Y43377852D01*
X22971248Y43226031D01*
X22805964Y43090386D01*
X22759518Y43085812D01*
X22639820Y43049502D01*
X22529506Y42990537D01*
X22432815Y42911185D01*
X22353463Y42814494D01*
X22294498Y42704180D01*
X22258188Y42584482D01*
X22245928Y42460000D01*
X22245928Y41909131D01*
X22241089Y41860000D01*
X22245928Y41810869D01*
X22245928Y41260000D01*
X22249000Y41228808D01*
X22249000Y40710322D01*
X22241089Y40630000D01*
X22249000Y40549680D01*
X22249000Y40522603D01*
X20252544Y38526146D01*
X20163725Y38478671D01*
X20033885Y38372115D01*
X19927329Y38242275D01*
X19848150Y38094142D01*
X19799392Y37933408D01*
X19792150Y37859880D01*
X19765598Y37772350D01*
X19743452Y37547500D01*
X8288035Y37547500D01*
X8365185Y37610815D01*
X8444537Y37707506D01*
X8503502Y37817820D01*
X8539812Y37937518D01*
X8552072Y38062000D01*
X8552072Y40075000D01*
X16153681Y40075000D01*
X16234000Y40067089D01*
X16314319Y40075000D01*
X16314322Y40075000D01*
X16554516Y40098657D01*
X16862715Y40192148D01*
X17146752Y40343969D01*
X17395714Y40548286D01*
X17446925Y40610687D01*
X17466268Y40630030D01*
X17508482Y40634188D01*
X17628180Y40670498D01*
X17738494Y40729463D01*
X17835185Y40808815D01*
X17914537Y40905506D01*
X17973502Y41015820D01*
X18009812Y41135518D01*
X18022072Y41260000D01*
X18022072Y41810869D01*
X18026911Y41859999D01*
X18022072Y41909129D01*
X18022072Y42240837D01*
X21722237Y45941002D01*
X21756159Y45968841D01*
X21867253Y46104209D01*
X21949803Y46258649D01*
X21973815Y46337806D01*
X22000636Y46426224D01*
X22003958Y46459958D01*
X22004725Y46459329D01*
X22152858Y46380150D01*
X22313592Y46331392D01*
X22480750Y46314928D01*
X22918250Y46314928D01*
X23085408Y46331392D01*
X23246142Y46380150D01*
X23352294Y46436889D01*
X23521495Y46267688D01*
X23772905Y46099701D01*
X24052257Y45983989D01*
X24348816Y45925000D01*
X24651184Y45925000D01*
X24947743Y45983989D01*
X25227095Y46099701D01*
X25478505Y46267688D01*
X25692312Y46481495D01*
X25860299Y46732905D01*
X25976011Y47012257D01*
X26035000Y47308816D01*
X26035000Y47611184D01*
X25976011Y47907743D01*
X25860299Y48187095D01*
X25692312Y48438505D01*
X25625873Y48504944D01*
X25644180Y48510498D01*
X25754494Y48569463D01*
X25851185Y48648815D01*
X25930537Y48745506D01*
X25989502Y48855820D01*
X26025812Y48975518D01*
X26038072Y49100000D01*
X26038072Y50900000D01*
X26025812Y51024482D01*
X25989502Y51144180D01*
X25930537Y51254494D01*
X25851185Y51351185D01*
X25754494Y51430537D01*
X25644180Y51489502D01*
X25524482Y51525812D01*
X25400000Y51538072D01*
X23600000Y51538072D01*
X23475518Y51525812D01*
X23355820Y51489502D01*
X23245506Y51430537D01*
X23148815Y51351185D01*
X23069463Y51254494D01*
X23010498Y51144180D01*
X22974188Y51024482D01*
X22961928Y50900000D01*
X22961928Y50889000D01*
X22067659Y50889000D01*
X22023999Y50893300D01*
X21980339Y50889000D01*
X21980333Y50889000D01*
X21882924Y50879406D01*
X21849724Y50876136D01*
X21748058Y50845296D01*
X21682149Y50825303D01*
X21527709Y50742753D01*
X21392341Y50631659D01*
X21364506Y50597742D01*
X16810466Y46043701D01*
X16554516Y46121343D01*
X16314322Y46145000D01*
X16314319Y46145000D01*
X16234000Y46152911D01*
X16153681Y46145000D01*
X4492319Y46145000D01*
X4412000Y46152911D01*
X4331680Y46145000D01*
X4331678Y46145000D01*
X4091484Y46121343D01*
X3783285Y46027852D01*
X3499248Y45876031D01*
X3250286Y45671714D01*
X3199080Y45609319D01*
X289834Y42700072D01*
X-1786000Y42700072D01*
X-1910482Y42687812D01*
X-2030180Y42651502D01*
X-2140494Y42592537D01*
X-2237185Y42513185D01*
X-2316537Y42416494D01*
X-2375502Y42306180D01*
X-2411812Y42186482D01*
X-2424072Y42062000D01*
X-7290000Y42062000D01*
X-7290000Y45965279D01*
X-7262093Y46249899D01*
X-7189516Y46490285D01*
X-7071632Y46711991D01*
X-6912932Y46906577D01*
X-6719455Y47066635D01*
X-6498576Y47186064D01*
X-6258703Y47260317D01*
X-5976284Y47290000D01*
X8965123Y47290000D01*
X9000000Y47286565D01*
X9034877Y47290000D01*
X9073867Y47293840D01*
X9139184Y47300273D01*
X9273020Y47340872D01*
X9396363Y47406800D01*
X9504475Y47495525D01*
X9593200Y47603637D01*
X9659128Y47726980D01*
X9699727Y47860816D01*
X9704349Y47907743D01*
X9713435Y48000000D01*
X9710000Y48034877D01*
X9710000Y51965279D01*
X9775998Y52638370D01*
X9961392Y53252424D01*
X10262525Y53818773D01*
X10667928Y54315848D01*
X11162159Y54724712D01*
X11726389Y55029790D01*
X12339137Y55219467D01*
X13010204Y55290000D01*
X50965279Y55290000D01*
X51638370Y55224002D01*
G04 #@! TA.AperFunction,Conductor*
D36*
G36*
X51638370Y55224002D02*
G01*
X52252424Y55038608D01*
X52818773Y54737475D01*
X53315848Y54332072D01*
X53724712Y53837841D01*
X54029790Y53273611D01*
X54219467Y52660863D01*
X54290000Y51989796D01*
X54290001Y48034887D01*
X54286565Y48000000D01*
X54300273Y47860816D01*
X54340872Y47726980D01*
X54406800Y47603637D01*
X54495525Y47495525D01*
X54603637Y47406800D01*
X54726980Y47340872D01*
X54860816Y47300273D01*
X54965123Y47290000D01*
X55000000Y47286565D01*
X55034877Y47290000D01*
X60965279Y47290000D01*
X61249899Y47262093D01*
X61490285Y47189516D01*
X61711991Y47071632D01*
X61906577Y46912932D01*
X62066635Y46719455D01*
X62186064Y46498576D01*
X62260317Y46258703D01*
X62290000Y45976284D01*
X62290001Y2034731D01*
X62262093Y1750101D01*
X62189517Y1509718D01*
X62071633Y1288011D01*
X61912929Y1093420D01*
X61719455Y933365D01*
X61498576Y813936D01*
X61258701Y739683D01*
X60976291Y710000D01*
X46034877Y710000D01*
X46000000Y713435D01*
X45965123Y710000D01*
X45860816Y699727D01*
X45726980Y659128D01*
X45603637Y593200D01*
X45495525Y504475D01*
X45406800Y396363D01*
X45340872Y273020D01*
X45300273Y139184D01*
X45286565Y0D01*
X45290001Y-34887D01*
X45290000Y-3965280D01*
X45224004Y-4638366D01*
X45038607Y-5252428D01*
X44737474Y-5818775D01*
X44332071Y-6315847D01*
X43837842Y-6724710D01*
X43273611Y-7029790D01*
X42660862Y-7219467D01*
X41989787Y-7290000D01*
X4034720Y-7290000D01*
X3361634Y-7224004D01*
X2747572Y-7038607D01*
X2181225Y-6737474D01*
X1684153Y-6332071D01*
X1275290Y-5837842D01*
X970210Y-5273611D01*
X780533Y-4660862D01*
X710000Y-3989787D01*
X710000Y-34877D01*
X713435Y0D01*
X699727Y139184D01*
X659128Y273020D01*
X593200Y396363D01*
X504475Y504475D01*
X396363Y593200D01*
X273020Y659128D01*
X139184Y699727D01*
X34877Y710000D01*
X0Y713435D01*
X-34877Y710000D01*
X-5965279Y710000D01*
X-6249899Y737907D01*
X-6490282Y810483D01*
X-6711989Y928367D01*
X-6906580Y1087071D01*
X-7066635Y1280545D01*
X-7186064Y1501424D01*
X-7260317Y1741299D01*
X-7290000Y2023709D01*
X-7290000Y16132430D01*
X-5523000Y16132430D01*
X-5523000Y15731570D01*
X-5444796Y15338413D01*
X-5291393Y14968066D01*
X-5068687Y14634763D01*
X-4785237Y14351313D01*
X-4451934Y14128607D01*
X-4081587Y13975204D01*
X-3688430Y13897000D01*
X-3287570Y13897000D01*
X-2894413Y13975204D01*
X-2524066Y14128607D01*
X-2190763Y14351313D01*
X-1907313Y14634763D01*
X-1722069Y14912000D01*
X756852Y14912000D01*
X798150Y14775858D01*
X877329Y14627725D01*
X983885Y14497885D01*
X1113725Y14391329D01*
X1261858Y14312150D01*
X1422592Y14263392D01*
X1589750Y14246928D01*
X2102250Y14246928D01*
X2269408Y14263392D01*
X2430142Y14312150D01*
X2578275Y14391329D01*
X2708115Y14497885D01*
X2814671Y14627725D01*
X2893850Y14775858D01*
X2935148Y14912000D01*
X3045340Y14912000D01*
X3213851Y14928597D01*
X3430061Y14994184D01*
X3521390Y15043000D01*
X3696902Y15043000D01*
X3846171Y15057702D01*
X4037687Y15115798D01*
X4132000Y15166209D01*
X4226313Y15115798D01*
X4417829Y15057702D01*
X4567098Y15043000D01*
X4742610Y15043000D01*
X4833939Y14994184D01*
X5050149Y14928597D01*
X5205058Y14913340D01*
X5401854Y14716544D01*
X5449329Y14627725D01*
X5555885Y14497885D01*
X5685725Y14391329D01*
X5833858Y14312150D01*
X5929082Y14283264D01*
X5976938Y14257685D01*
X6193149Y14192098D01*
X6417999Y14169952D01*
X6418000Y14169952D01*
X6642850Y14192098D01*
X6859061Y14257685D01*
X6906915Y14283263D01*
X7002142Y14312150D01*
X7150275Y14391329D01*
X7280115Y14497885D01*
X7386671Y14627725D01*
X7434146Y14716544D01*
X7629602Y14912000D01*
X7941610Y14912000D01*
X7910150Y14853142D01*
X7861392Y14692408D01*
X7844928Y14525250D01*
X7844928Y14087750D01*
X7861392Y13920592D01*
X7910150Y13759858D01*
X7989329Y13611725D01*
X8095885Y13481885D01*
X8225725Y13375329D01*
X8373858Y13296150D01*
X8534592Y13247392D01*
X8701750Y13230928D01*
X9214250Y13230928D01*
X9381408Y13247392D01*
X9542142Y13296150D01*
X9690275Y13375329D01*
X9820115Y13481885D01*
X9926671Y13611725D01*
X10005850Y13759858D01*
X10009837Y13773000D01*
X10218404Y13773000D01*
X10330255Y13739071D01*
X10484000Y13723928D01*
X11812755Y13723928D01*
X11279543Y13190716D01*
X10683641Y12594813D01*
X10217873Y12129045D01*
X10179105Y12097229D01*
X10052141Y11942523D01*
X9957799Y11766019D01*
X9914133Y11622072D01*
X9899703Y11574503D01*
X9880086Y11375333D01*
X9885001Y11325431D01*
X9885002Y10610978D01*
X9749725Y10538671D01*
X9619885Y10432115D01*
X9513329Y10302275D01*
X9434150Y10154142D01*
X9385392Y9993408D01*
X9368928Y9826250D01*
X9368928Y9388750D01*
X9385392Y9221592D01*
X9434150Y9060858D01*
X9513329Y8912725D01*
X9589426Y8820000D01*
X9513329Y8727275D01*
X9434150Y8579142D01*
X9385392Y8418408D01*
X9368928Y8251250D01*
X9368928Y7813750D01*
X9385392Y7646592D01*
X9434150Y7485858D01*
X9513329Y7337725D01*
X9619885Y7207885D01*
X9749725Y7101329D01*
X9897858Y7022150D01*
X10058592Y6973392D01*
X10109258Y6968402D01*
X20370792Y-3293133D01*
X20402604Y-3331896D01*
X20557310Y-3458860D01*
X20705507Y-3538072D01*
X20733813Y-3553202D01*
X20925329Y-3611298D01*
X21124500Y-3630915D01*
X21174402Y-3626000D01*
X24656098Y-3626000D01*
X24706000Y-3630915D01*
X24755902Y-3626000D01*
X30498098Y-3626000D01*
X30548000Y-3630915D01*
X30597902Y-3626000D01*
X30747171Y-3611298D01*
X30938687Y-3553202D01*
X31115190Y-3458860D01*
X31269896Y-3331896D01*
X31301712Y-3293128D01*
X33009133Y-1585708D01*
X33047896Y-1553896D01*
X33174860Y-1399190D01*
X33269202Y-1222687D01*
X33327298Y-1031171D01*
X33342000Y-881902D01*
X33346915Y-832000D01*
X33342000Y-782098D01*
X33342000Y2002336D01*
X33346915Y2052238D01*
X33332757Y2195989D01*
X33327298Y2251409D01*
X33269202Y2442925D01*
X33174860Y2619428D01*
X33047896Y2774134D01*
X33009133Y2805946D01*
X31564000Y4251078D01*
X31564000Y4856098D01*
X31568915Y4906000D01*
X31564000Y4955902D01*
X31564000Y8262107D01*
X31568914Y8312001D01*
X31564000Y8361895D01*
X31564000Y8361902D01*
X31549298Y8511171D01*
X31543002Y8531928D01*
X31522446Y8599689D01*
X31491202Y8702687D01*
X31473683Y8735462D01*
X31573687Y8765798D01*
X31750190Y8860140D01*
X31904896Y8987104D01*
X31936713Y9025873D01*
X32159963Y9249123D01*
X32259060Y9279184D01*
X32458321Y9385691D01*
X32632975Y9529025D01*
X32776309Y9703678D01*
X32882816Y9902939D01*
X32948403Y10119149D01*
X32965000Y10287660D01*
X32965000Y16132430D01*
X56453000Y16132430D01*
X56453000Y15731570D01*
X56531204Y15338413D01*
X56684607Y14968066D01*
X56907313Y14634763D01*
X57190763Y14351313D01*
X57524066Y14128607D01*
X57894413Y13975204D01*
X58287570Y13897000D01*
X58688430Y13897000D01*
X59081587Y13975204D01*
X59451934Y14128607D01*
X59785237Y14351313D01*
X60068687Y14634763D01*
X60291393Y14968066D01*
X60444796Y15338413D01*
X60523000Y15731570D01*
X60523000Y16132430D01*
X60444796Y16525587D01*
X60291393Y16895934D01*
X60068687Y17229237D01*
X59785237Y17512687D01*
X59451934Y17735393D01*
X59081587Y17888796D01*
X58688430Y17967000D01*
X58287570Y17967000D01*
X57894413Y17888796D01*
X57524066Y17735393D01*
X57190763Y17512687D01*
X56907313Y17229237D01*
X56684607Y16895934D01*
X56531204Y16525587D01*
X56453000Y16132430D01*
X32965000Y16132430D01*
X32965000Y16642694D01*
X32992081Y16664919D01*
X33070112Y16760000D01*
X41334110Y16760000D01*
X41381820Y16734498D01*
X41501518Y16698188D01*
X41626000Y16685928D01*
X43186000Y16685928D01*
X43310482Y16698188D01*
X43430180Y16734498D01*
X43540494Y16793463D01*
X43637185Y16872815D01*
X43716537Y16969506D01*
X43756000Y17043335D01*
X43795463Y16969506D01*
X43874815Y16872815D01*
X43971506Y16793463D01*
X44081820Y16734498D01*
X44201518Y16698188D01*
X44326000Y16685928D01*
X45886000Y16685928D01*
X46010482Y16698188D01*
X46130180Y16734498D01*
X46177890Y16760000D01*
X46361525Y16760000D01*
X46378875Y16750726D01*
X46526243Y16706023D01*
X46679500Y16690928D01*
X46974500Y16690928D01*
X47127757Y16706023D01*
X47275125Y16750726D01*
X47312000Y16770436D01*
X47348875Y16750726D01*
X47496243Y16706023D01*
X47649500Y16690928D01*
X47944500Y16690928D01*
X48097757Y16706023D01*
X48245125Y16750726D01*
X48262475Y16760000D01*
X49490794Y16760000D01*
X49561046Y16757276D01*
X49621425Y16766871D01*
X49682274Y16772864D01*
X49707727Y16780585D01*
X49733994Y16784759D01*
X49791339Y16805948D01*
X49849851Y16823697D01*
X49873310Y16836236D01*
X49898257Y16845454D01*
X49950365Y16877423D01*
X50004291Y16906247D01*
X50024855Y16923124D01*
X50047522Y16937030D01*
X50092392Y16978550D01*
X50139659Y17017341D01*
X50184269Y17071698D01*
X57466145Y25274731D01*
X57682507Y25296040D01*
X57943580Y25375236D01*
X58184188Y25503844D01*
X58342233Y25633548D01*
X59419236Y26710550D01*
X59472081Y26753919D01*
X59517663Y26809460D01*
X59618645Y26932507D01*
X59645157Y26964812D01*
X59773764Y27205419D01*
X59785191Y27243089D01*
X59852960Y27466492D01*
X59858762Y27525404D01*
X59873000Y27669963D01*
X59873000Y27669970D01*
X59879700Y27737999D01*
X59873000Y27806028D01*
X59873000Y30575076D01*
X60068687Y30770763D01*
X60291393Y31104066D01*
X60444796Y31474413D01*
X60523000Y31867570D01*
X60523000Y32268430D01*
X60444796Y32661587D01*
X60291393Y33031934D01*
X60068687Y33365237D01*
X59785237Y33648687D01*
X59451934Y33871393D01*
X59081587Y34024796D01*
X58688430Y34103000D01*
X58287570Y34103000D01*
X57894413Y34024796D01*
X57524066Y33871393D01*
X57190763Y33648687D01*
X56907313Y33365237D01*
X56684607Y33031934D01*
X56531204Y32661587D01*
X56453000Y32268430D01*
X56453000Y31867570D01*
X56531204Y31474413D01*
X56684607Y31104066D01*
X56907313Y30770763D01*
X57103000Y30575076D01*
X57103001Y28311686D01*
X56383548Y27592233D01*
X56348888Y27550000D01*
X49385725Y27550000D01*
X49438960Y27725493D01*
X49465701Y27997000D01*
X49438960Y28268507D01*
X49359764Y28529581D01*
X49231157Y28770188D01*
X49101452Y28928234D01*
X49101450Y28928236D01*
X49058081Y28981081D01*
X49005236Y29024450D01*
X48820000Y29209686D01*
X48820000Y40274681D01*
X48827911Y40355001D01*
X48817176Y40463992D01*
X48796343Y40675516D01*
X48702852Y40983715D01*
X48551031Y41267752D01*
X48346714Y41516714D01*
X48284319Y41567920D01*
X46619923Y43232315D01*
X46568714Y43294714D01*
X46506316Y43345922D01*
X45559920Y44292318D01*
X45559916Y44292323D01*
X44650072Y45202166D01*
X44650072Y45278000D01*
X44637812Y45402482D01*
X44601502Y45522180D01*
X44542537Y45632494D01*
X44463185Y45729185D01*
X44366494Y45808537D01*
X44256180Y45867502D01*
X44136482Y45903812D01*
X44012000Y45916072D01*
X43311130Y45916072D01*
X43262000Y45920911D01*
X43212870Y45916072D01*
X42512000Y45916072D01*
X42387518Y45903812D01*
X42267820Y45867502D01*
X42157506Y45808537D01*
X42060815Y45729185D01*
X41981463Y45632494D01*
X41922498Y45522180D01*
X41886188Y45402482D01*
X41873928Y45278000D01*
X41873928Y45149514D01*
X41744148Y44906714D01*
X41650658Y44598516D01*
X41619089Y44278000D01*
X41650658Y43957484D01*
X41744148Y43649286D01*
X41873928Y43406486D01*
X41873928Y43278000D01*
X41886188Y43153518D01*
X41922498Y43033820D01*
X41981463Y42923506D01*
X42060815Y42826815D01*
X42157506Y42747463D01*
X42267820Y42688498D01*
X42387518Y42652188D01*
X42442500Y42646773D01*
X42442500Y41900666D01*
X42436525Y41840000D01*
X42451491Y41688048D01*
X42460370Y41597899D01*
X42530989Y41365100D01*
X42558910Y41312864D01*
X42568872Y41211715D01*
X42619053Y41046291D01*
X42700542Y40893836D01*
X42810208Y40760208D01*
X42943836Y40650542D01*
X43096291Y40569053D01*
X43247877Y40523070D01*
X43772000Y39998947D01*
X43772001Y31633331D01*
X43772000Y31633321D01*
X43772001Y29590686D01*
X43612264Y29430949D01*
X43559420Y29387581D01*
X43516050Y29334735D01*
X43516048Y29334733D01*
X43488824Y29301560D01*
X43386343Y29176688D01*
X43257736Y28936081D01*
X43178540Y28675007D01*
X43158500Y28471537D01*
X43158500Y28471529D01*
X43151800Y28403500D01*
X43158500Y28335471D01*
X43158500Y28065037D01*
X43151799Y27997000D01*
X43178540Y27725493D01*
X43210023Y27621706D01*
X43186000Y27624072D01*
X41626000Y27624072D01*
X41501518Y27611812D01*
X41381820Y27575502D01*
X41334110Y27550000D01*
X40025206Y27550000D01*
X39954953Y27552724D01*
X39894573Y27543129D01*
X39833726Y27537136D01*
X39808274Y27529415D01*
X39782005Y27525241D01*
X39724661Y27504052D01*
X39666149Y27486303D01*
X39642687Y27473762D01*
X39617742Y27464545D01*
X39565636Y27432577D01*
X39511709Y27403753D01*
X39491147Y27386878D01*
X39468477Y27372970D01*
X39423604Y27331447D01*
X39376341Y27292659D01*
X39331732Y27238304D01*
X32048730Y19034000D01*
X31977529Y19034000D01*
X31909500Y19040700D01*
X31841471Y19034000D01*
X31841463Y19034000D01*
X31637993Y19013960D01*
X31376919Y18934764D01*
X31136312Y18806157D01*
X30925419Y18633081D01*
X30882046Y18580231D01*
X30383729Y18081914D01*
X30342485Y18103959D01*
X30273822Y18160309D01*
X30074561Y18266816D01*
X29858351Y18332403D01*
X29689840Y18349000D01*
X29689829Y18349000D01*
X29633500Y18354548D01*
X29577171Y18349000D01*
X29302072Y18349000D01*
X29302072Y18622000D01*
X29286929Y18775745D01*
X29262886Y18855007D01*
X29300342Y18978484D01*
X29331911Y19299001D01*
X29300342Y19619516D01*
X29206851Y19927714D01*
X29134001Y20064007D01*
X29134001Y23218680D01*
X29141912Y23298999D01*
X29129439Y23425637D01*
X29110344Y23619515D01*
X29016853Y23927714D01*
X28865032Y24211751D01*
X28660715Y24460713D01*
X28598321Y24511918D01*
X24969000Y28141238D01*
X24969000Y30481680D01*
X24976911Y30562000D01*
X24969000Y30642319D01*
X24969000Y31900808D01*
X24972072Y31932000D01*
X24972072Y32632860D01*
X24976912Y32682000D01*
X24972072Y32731140D01*
X24972072Y33432000D01*
X24959812Y33556482D01*
X24923502Y33676180D01*
X24864537Y33786494D01*
X24785185Y33883185D01*
X24688494Y33962537D01*
X24578180Y34021502D01*
X24458482Y34057812D01*
X24334000Y34070072D01*
X24205515Y34070072D01*
X24003082Y34178275D01*
X23962715Y34199852D01*
X23654516Y34293343D01*
X23334000Y34324912D01*
X23013483Y34293343D01*
X22792314Y34226252D01*
X22705285Y34199852D01*
X22462484Y34070072D01*
X22334000Y34070072D01*
X22209518Y34057812D01*
X22089820Y34021502D01*
X21979506Y33962537D01*
X21882815Y33883185D01*
X21803463Y33786494D01*
X21744498Y33676180D01*
X21708188Y33556482D01*
X21695928Y33432000D01*
X21695928Y33413500D01*
X20952340Y33413500D01*
X20896000Y33419049D01*
X20839661Y33413500D01*
X20839660Y33413500D01*
X20671149Y33396903D01*
X20655223Y33392072D01*
X20439750Y33392072D01*
X20267715Y33375128D01*
X20102291Y33324947D01*
X19949836Y33243458D01*
X19827428Y33143000D01*
X19769890Y33143000D01*
X19722180Y33168502D01*
X19602482Y33204812D01*
X19478000Y33217072D01*
X18418000Y33217072D01*
X18293518Y33204812D01*
X18173820Y33168502D01*
X18063506Y33109537D01*
X17966815Y33030185D01*
X17887463Y32933494D01*
X17848000Y32859665D01*
X17808537Y32933494D01*
X17729185Y33030185D01*
X17666291Y33081801D01*
X17625502Y33131502D01*
X17501538Y33233236D01*
X17522180Y33239498D01*
X17632494Y33298463D01*
X17729185Y33377815D01*
X17808537Y33474506D01*
X17867502Y33584820D01*
X17903812Y33704518D01*
X17916072Y33829000D01*
X17916072Y34479000D01*
X17903812Y34603482D01*
X17867502Y34723180D01*
X17808537Y34833494D01*
X17729185Y34930185D01*
X17632494Y35009537D01*
X17522180Y35068502D01*
X17402482Y35104812D01*
X17278000Y35117072D01*
X16218000Y35117072D01*
X16093518Y35104812D01*
X15973820Y35068502D01*
X15926110Y35043000D01*
X15768159Y35043000D01*
X15724499Y35047300D01*
X15680839Y35043000D01*
X15680833Y35043000D01*
X15583424Y35033406D01*
X15550224Y35030136D01*
X15448558Y34999296D01*
X15382649Y34979303D01*
X15228209Y34896753D01*
X15092841Y34785659D01*
X15065005Y34751741D01*
X14872336Y34559072D01*
X14797750Y34559072D01*
X14630592Y34542608D01*
X14469858Y34493850D01*
X14321725Y34414671D01*
X14191885Y34308115D01*
X14085329Y34178275D01*
X14006150Y34030142D01*
X13957392Y33869408D01*
X13940928Y33702250D01*
X13940928Y33627663D01*
X13527249Y33213984D01*
X13493332Y33186149D01*
X13465497Y33152232D01*
X13465495Y33152230D01*
X13382238Y33050781D01*
X13299688Y32896342D01*
X13248854Y32728764D01*
X13231690Y32554490D01*
X13235991Y32510821D01*
X13235990Y31408171D01*
X13231690Y31364510D01*
X13235990Y31320850D01*
X13235990Y31320844D01*
X13242254Y31257247D01*
X13248854Y31190236D01*
X13259605Y31154794D01*
X13296744Y31032364D01*
X13299688Y31022658D01*
X13307074Y31008840D01*
X13382237Y30868220D01*
X13493331Y30732851D01*
X13527254Y30705011D01*
X13940928Y30291337D01*
X13940928Y30216750D01*
X13957392Y30049592D01*
X14006150Y29888858D01*
X14085329Y29740725D01*
X14161426Y29648000D01*
X14085329Y29555275D01*
X14006150Y29407142D01*
X13957392Y29246408D01*
X13950151Y29172886D01*
X13923597Y29085351D01*
X13901451Y28860500D01*
X13907000Y28804160D01*
X13907000Y28019239D01*
X11922687Y26034925D01*
X11922676Y26034916D01*
X11160674Y25272913D01*
X11098287Y25221714D01*
X11047087Y25159327D01*
X9128686Y23240924D01*
X9066286Y23189714D01*
X9015080Y23127319D01*
X6522990Y20635228D01*
X6267248Y20498531D01*
X6018286Y20294214D01*
X5813969Y20045252D01*
X5662148Y19761215D01*
X5568657Y19453016D01*
X5541534Y19177628D01*
X5449329Y19065275D01*
X5370150Y18917142D01*
X5321392Y18756408D01*
X5314150Y18682880D01*
X5287598Y18595350D01*
X5265452Y18370500D01*
X5287598Y18145650D01*
X5314150Y18058120D01*
X5321392Y17984592D01*
X5370150Y17823858D01*
X5449329Y17675725D01*
X5525426Y17583000D01*
X5449329Y17490275D01*
X5401854Y17401456D01*
X5205058Y17204660D01*
X5050149Y17189403D01*
X4833939Y17123816D01*
X4742610Y17075000D01*
X4567098Y17075000D01*
X4417829Y17060298D01*
X4226313Y17002202D01*
X4132000Y16951791D01*
X4037687Y17002202D01*
X3846171Y17060298D01*
X3696902Y17075000D01*
X3521390Y17075000D01*
X3430061Y17123816D01*
X3213851Y17189403D01*
X3045340Y17206000D01*
X2935148Y17206000D01*
X2893850Y17342142D01*
X2814671Y17490275D01*
X2708115Y17620115D01*
X2578275Y17726671D01*
X2430142Y17805850D01*
X2269408Y17854608D01*
X2102250Y17871072D01*
X1589750Y17871072D01*
X1422592Y17854608D01*
X1261858Y17805850D01*
X1113725Y17726671D01*
X983885Y17620115D01*
X877329Y17490275D01*
X798150Y17342142D01*
X756852Y17206000D01*
X-1891787Y17206000D01*
X-1907313Y17229237D01*
X-2190763Y17512687D01*
X-2524066Y17735393D01*
X-2894413Y17888796D01*
X-3287570Y17967000D01*
X-3688430Y17967000D01*
X-4081587Y17888796D01*
X-4451934Y17735393D01*
X-4785237Y17512687D01*
X-5068687Y17229237D01*
X-5291393Y16895934D01*
X-5444796Y16525587D01*
X-5523000Y16132430D01*
X-7290000Y16132430D01*
X-7290000Y42062000D01*
X-2424072Y42062000D01*
X-2424072Y38062000D01*
X-2411812Y37937518D01*
X-2375502Y37817820D01*
X-2316537Y37707506D01*
X-2237185Y37610815D01*
X-2140494Y37531463D01*
X-2030180Y37472498D01*
X-1910482Y37436188D01*
X-1786000Y37423928D01*
X893749Y37423928D01*
X819820Y37401502D01*
X709506Y37342537D01*
X612815Y37263185D01*
X533463Y37166494D01*
X474498Y37056180D01*
X438188Y36936482D01*
X425928Y36812000D01*
X425928Y33312000D01*
X438188Y33187518D01*
X474498Y33067820D01*
X533463Y32957506D01*
X612815Y32860815D01*
X709506Y32781463D01*
X819820Y32722498D01*
X939518Y32686188D01*
X1064000Y32673928D01*
X5064000Y32673928D01*
X5188482Y32686188D01*
X5308180Y32722498D01*
X5418494Y32781463D01*
X5515185Y32860815D01*
X5594537Y32957506D01*
X5653502Y33067820D01*
X5689812Y33187518D01*
X5702072Y33312000D01*
X5702072Y36812000D01*
X5689812Y36936482D01*
X5653502Y37056180D01*
X5594537Y37166494D01*
X5515185Y37263185D01*
X5418494Y37342537D01*
X5308180Y37401502D01*
X5234251Y37423928D01*
X7914000Y37423928D01*
X8038482Y37436188D01*
X8158180Y37472498D01*
X8268494Y37531463D01*
X8288035Y37547500D01*
X19743452Y37547500D01*
X19765598Y37322650D01*
X19792150Y37235120D01*
X19799392Y37161592D01*
X19848150Y37000858D01*
X19927329Y36852725D01*
X20033885Y36722885D01*
X20163725Y36616329D01*
X20252544Y36568854D01*
X20310608Y36510790D01*
X20346525Y36467025D01*
X20521178Y36323691D01*
X20720439Y36217184D01*
X20936649Y36151597D01*
X21105160Y36135000D01*
X21105168Y36135000D01*
X21161500Y36129452D01*
X21217832Y36135000D01*
X21838347Y36135000D01*
X21882815Y36080815D01*
X21979506Y36001463D01*
X22089820Y35942498D01*
X22209518Y35906188D01*
X22334000Y35893928D01*
X22462486Y35893928D01*
X22705286Y35764148D01*
X23013484Y35670658D01*
X23334000Y35639089D01*
X23654516Y35670658D01*
X23962714Y35764148D01*
X24205514Y35893928D01*
X24334000Y35893928D01*
X24458482Y35906188D01*
X24578180Y35942498D01*
X24688494Y36001463D01*
X24785185Y36080815D01*
X24864537Y36177506D01*
X24923502Y36287820D01*
X24959812Y36407518D01*
X24972072Y36532000D01*
X24972072Y36607834D01*
X24983315Y36619076D01*
X25045714Y36670286D01*
X25096923Y36732685D01*
X28439240Y40075000D01*
X36013681Y40075000D01*
X36094000Y40067089D01*
X36174319Y40075000D01*
X36174322Y40075000D01*
X36414516Y40098657D01*
X36722715Y40192148D01*
X37006752Y40343969D01*
X37255714Y40548286D01*
X37302258Y40605000D01*
X38335835Y40605000D01*
X38396500Y40599025D01*
X38457165Y40605000D01*
X38638602Y40622870D01*
X38871401Y40693489D01*
X39085949Y40808167D01*
X39274002Y40962498D01*
X39428333Y41150551D01*
X39543011Y41365099D01*
X39613630Y41597898D01*
X39637475Y41840000D01*
X39631500Y41900665D01*
X39631500Y42681011D01*
X39656180Y42688498D01*
X39766494Y42747463D01*
X39863185Y42826815D01*
X39942537Y42923506D01*
X40001502Y43033820D01*
X40037812Y43153518D01*
X40050072Y43278000D01*
X40050072Y43406485D01*
X40179851Y43649284D01*
X40273342Y43957483D01*
X40304911Y44277999D01*
X40273342Y44598516D01*
X40179851Y44906714D01*
X40050072Y45149514D01*
X40050072Y45278000D01*
X40037812Y45402482D01*
X40001502Y45522180D01*
X39942537Y45632494D01*
X39863185Y45729185D01*
X39766494Y45808537D01*
X39656180Y45867502D01*
X39536482Y45903812D01*
X39412000Y45916072D01*
X38711129Y45916072D01*
X38661999Y45920911D01*
X38612869Y45916072D01*
X37912000Y45916072D01*
X37787518Y45903812D01*
X37667820Y45867502D01*
X37557506Y45808537D01*
X37460815Y45729185D01*
X37381463Y45632494D01*
X37322498Y45522180D01*
X37286188Y45402482D01*
X37273928Y45278000D01*
X37273928Y45202167D01*
X35416762Y43345000D01*
X27842322Y43345000D01*
X27762000Y43352911D01*
X27681678Y43345000D01*
X25504177Y43345000D01*
X25442715Y43377852D01*
X25134516Y43471343D01*
X24894322Y43495000D01*
X24894319Y43495000D01*
X24814000Y43502911D01*
X24733681Y43495000D01*
X23964322Y43495000D01*
X23884000Y43502911D01*
X23803678Y43495000D01*
X23563484Y43471343D01*
X23255285Y43377852D01*
X22971248Y43226031D01*
X22805964Y43090386D01*
X22759518Y43085812D01*
X22639820Y43049502D01*
X22529506Y42990537D01*
X22432815Y42911185D01*
X22353463Y42814494D01*
X22294498Y42704180D01*
X22258188Y42584482D01*
X22245928Y42460000D01*
X22245928Y41909131D01*
X22241089Y41860000D01*
X22245928Y41810869D01*
X22245928Y41260000D01*
X22249000Y41228808D01*
X22249000Y40710322D01*
X22241089Y40630000D01*
X22249000Y40549680D01*
X22249000Y40522603D01*
X20252544Y38526146D01*
X20163725Y38478671D01*
X20033885Y38372115D01*
X19927329Y38242275D01*
X19848150Y38094142D01*
X19799392Y37933408D01*
X19792150Y37859880D01*
X19765598Y37772350D01*
X19743452Y37547500D01*
X8288035Y37547500D01*
X8365185Y37610815D01*
X8444537Y37707506D01*
X8503502Y37817820D01*
X8539812Y37937518D01*
X8552072Y38062000D01*
X8552072Y40075000D01*
X16153681Y40075000D01*
X16234000Y40067089D01*
X16314319Y40075000D01*
X16314322Y40075000D01*
X16554516Y40098657D01*
X16862715Y40192148D01*
X17146752Y40343969D01*
X17395714Y40548286D01*
X17446925Y40610687D01*
X17466268Y40630030D01*
X17508482Y40634188D01*
X17628180Y40670498D01*
X17738494Y40729463D01*
X17835185Y40808815D01*
X17914537Y40905506D01*
X17973502Y41015820D01*
X18009812Y41135518D01*
X18022072Y41260000D01*
X18022072Y41810869D01*
X18026911Y41859999D01*
X18022072Y41909129D01*
X18022072Y42240837D01*
X21722237Y45941002D01*
X21756159Y45968841D01*
X21867253Y46104209D01*
X21949803Y46258649D01*
X21973815Y46337806D01*
X22000636Y46426224D01*
X22003958Y46459958D01*
X22004725Y46459329D01*
X22152858Y46380150D01*
X22313592Y46331392D01*
X22480750Y46314928D01*
X22918250Y46314928D01*
X23085408Y46331392D01*
X23246142Y46380150D01*
X23352294Y46436889D01*
X23521495Y46267688D01*
X23772905Y46099701D01*
X24052257Y45983989D01*
X24348816Y45925000D01*
X24651184Y45925000D01*
X24947743Y45983989D01*
X25227095Y46099701D01*
X25478505Y46267688D01*
X25692312Y46481495D01*
X25860299Y46732905D01*
X25976011Y47012257D01*
X26035000Y47308816D01*
X26035000Y47611184D01*
X25976011Y47907743D01*
X25860299Y48187095D01*
X25692312Y48438505D01*
X25625873Y48504944D01*
X25644180Y48510498D01*
X25754494Y48569463D01*
X25851185Y48648815D01*
X25930537Y48745506D01*
X25989502Y48855820D01*
X26025812Y48975518D01*
X26038072Y49100000D01*
X26038072Y50900000D01*
X26025812Y51024482D01*
X25989502Y51144180D01*
X25930537Y51254494D01*
X25851185Y51351185D01*
X25754494Y51430537D01*
X25644180Y51489502D01*
X25524482Y51525812D01*
X25400000Y51538072D01*
X23600000Y51538072D01*
X23475518Y51525812D01*
X23355820Y51489502D01*
X23245506Y51430537D01*
X23148815Y51351185D01*
X23069463Y51254494D01*
X23010498Y51144180D01*
X22974188Y51024482D01*
X22961928Y50900000D01*
X22961928Y50889000D01*
X22067659Y50889000D01*
X22023999Y50893300D01*
X21980339Y50889000D01*
X21980333Y50889000D01*
X21882924Y50879406D01*
X21849724Y50876136D01*
X21748058Y50845296D01*
X21682149Y50825303D01*
X21527709Y50742753D01*
X21392341Y50631659D01*
X21364506Y50597742D01*
X16810466Y46043701D01*
X16554516Y46121343D01*
X16314322Y46145000D01*
X16314319Y46145000D01*
X16234000Y46152911D01*
X16153681Y46145000D01*
X4492319Y46145000D01*
X4412000Y46152911D01*
X4331680Y46145000D01*
X4331678Y46145000D01*
X4091484Y46121343D01*
X3783285Y46027852D01*
X3499248Y45876031D01*
X3250286Y45671714D01*
X3199080Y45609319D01*
X289834Y42700072D01*
X-1786000Y42700072D01*
X-1910482Y42687812D01*
X-2030180Y42651502D01*
X-2140494Y42592537D01*
X-2237185Y42513185D01*
X-2316537Y42416494D01*
X-2375502Y42306180D01*
X-2411812Y42186482D01*
X-2424072Y42062000D01*
X-7290000Y42062000D01*
X-7290000Y45965279D01*
X-7262093Y46249899D01*
X-7189516Y46490285D01*
X-7071632Y46711991D01*
X-6912932Y46906577D01*
X-6719455Y47066635D01*
X-6498576Y47186064D01*
X-6258703Y47260317D01*
X-5976284Y47290000D01*
X8965123Y47290000D01*
X9000000Y47286565D01*
X9034877Y47290000D01*
X9073867Y47293840D01*
X9139184Y47300273D01*
X9273020Y47340872D01*
X9396363Y47406800D01*
X9504475Y47495525D01*
X9593200Y47603637D01*
X9659128Y47726980D01*
X9699727Y47860816D01*
X9704349Y47907743D01*
X9713435Y48000000D01*
X9710000Y48034877D01*
X9710000Y51965279D01*
X9775998Y52638370D01*
X9961392Y53252424D01*
X10262525Y53818773D01*
X10667928Y54315848D01*
X11162159Y54724712D01*
X11726389Y55029790D01*
X12339137Y55219467D01*
X13010204Y55290000D01*
X50965279Y55290000D01*
X51638370Y55224002D01*
G37*
G04 #@! TD.AperFunction*
D35*
X25722000Y4589159D02*
X25722000Y4528902D01*
X25717085Y4479000D01*
X25736702Y4279829D01*
X25794798Y4088313D01*
X25888455Y3913092D01*
X25889140Y3911810D01*
X26016104Y3757104D01*
X26170810Y3630140D01*
X26347313Y3535798D01*
X26538829Y3477702D01*
X26738000Y3458085D01*
X26787902Y3463000D01*
X26972098Y3463000D01*
X27022000Y3458085D01*
X27071902Y3463000D01*
X27210181Y3463000D01*
X27218463Y3447506D01*
X27297815Y3350815D01*
X27394506Y3271463D01*
X27468335Y3232000D01*
X27394506Y3192537D01*
X27297815Y3113185D01*
X27218463Y3016494D01*
X27159498Y2906180D01*
X27123188Y2786482D01*
X27110928Y2662000D01*
X27110928Y1602000D01*
X27123188Y1477518D01*
X27159498Y1357820D01*
X27218463Y1247506D01*
X27297815Y1150815D01*
X27394506Y1071463D01*
X27504820Y1012498D01*
X27624518Y976188D01*
X27749000Y963928D01*
X27970491Y963928D01*
X27939392Y861408D01*
X27932868Y795174D01*
X27932617Y794567D01*
X27889000Y575288D01*
X27889000Y351712D01*
X27923046Y180548D01*
X27939392Y14592D01*
X27988150Y-146142D01*
X28067329Y-294275D01*
X28173885Y-424115D01*
X28303725Y-530671D01*
X28451858Y-609850D01*
X28612592Y-658608D01*
X28779750Y-675072D01*
X29217250Y-675072D01*
X29384408Y-658608D01*
X29545142Y-609850D01*
X29693275Y-530671D01*
X29823115Y-424115D01*
X29929671Y-294275D01*
X30008850Y-146142D01*
X30033083Y-66256D01*
X30115383Y132433D01*
X30159000Y351712D01*
X30159000Y575288D01*
X30115383Y794567D01*
X30029824Y1001124D01*
X29981137Y1073989D01*
X29929671Y1170275D01*
X29913000Y1190589D01*
X29913000Y1310110D01*
X29938502Y1357820D01*
X29974812Y1477518D01*
X29987072Y1602000D01*
X29987072Y2662000D01*
X29974812Y2786482D01*
X29938502Y2906180D01*
X29879537Y3016494D01*
X29800185Y3113185D01*
X29738354Y3163928D01*
X29777470Y3163928D01*
X29794293Y3147105D01*
X29826105Y3108342D01*
X29864868Y3076530D01*
X31310000Y1631397D01*
X31310001Y-411158D01*
X30127160Y-1594000D01*
X26038072Y-1594000D01*
X26038072Y-1100000D01*
X26025812Y-975518D01*
X25989502Y-855820D01*
X25930537Y-745506D01*
X25851185Y-648815D01*
X25754494Y-569463D01*
X25644180Y-510498D01*
X25625873Y-504944D01*
X25692312Y-438505D01*
X25860299Y-187095D01*
X25976011Y92257D01*
X26035000Y388816D01*
X26035000Y691184D01*
X25976011Y987743D01*
X25860299Y1267095D01*
X25692312Y1518505D01*
X25478505Y1732312D01*
X25468000Y1739331D01*
X25468000Y2117771D01*
X25499850Y2177358D01*
X25548608Y2338092D01*
X25565072Y2505250D01*
X25565072Y2942750D01*
X25548608Y3109908D01*
X25499850Y3270642D01*
X25420671Y3418775D01*
X25344574Y3511500D01*
X25420671Y3604225D01*
X25499850Y3752358D01*
X25548608Y3913092D01*
X25565072Y4080250D01*
X25565072Y4517750D01*
X25548608Y4684908D01*
X25514800Y4796360D01*
X25722000Y4589159D01*
G04 #@! TA.AperFunction,Conductor*
D36*
G36*
X25722000Y4589159D02*
G01*
X25722000Y4528902D01*
X25717085Y4479000D01*
X25736702Y4279829D01*
X25794798Y4088313D01*
X25888455Y3913092D01*
X25889140Y3911810D01*
X26016104Y3757104D01*
X26170810Y3630140D01*
X26347313Y3535798D01*
X26538829Y3477702D01*
X26738000Y3458085D01*
X26787902Y3463000D01*
X26972098Y3463000D01*
X27022000Y3458085D01*
X27071902Y3463000D01*
X27210181Y3463000D01*
X27218463Y3447506D01*
X27297815Y3350815D01*
X27394506Y3271463D01*
X27468335Y3232000D01*
X27394506Y3192537D01*
X27297815Y3113185D01*
X27218463Y3016494D01*
X27159498Y2906180D01*
X27123188Y2786482D01*
X27110928Y2662000D01*
X27110928Y1602000D01*
X27123188Y1477518D01*
X27159498Y1357820D01*
X27218463Y1247506D01*
X27297815Y1150815D01*
X27394506Y1071463D01*
X27504820Y1012498D01*
X27624518Y976188D01*
X27749000Y963928D01*
X27970491Y963928D01*
X27939392Y861408D01*
X27932868Y795174D01*
X27932617Y794567D01*
X27889000Y575288D01*
X27889000Y351712D01*
X27923046Y180548D01*
X27939392Y14592D01*
X27988150Y-146142D01*
X28067329Y-294275D01*
X28173885Y-424115D01*
X28303725Y-530671D01*
X28451858Y-609850D01*
X28612592Y-658608D01*
X28779750Y-675072D01*
X29217250Y-675072D01*
X29384408Y-658608D01*
X29545142Y-609850D01*
X29693275Y-530671D01*
X29823115Y-424115D01*
X29929671Y-294275D01*
X30008850Y-146142D01*
X30033083Y-66256D01*
X30115383Y132433D01*
X30159000Y351712D01*
X30159000Y575288D01*
X30115383Y794567D01*
X30029824Y1001124D01*
X29981137Y1073989D01*
X29929671Y1170275D01*
X29913000Y1190589D01*
X29913000Y1310110D01*
X29938502Y1357820D01*
X29974812Y1477518D01*
X29987072Y1602000D01*
X29987072Y2662000D01*
X29974812Y2786482D01*
X29938502Y2906180D01*
X29879537Y3016494D01*
X29800185Y3113185D01*
X29738354Y3163928D01*
X29777470Y3163928D01*
X29794293Y3147105D01*
X29826105Y3108342D01*
X29864868Y3076530D01*
X31310000Y1631397D01*
X31310001Y-411158D01*
X30127160Y-1594000D01*
X26038072Y-1594000D01*
X26038072Y-1100000D01*
X26025812Y-975518D01*
X25989502Y-855820D01*
X25930537Y-745506D01*
X25851185Y-648815D01*
X25754494Y-569463D01*
X25644180Y-510498D01*
X25625873Y-504944D01*
X25692312Y-438505D01*
X25860299Y-187095D01*
X25976011Y92257D01*
X26035000Y388816D01*
X26035000Y691184D01*
X25976011Y987743D01*
X25860299Y1267095D01*
X25692312Y1518505D01*
X25478505Y1732312D01*
X25468000Y1739331D01*
X25468000Y2117771D01*
X25499850Y2177358D01*
X25548608Y2338092D01*
X25565072Y2505250D01*
X25565072Y2942750D01*
X25548608Y3109908D01*
X25499850Y3270642D01*
X25420671Y3418775D01*
X25344574Y3511500D01*
X25420671Y3604225D01*
X25499850Y3752358D01*
X25548608Y3913092D01*
X25565072Y4080250D01*
X25565072Y4517750D01*
X25548608Y4684908D01*
X25514800Y4796360D01*
X25722000Y4589159D01*
G37*
G04 #@! TD.AperFunction*
D35*
X23436000Y4905229D02*
X23404150Y4845642D01*
X23355392Y4684908D01*
X23338928Y4517750D01*
X23338928Y4080250D01*
X23355392Y3913092D01*
X23404150Y3752358D01*
X23483329Y3604225D01*
X23559426Y3511500D01*
X23483329Y3418775D01*
X23404150Y3270642D01*
X23355392Y3109908D01*
X23338928Y2942750D01*
X23338928Y2505250D01*
X23355392Y2338092D01*
X23404150Y2177358D01*
X23436000Y2117770D01*
X23436001Y1646818D01*
X23307688Y1518505D01*
X23139701Y1267095D01*
X23023989Y987743D01*
X22965000Y691184D01*
X22965000Y388816D01*
X23023989Y92257D01*
X23139701Y-187095D01*
X23307688Y-438505D01*
X23374127Y-504944D01*
X23355820Y-510498D01*
X23245506Y-569463D01*
X23148815Y-648815D01*
X23069463Y-745506D01*
X23010498Y-855820D01*
X22974188Y-975518D01*
X22961928Y-1100000D01*
X22961928Y-1594000D01*
X21545341Y-1594000D01*
X14290340Y5661000D01*
X23436000Y5661000D01*
X23436000Y4905229D01*
G04 #@! TA.AperFunction,Conductor*
D36*
G36*
X23436000Y4905229D02*
G01*
X23404150Y4845642D01*
X23355392Y4684908D01*
X23338928Y4517750D01*
X23338928Y4080250D01*
X23355392Y3913092D01*
X23404150Y3752358D01*
X23483329Y3604225D01*
X23559426Y3511500D01*
X23483329Y3418775D01*
X23404150Y3270642D01*
X23355392Y3109908D01*
X23338928Y2942750D01*
X23338928Y2505250D01*
X23355392Y2338092D01*
X23404150Y2177358D01*
X23436000Y2117770D01*
X23436001Y1646818D01*
X23307688Y1518505D01*
X23139701Y1267095D01*
X23023989Y987743D01*
X22965000Y691184D01*
X22965000Y388816D01*
X23023989Y92257D01*
X23139701Y-187095D01*
X23307688Y-438505D01*
X23374127Y-504944D01*
X23355820Y-510498D01*
X23245506Y-569463D01*
X23148815Y-648815D01*
X23069463Y-745506D01*
X23010498Y-855820D01*
X22974188Y-975518D01*
X22961928Y-1100000D01*
X22961928Y-1594000D01*
X21545341Y-1594000D01*
X14290340Y5661000D01*
X23436000Y5661000D01*
X23436000Y4905229D01*
G37*
G04 #@! TD.AperFunction*
D35*
X28809463Y8079506D02*
X28888815Y7982815D01*
X28985506Y7903463D01*
X29095820Y7844498D01*
X29215518Y7808188D01*
X29340000Y7795928D01*
X29532000Y7795928D01*
X29532001Y5488549D01*
X29524518Y5487812D01*
X29404820Y5451502D01*
X29294506Y5392537D01*
X29197815Y5313185D01*
X29118463Y5216494D01*
X29059498Y5106180D01*
X29024000Y4989159D01*
X28988502Y5106180D01*
X28929537Y5216494D01*
X28850185Y5313185D01*
X28753494Y5392537D01*
X28643180Y5451502D01*
X28623596Y5457443D01*
X28627049Y5492500D01*
X28621500Y5548840D01*
X28621500Y6096660D01*
X28627049Y6153000D01*
X28604903Y6377851D01*
X28567000Y6502800D01*
X28567000Y6784091D01*
X28625859Y6855811D01*
X28720201Y7032313D01*
X28778298Y7223829D01*
X28797914Y7422999D01*
X28778298Y7622170D01*
X28720201Y7813686D01*
X28636321Y7970616D01*
X28651185Y7982815D01*
X28730537Y8079506D01*
X28770000Y8153335D01*
X28809463Y8079506D01*
G04 #@! TA.AperFunction,Conductor*
D36*
G36*
X28809463Y8079506D02*
G01*
X28888815Y7982815D01*
X28985506Y7903463D01*
X29095820Y7844498D01*
X29215518Y7808188D01*
X29340000Y7795928D01*
X29532000Y7795928D01*
X29532001Y5488549D01*
X29524518Y5487812D01*
X29404820Y5451502D01*
X29294506Y5392537D01*
X29197815Y5313185D01*
X29118463Y5216494D01*
X29059498Y5106180D01*
X29024000Y4989159D01*
X28988502Y5106180D01*
X28929537Y5216494D01*
X28850185Y5313185D01*
X28753494Y5392537D01*
X28643180Y5451502D01*
X28623596Y5457443D01*
X28627049Y5492500D01*
X28621500Y5548840D01*
X28621500Y6096660D01*
X28627049Y6153000D01*
X28604903Y6377851D01*
X28567000Y6502800D01*
X28567000Y6784091D01*
X28625859Y6855811D01*
X28720201Y7032313D01*
X28778298Y7223829D01*
X28797914Y7422999D01*
X28778298Y7622170D01*
X28720201Y7813686D01*
X28636321Y7970616D01*
X28651185Y7982815D01*
X28730537Y8079506D01*
X28770000Y8153335D01*
X28809463Y8079506D01*
G37*
G04 #@! TD.AperFunction*
D35*
X14342786Y10001111D02*
X14473677Y9893692D01*
X14672938Y9787185D01*
X14889148Y9721598D01*
X15113999Y9699452D01*
X15338850Y9721598D01*
X15555061Y9787185D01*
X15626311Y9825269D01*
X15697688Y9766691D01*
X15896949Y9660184D01*
X16113159Y9594597D01*
X16281670Y9578000D01*
X19402840Y9578000D01*
X19571351Y9594597D01*
X19658886Y9621151D01*
X19732408Y9628392D01*
X19893142Y9677150D01*
X20041275Y9756329D01*
X20134000Y9832426D01*
X20226725Y9756329D01*
X20374858Y9677150D01*
X20535592Y9628392D01*
X20609114Y9621151D01*
X20696649Y9594597D01*
X20865160Y9578000D01*
X23974840Y9578000D01*
X24143351Y9594597D01*
X24230886Y9621151D01*
X24304408Y9628392D01*
X24465142Y9677150D01*
X24613275Y9756329D01*
X24706000Y9832426D01*
X24798725Y9756329D01*
X24946858Y9677150D01*
X25107592Y9628392D01*
X25181114Y9621151D01*
X25268649Y9594597D01*
X25437160Y9578000D01*
X26609929Y9578000D01*
X26605025Y9573975D01*
X26569112Y9530215D01*
X25969897Y8931000D01*
X14207238Y8931000D01*
X14149000Y8989238D01*
X14149000Y10170322D01*
X14146315Y10197582D01*
X14342786Y10001111D01*
G04 #@! TA.AperFunction,Conductor*
D36*
G36*
X14342786Y10001111D02*
G01*
X14473677Y9893692D01*
X14672938Y9787185D01*
X14889148Y9721598D01*
X15113999Y9699452D01*
X15338850Y9721598D01*
X15555061Y9787185D01*
X15626311Y9825269D01*
X15697688Y9766691D01*
X15896949Y9660184D01*
X16113159Y9594597D01*
X16281670Y9578000D01*
X19402840Y9578000D01*
X19571351Y9594597D01*
X19658886Y9621151D01*
X19732408Y9628392D01*
X19893142Y9677150D01*
X20041275Y9756329D01*
X20134000Y9832426D01*
X20226725Y9756329D01*
X20374858Y9677150D01*
X20535592Y9628392D01*
X20609114Y9621151D01*
X20696649Y9594597D01*
X20865160Y9578000D01*
X23974840Y9578000D01*
X24143351Y9594597D01*
X24230886Y9621151D01*
X24304408Y9628392D01*
X24465142Y9677150D01*
X24613275Y9756329D01*
X24706000Y9832426D01*
X24798725Y9756329D01*
X24946858Y9677150D01*
X25107592Y9628392D01*
X25181114Y9621151D01*
X25268649Y9594597D01*
X25437160Y9578000D01*
X26609929Y9578000D01*
X26605025Y9573975D01*
X26569112Y9530215D01*
X25969897Y8931000D01*
X14207238Y8931000D01*
X14149000Y8989238D01*
X14149000Y10170322D01*
X14146315Y10197582D01*
X14342786Y10001111D01*
G37*
G04 #@! TD.AperFunction*
D35*
X13895236Y23146420D02*
X14023844Y22905812D01*
X14153548Y22747767D01*
X14153551Y22747764D01*
X14196920Y22694919D01*
X14249765Y22651550D01*
X14617510Y22283805D01*
X14595799Y22243187D01*
X14537702Y22051670D01*
X14518085Y21852500D01*
X14523001Y21802589D01*
X14523000Y20934902D01*
X14523000Y20934901D01*
X14523001Y19918910D01*
X14523000Y19918901D01*
X14523000Y19241902D01*
X14518085Y19192000D01*
X14523000Y19142099D01*
X14523000Y19142098D01*
X14537702Y18992829D01*
X14595799Y18801313D01*
X14653041Y18694219D01*
X14645928Y18622000D01*
X14645928Y18322000D01*
X14661071Y18168255D01*
X14705916Y18020418D01*
X14778742Y17884171D01*
X14817454Y17837000D01*
X14778742Y17789829D01*
X14705916Y17653582D01*
X14661071Y17505745D01*
X14645928Y17352000D01*
X14645928Y17052000D01*
X14661071Y16898255D01*
X14705916Y16750418D01*
X14778742Y16614171D01*
X14817454Y16567000D01*
X14778742Y16519829D01*
X14705916Y16383582D01*
X14661071Y16235745D01*
X14645928Y16082000D01*
X14645928Y15782000D01*
X14661071Y15628255D01*
X14705916Y15480418D01*
X14778742Y15344171D01*
X14876749Y15224749D01*
X14996171Y15126742D01*
X15132418Y15053916D01*
X15280255Y15009071D01*
X15434000Y14993928D01*
X15858715Y14993928D01*
X15868313Y14988798D01*
X16059829Y14930702D01*
X16209098Y14916000D01*
X17664193Y14916000D01*
X17564989Y14730401D01*
X17494370Y14497602D01*
X17470525Y14255500D01*
X17494370Y14013398D01*
X17564989Y13780599D01*
X17679667Y13566051D01*
X17833998Y13377998D01*
X18022051Y13223667D01*
X18236599Y13108989D01*
X18469398Y13038370D01*
X18650835Y13020500D01*
X20093165Y13020500D01*
X20274602Y13038370D01*
X20507401Y13108989D01*
X20721949Y13223667D01*
X20910002Y13377998D01*
X21064333Y13566051D01*
X21179011Y13780599D01*
X21249630Y14013398D01*
X21256102Y14079110D01*
X21258742Y14074171D01*
X21356749Y13954749D01*
X21476171Y13856742D01*
X21612418Y13783916D01*
X21760255Y13739071D01*
X21914000Y13723928D01*
X22338715Y13723928D01*
X22348313Y13718798D01*
X22539829Y13660702D01*
X22689098Y13646000D01*
X23664098Y13646000D01*
X23714000Y13641085D01*
X23763902Y13646000D01*
X23913171Y13660702D01*
X24104687Y13718798D01*
X24281190Y13813140D01*
X24435896Y13940104D01*
X24467713Y13978873D01*
X24978137Y14489297D01*
X25016906Y14521114D01*
X25143870Y14675820D01*
X25238212Y14852323D01*
X25296308Y15043839D01*
X25311010Y15193108D01*
X25311010Y15193115D01*
X25315924Y15243009D01*
X25311010Y15292903D01*
X25311010Y18874903D01*
X25315924Y18924797D01*
X25311010Y18974691D01*
X25311010Y18974698D01*
X25296308Y19123967D01*
X25238212Y19315483D01*
X25143870Y19491986D01*
X25016906Y19646692D01*
X24978143Y19678504D01*
X23512738Y21143909D01*
X23612170Y21153702D01*
X23803686Y21211798D01*
X23980190Y21306140D01*
X24134896Y21433104D01*
X24261860Y21587810D01*
X24356202Y21764313D01*
X24356659Y21765818D01*
X24873840Y22282999D01*
X25864001Y22282999D01*
X25864002Y19569328D01*
X25856090Y19488999D01*
X25887659Y19168483D01*
X25981149Y18860285D01*
X26080999Y18673480D01*
X26075928Y18622000D01*
X26075928Y18322000D01*
X26091071Y18168255D01*
X26135916Y18020418D01*
X26208742Y17884171D01*
X26247454Y17837000D01*
X26208742Y17789829D01*
X26135916Y17653582D01*
X26091071Y17505745D01*
X26075928Y17352000D01*
X26075928Y17052000D01*
X26091071Y16898255D01*
X26135916Y16750418D01*
X26208742Y16614171D01*
X26247454Y16567000D01*
X26208742Y16519829D01*
X26135916Y16383582D01*
X26091071Y16235745D01*
X26075928Y16082000D01*
X26075928Y15782000D01*
X26091071Y15628255D01*
X26135916Y15480418D01*
X26208742Y15344171D01*
X26306749Y15224749D01*
X26426171Y15126742D01*
X26562418Y15053916D01*
X26710255Y15009071D01*
X26864000Y14993928D01*
X28514000Y14993928D01*
X28667745Y15009071D01*
X28815582Y15053916D01*
X28951829Y15126742D01*
X29071251Y15224749D01*
X29169258Y15344171D01*
X29242084Y15480418D01*
X29286929Y15628255D01*
X29302072Y15782000D01*
X29302072Y16000391D01*
X29374592Y15978392D01*
X29448120Y15971150D01*
X29535650Y15944598D01*
X29760499Y15922452D01*
X29985350Y15944598D01*
X30072880Y15971150D01*
X30146408Y15978392D01*
X30307142Y16027150D01*
X30319500Y16033756D01*
X30319501Y15227519D01*
X30276392Y15085408D01*
X30259928Y14918250D01*
X30259928Y14405750D01*
X30276392Y14238592D01*
X30325150Y14077858D01*
X30404329Y13929725D01*
X30510885Y13799885D01*
X30640725Y13693329D01*
X30671001Y13677146D01*
X30671000Y10701249D01*
X30529441Y10658308D01*
X30524482Y10659812D01*
X30400000Y10672072D01*
X29340000Y10672072D01*
X29215518Y10659812D01*
X29095820Y10623502D01*
X28985506Y10564537D01*
X28888815Y10485185D01*
X28838072Y10423354D01*
X28838072Y10984000D01*
X28825812Y11108482D01*
X28789502Y11228180D01*
X28730537Y11338494D01*
X28651185Y11435185D01*
X28554494Y11514537D01*
X28444180Y11573502D01*
X28324482Y11609812D01*
X28200000Y11622072D01*
X28068940Y11622072D01*
X27994322Y11683309D01*
X27795061Y11789816D01*
X27578851Y11855403D01*
X27410340Y11872000D01*
X27410329Y11872000D01*
X27354000Y11877548D01*
X27297671Y11872000D01*
X25437160Y11872000D01*
X25268649Y11855403D01*
X25181114Y11828849D01*
X25107592Y11821608D01*
X24946858Y11772850D01*
X24798725Y11693671D01*
X24706000Y11617574D01*
X24613275Y11693671D01*
X24465142Y11772850D01*
X24304408Y11821608D01*
X24230886Y11828849D01*
X24143351Y11855403D01*
X23974840Y11872000D01*
X20865160Y11872000D01*
X20696649Y11855403D01*
X20609114Y11828849D01*
X20535592Y11821608D01*
X20374858Y11772850D01*
X20226725Y11693671D01*
X20134000Y11617574D01*
X20041275Y11693671D01*
X19893142Y11772850D01*
X19732408Y11821608D01*
X19658886Y11828849D01*
X19571351Y11855403D01*
X19402840Y11872000D01*
X18341715Y11872000D01*
X18326275Y11884671D01*
X18178142Y11963850D01*
X18017408Y12012608D01*
X17850250Y12029072D01*
X17337750Y12029072D01*
X17170592Y12012608D01*
X17009858Y11963850D01*
X16861725Y11884671D01*
X16846285Y11872000D01*
X16281670Y11872000D01*
X16250985Y11868978D01*
X16211010Y11872915D01*
X16011840Y11853298D01*
X15820323Y11795201D01*
X15802453Y11785650D01*
X14905500Y12682602D01*
X14905500Y12813340D01*
X14888903Y12981851D01*
X14823316Y13198061D01*
X14797736Y13245919D01*
X14768850Y13341142D01*
X14689671Y13489275D01*
X14583115Y13619115D01*
X14546000Y13649574D01*
X14546000Y13949902D01*
X14545777Y13952166D01*
X14546000Y13954430D01*
X14546000Y13954431D01*
X14550915Y14004331D01*
X14546000Y14054233D01*
X14546000Y14203901D01*
X14531298Y14353170D01*
X14473202Y14544687D01*
X14419000Y14646093D01*
X14419000Y17182341D01*
X14423300Y17226001D01*
X14419000Y17269666D01*
X14419000Y17269667D01*
X14408380Y17377493D01*
X14406136Y17400276D01*
X14374142Y17505745D01*
X14355303Y17567851D01*
X14272753Y17722291D01*
X14161659Y17857659D01*
X14127743Y17885493D01*
X12943499Y19069736D01*
X12915659Y19103659D01*
X12780291Y19214753D01*
X12625851Y19297303D01*
X12458274Y19348136D01*
X12434181Y19350509D01*
X12287745Y19394929D01*
X12260000Y19397662D01*
X12260000Y19491271D01*
X12291850Y19550858D01*
X12340608Y19711592D01*
X12357072Y19878750D01*
X12357072Y20316250D01*
X12349424Y20393896D01*
X12580516Y20416657D01*
X12888715Y20510148D01*
X13172752Y20661969D01*
X13421714Y20866286D01*
X13626031Y21115248D01*
X13777852Y21399285D01*
X13871343Y21707484D01*
X13882848Y21824298D01*
X13895000Y21947678D01*
X13895000Y21947679D01*
X13902911Y22028000D01*
X13895000Y22108322D01*
X13895000Y23147198D01*
X13895236Y23146420D01*
G04 #@! TA.AperFunction,Conductor*
D36*
G36*
X13895236Y23146420D02*
G01*
X14023844Y22905812D01*
X14153548Y22747767D01*
X14153551Y22747764D01*
X14196920Y22694919D01*
X14249765Y22651550D01*
X14617510Y22283805D01*
X14595799Y22243187D01*
X14537702Y22051670D01*
X14518085Y21852500D01*
X14523001Y21802589D01*
X14523000Y20934902D01*
X14523000Y20934901D01*
X14523001Y19918910D01*
X14523000Y19918901D01*
X14523000Y19241902D01*
X14518085Y19192000D01*
X14523000Y19142099D01*
X14523000Y19142098D01*
X14537702Y18992829D01*
X14595799Y18801313D01*
X14653041Y18694219D01*
X14645928Y18622000D01*
X14645928Y18322000D01*
X14661071Y18168255D01*
X14705916Y18020418D01*
X14778742Y17884171D01*
X14817454Y17837000D01*
X14778742Y17789829D01*
X14705916Y17653582D01*
X14661071Y17505745D01*
X14645928Y17352000D01*
X14645928Y17052000D01*
X14661071Y16898255D01*
X14705916Y16750418D01*
X14778742Y16614171D01*
X14817454Y16567000D01*
X14778742Y16519829D01*
X14705916Y16383582D01*
X14661071Y16235745D01*
X14645928Y16082000D01*
X14645928Y15782000D01*
X14661071Y15628255D01*
X14705916Y15480418D01*
X14778742Y15344171D01*
X14876749Y15224749D01*
X14996171Y15126742D01*
X15132418Y15053916D01*
X15280255Y15009071D01*
X15434000Y14993928D01*
X15858715Y14993928D01*
X15868313Y14988798D01*
X16059829Y14930702D01*
X16209098Y14916000D01*
X17664193Y14916000D01*
X17564989Y14730401D01*
X17494370Y14497602D01*
X17470525Y14255500D01*
X17494370Y14013398D01*
X17564989Y13780599D01*
X17679667Y13566051D01*
X17833998Y13377998D01*
X18022051Y13223667D01*
X18236599Y13108989D01*
X18469398Y13038370D01*
X18650835Y13020500D01*
X20093165Y13020500D01*
X20274602Y13038370D01*
X20507401Y13108989D01*
X20721949Y13223667D01*
X20910002Y13377998D01*
X21064333Y13566051D01*
X21179011Y13780599D01*
X21249630Y14013398D01*
X21256102Y14079110D01*
X21258742Y14074171D01*
X21356749Y13954749D01*
X21476171Y13856742D01*
X21612418Y13783916D01*
X21760255Y13739071D01*
X21914000Y13723928D01*
X22338715Y13723928D01*
X22348313Y13718798D01*
X22539829Y13660702D01*
X22689098Y13646000D01*
X23664098Y13646000D01*
X23714000Y13641085D01*
X23763902Y13646000D01*
X23913171Y13660702D01*
X24104687Y13718798D01*
X24281190Y13813140D01*
X24435896Y13940104D01*
X24467713Y13978873D01*
X24978137Y14489297D01*
X25016906Y14521114D01*
X25143870Y14675820D01*
X25238212Y14852323D01*
X25296308Y15043839D01*
X25311010Y15193108D01*
X25311010Y15193115D01*
X25315924Y15243009D01*
X25311010Y15292903D01*
X25311010Y18874903D01*
X25315924Y18924797D01*
X25311010Y18974691D01*
X25311010Y18974698D01*
X25296308Y19123967D01*
X25238212Y19315483D01*
X25143870Y19491986D01*
X25016906Y19646692D01*
X24978143Y19678504D01*
X23512738Y21143909D01*
X23612170Y21153702D01*
X23803686Y21211798D01*
X23980190Y21306140D01*
X24134896Y21433104D01*
X24261860Y21587810D01*
X24356202Y21764313D01*
X24356659Y21765818D01*
X24873840Y22282999D01*
X25864001Y22282999D01*
X25864002Y19569328D01*
X25856090Y19488999D01*
X25887659Y19168483D01*
X25981149Y18860285D01*
X26080999Y18673480D01*
X26075928Y18622000D01*
X26075928Y18322000D01*
X26091071Y18168255D01*
X26135916Y18020418D01*
X26208742Y17884171D01*
X26247454Y17837000D01*
X26208742Y17789829D01*
X26135916Y17653582D01*
X26091071Y17505745D01*
X26075928Y17352000D01*
X26075928Y17052000D01*
X26091071Y16898255D01*
X26135916Y16750418D01*
X26208742Y16614171D01*
X26247454Y16567000D01*
X26208742Y16519829D01*
X26135916Y16383582D01*
X26091071Y16235745D01*
X26075928Y16082000D01*
X26075928Y15782000D01*
X26091071Y15628255D01*
X26135916Y15480418D01*
X26208742Y15344171D01*
X26306749Y15224749D01*
X26426171Y15126742D01*
X26562418Y15053916D01*
X26710255Y15009071D01*
X26864000Y14993928D01*
X28514000Y14993928D01*
X28667745Y15009071D01*
X28815582Y15053916D01*
X28951829Y15126742D01*
X29071251Y15224749D01*
X29169258Y15344171D01*
X29242084Y15480418D01*
X29286929Y15628255D01*
X29302072Y15782000D01*
X29302072Y16000391D01*
X29374592Y15978392D01*
X29448120Y15971150D01*
X29535650Y15944598D01*
X29760499Y15922452D01*
X29985350Y15944598D01*
X30072880Y15971150D01*
X30146408Y15978392D01*
X30307142Y16027150D01*
X30319500Y16033756D01*
X30319501Y15227519D01*
X30276392Y15085408D01*
X30259928Y14918250D01*
X30259928Y14405750D01*
X30276392Y14238592D01*
X30325150Y14077858D01*
X30404329Y13929725D01*
X30510885Y13799885D01*
X30640725Y13693329D01*
X30671001Y13677146D01*
X30671000Y10701249D01*
X30529441Y10658308D01*
X30524482Y10659812D01*
X30400000Y10672072D01*
X29340000Y10672072D01*
X29215518Y10659812D01*
X29095820Y10623502D01*
X28985506Y10564537D01*
X28888815Y10485185D01*
X28838072Y10423354D01*
X28838072Y10984000D01*
X28825812Y11108482D01*
X28789502Y11228180D01*
X28730537Y11338494D01*
X28651185Y11435185D01*
X28554494Y11514537D01*
X28444180Y11573502D01*
X28324482Y11609812D01*
X28200000Y11622072D01*
X28068940Y11622072D01*
X27994322Y11683309D01*
X27795061Y11789816D01*
X27578851Y11855403D01*
X27410340Y11872000D01*
X27410329Y11872000D01*
X27354000Y11877548D01*
X27297671Y11872000D01*
X25437160Y11872000D01*
X25268649Y11855403D01*
X25181114Y11828849D01*
X25107592Y11821608D01*
X24946858Y11772850D01*
X24798725Y11693671D01*
X24706000Y11617574D01*
X24613275Y11693671D01*
X24465142Y11772850D01*
X24304408Y11821608D01*
X24230886Y11828849D01*
X24143351Y11855403D01*
X23974840Y11872000D01*
X20865160Y11872000D01*
X20696649Y11855403D01*
X20609114Y11828849D01*
X20535592Y11821608D01*
X20374858Y11772850D01*
X20226725Y11693671D01*
X20134000Y11617574D01*
X20041275Y11693671D01*
X19893142Y11772850D01*
X19732408Y11821608D01*
X19658886Y11828849D01*
X19571351Y11855403D01*
X19402840Y11872000D01*
X18341715Y11872000D01*
X18326275Y11884671D01*
X18178142Y11963850D01*
X18017408Y12012608D01*
X17850250Y12029072D01*
X17337750Y12029072D01*
X17170592Y12012608D01*
X17009858Y11963850D01*
X16861725Y11884671D01*
X16846285Y11872000D01*
X16281670Y11872000D01*
X16250985Y11868978D01*
X16211010Y11872915D01*
X16011840Y11853298D01*
X15820323Y11795201D01*
X15802453Y11785650D01*
X14905500Y12682602D01*
X14905500Y12813340D01*
X14888903Y12981851D01*
X14823316Y13198061D01*
X14797736Y13245919D01*
X14768850Y13341142D01*
X14689671Y13489275D01*
X14583115Y13619115D01*
X14546000Y13649574D01*
X14546000Y13949902D01*
X14545777Y13952166D01*
X14546000Y13954430D01*
X14546000Y13954431D01*
X14550915Y14004331D01*
X14546000Y14054233D01*
X14546000Y14203901D01*
X14531298Y14353170D01*
X14473202Y14544687D01*
X14419000Y14646093D01*
X14419000Y17182341D01*
X14423300Y17226001D01*
X14419000Y17269666D01*
X14419000Y17269667D01*
X14408380Y17377493D01*
X14406136Y17400276D01*
X14374142Y17505745D01*
X14355303Y17567851D01*
X14272753Y17722291D01*
X14161659Y17857659D01*
X14127743Y17885493D01*
X12943499Y19069736D01*
X12915659Y19103659D01*
X12780291Y19214753D01*
X12625851Y19297303D01*
X12458274Y19348136D01*
X12434181Y19350509D01*
X12287745Y19394929D01*
X12260000Y19397662D01*
X12260000Y19491271D01*
X12291850Y19550858D01*
X12340608Y19711592D01*
X12357072Y19878750D01*
X12357072Y20316250D01*
X12349424Y20393896D01*
X12580516Y20416657D01*
X12888715Y20510148D01*
X13172752Y20661969D01*
X13421714Y20866286D01*
X13626031Y21115248D01*
X13777852Y21399285D01*
X13871343Y21707484D01*
X13882848Y21824298D01*
X13895000Y21947678D01*
X13895000Y21947679D01*
X13902911Y22028000D01*
X13895000Y22108322D01*
X13895000Y23147198D01*
X13895236Y23146420D01*
G37*
G04 #@! TD.AperFunction*
D35*
X41381820Y18634498D02*
X41498841Y18599000D01*
X41381820Y18563502D01*
X41334110Y18538000D01*
X39598438Y18538000D01*
X40112123Y18660000D01*
X41334110Y18660000D01*
X41381820Y18634498D01*
G04 #@! TA.AperFunction,Conductor*
D36*
G36*
X41381820Y18634498D02*
G01*
X41498841Y18599000D01*
X41381820Y18563502D01*
X41334110Y18538000D01*
X39598438Y18538000D01*
X40112123Y18660000D01*
X41334110Y18660000D01*
X41381820Y18634498D01*
G37*
G04 #@! TD.AperFunction*
D35*
X21687205Y20095760D02*
X21719008Y20057008D01*
X21757760Y20025205D01*
X21757768Y20025197D01*
X21757773Y20025193D01*
X22372894Y19410072D01*
X21914000Y19410072D01*
X21760255Y19394929D01*
X21612418Y19350084D01*
X21476171Y19277258D01*
X21356749Y19179251D01*
X21267624Y19070651D01*
X21264403Y19103351D01*
X21198816Y19319562D01*
X21092309Y19518822D01*
X21087385Y19524822D01*
X21064333Y19567949D01*
X20910002Y19756002D01*
X20734887Y19899715D01*
X20519000Y20115602D01*
X20519000Y20766928D01*
X20672000Y20766928D01*
X20696450Y20769336D01*
X20721009Y20769336D01*
X20845490Y20781596D01*
X20941623Y20800718D01*
X20972792Y20810173D01*
X21687205Y20095760D01*
G04 #@! TA.AperFunction,Conductor*
D36*
G36*
X21687205Y20095760D02*
G01*
X21719008Y20057008D01*
X21757760Y20025205D01*
X21757768Y20025197D01*
X21757773Y20025193D01*
X22372894Y19410072D01*
X21914000Y19410072D01*
X21760255Y19394929D01*
X21612418Y19350084D01*
X21476171Y19277258D01*
X21356749Y19179251D01*
X21267624Y19070651D01*
X21264403Y19103351D01*
X21198816Y19319562D01*
X21092309Y19518822D01*
X21087385Y19524822D01*
X21064333Y19567949D01*
X20910002Y19756002D01*
X20734887Y19899715D01*
X20519000Y20115602D01*
X20519000Y20766928D01*
X20672000Y20766928D01*
X20696450Y20769336D01*
X20721009Y20769336D01*
X20845490Y20781596D01*
X20941623Y20800718D01*
X20972792Y20810173D01*
X21687205Y20095760D01*
G37*
G04 #@! TD.AperFunction*
D35*
X17682681Y20837027D02*
X17802377Y20800718D01*
X17898510Y20781596D01*
X18022991Y20769336D01*
X18047550Y20769336D01*
X18072000Y20766928D01*
X18225001Y20766928D01*
X18225001Y20115603D01*
X18009113Y19899715D01*
X17833998Y19756002D01*
X17679667Y19567949D01*
X17656614Y19524820D01*
X17651691Y19518821D01*
X17644000Y19504432D01*
X17644000Y20853049D01*
X17682681Y20837027D01*
G04 #@! TA.AperFunction,Conductor*
D36*
G36*
X17682681Y20837027D02*
G01*
X17802377Y20800718D01*
X17898510Y20781596D01*
X18022991Y20769336D01*
X18047550Y20769336D01*
X18072000Y20766928D01*
X18225001Y20766928D01*
X18225001Y20115603D01*
X18009113Y19899715D01*
X17833998Y19756002D01*
X17679667Y19567949D01*
X17656614Y19524820D01*
X17651691Y19518821D01*
X17644000Y19504432D01*
X17644000Y20853049D01*
X17682681Y20837027D01*
G37*
G04 #@! TD.AperFunction*
D35*
X41381820Y22190498D02*
X41498841Y22155000D01*
X41381820Y22119502D01*
X41334110Y22094000D01*
X40103404Y22094000D01*
X40282290Y22216000D01*
X41334110Y22216000D01*
X41381820Y22190498D01*
G04 #@! TA.AperFunction,Conductor*
D36*
G36*
X41381820Y22190498D02*
G01*
X41498841Y22155000D01*
X41381820Y22119502D01*
X41334110Y22094000D01*
X40103404Y22094000D01*
X40282290Y22216000D01*
X41334110Y22216000D01*
X41381820Y22190498D01*
G37*
G04 #@! TD.AperFunction*
D35*
X20642000Y26227089D02*
X20722319Y26235000D01*
X22250762Y26235000D01*
X24201376Y24284386D01*
X24062312Y24242201D01*
X23885809Y24147859D01*
X23731103Y24020895D01*
X23699291Y23982132D01*
X22819627Y23102467D01*
X22642171Y23156298D01*
X22492902Y23171000D01*
X22443000Y23175915D01*
X22393098Y23171000D01*
X21834902Y23171000D01*
X21785000Y23175915D01*
X21735098Y23171000D01*
X21511645Y23171000D01*
X21509690Y23173382D01*
X21440382Y23242690D01*
X21343691Y23322042D01*
X21262192Y23376498D01*
X21151875Y23435464D01*
X21061319Y23472973D01*
X20941623Y23509282D01*
X20845490Y23528404D01*
X20721009Y23540664D01*
X20696450Y23540664D01*
X20672000Y23543072D01*
X20122000Y23543072D01*
X19997518Y23530812D01*
X19997000Y23530655D01*
X19996482Y23530812D01*
X19872000Y23543072D01*
X18969500Y23543072D01*
X18969500Y23660043D01*
X18998274Y23713875D01*
X19042977Y23861243D01*
X19058072Y24014500D01*
X19058072Y24085218D01*
X19060000Y24094911D01*
X19060000Y24279089D01*
X19058072Y24288782D01*
X19058072Y24359500D01*
X19042977Y24512757D01*
X18998274Y24660125D01*
X18969500Y24713957D01*
X18969500Y25513340D01*
X18952903Y25681851D01*
X18887316Y25898061D01*
X18861736Y25945919D01*
X18832850Y26041142D01*
X18753671Y26189275D01*
X18716146Y26235000D01*
X20561681Y26235000D01*
X20642000Y26227089D01*
G04 #@! TA.AperFunction,Conductor*
D36*
G36*
X20642000Y26227089D02*
G01*
X20722319Y26235000D01*
X22250762Y26235000D01*
X24201376Y24284386D01*
X24062312Y24242201D01*
X23885809Y24147859D01*
X23731103Y24020895D01*
X23699291Y23982132D01*
X22819627Y23102467D01*
X22642171Y23156298D01*
X22492902Y23171000D01*
X22443000Y23175915D01*
X22393098Y23171000D01*
X21834902Y23171000D01*
X21785000Y23175915D01*
X21735098Y23171000D01*
X21511645Y23171000D01*
X21509690Y23173382D01*
X21440382Y23242690D01*
X21343691Y23322042D01*
X21262192Y23376498D01*
X21151875Y23435464D01*
X21061319Y23472973D01*
X20941623Y23509282D01*
X20845490Y23528404D01*
X20721009Y23540664D01*
X20696450Y23540664D01*
X20672000Y23543072D01*
X20122000Y23543072D01*
X19997518Y23530812D01*
X19997000Y23530655D01*
X19996482Y23530812D01*
X19872000Y23543072D01*
X18969500Y23543072D01*
X18969500Y23660043D01*
X18998274Y23713875D01*
X19042977Y23861243D01*
X19058072Y24014500D01*
X19058072Y24085218D01*
X19060000Y24094911D01*
X19060000Y24279089D01*
X19058072Y24288782D01*
X19058072Y24359500D01*
X19042977Y24512757D01*
X18998274Y24660125D01*
X18969500Y24713957D01*
X18969500Y25513340D01*
X18952903Y25681851D01*
X18887316Y25898061D01*
X18861736Y25945919D01*
X18832850Y26041142D01*
X18753671Y26189275D01*
X18716146Y26235000D01*
X20561681Y26235000D01*
X20642000Y26227089D01*
G37*
G04 #@! TD.AperFunction*
D35*
X41381820Y25746498D02*
X41498841Y25711000D01*
X41381820Y25675502D01*
X41334110Y25650000D01*
X40299273Y25650000D01*
X40407573Y25772000D01*
X41334110Y25772000D01*
X41381820Y25746498D01*
G04 #@! TA.AperFunction,Conductor*
D36*
G36*
X41381820Y25746498D02*
G01*
X41498841Y25711000D01*
X41381820Y25675502D01*
X41334110Y25650000D01*
X40299273Y25650000D01*
X40407573Y25772000D01*
X41334110Y25772000D01*
X41381820Y25746498D01*
G37*
G04 #@! TD.AperFunction*
G04 #@! TD*
M02*
