G04 #@! TF.GenerationSoftware,KiCad,Pcbnew,5.1.10-88a1d61d58~90~ubuntu20.04.1*
G04 #@! TF.CreationDate,2021-11-15T23:18:05+00:00*
G04 #@! TF.ProjectId,pulse_stretcher,70756c73-655f-4737-9472-657463686572,rev?*
G04 #@! TF.SameCoordinates,PX5ee3fe0PY6209a80*
G04 #@! TF.FileFunction,Legend,Top*
G04 #@! TF.FilePolarity,Positive*
%FSLAX46Y46*%
G04 Gerber Fmt 4.6, Leading zero omitted, Abs format (unit mm)*
G04 Created by KiCad (PCBNEW 5.1.10-88a1d61d58~90~ubuntu20.04.1) date 2021-11-15 23:18:05*
%MOMM*%
%LPD*%
G01*
G04 APERTURE LIST*
%ADD10C,0.100000*%
%ADD11C,0.120000*%
%ADD12C,0.150000*%
%ADD13C,0.381000*%
%ADD14C,0.110000*%
G04 APERTURE END LIST*
D10*
X34300333Y18577334D02*
X34300333Y18444000D01*
X34267000Y18377334D01*
X34200333Y18310667D01*
X34067000Y18277334D01*
X33833666Y18277334D01*
X33700333Y18310667D01*
X33633666Y18377334D01*
X33600333Y18444000D01*
X33600333Y18577334D01*
X33633666Y18644000D01*
X33700333Y18710667D01*
X33833666Y18744000D01*
X34067000Y18744000D01*
X34200333Y18710667D01*
X34267000Y18644000D01*
X34300333Y18577334D01*
X34067000Y17977334D02*
X33367000Y17977334D01*
X34033666Y17977334D02*
X34067000Y17910667D01*
X34067000Y17777334D01*
X34033666Y17710667D01*
X34000333Y17677334D01*
X33933666Y17644000D01*
X33733666Y17644000D01*
X33667000Y17677334D01*
X33633666Y17710667D01*
X33600333Y17777334D01*
X33600333Y17910667D01*
X33633666Y17977334D01*
X34067000Y17444000D02*
X34067000Y17177334D01*
X34300333Y17344000D02*
X33700333Y17344000D01*
X33633666Y17310667D01*
X33600333Y17244000D01*
X33600333Y17177334D01*
X33600333Y16944000D02*
X34067000Y16944000D01*
X34300333Y16944000D02*
X34267000Y16977334D01*
X34233666Y16944000D01*
X34267000Y16910667D01*
X34300333Y16944000D01*
X34233666Y16944000D01*
X33600333Y16510667D02*
X33633666Y16577334D01*
X33667000Y16610667D01*
X33733666Y16644000D01*
X33933666Y16644000D01*
X34000333Y16610667D01*
X34033666Y16577334D01*
X34067000Y16510667D01*
X34067000Y16410667D01*
X34033666Y16344000D01*
X34000333Y16310667D01*
X33933666Y16277334D01*
X33733666Y16277334D01*
X33667000Y16310667D01*
X33633666Y16344000D01*
X33600333Y16410667D01*
X33600333Y16510667D01*
X34067000Y15977334D02*
X33600333Y15977334D01*
X34000333Y15977334D02*
X34033666Y15944000D01*
X34067000Y15877334D01*
X34067000Y15777334D01*
X34033666Y15710667D01*
X33967000Y15677334D01*
X33600333Y15677334D01*
X33600333Y15044000D02*
X33967000Y15044000D01*
X34033666Y15077334D01*
X34067000Y15144000D01*
X34067000Y15277334D01*
X34033666Y15344000D01*
X33633666Y15044000D02*
X33600333Y15110667D01*
X33600333Y15277334D01*
X33633666Y15344000D01*
X33700333Y15377334D01*
X33767000Y15377334D01*
X33833666Y15344000D01*
X33867000Y15277334D01*
X33867000Y15110667D01*
X33900333Y15044000D01*
X33600333Y14610667D02*
X33633666Y14677334D01*
X33700333Y14710667D01*
X34300333Y14710667D01*
X33150333Y21244000D02*
X33150333Y21177334D01*
X33117000Y21110667D01*
X33083666Y21077334D01*
X33017000Y21044000D01*
X32883666Y21010667D01*
X32717000Y21010667D01*
X32583666Y21044000D01*
X32517000Y21077334D01*
X32483666Y21110667D01*
X32450333Y21177334D01*
X32450333Y21244000D01*
X32483666Y21310667D01*
X32517000Y21344000D01*
X32583666Y21377334D01*
X32717000Y21410667D01*
X32883666Y21410667D01*
X33017000Y21377334D01*
X33083666Y21344000D01*
X33117000Y21310667D01*
X33150333Y21244000D01*
X32450333Y20744000D02*
X32450333Y20577334D01*
X32583666Y20577334D01*
X32617000Y20644000D01*
X32683666Y20710667D01*
X32783666Y20744000D01*
X32950333Y20744000D01*
X33050333Y20710667D01*
X33117000Y20644000D01*
X33150333Y20544000D01*
X33150333Y20410667D01*
X33117000Y20310667D01*
X33050333Y20244000D01*
X32950333Y20210667D01*
X32783666Y20210667D01*
X32683666Y20244000D01*
X32617000Y20310667D01*
X32583666Y20377334D01*
X32450333Y20377334D01*
X32450333Y20210667D01*
X32450333Y18977334D02*
X32783666Y19210667D01*
X32450333Y19377334D02*
X33150333Y19377334D01*
X33150333Y19110667D01*
X33117000Y19044000D01*
X33083666Y19010667D01*
X33017000Y18977334D01*
X32917000Y18977334D01*
X32850333Y19010667D01*
X32817000Y19044000D01*
X32783666Y19110667D01*
X32783666Y19377334D01*
X32450333Y18310667D02*
X32450333Y18710667D01*
X32450333Y18510667D02*
X33150333Y18510667D01*
X33050333Y18577334D01*
X32983666Y18644000D01*
X32950333Y18710667D01*
X32450333Y17977334D02*
X32450333Y17844000D01*
X32483666Y17777334D01*
X32517000Y17744000D01*
X32617000Y17677334D01*
X32750333Y17644000D01*
X33017000Y17644000D01*
X33083666Y17677334D01*
X33117000Y17710667D01*
X33150333Y17777334D01*
X33150333Y17910667D01*
X33117000Y17977334D01*
X33083666Y18010667D01*
X33017000Y18044000D01*
X32850333Y18044000D01*
X32783666Y18010667D01*
X32750333Y17977334D01*
X32717000Y17910667D01*
X32717000Y17777334D01*
X32750333Y17710667D01*
X32783666Y17677334D01*
X32850333Y17644000D01*
X32917000Y16910667D02*
X32917000Y16644000D01*
X33150333Y16810667D02*
X32550333Y16810667D01*
X32483666Y16777334D01*
X32450333Y16710667D01*
X32450333Y16644000D01*
X32450333Y16310667D02*
X32483666Y16377334D01*
X32517000Y16410667D01*
X32583666Y16444000D01*
X32783666Y16444000D01*
X32850333Y16410667D01*
X32883666Y16377334D01*
X32917000Y16310667D01*
X32917000Y16210667D01*
X32883666Y16144000D01*
X32850333Y16110667D01*
X32783666Y16077334D01*
X32583666Y16077334D01*
X32517000Y16110667D01*
X32483666Y16144000D01*
X32450333Y16210667D01*
X32450333Y16310667D01*
X32450333Y15244000D02*
X33150333Y15244000D01*
X32883666Y15244000D02*
X32917000Y15177334D01*
X32917000Y15044000D01*
X32883666Y14977334D01*
X32850333Y14944000D01*
X32783666Y14910667D01*
X32583666Y14910667D01*
X32517000Y14944000D01*
X32483666Y14977334D01*
X32450333Y15044000D01*
X32450333Y15177334D01*
X32483666Y15244000D01*
X32917000Y14677334D02*
X32450333Y14510667D01*
X32917000Y14344000D02*
X32450333Y14510667D01*
X32283666Y14577334D01*
X32250333Y14610667D01*
X32217000Y14677334D01*
X32917000Y14077334D02*
X32217000Y14077334D01*
X32883666Y14077334D02*
X32917000Y14010667D01*
X32917000Y13877334D01*
X32883666Y13810667D01*
X32850333Y13777334D01*
X32783666Y13744000D01*
X32583666Y13744000D01*
X32517000Y13777334D01*
X32483666Y13810667D01*
X32450333Y13877334D01*
X32450333Y14010667D01*
X32483666Y14077334D01*
X32450333Y13144000D02*
X32817000Y13144000D01*
X32883666Y13177334D01*
X32917000Y13244000D01*
X32917000Y13377334D01*
X32883666Y13444000D01*
X32483666Y13144000D02*
X32450333Y13210667D01*
X32450333Y13377334D01*
X32483666Y13444000D01*
X32550333Y13477334D01*
X32617000Y13477334D01*
X32683666Y13444000D01*
X32717000Y13377334D01*
X32717000Y13210667D01*
X32750333Y13144000D01*
X32483666Y12844000D02*
X32450333Y12777334D01*
X32450333Y12644000D01*
X32483666Y12577334D01*
X32550333Y12544000D01*
X32583666Y12544000D01*
X32650333Y12577334D01*
X32683666Y12644000D01*
X32683666Y12744000D01*
X32717000Y12810667D01*
X32783666Y12844000D01*
X32817000Y12844000D01*
X32883666Y12810667D01*
X32917000Y12744000D01*
X32917000Y12644000D01*
X32883666Y12577334D01*
X32483666Y12277334D02*
X32450333Y12210667D01*
X32450333Y12077334D01*
X32483666Y12010667D01*
X32550333Y11977334D01*
X32583666Y11977334D01*
X32650333Y12010667D01*
X32683666Y12077334D01*
X32683666Y12177334D01*
X32717000Y12244000D01*
X32783666Y12277334D01*
X32817000Y12277334D01*
X32883666Y12244000D01*
X32917000Y12177334D01*
X32917000Y12077334D01*
X32883666Y12010667D01*
X32072000Y19996000D02*
X29278000Y19996000D01*
X32072000Y11868000D02*
X32072000Y19996000D01*
X29278000Y11868000D02*
X32072000Y11868000D01*
X29278000Y19996000D02*
X29278000Y11868000D01*
X21528666Y22618667D02*
X22228666Y22852000D01*
X21528666Y23085334D01*
X21862000Y23552000D02*
X21895333Y23652000D01*
X21928666Y23685334D01*
X21995333Y23718667D01*
X22095333Y23718667D01*
X22162000Y23685334D01*
X22195333Y23652000D01*
X22228666Y23585334D01*
X22228666Y23318667D01*
X21528666Y23318667D01*
X21528666Y23552000D01*
X21562000Y23618667D01*
X21595333Y23652000D01*
X21662000Y23685334D01*
X21728666Y23685334D01*
X21795333Y23652000D01*
X21828666Y23618667D01*
X21862000Y23552000D01*
X21862000Y23318667D01*
X21862000Y24252000D02*
X21895333Y24352000D01*
X21928666Y24385334D01*
X21995333Y24418667D01*
X22095333Y24418667D01*
X22162000Y24385334D01*
X22195333Y24352000D01*
X22228666Y24285334D01*
X22228666Y24018667D01*
X21528666Y24018667D01*
X21528666Y24252000D01*
X21562000Y24318667D01*
X21595333Y24352000D01*
X21662000Y24385334D01*
X21728666Y24385334D01*
X21795333Y24352000D01*
X21828666Y24318667D01*
X21862000Y24252000D01*
X21862000Y24018667D01*
X16566928Y21567715D02*
X16566928Y21624858D01*
X16595500Y21682000D01*
X16624071Y21710572D01*
X16681214Y21739143D01*
X16795500Y21767715D01*
X16938357Y21767715D01*
X17052642Y21739143D01*
X17109785Y21710572D01*
X17138357Y21682000D01*
X17166928Y21624858D01*
X17166928Y21567715D01*
X17138357Y21510572D01*
X17109785Y21482000D01*
X17052642Y21453429D01*
X16938357Y21424858D01*
X16795500Y21424858D01*
X16681214Y21453429D01*
X16624071Y21482000D01*
X16595500Y21510572D01*
X16566928Y21567715D01*
X17109785Y22024858D02*
X17138357Y22053429D01*
X17166928Y22024858D01*
X17138357Y21996286D01*
X17109785Y22024858D01*
X17166928Y22024858D01*
X16566928Y22253429D02*
X16566928Y22624858D01*
X16795500Y22424858D01*
X16795500Y22510572D01*
X16824071Y22567715D01*
X16852642Y22596286D01*
X16909785Y22624858D01*
X17052642Y22624858D01*
X17109785Y22596286D01*
X17138357Y22567715D01*
X17166928Y22510572D01*
X17166928Y22339143D01*
X17138357Y22282000D01*
X17109785Y22253429D01*
X16566928Y22796286D02*
X17166928Y22996286D01*
X16566928Y23196286D01*
X25596000Y-2765333D02*
X25596000Y-2065333D01*
X26480000Y-2198666D02*
X26513333Y-2232000D01*
X26546666Y-2332000D01*
X26546666Y-2398666D01*
X26513333Y-2498666D01*
X26446666Y-2565333D01*
X26380000Y-2598666D01*
X26246666Y-2632000D01*
X26146666Y-2632000D01*
X26013333Y-2598666D01*
X25946666Y-2565333D01*
X25880000Y-2498666D01*
X25846666Y-2398666D01*
X25846666Y-2332000D01*
X25880000Y-2232000D01*
X25913333Y-2198666D01*
X25596000Y-2065333D02*
X25596000Y-1498666D01*
X26546666Y-1565333D02*
X26546666Y-1898666D01*
X25846666Y-1898666D01*
X25596000Y-1498666D02*
X25596000Y-798666D01*
X26546666Y-1332000D02*
X25846666Y-1332000D01*
X26546666Y-932000D02*
X26146666Y-1232000D01*
X25846666Y-932000D02*
X26246666Y-1332000D01*
X25596000Y-798666D02*
X25596000Y-265333D01*
X26613333Y-798666D02*
X26613333Y-265333D01*
X25596000Y-265333D02*
X25596000Y368000D01*
X26180000Y-98666D02*
X26180000Y134667D01*
X26546666Y234667D02*
X26546666Y-98666D01*
X25846666Y-98666D01*
X25846666Y234667D01*
X25596000Y368000D02*
X25596000Y1101334D01*
X26546666Y534667D02*
X25846666Y534667D01*
X26546666Y934667D01*
X25846666Y934667D01*
X26546666Y47081334D02*
X25846666Y47081334D01*
X25846666Y47348000D01*
X25880000Y47414667D01*
X25913333Y47448000D01*
X25980000Y47481334D01*
X26080000Y47481334D01*
X26146666Y47448000D01*
X26180000Y47414667D01*
X26213333Y47348000D01*
X26213333Y47081334D01*
X25846666Y47914667D02*
X25846666Y48048000D01*
X25880000Y48114667D01*
X25946666Y48181334D01*
X26080000Y48214667D01*
X26313333Y48214667D01*
X26446666Y48181334D01*
X26513333Y48114667D01*
X26546666Y48048000D01*
X26546666Y47914667D01*
X26513333Y47848000D01*
X26446666Y47781334D01*
X26313333Y47748000D01*
X26080000Y47748000D01*
X25946666Y47781334D01*
X25880000Y47848000D01*
X25846666Y47914667D01*
X25846666Y48448000D02*
X26546666Y48614667D01*
X26046666Y48748000D01*
X26546666Y48881334D01*
X25846666Y49048000D01*
X26180000Y49314667D02*
X26180000Y49548000D01*
X26546666Y49648000D02*
X26546666Y49314667D01*
X25846666Y49314667D01*
X25846666Y49648000D01*
X26546666Y50348000D02*
X26213333Y50114667D01*
X26546666Y49948000D02*
X25846666Y49948000D01*
X25846666Y50214667D01*
X25880000Y50281334D01*
X25913333Y50314667D01*
X25980000Y50348000D01*
X26080000Y50348000D01*
X26146666Y50314667D01*
X26180000Y50281334D01*
X26213333Y50214667D01*
X26213333Y49948000D01*
D11*
X53522857Y11024000D02*
X54322857Y11024000D01*
X54170476Y10006286D02*
X54132380Y9968191D01*
X54018095Y9930096D01*
X53941904Y9930096D01*
X53827619Y9968191D01*
X53751428Y10044381D01*
X53713333Y10120572D01*
X53675238Y10272953D01*
X53675238Y10387239D01*
X53713333Y10539620D01*
X53751428Y10615810D01*
X53827619Y10692000D01*
X53941904Y10730096D01*
X54018095Y10730096D01*
X54132380Y10692000D01*
X54170476Y10653905D01*
X54322857Y11024000D02*
X54970476Y11024000D01*
X54894285Y9930096D02*
X54513333Y9930096D01*
X54513333Y10730096D01*
X54970476Y11024000D02*
X55808571Y11024000D01*
X55313333Y10730096D02*
X55465714Y10730096D01*
X55541904Y10692000D01*
X55618095Y10615810D01*
X55656190Y10463429D01*
X55656190Y10196762D01*
X55618095Y10044381D01*
X55541904Y9968191D01*
X55465714Y9930096D01*
X55313333Y9930096D01*
X55237142Y9968191D01*
X55160952Y10044381D01*
X55122857Y10196762D01*
X55122857Y10463429D01*
X55160952Y10615810D01*
X55237142Y10692000D01*
X55313333Y10730096D01*
X55808571Y11024000D02*
X56608571Y11024000D01*
X56456190Y10006286D02*
X56418095Y9968191D01*
X56303809Y9930096D01*
X56227619Y9930096D01*
X56113333Y9968191D01*
X56037142Y10044381D01*
X55999047Y10120572D01*
X55960952Y10272953D01*
X55960952Y10387239D01*
X55999047Y10539620D01*
X56037142Y10615810D01*
X56113333Y10692000D01*
X56227619Y10730096D01*
X56303809Y10730096D01*
X56418095Y10692000D01*
X56456190Y10653905D01*
X56608571Y11024000D02*
X57408571Y11024000D01*
X56799047Y9930096D02*
X56799047Y10730096D01*
X57256190Y9930096D02*
X56913333Y10387239D01*
X57256190Y10730096D02*
X56799047Y10272953D01*
X57408571Y11024000D02*
X58018095Y11024000D01*
X58018095Y11024000D02*
X58741904Y11024000D01*
X58208571Y10349143D02*
X58475238Y10349143D01*
X58589523Y9930096D02*
X58208571Y9930096D01*
X58208571Y10730096D01*
X58589523Y10730096D01*
X58741904Y11024000D02*
X59580000Y11024000D01*
X58932380Y9930096D02*
X58932380Y10730096D01*
X59389523Y9930096D01*
X59389523Y10730096D01*
X59580000Y11024000D02*
X60265714Y11024000D01*
X59732380Y10158667D02*
X60113333Y10158667D01*
X59656190Y9930096D02*
X59922857Y10730096D01*
X60189523Y9930096D01*
X60265714Y11024000D02*
X61065714Y11024000D01*
X60722857Y10349143D02*
X60837142Y10311048D01*
X60875238Y10272953D01*
X60913333Y10196762D01*
X60913333Y10082477D01*
X60875238Y10006286D01*
X60837142Y9968191D01*
X60760952Y9930096D01*
X60456190Y9930096D01*
X60456190Y10730096D01*
X60722857Y10730096D01*
X60799047Y10692000D01*
X60837142Y10653905D01*
X60875238Y10577715D01*
X60875238Y10501524D01*
X60837142Y10425334D01*
X60799047Y10387239D01*
X60722857Y10349143D01*
X60456190Y10349143D01*
X61065714Y11024000D02*
X61713333Y11024000D01*
X61637142Y9930096D02*
X61256190Y9930096D01*
X61256190Y10730096D01*
X61713333Y11024000D02*
X62437142Y11024000D01*
X61903809Y10349143D02*
X62170476Y10349143D01*
X62284761Y9930096D02*
X61903809Y9930096D01*
X61903809Y10730096D01*
X62284761Y10730096D01*
X55275238Y8090096D02*
X55770476Y8090096D01*
X55503809Y7785334D01*
X55618095Y7785334D01*
X55694285Y7747239D01*
X55732380Y7709143D01*
X55770476Y7632953D01*
X55770476Y7442477D01*
X55732380Y7366286D01*
X55694285Y7328191D01*
X55618095Y7290096D01*
X55389523Y7290096D01*
X55313333Y7328191D01*
X55275238Y7366286D01*
X56113333Y7366286D02*
X56151428Y7328191D01*
X56113333Y7290096D01*
X56075238Y7328191D01*
X56113333Y7366286D01*
X56113333Y7290096D01*
X56418095Y8090096D02*
X56913333Y8090096D01*
X56646666Y7785334D01*
X56760952Y7785334D01*
X56837142Y7747239D01*
X56875238Y7709143D01*
X56913333Y7632953D01*
X56913333Y7442477D01*
X56875238Y7366286D01*
X56837142Y7328191D01*
X56760952Y7290096D01*
X56532380Y7290096D01*
X56456190Y7328191D01*
X56418095Y7366286D01*
X57141904Y8090096D02*
X57408571Y7290096D01*
X57675238Y8090096D01*
X58551428Y7823429D02*
X58551428Y7023429D01*
X58551428Y7785334D02*
X58627619Y7823429D01*
X58780000Y7823429D01*
X58856190Y7785334D01*
X58894285Y7747239D01*
X58932380Y7671048D01*
X58932380Y7442477D01*
X58894285Y7366286D01*
X58856190Y7328191D01*
X58780000Y7290096D01*
X58627619Y7290096D01*
X58551428Y7328191D01*
X59275238Y7594858D02*
X59884761Y7594858D01*
X60265714Y7823429D02*
X60265714Y7023429D01*
X60265714Y7785334D02*
X60341904Y7823429D01*
X60494285Y7823429D01*
X60570476Y7785334D01*
X60608571Y7747239D01*
X60646666Y7671048D01*
X60646666Y7442477D01*
X60608571Y7366286D01*
X60570476Y7328191D01*
X60494285Y7290096D01*
X60341904Y7290096D01*
X60265714Y7328191D01*
X56399047Y6693905D02*
X56437142Y6732000D01*
X56513333Y6770096D01*
X56703809Y6770096D01*
X56780000Y6732000D01*
X56818095Y6693905D01*
X56856190Y6617715D01*
X56856190Y6541524D01*
X56818095Y6427239D01*
X56360952Y5970096D01*
X56856190Y5970096D01*
X57199047Y6046286D02*
X57237142Y6008191D01*
X57199047Y5970096D01*
X57160952Y6008191D01*
X57199047Y6046286D01*
X57199047Y5970096D01*
X57541904Y6693905D02*
X57580000Y6732000D01*
X57656190Y6770096D01*
X57846666Y6770096D01*
X57922857Y6732000D01*
X57960952Y6693905D01*
X57999047Y6617715D01*
X57999047Y6541524D01*
X57960952Y6427239D01*
X57503809Y5970096D01*
X57999047Y5970096D01*
X58341904Y5970096D02*
X58341904Y6770096D01*
X58418095Y6274858D02*
X58646666Y5970096D01*
X58646666Y6503429D02*
X58341904Y6198667D01*
X58951428Y5970096D02*
X59141904Y5970096D01*
X59141904Y6122477D01*
X59065714Y6160572D01*
X58989523Y6236762D01*
X58951428Y6351048D01*
X58951428Y6541524D01*
X58989523Y6655810D01*
X59065714Y6732000D01*
X59180000Y6770096D01*
X59332380Y6770096D01*
X59446666Y6732000D01*
X59522857Y6655810D01*
X59560952Y6541524D01*
X59560952Y6351048D01*
X59522857Y6236762D01*
X59446666Y6160572D01*
X59370476Y6122477D01*
X59370476Y5970096D01*
X59560952Y5970096D01*
X8914285Y2208096D02*
X8914285Y3008096D01*
X9219047Y3008096D01*
X9295238Y2970000D01*
X9333333Y2931905D01*
X9371428Y2855715D01*
X9371428Y2741429D01*
X9333333Y2665239D01*
X9295238Y2627143D01*
X9219047Y2589048D01*
X8914285Y2589048D01*
X10057142Y2741429D02*
X10057142Y2208096D01*
X9714285Y2741429D02*
X9714285Y2322381D01*
X9752380Y2246191D01*
X9828571Y2208096D01*
X9942857Y2208096D01*
X10019047Y2246191D01*
X10057142Y2284286D01*
X10552380Y2208096D02*
X10476190Y2246191D01*
X10438095Y2322381D01*
X10438095Y3008096D01*
X10819047Y2246191D02*
X10895238Y2208096D01*
X11047619Y2208096D01*
X11123809Y2246191D01*
X11161904Y2322381D01*
X11161904Y2360477D01*
X11123809Y2436667D01*
X11047619Y2474762D01*
X10933333Y2474762D01*
X10857142Y2512858D01*
X10819047Y2589048D01*
X10819047Y2627143D01*
X10857142Y2703334D01*
X10933333Y2741429D01*
X11047619Y2741429D01*
X11123809Y2703334D01*
X11809523Y2246191D02*
X11733333Y2208096D01*
X11580952Y2208096D01*
X11504761Y2246191D01*
X11466666Y2322381D01*
X11466666Y2627143D01*
X11504761Y2703334D01*
X11580952Y2741429D01*
X11733333Y2741429D01*
X11809523Y2703334D01*
X11847619Y2627143D01*
X11847619Y2550953D01*
X11466666Y2474762D01*
X12800000Y2627143D02*
X13066666Y2627143D01*
X13180952Y2208096D02*
X12800000Y2208096D01*
X12800000Y3008096D01*
X13180952Y3008096D01*
X13447619Y2208096D02*
X13866666Y2741429D01*
X13447619Y2741429D02*
X13866666Y2208096D01*
X14057142Y2741429D02*
X14361904Y2741429D01*
X14171428Y3008096D02*
X14171428Y2322381D01*
X14209523Y2246191D01*
X14285714Y2208096D01*
X14361904Y2208096D01*
X14933333Y2246191D02*
X14857142Y2208096D01*
X14704761Y2208096D01*
X14628571Y2246191D01*
X14590476Y2322381D01*
X14590476Y2627143D01*
X14628571Y2703334D01*
X14704761Y2741429D01*
X14857142Y2741429D01*
X14933333Y2703334D01*
X14971428Y2627143D01*
X14971428Y2550953D01*
X14590476Y2474762D01*
X15314285Y2741429D02*
X15314285Y2208096D01*
X15314285Y2665239D02*
X15352380Y2703334D01*
X15428571Y2741429D01*
X15542857Y2741429D01*
X15619047Y2703334D01*
X15657142Y2627143D01*
X15657142Y2208096D01*
X16380952Y2208096D02*
X16380952Y3008096D01*
X16380952Y2246191D02*
X16304761Y2208096D01*
X16152380Y2208096D01*
X16076190Y2246191D01*
X16038095Y2284286D01*
X16000000Y2360477D01*
X16000000Y2589048D01*
X16038095Y2665239D01*
X16076190Y2703334D01*
X16152380Y2741429D01*
X16304761Y2741429D01*
X16380952Y2703334D01*
X17066666Y2246191D02*
X16990476Y2208096D01*
X16838095Y2208096D01*
X16761904Y2246191D01*
X16723809Y2322381D01*
X16723809Y2627143D01*
X16761904Y2703334D01*
X16838095Y2741429D01*
X16990476Y2741429D01*
X17066666Y2703334D01*
X17104761Y2627143D01*
X17104761Y2550953D01*
X16723809Y2474762D01*
X17447619Y2208096D02*
X17447619Y2741429D01*
X17447619Y2589048D02*
X17485714Y2665239D01*
X17523809Y2703334D01*
X17600000Y2741429D01*
X17676190Y2741429D01*
X18476190Y2741429D02*
X18666666Y2208096D01*
X18857142Y2741429D01*
X19123809Y2931905D02*
X19161904Y2970000D01*
X19238095Y3008096D01*
X19428571Y3008096D01*
X19504761Y2970000D01*
X19542857Y2931905D01*
X19580952Y2855715D01*
X19580952Y2779524D01*
X19542857Y2665239D01*
X19085714Y2208096D01*
X19580952Y2208096D01*
X19923809Y2284286D02*
X19961904Y2246191D01*
X19923809Y2208096D01*
X19885714Y2246191D01*
X19923809Y2284286D01*
X19923809Y2208096D01*
X20457142Y3008096D02*
X20533333Y3008096D01*
X20609523Y2970000D01*
X20647619Y2931905D01*
X20685714Y2855715D01*
X20723809Y2703334D01*
X20723809Y2512858D01*
X20685714Y2360477D01*
X20647619Y2284286D01*
X20609523Y2246191D01*
X20533333Y2208096D01*
X20457142Y2208096D01*
X20380952Y2246191D01*
X20342857Y2284286D01*
X20304761Y2360477D01*
X20266666Y2512858D01*
X20266666Y2703334D01*
X20304761Y2855715D01*
X20342857Y2931905D01*
X20380952Y2970000D01*
X20457142Y3008096D01*
X9047619Y177620D02*
X8971428Y215715D01*
X8819047Y215715D01*
X8742857Y177620D01*
X8666666Y101429D01*
X8628571Y25239D01*
X8628571Y-127142D01*
X8666666Y-203333D01*
X8742857Y-279523D01*
X8819047Y-317619D01*
X8971428Y-317619D01*
X9047619Y-279523D01*
X8895238Y482381D02*
X8704761Y444286D01*
X8514285Y330000D01*
X8400000Y139524D01*
X8361904Y-50952D01*
X8400000Y-241428D01*
X8514285Y-431904D01*
X8704761Y-546190D01*
X8895238Y-584285D01*
X9085714Y-546190D01*
X9276190Y-431904D01*
X9390476Y-241428D01*
X9428571Y-50952D01*
X9390476Y139524D01*
X9276190Y330000D01*
X9085714Y444286D01*
X8895238Y482381D01*
X10000000Y368096D02*
X10000000Y-203333D01*
X9961904Y-317619D01*
X9885714Y-393809D01*
X9771428Y-431904D01*
X9695238Y-431904D01*
X10723809Y-431904D02*
X10723809Y-12857D01*
X10685714Y63334D01*
X10609523Y101429D01*
X10457142Y101429D01*
X10380952Y63334D01*
X10723809Y-393809D02*
X10647619Y-431904D01*
X10457142Y-431904D01*
X10380952Y-393809D01*
X10342857Y-317619D01*
X10342857Y-241428D01*
X10380952Y-165238D01*
X10457142Y-127142D01*
X10647619Y-127142D01*
X10723809Y-89047D01*
X11104761Y-431904D02*
X11104761Y368096D01*
X11180952Y-127142D02*
X11409523Y-431904D01*
X11409523Y101429D02*
X11104761Y-203333D01*
X12095238Y101429D02*
X12095238Y-431904D01*
X11752380Y101429D02*
X11752380Y-317619D01*
X11790476Y-393809D01*
X11866666Y-431904D01*
X11980952Y-431904D01*
X12057142Y-393809D01*
X12095238Y-355714D01*
X12476190Y-431904D02*
X12476190Y368096D01*
X12476190Y63334D02*
X12552380Y101429D01*
X12704761Y101429D01*
X12780952Y63334D01*
X12819047Y25239D01*
X12857142Y-50952D01*
X12857142Y-279523D01*
X12819047Y-355714D01*
X12780952Y-393809D01*
X12704761Y-431904D01*
X12552380Y-431904D01*
X12476190Y-393809D01*
X13809523Y-431904D02*
X13809523Y368096D01*
X14266666Y-431904D01*
X14266666Y368096D01*
X14952380Y-393809D02*
X14876190Y-431904D01*
X14723809Y-431904D01*
X14647619Y-393809D01*
X14609523Y-317619D01*
X14609523Y-12857D01*
X14647619Y63334D01*
X14723809Y101429D01*
X14876190Y101429D01*
X14952380Y63334D01*
X14990476Y-12857D01*
X14990476Y-89047D01*
X14609523Y-165238D01*
X15676190Y-431904D02*
X15676190Y368096D01*
X15676190Y-393809D02*
X15600000Y-431904D01*
X15447619Y-431904D01*
X15371428Y-393809D01*
X15333333Y-355714D01*
X15295238Y-279523D01*
X15295238Y-50952D01*
X15333333Y25239D01*
X15371428Y63334D01*
X15447619Y101429D01*
X15600000Y101429D01*
X15676190Y63334D01*
X16057142Y-431904D02*
X16057142Y368096D01*
X16057142Y63334D02*
X16133333Y101429D01*
X16285714Y101429D01*
X16361904Y63334D01*
X16400000Y25239D01*
X16438095Y-50952D01*
X16438095Y-279523D01*
X16400000Y-355714D01*
X16361904Y-393809D01*
X16285714Y-431904D01*
X16133333Y-431904D01*
X16057142Y-393809D01*
X17123809Y-431904D02*
X17123809Y-12857D01*
X17085714Y63334D01*
X17009523Y101429D01*
X16857142Y101429D01*
X16780952Y63334D01*
X17123809Y-393809D02*
X17047619Y-431904D01*
X16857142Y-431904D01*
X16780952Y-393809D01*
X16742857Y-317619D01*
X16742857Y-241428D01*
X16780952Y-165238D01*
X16857142Y-127142D01*
X17047619Y-127142D01*
X17123809Y-89047D01*
X17619047Y-431904D02*
X17542857Y-393809D01*
X17504761Y-317619D01*
X17504761Y368096D01*
X18495238Y291905D02*
X18533333Y330000D01*
X18609523Y368096D01*
X18800000Y368096D01*
X18876190Y330000D01*
X18914285Y291905D01*
X18952380Y215715D01*
X18952380Y139524D01*
X18914285Y25239D01*
X18457142Y-431904D01*
X18952380Y-431904D01*
X19447619Y368096D02*
X19523809Y368096D01*
X19600000Y330000D01*
X19638095Y291905D01*
X19676190Y215715D01*
X19714285Y63334D01*
X19714285Y-127142D01*
X19676190Y-279523D01*
X19638095Y-355714D01*
X19600000Y-393809D01*
X19523809Y-431904D01*
X19447619Y-431904D01*
X19371428Y-393809D01*
X19333333Y-355714D01*
X19295238Y-279523D01*
X19257142Y-127142D01*
X19257142Y63334D01*
X19295238Y215715D01*
X19333333Y291905D01*
X19371428Y330000D01*
X19447619Y368096D01*
X20019047Y291905D02*
X20057142Y330000D01*
X20133333Y368096D01*
X20323809Y368096D01*
X20400000Y330000D01*
X20438095Y291905D01*
X20476190Y215715D01*
X20476190Y139524D01*
X20438095Y25239D01*
X19980952Y-431904D01*
X20476190Y-431904D01*
X21238095Y-431904D02*
X20780952Y-431904D01*
X21009523Y-431904D02*
X21009523Y368096D01*
X20933333Y253810D01*
X20857142Y177620D01*
X20780952Y139524D01*
X12380952Y-2995714D02*
X12342857Y-3033809D01*
X12228571Y-3071904D01*
X12152380Y-3071904D01*
X12038095Y-3033809D01*
X11961904Y-2957619D01*
X11923809Y-2881428D01*
X11885714Y-2729047D01*
X11885714Y-2614761D01*
X11923809Y-2462380D01*
X11961904Y-2386190D01*
X12038095Y-2310000D01*
X12152380Y-2271904D01*
X12228571Y-2271904D01*
X12342857Y-2310000D01*
X12380952Y-2348095D01*
X13180952Y-2995714D02*
X13142857Y-3033809D01*
X13028571Y-3071904D01*
X12952380Y-3071904D01*
X12838095Y-3033809D01*
X12761904Y-2957619D01*
X12723809Y-2881428D01*
X12685714Y-2729047D01*
X12685714Y-2614761D01*
X12723809Y-2462380D01*
X12761904Y-2386190D01*
X12838095Y-2310000D01*
X12952380Y-2271904D01*
X13028571Y-2271904D01*
X13142857Y-2310000D01*
X13180952Y-2348095D01*
X14400000Y-2652857D02*
X14514285Y-2690952D01*
X14552380Y-2729047D01*
X14590476Y-2805238D01*
X14590476Y-2919523D01*
X14552380Y-2995714D01*
X14514285Y-3033809D01*
X14438095Y-3071904D01*
X14133333Y-3071904D01*
X14133333Y-2271904D01*
X14400000Y-2271904D01*
X14476190Y-2310000D01*
X14514285Y-2348095D01*
X14552380Y-2424285D01*
X14552380Y-2500476D01*
X14514285Y-2576666D01*
X14476190Y-2614761D01*
X14400000Y-2652857D01*
X14133333Y-2652857D01*
X15085714Y-2690952D02*
X15085714Y-3071904D01*
X14819047Y-2271904D02*
X15085714Y-2690952D01*
X15352380Y-2271904D01*
X15619047Y-2767142D02*
X16228571Y-2767142D01*
X16571428Y-3033809D02*
X16685714Y-3071904D01*
X16876190Y-3071904D01*
X16952380Y-3033809D01*
X16990476Y-2995714D01*
X17028571Y-2919523D01*
X17028571Y-2843333D01*
X16990476Y-2767142D01*
X16952380Y-2729047D01*
X16876190Y-2690952D01*
X16723809Y-2652857D01*
X16647619Y-2614761D01*
X16609523Y-2576666D01*
X16571428Y-2500476D01*
X16571428Y-2424285D01*
X16609523Y-2348095D01*
X16647619Y-2310000D01*
X16723809Y-2271904D01*
X16914285Y-2271904D01*
X17028571Y-2310000D01*
X17333333Y-2843333D02*
X17714285Y-2843333D01*
X17257142Y-3071904D02*
X17523809Y-2271904D01*
X17790476Y-3071904D01*
X53008190Y27494096D02*
X53160571Y27494096D01*
X53236761Y27456000D01*
X53312952Y27379810D01*
X53351047Y27227429D01*
X53351047Y26960762D01*
X53312952Y26808381D01*
X53236761Y26732191D01*
X53160571Y26694096D01*
X53008190Y26694096D01*
X52932000Y26732191D01*
X52855809Y26808381D01*
X52817714Y26960762D01*
X52817714Y27227429D01*
X52855809Y27379810D01*
X52932000Y27456000D01*
X53008190Y27494096D01*
X53693904Y27494096D02*
X53693904Y26846477D01*
X53732000Y26770286D01*
X53770095Y26732191D01*
X53846285Y26694096D01*
X53998666Y26694096D01*
X54074857Y26732191D01*
X54112952Y26770286D01*
X54151047Y26846477D01*
X54151047Y27494096D01*
X54417714Y27494096D02*
X54874857Y27494096D01*
X54646285Y26694096D02*
X54646285Y27494096D01*
X55141523Y26694096D02*
X55141523Y27494096D01*
X55446285Y27494096D01*
X55522476Y27456000D01*
X55560571Y27417905D01*
X55598666Y27341715D01*
X55598666Y27227429D01*
X55560571Y27151239D01*
X55522476Y27113143D01*
X55446285Y27075048D01*
X55141523Y27075048D01*
X55941523Y27494096D02*
X55941523Y26846477D01*
X55979619Y26770286D01*
X56017714Y26732191D01*
X56093904Y26694096D01*
X56246285Y26694096D01*
X56322476Y26732191D01*
X56360571Y26770286D01*
X56398666Y26846477D01*
X56398666Y27494096D01*
X56665333Y27494096D02*
X57122476Y27494096D01*
X56893904Y26694096D02*
X56893904Y27494096D01*
X52341523Y25374096D02*
X51884380Y25374096D01*
X52112952Y25374096D02*
X52112952Y26174096D01*
X52036761Y26059810D01*
X51960571Y25983620D01*
X51884380Y25945524D01*
X52684380Y25450286D02*
X52722476Y25412191D01*
X52684380Y25374096D01*
X52646285Y25412191D01*
X52684380Y25450286D01*
X52684380Y25374096D01*
X53027238Y26097905D02*
X53065333Y26136000D01*
X53141523Y26174096D01*
X53332000Y26174096D01*
X53408190Y26136000D01*
X53446285Y26097905D01*
X53484380Y26021715D01*
X53484380Y25945524D01*
X53446285Y25831239D01*
X52989142Y25374096D01*
X53484380Y25374096D01*
X54208190Y26174096D02*
X53827238Y26174096D01*
X53789142Y25793143D01*
X53827238Y25831239D01*
X53903428Y25869334D01*
X54093904Y25869334D01*
X54170095Y25831239D01*
X54208190Y25793143D01*
X54246285Y25716953D01*
X54246285Y25526477D01*
X54208190Y25450286D01*
X54170095Y25412191D01*
X54093904Y25374096D01*
X53903428Y25374096D01*
X53827238Y25412191D01*
X53789142Y25450286D01*
X54474857Y26174096D02*
X54741523Y25374096D01*
X55008190Y26174096D01*
X55884380Y25907429D02*
X55884380Y25107429D01*
X55884380Y25869334D02*
X55960571Y25907429D01*
X56112952Y25907429D01*
X56189142Y25869334D01*
X56227238Y25831239D01*
X56265333Y25755048D01*
X56265333Y25526477D01*
X56227238Y25450286D01*
X56189142Y25412191D01*
X56112952Y25374096D01*
X55960571Y25374096D01*
X55884380Y25412191D01*
X56608190Y25678858D02*
X57217714Y25678858D01*
X57598666Y25907429D02*
X57598666Y25107429D01*
X57598666Y25869334D02*
X57674857Y25907429D01*
X57827238Y25907429D01*
X57903428Y25869334D01*
X57941523Y25831239D01*
X57979619Y25755048D01*
X57979619Y25526477D01*
X57941523Y25450286D01*
X57903428Y25412191D01*
X57827238Y25374096D01*
X57674857Y25374096D01*
X57598666Y25412191D01*
X54284380Y24854096D02*
X53903428Y24854096D01*
X53865333Y24473143D01*
X53903428Y24511239D01*
X53979619Y24549334D01*
X54170095Y24549334D01*
X54246285Y24511239D01*
X54284380Y24473143D01*
X54322476Y24396953D01*
X54322476Y24206477D01*
X54284380Y24130286D01*
X54246285Y24092191D01*
X54170095Y24054096D01*
X53979619Y24054096D01*
X53903428Y24092191D01*
X53865333Y24130286D01*
X54817714Y24854096D02*
X54893904Y24854096D01*
X54970095Y24816000D01*
X55008190Y24777905D01*
X55046285Y24701715D01*
X55084380Y24549334D01*
X55084380Y24358858D01*
X55046285Y24206477D01*
X55008190Y24130286D01*
X54970095Y24092191D01*
X54893904Y24054096D01*
X54817714Y24054096D01*
X54741523Y24092191D01*
X54703428Y24130286D01*
X54665333Y24206477D01*
X54627238Y24358858D01*
X54627238Y24549334D01*
X54665333Y24701715D01*
X54703428Y24777905D01*
X54741523Y24816000D01*
X54817714Y24854096D01*
X55389142Y24054096D02*
X55579619Y24054096D01*
X55579619Y24206477D01*
X55503428Y24244572D01*
X55427238Y24320762D01*
X55389142Y24435048D01*
X55389142Y24625524D01*
X55427238Y24739810D01*
X55503428Y24816000D01*
X55617714Y24854096D01*
X55770095Y24854096D01*
X55884380Y24816000D01*
X55960571Y24739810D01*
X55998666Y24625524D01*
X55998666Y24435048D01*
X55960571Y24320762D01*
X55884380Y24244572D01*
X55808190Y24206477D01*
X55808190Y24054096D01*
X55998666Y24054096D01*
X53655809Y23038858D02*
X53693904Y23076953D01*
X53770095Y23115048D01*
X53922476Y23038858D01*
X53998666Y23076953D01*
X54036761Y23115048D01*
X54722476Y23534096D02*
X54341523Y23534096D01*
X54303428Y23153143D01*
X54341523Y23191239D01*
X54417714Y23229334D01*
X54608190Y23229334D01*
X54684380Y23191239D01*
X54722476Y23153143D01*
X54760571Y23076953D01*
X54760571Y22886477D01*
X54722476Y22810286D01*
X54684380Y22772191D01*
X54608190Y22734096D01*
X54417714Y22734096D01*
X54341523Y22772191D01*
X54303428Y22810286D01*
X55103428Y23267429D02*
X55103428Y22734096D01*
X55103428Y23191239D02*
X55141523Y23229334D01*
X55217714Y23267429D01*
X55332000Y23267429D01*
X55408190Y23229334D01*
X55446285Y23153143D01*
X55446285Y22734096D01*
X55789142Y22772191D02*
X55865333Y22734096D01*
X56017714Y22734096D01*
X56093904Y22772191D01*
X56132000Y22848381D01*
X56132000Y22886477D01*
X56093904Y22962667D01*
X56017714Y23000762D01*
X55903428Y23000762D01*
X55827238Y23038858D01*
X55789142Y23115048D01*
X55789142Y23153143D01*
X55827238Y23229334D01*
X55903428Y23267429D01*
X56017714Y23267429D01*
X56093904Y23229334D01*
X-4522858Y9828096D02*
X-4522858Y10628096D01*
X-4141905Y9828096D02*
X-4141905Y10628096D01*
X-3684762Y9828096D01*
X-3684762Y10628096D01*
X-3303810Y9828096D02*
X-3303810Y10628096D01*
X-2999048Y10628096D01*
X-2922858Y10590000D01*
X-2884762Y10551905D01*
X-2846667Y10475715D01*
X-2846667Y10361429D01*
X-2884762Y10285239D01*
X-2922858Y10247143D01*
X-2999048Y10209048D01*
X-3303810Y10209048D01*
X-2503810Y10628096D02*
X-2503810Y9980477D01*
X-2465715Y9904286D01*
X-2427620Y9866191D01*
X-2351429Y9828096D01*
X-2199048Y9828096D01*
X-2122858Y9866191D01*
X-2084762Y9904286D01*
X-2046667Y9980477D01*
X-2046667Y10628096D01*
X-1780000Y10628096D02*
X-1322858Y10628096D01*
X-1551429Y9828096D02*
X-1551429Y10628096D01*
X-6008572Y7492858D02*
X-5970477Y7530953D01*
X-5894286Y7569048D01*
X-5741905Y7492858D01*
X-5665715Y7530953D01*
X-5627620Y7569048D01*
X-5170477Y7988096D02*
X-5094286Y7988096D01*
X-5018096Y7950000D01*
X-4980000Y7911905D01*
X-4941905Y7835715D01*
X-4903810Y7683334D01*
X-4903810Y7492858D01*
X-4941905Y7340477D01*
X-4980000Y7264286D01*
X-5018096Y7226191D01*
X-5094286Y7188096D01*
X-5170477Y7188096D01*
X-5246667Y7226191D01*
X-5284762Y7264286D01*
X-5322858Y7340477D01*
X-5360953Y7492858D01*
X-5360953Y7683334D01*
X-5322858Y7835715D01*
X-5284762Y7911905D01*
X-5246667Y7950000D01*
X-5170477Y7988096D01*
X-4560953Y7264286D02*
X-4522858Y7226191D01*
X-4560953Y7188096D01*
X-4599048Y7226191D01*
X-4560953Y7264286D01*
X-4560953Y7188096D01*
X-4065715Y7645239D02*
X-4141905Y7683334D01*
X-4180000Y7721429D01*
X-4218096Y7797620D01*
X-4218096Y7835715D01*
X-4180000Y7911905D01*
X-4141905Y7950000D01*
X-4065715Y7988096D01*
X-3913334Y7988096D01*
X-3837143Y7950000D01*
X-3799048Y7911905D01*
X-3760953Y7835715D01*
X-3760953Y7797620D01*
X-3799048Y7721429D01*
X-3837143Y7683334D01*
X-3913334Y7645239D01*
X-4065715Y7645239D01*
X-4141905Y7607143D01*
X-4180000Y7569048D01*
X-4218096Y7492858D01*
X-4218096Y7340477D01*
X-4180000Y7264286D01*
X-4141905Y7226191D01*
X-4065715Y7188096D01*
X-3913334Y7188096D01*
X-3837143Y7226191D01*
X-3799048Y7264286D01*
X-3760953Y7340477D01*
X-3760953Y7492858D01*
X-3799048Y7569048D01*
X-3837143Y7607143D01*
X-3913334Y7645239D01*
X-3532381Y7988096D02*
X-3265715Y7188096D01*
X-2999048Y7988096D01*
X-2122858Y7721429D02*
X-2122858Y6921429D01*
X-2122858Y7683334D02*
X-2046667Y7721429D01*
X-1894286Y7721429D01*
X-1818096Y7683334D01*
X-1780000Y7645239D01*
X-1741905Y7569048D01*
X-1741905Y7340477D01*
X-1780000Y7264286D01*
X-1818096Y7226191D01*
X-1894286Y7188096D01*
X-2046667Y7188096D01*
X-2122858Y7226191D01*
X-1399048Y7492858D02*
X-789524Y7492858D01*
X-408572Y7721429D02*
X-408572Y6921429D01*
X-408572Y7683334D02*
X-332381Y7721429D01*
X-180000Y7721429D01*
X-103810Y7683334D01*
X-65715Y7645239D01*
X-27620Y7569048D01*
X-27620Y7340477D01*
X-65715Y7264286D01*
X-103810Y7226191D01*
X-180000Y7188096D01*
X-332381Y7188096D01*
X-408572Y7226191D01*
X-3627620Y6668096D02*
X-4008572Y6668096D01*
X-4046667Y6287143D01*
X-4008572Y6325239D01*
X-3932381Y6363334D01*
X-3741905Y6363334D01*
X-3665715Y6325239D01*
X-3627620Y6287143D01*
X-3589524Y6210953D01*
X-3589524Y6020477D01*
X-3627620Y5944286D01*
X-3665715Y5906191D01*
X-3741905Y5868096D01*
X-3932381Y5868096D01*
X-4008572Y5906191D01*
X-4046667Y5944286D01*
X-3094286Y6668096D02*
X-3018096Y6668096D01*
X-2941905Y6630000D01*
X-2903810Y6591905D01*
X-2865715Y6515715D01*
X-2827620Y6363334D01*
X-2827620Y6172858D01*
X-2865715Y6020477D01*
X-2903810Y5944286D01*
X-2941905Y5906191D01*
X-3018096Y5868096D01*
X-3094286Y5868096D01*
X-3170477Y5906191D01*
X-3208572Y5944286D01*
X-3246667Y6020477D01*
X-3284762Y6172858D01*
X-3284762Y6363334D01*
X-3246667Y6515715D01*
X-3208572Y6591905D01*
X-3170477Y6630000D01*
X-3094286Y6668096D01*
X-2522858Y5868096D02*
X-2332381Y5868096D01*
X-2332381Y6020477D01*
X-2408572Y6058572D01*
X-2484762Y6134762D01*
X-2522858Y6249048D01*
X-2522858Y6439524D01*
X-2484762Y6553810D01*
X-2408572Y6630000D01*
X-2294286Y6668096D01*
X-2141905Y6668096D01*
X-2027620Y6630000D01*
X-1951429Y6553810D01*
X-1913334Y6439524D01*
X-1913334Y6249048D01*
X-1951429Y6134762D01*
X-2027620Y6058572D01*
X-2103810Y6020477D01*
X-2103810Y5868096D01*
X-1913334Y5868096D01*
X-5113334Y5081429D02*
X-4503810Y4852858D01*
X-5113334Y4624286D01*
X-4199048Y5348096D02*
X-3703810Y5348096D01*
X-3970477Y5043334D01*
X-3856191Y5043334D01*
X-3780000Y5005239D01*
X-3741905Y4967143D01*
X-3703810Y4890953D01*
X-3703810Y4700477D01*
X-3741905Y4624286D01*
X-3780000Y4586191D01*
X-3856191Y4548096D01*
X-4084762Y4548096D01*
X-4160953Y4586191D01*
X-4199048Y4624286D01*
X-2980000Y5348096D02*
X-3360953Y5348096D01*
X-3399048Y4967143D01*
X-3360953Y5005239D01*
X-3284762Y5043334D01*
X-3094286Y5043334D01*
X-3018096Y5005239D01*
X-2980000Y4967143D01*
X-2941905Y4890953D01*
X-2941905Y4700477D01*
X-2980000Y4624286D01*
X-3018096Y4586191D01*
X-3094286Y4548096D01*
X-3284762Y4548096D01*
X-3360953Y4586191D01*
X-3399048Y4624286D01*
X-2446667Y5348096D02*
X-2370477Y5348096D01*
X-2294286Y5310000D01*
X-2256191Y5271905D01*
X-2218096Y5195715D01*
X-2180000Y5043334D01*
X-2180000Y4852858D01*
X-2218096Y4700477D01*
X-2256191Y4624286D01*
X-2294286Y4586191D01*
X-2370477Y4548096D01*
X-2446667Y4548096D01*
X-2522858Y4586191D01*
X-2560953Y4624286D01*
X-2599048Y4700477D01*
X-2637143Y4852858D01*
X-2637143Y5043334D01*
X-2599048Y5195715D01*
X-2560953Y5271905D01*
X-2522858Y5310000D01*
X-2446667Y5348096D01*
X-1837143Y5081429D02*
X-1837143Y4281429D01*
X-1837143Y5043334D02*
X-1760953Y5081429D01*
X-1608572Y5081429D01*
X-1532381Y5043334D01*
X-1494286Y5005239D01*
X-1456191Y4929048D01*
X-1456191Y4700477D01*
X-1494286Y4624286D01*
X-1532381Y4586191D01*
X-1608572Y4548096D01*
X-1760953Y4548096D01*
X-1837143Y4586191D01*
X-1151429Y4586191D02*
X-1075239Y4548096D01*
X-922858Y4548096D01*
X-846667Y4586191D01*
X-808572Y4662381D01*
X-808572Y4700477D01*
X-846667Y4776667D01*
X-922858Y4814762D01*
X-1037143Y4814762D01*
X-1113334Y4852858D01*
X-1151429Y4929048D01*
X-1151429Y4967143D01*
X-1113334Y5043334D01*
X-1037143Y5081429D01*
X-922858Y5081429D01*
X-846667Y5043334D01*
D12*
X68000Y32950000D02*
X576000Y32950000D01*
X-4250000Y33204000D02*
X-4250000Y32696000D01*
X-3996000Y32950000D02*
X-4504000Y32950000D01*
X-1202000Y32950000D02*
X-440000Y32950000D01*
X-2726000Y32950000D02*
X-3488000Y32950000D01*
X-2218000Y33966000D02*
G75*
G02*
X-2218000Y31934000I0J-1016000D01*
G01*
X-1710000Y32950000D02*
G75*
G03*
X-1710000Y32950000I-508000J0D01*
G01*
D11*
X-3246572Y30606858D02*
X-2637048Y30606858D01*
X-2941810Y30302096D02*
X-2941810Y30911620D01*
X-1875143Y31102096D02*
X-2256096Y31102096D01*
X-2294191Y30721143D01*
X-2256096Y30759239D01*
X-2179905Y30797334D01*
X-1989429Y30797334D01*
X-1913239Y30759239D01*
X-1875143Y30721143D01*
X-1837048Y30644953D01*
X-1837048Y30454477D01*
X-1875143Y30378286D01*
X-1913239Y30340191D01*
X-1989429Y30302096D01*
X-2179905Y30302096D01*
X-2256096Y30340191D01*
X-2294191Y30378286D01*
X-1608477Y31102096D02*
X-1341810Y30302096D01*
X-1075143Y31102096D01*
D12*
X16578000Y25076000D02*
X17340000Y24060000D01*
D11*
G04 #@! TO.C,U7*
X30634000Y2332000D02*
X30634000Y4132000D01*
X27414000Y4132000D02*
X27414000Y1682000D01*
G04 #@! TO.C,U6*
X29670000Y11319000D02*
X27870000Y11319000D01*
X27870000Y8099000D02*
X30320000Y8099000D01*
G04 #@! TO.C,R26*
X29948779Y-72000D02*
X29623221Y-72000D01*
X29948779Y948000D02*
X29623221Y948000D01*
G04 #@! TO.C,R11*
X10992000Y8982779D02*
X10992000Y8657221D01*
X9972000Y8982779D02*
X9972000Y8657221D01*
D13*
G04 #@! TO.C,J4*
X70144060Y13272620D02*
X71088940Y13272620D01*
X70144060Y18591380D02*
X71088940Y18591380D01*
X61637600Y18591380D02*
X65417120Y18591380D01*
X61637600Y13272620D02*
X65417120Y13272620D01*
X69829100Y19124780D02*
X70144060Y15665300D01*
X66047040Y12739220D02*
X65417120Y18591380D01*
X66047040Y19124780D02*
X66676960Y12739220D01*
X66676960Y19124780D02*
X67306880Y12739220D01*
X67306880Y19124780D02*
X67936800Y12739220D01*
X67936800Y19124780D02*
X68569260Y12739220D01*
X68569260Y19124780D02*
X69199180Y12739220D01*
X69199180Y19124780D02*
X69829100Y12739220D01*
X69829100Y19124780D02*
X70144060Y18591380D01*
X70144060Y18591380D02*
X70144060Y13272620D01*
X70144060Y13272620D02*
X69829100Y12739220D01*
X69829100Y12739220D02*
X65732080Y12739220D01*
X65732080Y12739220D02*
X65417120Y13272620D01*
X65417120Y13272620D02*
X65417120Y18591380D01*
X65417120Y18591380D02*
X65732080Y19124780D01*
X65732080Y19124780D02*
X69829100Y19124780D01*
X71088940Y13272620D02*
X71088940Y18591380D01*
X61637600Y19081600D02*
X61637600Y12782400D01*
X61637600Y12782400D02*
X55338400Y12782400D01*
X55338400Y12782400D02*
X55338400Y19081600D01*
X55338400Y19081600D02*
X61637600Y19081600D01*
G04 #@! TO.C,J3*
X70144060Y29408620D02*
X71088940Y29408620D01*
X70144060Y34727380D02*
X71088940Y34727380D01*
X61637600Y34727380D02*
X65417120Y34727380D01*
X61637600Y29408620D02*
X65417120Y29408620D01*
X69829100Y35260780D02*
X70144060Y31801300D01*
X66047040Y28875220D02*
X65417120Y34727380D01*
X66047040Y35260780D02*
X66676960Y28875220D01*
X66676960Y35260780D02*
X67306880Y28875220D01*
X67306880Y35260780D02*
X67936800Y28875220D01*
X67936800Y35260780D02*
X68569260Y28875220D01*
X68569260Y35260780D02*
X69199180Y28875220D01*
X69199180Y35260780D02*
X69829100Y28875220D01*
X69829100Y35260780D02*
X70144060Y34727380D01*
X70144060Y34727380D02*
X70144060Y29408620D01*
X70144060Y29408620D02*
X69829100Y28875220D01*
X69829100Y28875220D02*
X65732080Y28875220D01*
X65732080Y28875220D02*
X65417120Y29408620D01*
X65417120Y29408620D02*
X65417120Y34727380D01*
X65417120Y34727380D02*
X65732080Y35260780D01*
X65732080Y35260780D02*
X69829100Y35260780D01*
X71088940Y29408620D02*
X71088940Y34727380D01*
X61637600Y35217600D02*
X61637600Y28918400D01*
X61637600Y28918400D02*
X55338400Y28918400D01*
X55338400Y28918400D02*
X55338400Y35217600D01*
X55338400Y35217600D02*
X61637600Y35217600D01*
G04 #@! TO.C,J2*
X-15144060Y18591380D02*
X-16088940Y18591380D01*
X-15144060Y13272620D02*
X-16088940Y13272620D01*
X-6637600Y13272620D02*
X-10417120Y13272620D01*
X-6637600Y18591380D02*
X-10417120Y18591380D01*
X-14829100Y12739220D02*
X-15144060Y16198700D01*
X-11047040Y19124780D02*
X-10417120Y13272620D01*
X-11047040Y12739220D02*
X-11676960Y19124780D01*
X-11676960Y12739220D02*
X-12306880Y19124780D01*
X-12306880Y12739220D02*
X-12936800Y19124780D01*
X-12936800Y12739220D02*
X-13569260Y19124780D01*
X-13569260Y12739220D02*
X-14199180Y19124780D01*
X-14199180Y12739220D02*
X-14829100Y19124780D01*
X-14829100Y12739220D02*
X-15144060Y13272620D01*
X-15144060Y13272620D02*
X-15144060Y18591380D01*
X-15144060Y18591380D02*
X-14829100Y19124780D01*
X-14829100Y19124780D02*
X-10732080Y19124780D01*
X-10732080Y19124780D02*
X-10417120Y18591380D01*
X-10417120Y18591380D02*
X-10417120Y13272620D01*
X-10417120Y13272620D02*
X-10732080Y12739220D01*
X-10732080Y12739220D02*
X-14829100Y12739220D01*
X-16088940Y18591380D02*
X-16088940Y13272620D01*
X-6637600Y12782400D02*
X-6637600Y19081600D01*
X-6637600Y19081600D02*
X-338400Y19081600D01*
X-338400Y19081600D02*
X-338400Y12782400D01*
X-338400Y12782400D02*
X-6637600Y12782400D01*
D11*
G04 #@! TO.C,C1*
X10080000Y42507936D02*
X10080000Y43712064D01*
X11900000Y42507936D02*
X11900000Y43712064D01*
G04 #@! TO.C,C2*
X14186000Y42507936D02*
X14186000Y43712064D01*
X12366000Y42507936D02*
X12366000Y43712064D01*
G04 #@! TO.C,C3*
X26082000Y42507936D02*
X26082000Y43712064D01*
X27902000Y42507936D02*
X27902000Y43712064D01*
G04 #@! TO.C,C4*
X30188000Y42507936D02*
X30188000Y43712064D01*
X28368000Y42507936D02*
X28368000Y43712064D01*
G04 #@! TO.C,C6*
X21406000Y36922779D02*
X21406000Y36597221D01*
X20386000Y36922779D02*
X20386000Y36597221D01*
G04 #@! TO.C,C7*
X39021221Y41330000D02*
X39346779Y41330000D01*
X39021221Y42350000D02*
X39346779Y42350000D01*
G04 #@! TO.C,C8*
X17589422Y31120000D02*
X18106578Y31120000D01*
X17589422Y29700000D02*
X18106578Y29700000D01*
G04 #@! TO.C,C9*
X20186000Y32945422D02*
X20186000Y33462578D01*
X21606000Y32945422D02*
X21606000Y33462578D01*
G04 #@! TO.C,C10*
X42998578Y42550000D02*
X42481422Y42550000D01*
X42998578Y41130000D02*
X42481422Y41130000D01*
G04 #@! TO.C,C13*
X15216779Y22665000D02*
X14891221Y22665000D01*
X15216779Y21645000D02*
X14891221Y21645000D01*
G04 #@! TO.C,C16*
X18447221Y25967000D02*
X18772779Y25967000D01*
X18447221Y24947000D02*
X18772779Y24947000D01*
G04 #@! TO.C,C20*
X26646779Y22665000D02*
X26321221Y22665000D01*
X26646779Y21645000D02*
X26321221Y21645000D01*
G04 #@! TO.C,C24*
X28099221Y6663000D02*
X28424779Y6663000D01*
X28099221Y5643000D02*
X28424779Y5643000D01*
G04 #@! TO.C,J1*
X7064000Y44662000D02*
X7064000Y42062000D01*
X-7536000Y44662000D02*
X7064000Y44662000D01*
X7064000Y35462000D02*
X5064000Y35462000D01*
X7064000Y38162000D02*
X7064000Y35462000D01*
X-7536000Y35462000D02*
X-7536000Y44662000D01*
X1064000Y35462000D02*
X-7536000Y35462000D01*
G04 #@! TO.C,JP1*
X20572000Y23355000D02*
X20272000Y23655000D01*
X20872000Y23655000D02*
X20272000Y23655000D01*
X20572000Y23355000D02*
X20872000Y23655000D01*
X21422000Y22455000D02*
X21422000Y21855000D01*
X17972000Y23155000D02*
X20772000Y23155000D01*
X17322000Y21855000D02*
X17322000Y22455000D01*
X20772000Y21155000D02*
X17972000Y21155000D01*
X18022000Y21155000D02*
G75*
G02*
X17322000Y21855000I0J700000D01*
G01*
X17322000Y22455000D02*
G75*
G02*
X18022000Y23155000I700000J0D01*
G01*
X20722000Y23155000D02*
G75*
G02*
X21422000Y22455000I0J-700000D01*
G01*
X21422000Y21855000D02*
G75*
G02*
X20722000Y21155000I-700000J0D01*
G01*
D12*
G04 #@! TO.C,L1*
X17134000Y43491000D02*
X17134000Y45430000D01*
X17134000Y45430000D02*
X18589000Y46010000D01*
X18589000Y46010000D02*
X21679000Y46010000D01*
X21679000Y46010000D02*
X23134000Y45430000D01*
X23134000Y45430000D02*
X23134000Y40790000D01*
X23134000Y40790000D02*
X21679000Y40210000D01*
X21679000Y40210000D02*
X18589000Y40210000D01*
X18589000Y40210000D02*
X17134000Y40790000D01*
X17134000Y40790000D02*
X17134000Y42729000D01*
X17134000Y43491000D02*
G75*
G02*
X17134000Y42729000I0J-381000D01*
G01*
D11*
G04 #@! TO.C,R1*
X21749221Y46918000D02*
X22074779Y46918000D01*
X21749221Y47938000D02*
X22074779Y47938000D01*
G04 #@! TO.C,R2*
X1336000Y17420221D02*
X1336000Y17745779D01*
X2356000Y17420221D02*
X2356000Y17745779D01*
G04 #@! TO.C,R3*
X1336000Y14697779D02*
X1336000Y14372221D01*
X2356000Y14697779D02*
X2356000Y14372221D01*
G04 #@! TO.C,R4*
X6928000Y17745779D02*
X6928000Y17420221D01*
X5908000Y17745779D02*
X5908000Y17420221D01*
G04 #@! TO.C,R5*
X5908000Y14697779D02*
X5908000Y14372221D01*
X6928000Y14697779D02*
X6928000Y14372221D01*
G04 #@! TO.C,R6*
X14544000Y32533221D02*
X14544000Y32858779D01*
X15564000Y32533221D02*
X15564000Y32858779D01*
G04 #@! TO.C,R7*
X14544000Y29810779D02*
X14544000Y29485221D01*
X15564000Y29810779D02*
X15564000Y29485221D01*
G04 #@! TO.C,R8*
X9468000Y18507779D02*
X9468000Y18182221D01*
X8448000Y18507779D02*
X8448000Y18182221D01*
G04 #@! TO.C,R9*
X8448000Y13681779D02*
X8448000Y13356221D01*
X9468000Y13681779D02*
X9468000Y13356221D01*
G04 #@! TO.C,R12*
X11754000Y21047779D02*
X11754000Y20722221D01*
X10734000Y21047779D02*
X10734000Y20722221D01*
G04 #@! TO.C,R13*
X14383221Y12247000D02*
X14708779Y12247000D01*
X14383221Y13267000D02*
X14708779Y13267000D01*
G04 #@! TO.C,R14*
X18862000Y14880221D02*
X18862000Y15205779D01*
X19882000Y14880221D02*
X19882000Y15205779D01*
G04 #@! TO.C,R15*
X19882000Y18253779D02*
X19882000Y17928221D01*
X18862000Y18253779D02*
X18862000Y17928221D01*
G04 #@! TO.C,R16*
X17084000Y11578221D02*
X17084000Y11903779D01*
X18104000Y11578221D02*
X18104000Y11903779D01*
G04 #@! TO.C,R17*
X20296779Y11235000D02*
X19971221Y11235000D01*
X20296779Y10215000D02*
X19971221Y10215000D01*
G04 #@! TO.C,R18*
X24868779Y11235000D02*
X24543221Y11235000D01*
X24868779Y10215000D02*
X24543221Y10215000D01*
G04 #@! TO.C,R19*
X30710779Y16565000D02*
X30385221Y16565000D01*
X30710779Y17585000D02*
X30385221Y17585000D01*
G04 #@! TO.C,U1*
X18748000Y34814000D02*
X16948000Y34814000D01*
X16948000Y31594000D02*
X19398000Y31594000D01*
G04 #@! TO.C,U2*
X22384000Y38392000D02*
X28394000Y38392000D01*
X24634000Y31572000D02*
X28394000Y31572000D01*
X28394000Y38392000D02*
X28394000Y37132000D01*
X28394000Y31572000D02*
X28394000Y32832000D01*
G04 #@! TO.C,U3*
X44372000Y49338000D02*
X43112000Y49338000D01*
X37552000Y49338000D02*
X38812000Y49338000D01*
X44372000Y45578000D02*
X44372000Y49338000D01*
X37552000Y43328000D02*
X37552000Y49338000D01*
G04 #@! TO.C,U4*
X13784000Y14007000D02*
X15734000Y14007000D01*
X13784000Y14007000D02*
X11834000Y14007000D01*
X13784000Y19127000D02*
X15734000Y19127000D01*
X13784000Y19127000D02*
X10334000Y19127000D01*
G04 #@! TO.C,U5*
X25214000Y19127000D02*
X21764000Y19127000D01*
X25214000Y19127000D02*
X27164000Y19127000D01*
X25214000Y14007000D02*
X23264000Y14007000D01*
X25214000Y14007000D02*
X27164000Y14007000D01*
G04 #@! TO.C,U8*
X42856000Y24101000D02*
X44656000Y24101000D01*
X44656000Y27321000D02*
X41706000Y27321000D01*
G04 #@! TO.C,U9*
X44656000Y23765000D02*
X41706000Y23765000D01*
X42856000Y20545000D02*
X44656000Y20545000D01*
G04 #@! TO.C,U10*
X42856000Y16989000D02*
X44656000Y16989000D01*
X44656000Y20209000D02*
X41706000Y20209000D01*
G04 #@! TO.C,R10*
X23942000Y3674279D02*
X23942000Y3348721D01*
X24962000Y3674279D02*
X24962000Y3348721D01*
G04 #@! TO.C,C17*
X21910000Y11324221D02*
X21910000Y11649779D01*
X22930000Y11324221D02*
X22930000Y11649779D01*
G04 #@! TO.C,C22*
X30710779Y15172000D02*
X30385221Y15172000D01*
X30710779Y14152000D02*
X30385221Y14152000D01*
G04 #@! TO.C,U7*
D10*
X31033666Y4631334D02*
X31033666Y4064667D01*
X31067000Y3998000D01*
X31100333Y3964667D01*
X31167000Y3931334D01*
X31300333Y3931334D01*
X31367000Y3964667D01*
X31400333Y3998000D01*
X31433666Y4064667D01*
X31433666Y4631334D01*
X31700333Y4631334D02*
X32167000Y4631334D01*
X31867000Y3931334D01*
X30967000Y2853334D02*
X31433666Y2853334D01*
X31133666Y2153334D01*
X32000333Y2620000D02*
X32000333Y2153334D01*
X31833666Y2886667D02*
X31667000Y2386667D01*
X32100333Y2386667D01*
X32700333Y2153334D02*
X32367000Y2153334D01*
X32367000Y2853334D01*
X32833666Y2853334D02*
X33067000Y2153334D01*
X33300333Y2853334D01*
X33933666Y2220000D02*
X33900333Y2186667D01*
X33800333Y2153334D01*
X33733666Y2153334D01*
X33633666Y2186667D01*
X33567000Y2253334D01*
X33533666Y2320000D01*
X33500333Y2453334D01*
X33500333Y2553334D01*
X33533666Y2686667D01*
X33567000Y2753334D01*
X33633666Y2820000D01*
X33733666Y2853334D01*
X33800333Y2853334D01*
X33900333Y2820000D01*
X33933666Y2786667D01*
X34600333Y2153334D02*
X34200333Y2153334D01*
X34400333Y2153334D02*
X34400333Y2853334D01*
X34333666Y2753334D01*
X34267000Y2686667D01*
X34200333Y2653334D01*
X35267000Y2820000D02*
X35200333Y2853334D01*
X35100333Y2853334D01*
X35000333Y2820000D01*
X34933666Y2753334D01*
X34900333Y2686667D01*
X34867000Y2553334D01*
X34867000Y2453334D01*
X34900333Y2320000D01*
X34933666Y2253334D01*
X35000333Y2186667D01*
X35100333Y2153334D01*
X35167000Y2153334D01*
X35267000Y2186667D01*
X35300333Y2220000D01*
X35300333Y2453334D01*
X35167000Y2453334D01*
X35533666Y2853334D02*
X35967000Y2853334D01*
X35733666Y2586667D01*
X35833666Y2586667D01*
X35900333Y2553334D01*
X35933666Y2520000D01*
X35967000Y2453334D01*
X35967000Y2286667D01*
X35933666Y2220000D01*
X35900333Y2186667D01*
X35833666Y2153334D01*
X35633666Y2153334D01*
X35567000Y2186667D01*
X35533666Y2220000D01*
X36567000Y2620000D02*
X36567000Y2153334D01*
X36400333Y2886667D02*
X36233666Y2386667D01*
X36667000Y2386667D01*
G04 #@! TO.C,U6*
X31033666Y11489334D02*
X31033666Y10922667D01*
X31067000Y10856000D01*
X31100333Y10822667D01*
X31167000Y10789334D01*
X31300333Y10789334D01*
X31367000Y10822667D01*
X31400333Y10856000D01*
X31433666Y10922667D01*
X31433666Y11489334D01*
X32067000Y11489334D02*
X31933666Y11489334D01*
X31867000Y11456000D01*
X31833666Y11422667D01*
X31767000Y11322667D01*
X31733666Y11189334D01*
X31733666Y10922667D01*
X31767000Y10856000D01*
X31800333Y10822667D01*
X31867000Y10789334D01*
X32000333Y10789334D01*
X32067000Y10822667D01*
X32100333Y10856000D01*
X32133666Y10922667D01*
X32133666Y11089334D01*
X32100333Y11156000D01*
X32067000Y11189334D01*
X32000333Y11222667D01*
X31867000Y11222667D01*
X31800333Y11189334D01*
X31767000Y11156000D01*
X31733666Y11089334D01*
X30967000Y10473334D02*
X31433666Y10473334D01*
X31133666Y9773334D01*
X32000333Y10240000D02*
X32000333Y9773334D01*
X31833666Y10506667D02*
X31667000Y10006667D01*
X32100333Y10006667D01*
X32700333Y9773334D02*
X32367000Y9773334D01*
X32367000Y10473334D01*
X32833666Y10473334D02*
X33067000Y9773334D01*
X33300333Y10473334D01*
X33933666Y9840000D02*
X33900333Y9806667D01*
X33800333Y9773334D01*
X33733666Y9773334D01*
X33633666Y9806667D01*
X33567000Y9873334D01*
X33533666Y9940000D01*
X33500333Y10073334D01*
X33500333Y10173334D01*
X33533666Y10306667D01*
X33567000Y10373334D01*
X33633666Y10440000D01*
X33733666Y10473334D01*
X33800333Y10473334D01*
X33900333Y10440000D01*
X33933666Y10406667D01*
X34600333Y9773334D02*
X34200333Y9773334D01*
X34400333Y9773334D02*
X34400333Y10473334D01*
X34333666Y10373334D01*
X34267000Y10306667D01*
X34200333Y10273334D01*
X35267000Y10440000D02*
X35200333Y10473334D01*
X35100333Y10473334D01*
X35000333Y10440000D01*
X34933666Y10373334D01*
X34900333Y10306667D01*
X34867000Y10173334D01*
X34867000Y10073334D01*
X34900333Y9940000D01*
X34933666Y9873334D01*
X35000333Y9806667D01*
X35100333Y9773334D01*
X35167000Y9773334D01*
X35267000Y9806667D01*
X35300333Y9840000D01*
X35300333Y10073334D01*
X35167000Y10073334D01*
X35567000Y10406667D02*
X35600333Y10440000D01*
X35667000Y10473334D01*
X35833666Y10473334D01*
X35900333Y10440000D01*
X35933666Y10406667D01*
X35967000Y10340000D01*
X35967000Y10273334D01*
X35933666Y10173334D01*
X35533666Y9773334D01*
X35967000Y9773334D01*
X36567000Y10240000D02*
X36567000Y9773334D01*
X36400333Y10506667D02*
X36233666Y10006667D01*
X36667000Y10006667D01*
X37067000Y10473334D02*
X37133666Y10473334D01*
X37200333Y10440000D01*
X37233666Y10406667D01*
X37267000Y10340000D01*
X37300333Y10206667D01*
X37300333Y10040000D01*
X37267000Y9906667D01*
X37233666Y9840000D01*
X37200333Y9806667D01*
X37133666Y9773334D01*
X37067000Y9773334D01*
X37000333Y9806667D01*
X36967000Y9840000D01*
X36933666Y9906667D01*
X36900333Y10040000D01*
X36900333Y10206667D01*
X36933666Y10340000D01*
X36967000Y10406667D01*
X37000333Y10440000D01*
X37067000Y10473334D01*
G04 #@! TO.C,R26*
X29336000Y-1148666D02*
X29102666Y-815333D01*
X28936000Y-1148666D02*
X28936000Y-448666D01*
X29202666Y-448666D01*
X29269333Y-482000D01*
X29302666Y-515333D01*
X29336000Y-582000D01*
X29336000Y-682000D01*
X29302666Y-748666D01*
X29269333Y-782000D01*
X29202666Y-815333D01*
X28936000Y-815333D01*
X29602666Y-515333D02*
X29636000Y-482000D01*
X29702666Y-448666D01*
X29869333Y-448666D01*
X29936000Y-482000D01*
X29969333Y-515333D01*
X30002666Y-582000D01*
X30002666Y-648666D01*
X29969333Y-748666D01*
X29569333Y-1148666D01*
X30002666Y-1148666D01*
X30602666Y-448666D02*
X30469333Y-448666D01*
X30402666Y-482000D01*
X30369333Y-515333D01*
X30302666Y-615333D01*
X30269333Y-748666D01*
X30269333Y-1015333D01*
X30302666Y-1082000D01*
X30336000Y-1115333D01*
X30402666Y-1148666D01*
X30536000Y-1148666D01*
X30602666Y-1115333D01*
X30636000Y-1082000D01*
X30669333Y-1015333D01*
X30669333Y-848666D01*
X30636000Y-782000D01*
X30602666Y-748666D01*
X30536000Y-715333D01*
X30402666Y-715333D01*
X30336000Y-748666D01*
X30302666Y-782000D01*
X30269333Y-848666D01*
X28969333Y-1531333D02*
X29002666Y-1498000D01*
X29069333Y-1464666D01*
X29236000Y-1464666D01*
X29302666Y-1498000D01*
X29336000Y-1531333D01*
X29369333Y-1598000D01*
X29369333Y-1664666D01*
X29336000Y-1764666D01*
X28936000Y-2164666D01*
X29369333Y-2164666D01*
X29669333Y-2164666D02*
X29669333Y-1464666D01*
X29736000Y-1898000D02*
X29936000Y-2164666D01*
X29936000Y-1698000D02*
X29669333Y-1964666D01*
X30202666Y-1531333D02*
X30236000Y-1498000D01*
X30302666Y-1464666D01*
X30469333Y-1464666D01*
X30536000Y-1498000D01*
X30569333Y-1531333D01*
X30602666Y-1598000D01*
X30602666Y-1664666D01*
X30569333Y-1764666D01*
X30169333Y-2164666D01*
X30602666Y-2164666D01*
G04 #@! TO.C,R11*
X9782666Y8370000D02*
X9449333Y8136667D01*
X9782666Y7970000D02*
X9082666Y7970000D01*
X9082666Y8236667D01*
X9116000Y8303334D01*
X9149333Y8336667D01*
X9216000Y8370000D01*
X9316000Y8370000D01*
X9382666Y8336667D01*
X9416000Y8303334D01*
X9449333Y8236667D01*
X9449333Y7970000D01*
X9782666Y9036667D02*
X9782666Y8636667D01*
X9782666Y8836667D02*
X9082666Y8836667D01*
X9182666Y8770000D01*
X9249333Y8703334D01*
X9282666Y8636667D01*
X9782666Y9703334D02*
X9782666Y9303334D01*
X9782666Y9503334D02*
X9082666Y9503334D01*
X9182666Y9436667D01*
X9249333Y9370000D01*
X9282666Y9303334D01*
X8066666Y7970000D02*
X8066666Y8403334D01*
X8333333Y8170000D01*
X8333333Y8270000D01*
X8366666Y8336667D01*
X8400000Y8370000D01*
X8466666Y8403334D01*
X8633333Y8403334D01*
X8700000Y8370000D01*
X8733333Y8336667D01*
X8766666Y8270000D01*
X8766666Y8070000D01*
X8733333Y8003334D01*
X8700000Y7970000D01*
X8766666Y8703334D02*
X8066666Y8703334D01*
X8500000Y8770000D02*
X8766666Y8970000D01*
X8300000Y8970000D02*
X8566666Y8703334D01*
X8066666Y9403334D02*
X8066666Y9470000D01*
X8100000Y9536667D01*
X8133333Y9570000D01*
X8200000Y9603334D01*
X8333333Y9636667D01*
X8500000Y9636667D01*
X8633333Y9603334D01*
X8700000Y9570000D01*
X8733333Y9536667D01*
X8766666Y9470000D01*
X8766666Y9403334D01*
X8733333Y9336667D01*
X8700000Y9303334D01*
X8633333Y9270000D01*
X8500000Y9236667D01*
X8333333Y9236667D01*
X8200000Y9270000D01*
X8133333Y9303334D01*
X8100000Y9336667D01*
X8066666Y9403334D01*
G04 #@! TO.C,J4*
X58254666Y21141334D02*
X58254666Y20641334D01*
X58221333Y20541334D01*
X58154666Y20474667D01*
X58054666Y20441334D01*
X57988000Y20441334D01*
X58888000Y20908000D02*
X58888000Y20441334D01*
X58721333Y21174667D02*
X58554666Y20674667D01*
X58988000Y20674667D01*
X57588000Y19458667D02*
X57688000Y19425334D01*
X57854666Y19425334D01*
X57921333Y19458667D01*
X57954666Y19492000D01*
X57988000Y19558667D01*
X57988000Y19625334D01*
X57954666Y19692000D01*
X57921333Y19725334D01*
X57854666Y19758667D01*
X57721333Y19792000D01*
X57654666Y19825334D01*
X57621333Y19858667D01*
X57588000Y19925334D01*
X57588000Y19992000D01*
X57621333Y20058667D01*
X57654666Y20092000D01*
X57721333Y20125334D01*
X57888000Y20125334D01*
X57988000Y20092000D01*
X58288000Y19425334D02*
X58288000Y20125334D01*
X58521333Y19625334D01*
X58754666Y20125334D01*
X58754666Y19425334D01*
X59054666Y19625334D02*
X59388000Y19625334D01*
X58988000Y19425334D02*
X59221333Y20125334D01*
X59454666Y19425334D01*
G04 #@! TO.C,C25*
X25972000Y3544000D02*
X26005333Y3510667D01*
X26038666Y3410667D01*
X26038666Y3344000D01*
X26005333Y3244000D01*
X25938666Y3177334D01*
X25872000Y3144000D01*
X25738666Y3110667D01*
X25638666Y3110667D01*
X25505333Y3144000D01*
X25438666Y3177334D01*
X25372000Y3244000D01*
X25338666Y3344000D01*
X25338666Y3410667D01*
X25372000Y3510667D01*
X25405333Y3544000D01*
X25405333Y3810667D02*
X25372000Y3844000D01*
X25338666Y3910667D01*
X25338666Y4077334D01*
X25372000Y4144000D01*
X25405333Y4177334D01*
X25472000Y4210667D01*
X25538666Y4210667D01*
X25638666Y4177334D01*
X26038666Y3777334D01*
X26038666Y4210667D01*
X25338666Y4844000D02*
X25338666Y4510667D01*
X25672000Y4477334D01*
X25638666Y4510667D01*
X25605333Y4577334D01*
X25605333Y4744000D01*
X25638666Y4810667D01*
X25672000Y4844000D01*
X25738666Y4877334D01*
X25905333Y4877334D01*
X25972000Y4844000D01*
X26005333Y4810667D01*
X26038666Y4744000D01*
X26038666Y4577334D01*
X26005333Y4510667D01*
X25972000Y4477334D01*
X27054666Y1479667D02*
X27054666Y1079667D01*
X27054666Y1279667D02*
X26354666Y1279667D01*
X26454666Y1213000D01*
X26521333Y1146334D01*
X26554666Y1079667D01*
X26354666Y1913000D02*
X26354666Y1979667D01*
X26388000Y2046334D01*
X26421333Y2079667D01*
X26488000Y2113000D01*
X26621333Y2146334D01*
X26788000Y2146334D01*
X26921333Y2113000D01*
X26988000Y2079667D01*
X27021333Y2046334D01*
X27054666Y1979667D01*
X27054666Y1913000D01*
X27021333Y1846334D01*
X26988000Y1813000D01*
X26921333Y1779667D01*
X26788000Y1746334D01*
X26621333Y1746334D01*
X26488000Y1779667D01*
X26421333Y1813000D01*
X26388000Y1846334D01*
X26354666Y1913000D01*
X26588000Y2446334D02*
X27054666Y2446334D01*
X26654666Y2446334D02*
X26621333Y2479667D01*
X26588000Y2546334D01*
X26588000Y2646334D01*
X26621333Y2713000D01*
X26688000Y2746334D01*
X27054666Y2746334D01*
G04 #@! TO.C,J3*
X58254666Y37397334D02*
X58254666Y36897334D01*
X58221333Y36797334D01*
X58154666Y36730667D01*
X58054666Y36697334D01*
X57988000Y36697334D01*
X58521333Y37397334D02*
X58954666Y37397334D01*
X58721333Y37130667D01*
X58821333Y37130667D01*
X58888000Y37097334D01*
X58921333Y37064000D01*
X58954666Y36997334D01*
X58954666Y36830667D01*
X58921333Y36764000D01*
X58888000Y36730667D01*
X58821333Y36697334D01*
X58621333Y36697334D01*
X58554666Y36730667D01*
X58521333Y36764000D01*
X57588000Y35714667D02*
X57688000Y35681334D01*
X57854666Y35681334D01*
X57921333Y35714667D01*
X57954666Y35748000D01*
X57988000Y35814667D01*
X57988000Y35881334D01*
X57954666Y35948000D01*
X57921333Y35981334D01*
X57854666Y36014667D01*
X57721333Y36048000D01*
X57654666Y36081334D01*
X57621333Y36114667D01*
X57588000Y36181334D01*
X57588000Y36248000D01*
X57621333Y36314667D01*
X57654666Y36348000D01*
X57721333Y36381334D01*
X57888000Y36381334D01*
X57988000Y36348000D01*
X58288000Y35681334D02*
X58288000Y36381334D01*
X58521333Y35881334D01*
X58754666Y36381334D01*
X58754666Y35681334D01*
X59054666Y35881334D02*
X59388000Y35881334D01*
X58988000Y35681334D02*
X59221333Y36381334D01*
X59454666Y35681334D01*
G04 #@! TO.C,J2*
X-3721334Y21395334D02*
X-3721334Y20895334D01*
X-3754667Y20795334D01*
X-3821334Y20728667D01*
X-3921334Y20695334D01*
X-3988000Y20695334D01*
X-3421334Y21328667D02*
X-3388000Y21362000D01*
X-3321334Y21395334D01*
X-3154667Y21395334D01*
X-3088000Y21362000D01*
X-3054667Y21328667D01*
X-3021334Y21262000D01*
X-3021334Y21195334D01*
X-3054667Y21095334D01*
X-3454667Y20695334D01*
X-3021334Y20695334D01*
X-4388000Y19712667D02*
X-4288000Y19679334D01*
X-4121334Y19679334D01*
X-4054667Y19712667D01*
X-4021334Y19746000D01*
X-3988000Y19812667D01*
X-3988000Y19879334D01*
X-4021334Y19946000D01*
X-4054667Y19979334D01*
X-4121334Y20012667D01*
X-4254667Y20046000D01*
X-4321334Y20079334D01*
X-4354667Y20112667D01*
X-4388000Y20179334D01*
X-4388000Y20246000D01*
X-4354667Y20312667D01*
X-4321334Y20346000D01*
X-4254667Y20379334D01*
X-4088000Y20379334D01*
X-3988000Y20346000D01*
X-3688000Y19679334D02*
X-3688000Y20379334D01*
X-3454667Y19879334D01*
X-3221334Y20379334D01*
X-3221334Y19679334D01*
X-2921334Y19879334D02*
X-2588000Y19879334D01*
X-2988000Y19679334D02*
X-2754667Y20379334D01*
X-2521334Y19679334D01*
G04 #@! TO.C,C1*
X10873333Y45654000D02*
X10840000Y45620667D01*
X10740000Y45587334D01*
X10673333Y45587334D01*
X10573333Y45620667D01*
X10506666Y45687334D01*
X10473333Y45754000D01*
X10440000Y45887334D01*
X10440000Y45987334D01*
X10473333Y46120667D01*
X10506666Y46187334D01*
X10573333Y46254000D01*
X10673333Y46287334D01*
X10740000Y46287334D01*
X10840000Y46254000D01*
X10873333Y46220667D01*
X11540000Y45587334D02*
X11140000Y45587334D01*
X11340000Y45587334D02*
X11340000Y46287334D01*
X11273333Y46187334D01*
X11206666Y46120667D01*
X11140000Y46087334D01*
X9986000Y39999334D02*
X9586000Y39999334D01*
X9786000Y39999334D02*
X9786000Y40699334D01*
X9719333Y40599334D01*
X9652666Y40532667D01*
X9586000Y40499334D01*
X10419333Y40699334D02*
X10486000Y40699334D01*
X10552666Y40666000D01*
X10586000Y40632667D01*
X10619333Y40566000D01*
X10652666Y40432667D01*
X10652666Y40266000D01*
X10619333Y40132667D01*
X10586000Y40066000D01*
X10552666Y40032667D01*
X10486000Y39999334D01*
X10419333Y39999334D01*
X10352666Y40032667D01*
X10319333Y40066000D01*
X10286000Y40132667D01*
X10252666Y40266000D01*
X10252666Y40432667D01*
X10286000Y40566000D01*
X10319333Y40632667D01*
X10352666Y40666000D01*
X10419333Y40699334D01*
X11252666Y40466000D02*
X11252666Y39999334D01*
X10952666Y40466000D02*
X10952666Y40099334D01*
X10986000Y40032667D01*
X11052666Y39999334D01*
X11152666Y39999334D01*
X11219333Y40032667D01*
X11252666Y40066000D01*
X11486000Y40699334D02*
X11719333Y39999334D01*
X11952666Y40699334D01*
G04 #@! TO.C,C2*
X13159333Y45654000D02*
X13126000Y45620667D01*
X13026000Y45587334D01*
X12959333Y45587334D01*
X12859333Y45620667D01*
X12792666Y45687334D01*
X12759333Y45754000D01*
X12726000Y45887334D01*
X12726000Y45987334D01*
X12759333Y46120667D01*
X12792666Y46187334D01*
X12859333Y46254000D01*
X12959333Y46287334D01*
X13026000Y46287334D01*
X13126000Y46254000D01*
X13159333Y46220667D01*
X13426000Y46220667D02*
X13459333Y46254000D01*
X13526000Y46287334D01*
X13692666Y46287334D01*
X13759333Y46254000D01*
X13792666Y46220667D01*
X13826000Y46154000D01*
X13826000Y46087334D01*
X13792666Y45987334D01*
X13392666Y45587334D01*
X13826000Y45587334D01*
X12780000Y39999334D02*
X12380000Y39999334D01*
X12580000Y39999334D02*
X12580000Y40699334D01*
X12513333Y40599334D01*
X12446666Y40532667D01*
X12380000Y40499334D01*
X13213333Y40699334D02*
X13280000Y40699334D01*
X13346666Y40666000D01*
X13380000Y40632667D01*
X13413333Y40566000D01*
X13446666Y40432667D01*
X13446666Y40266000D01*
X13413333Y40132667D01*
X13380000Y40066000D01*
X13346666Y40032667D01*
X13280000Y39999334D01*
X13213333Y39999334D01*
X13146666Y40032667D01*
X13113333Y40066000D01*
X13080000Y40132667D01*
X13046666Y40266000D01*
X13046666Y40432667D01*
X13080000Y40566000D01*
X13113333Y40632667D01*
X13146666Y40666000D01*
X13213333Y40699334D01*
X14046666Y40466000D02*
X14046666Y39999334D01*
X13746666Y40466000D02*
X13746666Y40099334D01*
X13780000Y40032667D01*
X13846666Y39999334D01*
X13946666Y39999334D01*
X14013333Y40032667D01*
X14046666Y40066000D01*
X14280000Y40699334D02*
X14513333Y39999334D01*
X14746666Y40699334D01*
G04 #@! TO.C,C3*
X26875333Y45654000D02*
X26842000Y45620667D01*
X26742000Y45587334D01*
X26675333Y45587334D01*
X26575333Y45620667D01*
X26508666Y45687334D01*
X26475333Y45754000D01*
X26442000Y45887334D01*
X26442000Y45987334D01*
X26475333Y46120667D01*
X26508666Y46187334D01*
X26575333Y46254000D01*
X26675333Y46287334D01*
X26742000Y46287334D01*
X26842000Y46254000D01*
X26875333Y46220667D01*
X27108666Y46287334D02*
X27542000Y46287334D01*
X27308666Y46020667D01*
X27408666Y46020667D01*
X27475333Y45987334D01*
X27508666Y45954000D01*
X27542000Y45887334D01*
X27542000Y45720667D01*
X27508666Y45654000D01*
X27475333Y45620667D01*
X27408666Y45587334D01*
X27208666Y45587334D01*
X27142000Y45620667D01*
X27108666Y45654000D01*
X25988000Y39999334D02*
X25588000Y39999334D01*
X25788000Y39999334D02*
X25788000Y40699334D01*
X25721333Y40599334D01*
X25654666Y40532667D01*
X25588000Y40499334D01*
X26421333Y40699334D02*
X26488000Y40699334D01*
X26554666Y40666000D01*
X26588000Y40632667D01*
X26621333Y40566000D01*
X26654666Y40432667D01*
X26654666Y40266000D01*
X26621333Y40132667D01*
X26588000Y40066000D01*
X26554666Y40032667D01*
X26488000Y39999334D01*
X26421333Y39999334D01*
X26354666Y40032667D01*
X26321333Y40066000D01*
X26288000Y40132667D01*
X26254666Y40266000D01*
X26254666Y40432667D01*
X26288000Y40566000D01*
X26321333Y40632667D01*
X26354666Y40666000D01*
X26421333Y40699334D01*
X27254666Y40466000D02*
X27254666Y39999334D01*
X26954666Y40466000D02*
X26954666Y40099334D01*
X26988000Y40032667D01*
X27054666Y39999334D01*
X27154666Y39999334D01*
X27221333Y40032667D01*
X27254666Y40066000D01*
X27488000Y40699334D02*
X27721333Y39999334D01*
X27954666Y40699334D01*
G04 #@! TO.C,C4*
X29161333Y45654000D02*
X29128000Y45620667D01*
X29028000Y45587334D01*
X28961333Y45587334D01*
X28861333Y45620667D01*
X28794666Y45687334D01*
X28761333Y45754000D01*
X28728000Y45887334D01*
X28728000Y45987334D01*
X28761333Y46120667D01*
X28794666Y46187334D01*
X28861333Y46254000D01*
X28961333Y46287334D01*
X29028000Y46287334D01*
X29128000Y46254000D01*
X29161333Y46220667D01*
X29761333Y46054000D02*
X29761333Y45587334D01*
X29594666Y46320667D02*
X29428000Y45820667D01*
X29861333Y45820667D01*
X28782000Y39999334D02*
X28382000Y39999334D01*
X28582000Y39999334D02*
X28582000Y40699334D01*
X28515333Y40599334D01*
X28448666Y40532667D01*
X28382000Y40499334D01*
X29215333Y40699334D02*
X29282000Y40699334D01*
X29348666Y40666000D01*
X29382000Y40632667D01*
X29415333Y40566000D01*
X29448666Y40432667D01*
X29448666Y40266000D01*
X29415333Y40132667D01*
X29382000Y40066000D01*
X29348666Y40032667D01*
X29282000Y39999334D01*
X29215333Y39999334D01*
X29148666Y40032667D01*
X29115333Y40066000D01*
X29082000Y40132667D01*
X29048666Y40266000D01*
X29048666Y40432667D01*
X29082000Y40566000D01*
X29115333Y40632667D01*
X29148666Y40666000D01*
X29215333Y40699334D01*
X30048666Y40466000D02*
X30048666Y39999334D01*
X29748666Y40466000D02*
X29748666Y40099334D01*
X29782000Y40032667D01*
X29848666Y39999334D01*
X29948666Y39999334D01*
X30015333Y40032667D01*
X30048666Y40066000D01*
X30282000Y40699334D02*
X30515333Y39999334D01*
X30748666Y40699334D01*
G04 #@! TO.C,C5*
X4015333Y16698000D02*
X3982000Y16664667D01*
X3882000Y16631334D01*
X3815333Y16631334D01*
X3715333Y16664667D01*
X3648666Y16731334D01*
X3615333Y16798000D01*
X3582000Y16931334D01*
X3582000Y17031334D01*
X3615333Y17164667D01*
X3648666Y17231334D01*
X3715333Y17298000D01*
X3815333Y17331334D01*
X3882000Y17331334D01*
X3982000Y17298000D01*
X4015333Y17264667D01*
X4648666Y17331334D02*
X4315333Y17331334D01*
X4282000Y16998000D01*
X4315333Y17031334D01*
X4382000Y17064667D01*
X4548666Y17064667D01*
X4615333Y17031334D01*
X4648666Y16998000D01*
X4682000Y16931334D01*
X4682000Y16764667D01*
X4648666Y16698000D01*
X4615333Y16664667D01*
X4548666Y16631334D01*
X4382000Y16631334D01*
X4315333Y16664667D01*
X4282000Y16698000D01*
X3682000Y14599334D02*
X3282000Y14599334D01*
X3482000Y14599334D02*
X3482000Y15299334D01*
X3415333Y15199334D01*
X3348666Y15132667D01*
X3282000Y15099334D01*
X4115333Y15299334D02*
X4182000Y15299334D01*
X4248666Y15266000D01*
X4282000Y15232667D01*
X4315333Y15166000D01*
X4348666Y15032667D01*
X4348666Y14866000D01*
X4315333Y14732667D01*
X4282000Y14666000D01*
X4248666Y14632667D01*
X4182000Y14599334D01*
X4115333Y14599334D01*
X4048666Y14632667D01*
X4015333Y14666000D01*
X3982000Y14732667D01*
X3948666Y14866000D01*
X3948666Y15032667D01*
X3982000Y15166000D01*
X4015333Y15232667D01*
X4048666Y15266000D01*
X4115333Y15299334D01*
X4648666Y15066000D02*
X4648666Y14599334D01*
X4648666Y14999334D02*
X4682000Y15032667D01*
X4748666Y15066000D01*
X4848666Y15066000D01*
X4915333Y15032667D01*
X4948666Y14966000D01*
X4948666Y14599334D01*
G04 #@! TO.C,C6*
X19269000Y37272000D02*
X19235666Y37238667D01*
X19135666Y37205334D01*
X19069000Y37205334D01*
X18969000Y37238667D01*
X18902333Y37305334D01*
X18869000Y37372000D01*
X18835666Y37505334D01*
X18835666Y37605334D01*
X18869000Y37738667D01*
X18902333Y37805334D01*
X18969000Y37872000D01*
X19069000Y37905334D01*
X19135666Y37905334D01*
X19235666Y37872000D01*
X19269000Y37838667D01*
X19869000Y37905334D02*
X19735666Y37905334D01*
X19669000Y37872000D01*
X19635666Y37838667D01*
X19569000Y37738667D01*
X19535666Y37605334D01*
X19535666Y37338667D01*
X19569000Y37272000D01*
X19602333Y37238667D01*
X19669000Y37205334D01*
X19802333Y37205334D01*
X19869000Y37238667D01*
X19902333Y37272000D01*
X19935666Y37338667D01*
X19935666Y37505334D01*
X19902333Y37572000D01*
X19869000Y37605334D01*
X19802333Y37638667D01*
X19669000Y37638667D01*
X19602333Y37605334D01*
X19569000Y37572000D01*
X19535666Y37505334D01*
X18602333Y36189334D02*
X18202333Y36189334D01*
X18402333Y36189334D02*
X18402333Y36889334D01*
X18335666Y36789334D01*
X18269000Y36722667D01*
X18202333Y36689334D01*
X19202333Y36656000D02*
X19202333Y36189334D01*
X18902333Y36656000D02*
X18902333Y36289334D01*
X18935666Y36222667D01*
X19002333Y36189334D01*
X19102333Y36189334D01*
X19169000Y36222667D01*
X19202333Y36256000D01*
X19935666Y36256000D02*
X19902333Y36222667D01*
X19802333Y36189334D01*
X19735666Y36189334D01*
X19635666Y36222667D01*
X19569000Y36289334D01*
X19535666Y36356000D01*
X19502333Y36489334D01*
X19502333Y36589334D01*
X19535666Y36722667D01*
X19569000Y36789334D01*
X19635666Y36856000D01*
X19735666Y36889334D01*
X19802333Y36889334D01*
X19902333Y36856000D01*
X19935666Y36822667D01*
G04 #@! TO.C,C7*
X39067333Y40320000D02*
X39034000Y40286667D01*
X38934000Y40253334D01*
X38867333Y40253334D01*
X38767333Y40286667D01*
X38700666Y40353334D01*
X38667333Y40420000D01*
X38634000Y40553334D01*
X38634000Y40653334D01*
X38667333Y40786667D01*
X38700666Y40853334D01*
X38767333Y40920000D01*
X38867333Y40953334D01*
X38934000Y40953334D01*
X39034000Y40920000D01*
X39067333Y40886667D01*
X39300666Y40953334D02*
X39767333Y40953334D01*
X39467333Y40253334D01*
X38717333Y39237334D02*
X38317333Y39237334D01*
X38517333Y39237334D02*
X38517333Y39937334D01*
X38450666Y39837334D01*
X38384000Y39770667D01*
X38317333Y39737334D01*
X39317333Y39704000D02*
X39317333Y39237334D01*
X39017333Y39704000D02*
X39017333Y39337334D01*
X39050666Y39270667D01*
X39117333Y39237334D01*
X39217333Y39237334D01*
X39284000Y39270667D01*
X39317333Y39304000D01*
X40050666Y39304000D02*
X40017333Y39270667D01*
X39917333Y39237334D01*
X39850666Y39237334D01*
X39750666Y39270667D01*
X39684000Y39337334D01*
X39650666Y39404000D01*
X39617333Y39537334D01*
X39617333Y39637334D01*
X39650666Y39770667D01*
X39684000Y39837334D01*
X39750666Y39904000D01*
X39850666Y39937334D01*
X39917333Y39937334D01*
X40017333Y39904000D01*
X40050666Y39870667D01*
G04 #@! TO.C,C8*
X16729000Y28890000D02*
X16695666Y28856667D01*
X16595666Y28823334D01*
X16529000Y28823334D01*
X16429000Y28856667D01*
X16362333Y28923334D01*
X16329000Y28990000D01*
X16295666Y29123334D01*
X16295666Y29223334D01*
X16329000Y29356667D01*
X16362333Y29423334D01*
X16429000Y29490000D01*
X16529000Y29523334D01*
X16595666Y29523334D01*
X16695666Y29490000D01*
X16729000Y29456667D01*
X17129000Y29223334D02*
X17062333Y29256667D01*
X17029000Y29290000D01*
X16995666Y29356667D01*
X16995666Y29390000D01*
X17029000Y29456667D01*
X17062333Y29490000D01*
X17129000Y29523334D01*
X17262333Y29523334D01*
X17329000Y29490000D01*
X17362333Y29456667D01*
X17395666Y29390000D01*
X17395666Y29356667D01*
X17362333Y29290000D01*
X17329000Y29256667D01*
X17262333Y29223334D01*
X17129000Y29223334D01*
X17062333Y29190000D01*
X17029000Y29156667D01*
X16995666Y29090000D01*
X16995666Y28956667D01*
X17029000Y28890000D01*
X17062333Y28856667D01*
X17129000Y28823334D01*
X17262333Y28823334D01*
X17329000Y28856667D01*
X17362333Y28890000D01*
X17395666Y28956667D01*
X17395666Y29090000D01*
X17362333Y29156667D01*
X17329000Y29190000D01*
X17262333Y29223334D01*
X18633666Y29290000D02*
X18633666Y28823334D01*
X18467000Y29556667D02*
X18300333Y29056667D01*
X18733666Y29056667D01*
X19300333Y29290000D02*
X19300333Y28823334D01*
X19000333Y29290000D02*
X19000333Y28923334D01*
X19033666Y28856667D01*
X19100333Y28823334D01*
X19200333Y28823334D01*
X19267000Y28856667D01*
X19300333Y28890000D01*
X19567000Y29523334D02*
X20033666Y29523334D01*
X19733666Y28823334D01*
X20300333Y29190000D02*
X20533666Y29190000D01*
X20633666Y28823334D02*
X20300333Y28823334D01*
X20300333Y29523334D01*
X20633666Y29523334D01*
G04 #@! TO.C,C9*
X20779333Y30922000D02*
X20746000Y30888667D01*
X20646000Y30855334D01*
X20579333Y30855334D01*
X20479333Y30888667D01*
X20412666Y30955334D01*
X20379333Y31022000D01*
X20346000Y31155334D01*
X20346000Y31255334D01*
X20379333Y31388667D01*
X20412666Y31455334D01*
X20479333Y31522000D01*
X20579333Y31555334D01*
X20646000Y31555334D01*
X20746000Y31522000D01*
X20779333Y31488667D01*
X21112666Y30855334D02*
X21246000Y30855334D01*
X21312666Y30888667D01*
X21346000Y30922000D01*
X21412666Y31022000D01*
X21446000Y31155334D01*
X21446000Y31422000D01*
X21412666Y31488667D01*
X21379333Y31522000D01*
X21312666Y31555334D01*
X21179333Y31555334D01*
X21112666Y31522000D01*
X21079333Y31488667D01*
X21046000Y31422000D01*
X21046000Y31255334D01*
X21079333Y31188667D01*
X21112666Y31155334D01*
X21179333Y31122000D01*
X21312666Y31122000D01*
X21379333Y31155334D01*
X21412666Y31188667D01*
X21446000Y31255334D01*
X20062666Y30306000D02*
X20062666Y29839334D01*
X19896000Y30572667D02*
X19729333Y30072667D01*
X20162666Y30072667D01*
X20729333Y30306000D02*
X20729333Y29839334D01*
X20429333Y30306000D02*
X20429333Y29939334D01*
X20462666Y29872667D01*
X20529333Y29839334D01*
X20629333Y29839334D01*
X20696000Y29872667D01*
X20729333Y29906000D01*
X20996000Y30539334D02*
X21462666Y30539334D01*
X21162666Y29839334D01*
X21729333Y30206000D02*
X21962666Y30206000D01*
X22062666Y29839334D02*
X21729333Y29839334D01*
X21729333Y30539334D01*
X22062666Y30539334D01*
G04 #@! TO.C,C10*
X40954333Y40320000D02*
X40921000Y40286667D01*
X40821000Y40253334D01*
X40754333Y40253334D01*
X40654333Y40286667D01*
X40587666Y40353334D01*
X40554333Y40420000D01*
X40521000Y40553334D01*
X40521000Y40653334D01*
X40554333Y40786667D01*
X40587666Y40853334D01*
X40654333Y40920000D01*
X40754333Y40953334D01*
X40821000Y40953334D01*
X40921000Y40920000D01*
X40954333Y40886667D01*
X41621000Y40253334D02*
X41221000Y40253334D01*
X41421000Y40253334D02*
X41421000Y40953334D01*
X41354333Y40853334D01*
X41287666Y40786667D01*
X41221000Y40753334D01*
X42054333Y40953334D02*
X42121000Y40953334D01*
X42187666Y40920000D01*
X42221000Y40886667D01*
X42254333Y40820000D01*
X42287666Y40686667D01*
X42287666Y40520000D01*
X42254333Y40386667D01*
X42221000Y40320000D01*
X42187666Y40286667D01*
X42121000Y40253334D01*
X42054333Y40253334D01*
X41987666Y40286667D01*
X41954333Y40320000D01*
X41921000Y40386667D01*
X41887666Y40520000D01*
X41887666Y40686667D01*
X41921000Y40820000D01*
X41954333Y40886667D01*
X41987666Y40920000D01*
X42054333Y40953334D01*
X43525666Y40720000D02*
X43525666Y40253334D01*
X43359000Y40986667D02*
X43192333Y40486667D01*
X43625666Y40486667D01*
X44192333Y40720000D02*
X44192333Y40253334D01*
X43892333Y40720000D02*
X43892333Y40353334D01*
X43925666Y40286667D01*
X43992333Y40253334D01*
X44092333Y40253334D01*
X44159000Y40286667D01*
X44192333Y40320000D01*
X44459000Y40953334D02*
X44925666Y40953334D01*
X44625666Y40253334D01*
X45192333Y40620000D02*
X45425666Y40620000D01*
X45525666Y40253334D02*
X45192333Y40253334D01*
X45192333Y40953334D01*
X45525666Y40953334D01*
G04 #@! TO.C,C11*
X12506333Y19492000D02*
X12473000Y19458667D01*
X12373000Y19425334D01*
X12306333Y19425334D01*
X12206333Y19458667D01*
X12139666Y19525334D01*
X12106333Y19592000D01*
X12073000Y19725334D01*
X12073000Y19825334D01*
X12106333Y19958667D01*
X12139666Y20025334D01*
X12206333Y20092000D01*
X12306333Y20125334D01*
X12373000Y20125334D01*
X12473000Y20092000D01*
X12506333Y20058667D01*
X13173000Y19425334D02*
X12773000Y19425334D01*
X12973000Y19425334D02*
X12973000Y20125334D01*
X12906333Y20025334D01*
X12839666Y19958667D01*
X12773000Y19925334D01*
X13839666Y19425334D02*
X13439666Y19425334D01*
X13639666Y19425334D02*
X13639666Y20125334D01*
X13573000Y20025334D01*
X13506333Y19958667D01*
X13439666Y19925334D01*
X16668333Y19425334D02*
X16268333Y19425334D01*
X16468333Y19425334D02*
X16468333Y20125334D01*
X16401666Y20025334D01*
X16335000Y19958667D01*
X16268333Y19925334D01*
X16968333Y19892000D02*
X16968333Y19425334D01*
X16968333Y19825334D02*
X17001666Y19858667D01*
X17068333Y19892000D01*
X17168333Y19892000D01*
X17235000Y19858667D01*
X17268333Y19792000D01*
X17268333Y19425334D01*
G04 #@! TO.C,C12*
X12506333Y20508000D02*
X12473000Y20474667D01*
X12373000Y20441334D01*
X12306333Y20441334D01*
X12206333Y20474667D01*
X12139666Y20541334D01*
X12106333Y20608000D01*
X12073000Y20741334D01*
X12073000Y20841334D01*
X12106333Y20974667D01*
X12139666Y21041334D01*
X12206333Y21108000D01*
X12306333Y21141334D01*
X12373000Y21141334D01*
X12473000Y21108000D01*
X12506333Y21074667D01*
X13173000Y20441334D02*
X12773000Y20441334D01*
X12973000Y20441334D02*
X12973000Y21141334D01*
X12906333Y21041334D01*
X12839666Y20974667D01*
X12773000Y20941334D01*
X13439666Y21074667D02*
X13473000Y21108000D01*
X13539666Y21141334D01*
X13706333Y21141334D01*
X13773000Y21108000D01*
X13806333Y21074667D01*
X13839666Y21008000D01*
X13839666Y20941334D01*
X13806333Y20841334D01*
X13406333Y20441334D01*
X13839666Y20441334D01*
X16668333Y20441334D02*
X16268333Y20441334D01*
X16468333Y20441334D02*
X16468333Y21141334D01*
X16401666Y21041334D01*
X16335000Y20974667D01*
X16268333Y20941334D01*
X17101666Y21141334D02*
X17168333Y21141334D01*
X17235000Y21108000D01*
X17268333Y21074667D01*
X17301666Y21008000D01*
X17335000Y20874667D01*
X17335000Y20708000D01*
X17301666Y20574667D01*
X17268333Y20508000D01*
X17235000Y20474667D01*
X17168333Y20441334D01*
X17101666Y20441334D01*
X17035000Y20474667D01*
X17001666Y20508000D01*
X16968333Y20574667D01*
X16935000Y20708000D01*
X16935000Y20874667D01*
X16968333Y21008000D01*
X17001666Y21074667D01*
X17035000Y21108000D01*
X17101666Y21141334D01*
X17635000Y20908000D02*
X17635000Y20441334D01*
X17635000Y20841334D02*
X17668333Y20874667D01*
X17735000Y20908000D01*
X17835000Y20908000D01*
X17901666Y20874667D01*
X17935000Y20808000D01*
X17935000Y20441334D01*
G04 #@! TO.C,C13*
X14604000Y23048000D02*
X14570666Y23014667D01*
X14470666Y22981334D01*
X14404000Y22981334D01*
X14304000Y23014667D01*
X14237333Y23081334D01*
X14204000Y23148000D01*
X14170666Y23281334D01*
X14170666Y23381334D01*
X14204000Y23514667D01*
X14237333Y23581334D01*
X14304000Y23648000D01*
X14404000Y23681334D01*
X14470666Y23681334D01*
X14570666Y23648000D01*
X14604000Y23614667D01*
X15270666Y22981334D02*
X14870666Y22981334D01*
X15070666Y22981334D02*
X15070666Y23681334D01*
X15004000Y23581334D01*
X14937333Y23514667D01*
X14870666Y23481334D01*
X15504000Y23681334D02*
X15937333Y23681334D01*
X15704000Y23414667D01*
X15804000Y23414667D01*
X15870666Y23381334D01*
X15904000Y23348000D01*
X15937333Y23281334D01*
X15937333Y23114667D01*
X15904000Y23048000D01*
X15870666Y23014667D01*
X15804000Y22981334D01*
X15604000Y22981334D01*
X15537333Y23014667D01*
X15504000Y23048000D01*
X14270666Y23997334D02*
X13870666Y23997334D01*
X14070666Y23997334D02*
X14070666Y24697334D01*
X14004000Y24597334D01*
X13937333Y24530667D01*
X13870666Y24497334D01*
X14704000Y24697334D02*
X14770666Y24697334D01*
X14837333Y24664000D01*
X14870666Y24630667D01*
X14904000Y24564000D01*
X14937333Y24430667D01*
X14937333Y24264000D01*
X14904000Y24130667D01*
X14870666Y24064000D01*
X14837333Y24030667D01*
X14770666Y23997334D01*
X14704000Y23997334D01*
X14637333Y24030667D01*
X14604000Y24064000D01*
X14570666Y24130667D01*
X14537333Y24264000D01*
X14537333Y24430667D01*
X14570666Y24564000D01*
X14604000Y24630667D01*
X14637333Y24664000D01*
X14704000Y24697334D01*
X15370666Y24697334D02*
X15437333Y24697334D01*
X15504000Y24664000D01*
X15537333Y24630667D01*
X15570666Y24564000D01*
X15604000Y24430667D01*
X15604000Y24264000D01*
X15570666Y24130667D01*
X15537333Y24064000D01*
X15504000Y24030667D01*
X15437333Y23997334D01*
X15370666Y23997334D01*
X15304000Y24030667D01*
X15270666Y24064000D01*
X15237333Y24130667D01*
X15204000Y24264000D01*
X15204000Y24430667D01*
X15237333Y24564000D01*
X15270666Y24630667D01*
X15304000Y24664000D01*
X15370666Y24697334D01*
X15904000Y24464000D02*
X15904000Y23997334D01*
X15904000Y24397334D02*
X15937333Y24430667D01*
X16004000Y24464000D01*
X16104000Y24464000D01*
X16170666Y24430667D01*
X16204000Y24364000D01*
X16204000Y23997334D01*
G04 #@! TO.C,C14*
X15239000Y9586000D02*
X15205666Y9552667D01*
X15105666Y9519334D01*
X15039000Y9519334D01*
X14939000Y9552667D01*
X14872333Y9619334D01*
X14839000Y9686000D01*
X14805666Y9819334D01*
X14805666Y9919334D01*
X14839000Y10052667D01*
X14872333Y10119334D01*
X14939000Y10186000D01*
X15039000Y10219334D01*
X15105666Y10219334D01*
X15205666Y10186000D01*
X15239000Y10152667D01*
X15905666Y9519334D02*
X15505666Y9519334D01*
X15705666Y9519334D02*
X15705666Y10219334D01*
X15639000Y10119334D01*
X15572333Y10052667D01*
X15505666Y10019334D01*
X16505666Y9986000D02*
X16505666Y9519334D01*
X16339000Y10252667D02*
X16172333Y9752667D01*
X16605666Y9752667D01*
X15239000Y8503334D02*
X14839000Y8503334D01*
X15039000Y8503334D02*
X15039000Y9203334D01*
X14972333Y9103334D01*
X14905666Y9036667D01*
X14839000Y9003334D01*
X15672333Y9203334D02*
X15739000Y9203334D01*
X15805666Y9170000D01*
X15839000Y9136667D01*
X15872333Y9070000D01*
X15905666Y8936667D01*
X15905666Y8770000D01*
X15872333Y8636667D01*
X15839000Y8570000D01*
X15805666Y8536667D01*
X15739000Y8503334D01*
X15672333Y8503334D01*
X15605666Y8536667D01*
X15572333Y8570000D01*
X15539000Y8636667D01*
X15505666Y8770000D01*
X15505666Y8936667D01*
X15539000Y9070000D01*
X15572333Y9136667D01*
X15605666Y9170000D01*
X15672333Y9203334D01*
X16205666Y8970000D02*
X16205666Y8503334D01*
X16205666Y8903334D02*
X16239000Y8936667D01*
X16305666Y8970000D01*
X16405666Y8970000D01*
X16472333Y8936667D01*
X16505666Y8870000D01*
X16505666Y8503334D01*
G04 #@! TO.C,C15*
X15046333Y26350000D02*
X15013000Y26316667D01*
X14913000Y26283334D01*
X14846333Y26283334D01*
X14746333Y26316667D01*
X14679666Y26383334D01*
X14646333Y26450000D01*
X14613000Y26583334D01*
X14613000Y26683334D01*
X14646333Y26816667D01*
X14679666Y26883334D01*
X14746333Y26950000D01*
X14846333Y26983334D01*
X14913000Y26983334D01*
X15013000Y26950000D01*
X15046333Y26916667D01*
X15713000Y26283334D02*
X15313000Y26283334D01*
X15513000Y26283334D02*
X15513000Y26983334D01*
X15446333Y26883334D01*
X15379666Y26816667D01*
X15313000Y26783334D01*
X16346333Y26983334D02*
X16013000Y26983334D01*
X15979666Y26650000D01*
X16013000Y26683334D01*
X16079666Y26716667D01*
X16246333Y26716667D01*
X16313000Y26683334D01*
X16346333Y26650000D01*
X16379666Y26583334D01*
X16379666Y26416667D01*
X16346333Y26350000D01*
X16313000Y26316667D01*
X16246333Y26283334D01*
X16079666Y26283334D01*
X16013000Y26316667D01*
X15979666Y26350000D01*
X15079666Y25267334D02*
X14679666Y25267334D01*
X14879666Y25267334D02*
X14879666Y25967334D01*
X14813000Y25867334D01*
X14746333Y25800667D01*
X14679666Y25767334D01*
X15513000Y25967334D02*
X15579666Y25967334D01*
X15646333Y25934000D01*
X15679666Y25900667D01*
X15713000Y25834000D01*
X15746333Y25700667D01*
X15746333Y25534000D01*
X15713000Y25400667D01*
X15679666Y25334000D01*
X15646333Y25300667D01*
X15579666Y25267334D01*
X15513000Y25267334D01*
X15446333Y25300667D01*
X15413000Y25334000D01*
X15379666Y25400667D01*
X15346333Y25534000D01*
X15346333Y25700667D01*
X15379666Y25834000D01*
X15413000Y25900667D01*
X15446333Y25934000D01*
X15513000Y25967334D01*
X16046333Y25734000D02*
X16046333Y25267334D01*
X16046333Y25667334D02*
X16079666Y25700667D01*
X16146333Y25734000D01*
X16246333Y25734000D01*
X16313000Y25700667D01*
X16346333Y25634000D01*
X16346333Y25267334D01*
G04 #@! TO.C,C16*
X18160000Y26350000D02*
X18126666Y26316667D01*
X18026666Y26283334D01*
X17960000Y26283334D01*
X17860000Y26316667D01*
X17793333Y26383334D01*
X17760000Y26450000D01*
X17726666Y26583334D01*
X17726666Y26683334D01*
X17760000Y26816667D01*
X17793333Y26883334D01*
X17860000Y26950000D01*
X17960000Y26983334D01*
X18026666Y26983334D01*
X18126666Y26950000D01*
X18160000Y26916667D01*
X18826666Y26283334D02*
X18426666Y26283334D01*
X18626666Y26283334D02*
X18626666Y26983334D01*
X18560000Y26883334D01*
X18493333Y26816667D01*
X18426666Y26783334D01*
X19426666Y26983334D02*
X19293333Y26983334D01*
X19226666Y26950000D01*
X19193333Y26916667D01*
X19126666Y26816667D01*
X19093333Y26683334D01*
X19093333Y26416667D01*
X19126666Y26350000D01*
X19160000Y26316667D01*
X19226666Y26283334D01*
X19360000Y26283334D01*
X19426666Y26316667D01*
X19460000Y26350000D01*
X19493333Y26416667D01*
X19493333Y26583334D01*
X19460000Y26650000D01*
X19426666Y26683334D01*
X19360000Y26716667D01*
X19226666Y26716667D01*
X19160000Y26683334D01*
X19126666Y26650000D01*
X19093333Y26583334D01*
X17826666Y27299334D02*
X17426666Y27299334D01*
X17626666Y27299334D02*
X17626666Y27999334D01*
X17560000Y27899334D01*
X17493333Y27832667D01*
X17426666Y27799334D01*
X18260000Y27999334D02*
X18326666Y27999334D01*
X18393333Y27966000D01*
X18426666Y27932667D01*
X18460000Y27866000D01*
X18493333Y27732667D01*
X18493333Y27566000D01*
X18460000Y27432667D01*
X18426666Y27366000D01*
X18393333Y27332667D01*
X18326666Y27299334D01*
X18260000Y27299334D01*
X18193333Y27332667D01*
X18160000Y27366000D01*
X18126666Y27432667D01*
X18093333Y27566000D01*
X18093333Y27732667D01*
X18126666Y27866000D01*
X18160000Y27932667D01*
X18193333Y27966000D01*
X18260000Y27999334D01*
X18926666Y27999334D02*
X18993333Y27999334D01*
X19060000Y27966000D01*
X19093333Y27932667D01*
X19126666Y27866000D01*
X19160000Y27732667D01*
X19160000Y27566000D01*
X19126666Y27432667D01*
X19093333Y27366000D01*
X19060000Y27332667D01*
X18993333Y27299334D01*
X18926666Y27299334D01*
X18860000Y27332667D01*
X18826666Y27366000D01*
X18793333Y27432667D01*
X18760000Y27566000D01*
X18760000Y27732667D01*
X18793333Y27866000D01*
X18826666Y27932667D01*
X18860000Y27966000D01*
X18926666Y27999334D01*
X19460000Y27766000D02*
X19460000Y27299334D01*
X19460000Y27699334D02*
X19493333Y27732667D01*
X19560000Y27766000D01*
X19660000Y27766000D01*
X19726666Y27732667D01*
X19760000Y27666000D01*
X19760000Y27299334D01*
G04 #@! TO.C,C18*
X23936333Y19492000D02*
X23903000Y19458667D01*
X23803000Y19425334D01*
X23736333Y19425334D01*
X23636333Y19458667D01*
X23569666Y19525334D01*
X23536333Y19592000D01*
X23503000Y19725334D01*
X23503000Y19825334D01*
X23536333Y19958667D01*
X23569666Y20025334D01*
X23636333Y20092000D01*
X23736333Y20125334D01*
X23803000Y20125334D01*
X23903000Y20092000D01*
X23936333Y20058667D01*
X24603000Y19425334D02*
X24203000Y19425334D01*
X24403000Y19425334D02*
X24403000Y20125334D01*
X24336333Y20025334D01*
X24269666Y19958667D01*
X24203000Y19925334D01*
X25003000Y19825334D02*
X24936333Y19858667D01*
X24903000Y19892000D01*
X24869666Y19958667D01*
X24869666Y19992000D01*
X24903000Y20058667D01*
X24936333Y20092000D01*
X25003000Y20125334D01*
X25136333Y20125334D01*
X25203000Y20092000D01*
X25236333Y20058667D01*
X25269666Y19992000D01*
X25269666Y19958667D01*
X25236333Y19892000D01*
X25203000Y19858667D01*
X25136333Y19825334D01*
X25003000Y19825334D01*
X24936333Y19792000D01*
X24903000Y19758667D01*
X24869666Y19692000D01*
X24869666Y19558667D01*
X24903000Y19492000D01*
X24936333Y19458667D01*
X25003000Y19425334D01*
X25136333Y19425334D01*
X25203000Y19458667D01*
X25236333Y19492000D01*
X25269666Y19558667D01*
X25269666Y19692000D01*
X25236333Y19758667D01*
X25203000Y19792000D01*
X25136333Y19825334D01*
X28098333Y19425334D02*
X27698333Y19425334D01*
X27898333Y19425334D02*
X27898333Y20125334D01*
X27831666Y20025334D01*
X27765000Y19958667D01*
X27698333Y19925334D01*
X28398333Y19892000D02*
X28398333Y19425334D01*
X28398333Y19825334D02*
X28431666Y19858667D01*
X28498333Y19892000D01*
X28598333Y19892000D01*
X28665000Y19858667D01*
X28698333Y19792000D01*
X28698333Y19425334D01*
G04 #@! TO.C,C19*
X23936333Y20508000D02*
X23903000Y20474667D01*
X23803000Y20441334D01*
X23736333Y20441334D01*
X23636333Y20474667D01*
X23569666Y20541334D01*
X23536333Y20608000D01*
X23503000Y20741334D01*
X23503000Y20841334D01*
X23536333Y20974667D01*
X23569666Y21041334D01*
X23636333Y21108000D01*
X23736333Y21141334D01*
X23803000Y21141334D01*
X23903000Y21108000D01*
X23936333Y21074667D01*
X24603000Y20441334D02*
X24203000Y20441334D01*
X24403000Y20441334D02*
X24403000Y21141334D01*
X24336333Y21041334D01*
X24269666Y20974667D01*
X24203000Y20941334D01*
X24936333Y20441334D02*
X25069666Y20441334D01*
X25136333Y20474667D01*
X25169666Y20508000D01*
X25236333Y20608000D01*
X25269666Y20741334D01*
X25269666Y21008000D01*
X25236333Y21074667D01*
X25203000Y21108000D01*
X25136333Y21141334D01*
X25003000Y21141334D01*
X24936333Y21108000D01*
X24903000Y21074667D01*
X24869666Y21008000D01*
X24869666Y20841334D01*
X24903000Y20774667D01*
X24936333Y20741334D01*
X25003000Y20708000D01*
X25136333Y20708000D01*
X25203000Y20741334D01*
X25236333Y20774667D01*
X25269666Y20841334D01*
X28098333Y20441334D02*
X27698333Y20441334D01*
X27898333Y20441334D02*
X27898333Y21141334D01*
X27831666Y21041334D01*
X27765000Y20974667D01*
X27698333Y20941334D01*
X28531666Y21141334D02*
X28598333Y21141334D01*
X28665000Y21108000D01*
X28698333Y21074667D01*
X28731666Y21008000D01*
X28765000Y20874667D01*
X28765000Y20708000D01*
X28731666Y20574667D01*
X28698333Y20508000D01*
X28665000Y20474667D01*
X28598333Y20441334D01*
X28531666Y20441334D01*
X28465000Y20474667D01*
X28431666Y20508000D01*
X28398333Y20574667D01*
X28365000Y20708000D01*
X28365000Y20874667D01*
X28398333Y21008000D01*
X28431666Y21074667D01*
X28465000Y21108000D01*
X28531666Y21141334D01*
X29065000Y20908000D02*
X29065000Y20441334D01*
X29065000Y20841334D02*
X29098333Y20874667D01*
X29165000Y20908000D01*
X29265000Y20908000D01*
X29331666Y20874667D01*
X29365000Y20808000D01*
X29365000Y20441334D01*
G04 #@! TO.C,C20*
X26034000Y23048000D02*
X26000666Y23014667D01*
X25900666Y22981334D01*
X25834000Y22981334D01*
X25734000Y23014667D01*
X25667333Y23081334D01*
X25634000Y23148000D01*
X25600666Y23281334D01*
X25600666Y23381334D01*
X25634000Y23514667D01*
X25667333Y23581334D01*
X25734000Y23648000D01*
X25834000Y23681334D01*
X25900666Y23681334D01*
X26000666Y23648000D01*
X26034000Y23614667D01*
X26300666Y23614667D02*
X26334000Y23648000D01*
X26400666Y23681334D01*
X26567333Y23681334D01*
X26634000Y23648000D01*
X26667333Y23614667D01*
X26700666Y23548000D01*
X26700666Y23481334D01*
X26667333Y23381334D01*
X26267333Y22981334D01*
X26700666Y22981334D01*
X27134000Y23681334D02*
X27200666Y23681334D01*
X27267333Y23648000D01*
X27300666Y23614667D01*
X27334000Y23548000D01*
X27367333Y23414667D01*
X27367333Y23248000D01*
X27334000Y23114667D01*
X27300666Y23048000D01*
X27267333Y23014667D01*
X27200666Y22981334D01*
X27134000Y22981334D01*
X27067333Y23014667D01*
X27034000Y23048000D01*
X27000666Y23114667D01*
X26967333Y23248000D01*
X26967333Y23414667D01*
X27000666Y23548000D01*
X27034000Y23614667D01*
X27067333Y23648000D01*
X27134000Y23681334D01*
X25700666Y23997334D02*
X25300666Y23997334D01*
X25500666Y23997334D02*
X25500666Y24697334D01*
X25434000Y24597334D01*
X25367333Y24530667D01*
X25300666Y24497334D01*
X26134000Y24697334D02*
X26200666Y24697334D01*
X26267333Y24664000D01*
X26300666Y24630667D01*
X26334000Y24564000D01*
X26367333Y24430667D01*
X26367333Y24264000D01*
X26334000Y24130667D01*
X26300666Y24064000D01*
X26267333Y24030667D01*
X26200666Y23997334D01*
X26134000Y23997334D01*
X26067333Y24030667D01*
X26034000Y24064000D01*
X26000666Y24130667D01*
X25967333Y24264000D01*
X25967333Y24430667D01*
X26000666Y24564000D01*
X26034000Y24630667D01*
X26067333Y24664000D01*
X26134000Y24697334D01*
X26800666Y24697334D02*
X26867333Y24697334D01*
X26934000Y24664000D01*
X26967333Y24630667D01*
X27000666Y24564000D01*
X27034000Y24430667D01*
X27034000Y24264000D01*
X27000666Y24130667D01*
X26967333Y24064000D01*
X26934000Y24030667D01*
X26867333Y23997334D01*
X26800666Y23997334D01*
X26734000Y24030667D01*
X26700666Y24064000D01*
X26667333Y24130667D01*
X26634000Y24264000D01*
X26634000Y24430667D01*
X26667333Y24564000D01*
X26700666Y24630667D01*
X26734000Y24664000D01*
X26800666Y24697334D01*
X27334000Y24464000D02*
X27334000Y23997334D01*
X27334000Y24397334D02*
X27367333Y24430667D01*
X27434000Y24464000D01*
X27534000Y24464000D01*
X27600666Y24430667D01*
X27634000Y24364000D01*
X27634000Y23997334D01*
G04 #@! TO.C,C21*
X22986000Y22794000D02*
X22952666Y22760667D01*
X22852666Y22727334D01*
X22786000Y22727334D01*
X22686000Y22760667D01*
X22619333Y22827334D01*
X22586000Y22894000D01*
X22552666Y23027334D01*
X22552666Y23127334D01*
X22586000Y23260667D01*
X22619333Y23327334D01*
X22686000Y23394000D01*
X22786000Y23427334D01*
X22852666Y23427334D01*
X22952666Y23394000D01*
X22986000Y23360667D01*
X23252666Y23360667D02*
X23286000Y23394000D01*
X23352666Y23427334D01*
X23519333Y23427334D01*
X23586000Y23394000D01*
X23619333Y23360667D01*
X23652666Y23294000D01*
X23652666Y23227334D01*
X23619333Y23127334D01*
X23219333Y22727334D01*
X23652666Y22727334D01*
X24319333Y22727334D02*
X23919333Y22727334D01*
X24119333Y22727334D02*
X24119333Y23427334D01*
X24052666Y23327334D01*
X23986000Y23260667D01*
X23919333Y23227334D01*
X22986000Y23743334D02*
X22586000Y23743334D01*
X22786000Y23743334D02*
X22786000Y24443334D01*
X22719333Y24343334D01*
X22652666Y24276667D01*
X22586000Y24243334D01*
X23419333Y24443334D02*
X23486000Y24443334D01*
X23552666Y24410000D01*
X23586000Y24376667D01*
X23619333Y24310000D01*
X23652666Y24176667D01*
X23652666Y24010000D01*
X23619333Y23876667D01*
X23586000Y23810000D01*
X23552666Y23776667D01*
X23486000Y23743334D01*
X23419333Y23743334D01*
X23352666Y23776667D01*
X23319333Y23810000D01*
X23286000Y23876667D01*
X23252666Y24010000D01*
X23252666Y24176667D01*
X23286000Y24310000D01*
X23319333Y24376667D01*
X23352666Y24410000D01*
X23419333Y24443334D01*
X23952666Y24210000D02*
X23952666Y23743334D01*
X23952666Y24143334D02*
X23986000Y24176667D01*
X24052666Y24210000D01*
X24152666Y24210000D01*
X24219333Y24176667D01*
X24252666Y24110000D01*
X24252666Y23743334D01*
G04 #@! TO.C,C23*
X25714333Y7046000D02*
X25681000Y7012667D01*
X25581000Y6979334D01*
X25514333Y6979334D01*
X25414333Y7012667D01*
X25347666Y7079334D01*
X25314333Y7146000D01*
X25281000Y7279334D01*
X25281000Y7379334D01*
X25314333Y7512667D01*
X25347666Y7579334D01*
X25414333Y7646000D01*
X25514333Y7679334D01*
X25581000Y7679334D01*
X25681000Y7646000D01*
X25714333Y7612667D01*
X25981000Y7612667D02*
X26014333Y7646000D01*
X26081000Y7679334D01*
X26247666Y7679334D01*
X26314333Y7646000D01*
X26347666Y7612667D01*
X26381000Y7546000D01*
X26381000Y7479334D01*
X26347666Y7379334D01*
X25947666Y6979334D01*
X26381000Y6979334D01*
X26614333Y7679334D02*
X27047666Y7679334D01*
X26814333Y7412667D01*
X26914333Y7412667D01*
X26981000Y7379334D01*
X27014333Y7346000D01*
X27047666Y7279334D01*
X27047666Y7112667D01*
X27014333Y7046000D01*
X26981000Y7012667D01*
X26914333Y6979334D01*
X26714333Y6979334D01*
X26647666Y7012667D01*
X26614333Y7046000D01*
X29876333Y6979334D02*
X29476333Y6979334D01*
X29676333Y6979334D02*
X29676333Y7679334D01*
X29609666Y7579334D01*
X29543000Y7512667D01*
X29476333Y7479334D01*
X30309666Y7679334D02*
X30376333Y7679334D01*
X30443000Y7646000D01*
X30476333Y7612667D01*
X30509666Y7546000D01*
X30543000Y7412667D01*
X30543000Y7246000D01*
X30509666Y7112667D01*
X30476333Y7046000D01*
X30443000Y7012667D01*
X30376333Y6979334D01*
X30309666Y6979334D01*
X30243000Y7012667D01*
X30209666Y7046000D01*
X30176333Y7112667D01*
X30143000Y7246000D01*
X30143000Y7412667D01*
X30176333Y7546000D01*
X30209666Y7612667D01*
X30243000Y7646000D01*
X30309666Y7679334D01*
X30843000Y7446000D02*
X30843000Y6979334D01*
X30843000Y7379334D02*
X30876333Y7412667D01*
X30943000Y7446000D01*
X31043000Y7446000D01*
X31109666Y7412667D01*
X31143000Y7346000D01*
X31143000Y6979334D01*
G04 #@! TO.C,C24*
X25206333Y5776000D02*
X25173000Y5742667D01*
X25073000Y5709334D01*
X25006333Y5709334D01*
X24906333Y5742667D01*
X24839666Y5809334D01*
X24806333Y5876000D01*
X24773000Y6009334D01*
X24773000Y6109334D01*
X24806333Y6242667D01*
X24839666Y6309334D01*
X24906333Y6376000D01*
X25006333Y6409334D01*
X25073000Y6409334D01*
X25173000Y6376000D01*
X25206333Y6342667D01*
X25473000Y6342667D02*
X25506333Y6376000D01*
X25573000Y6409334D01*
X25739666Y6409334D01*
X25806333Y6376000D01*
X25839666Y6342667D01*
X25873000Y6276000D01*
X25873000Y6209334D01*
X25839666Y6109334D01*
X25439666Y5709334D01*
X25873000Y5709334D01*
X26473000Y6176000D02*
X26473000Y5709334D01*
X26306333Y6442667D02*
X26139666Y5942667D01*
X26573000Y5942667D01*
X30384333Y5709334D02*
X29984333Y5709334D01*
X30184333Y5709334D02*
X30184333Y6409334D01*
X30117666Y6309334D01*
X30051000Y6242667D01*
X29984333Y6209334D01*
X30817666Y6409334D02*
X30884333Y6409334D01*
X30951000Y6376000D01*
X30984333Y6342667D01*
X31017666Y6276000D01*
X31051000Y6142667D01*
X31051000Y5976000D01*
X31017666Y5842667D01*
X30984333Y5776000D01*
X30951000Y5742667D01*
X30884333Y5709334D01*
X30817666Y5709334D01*
X30751000Y5742667D01*
X30717666Y5776000D01*
X30684333Y5842667D01*
X30651000Y5976000D01*
X30651000Y6142667D01*
X30684333Y6276000D01*
X30717666Y6342667D01*
X30751000Y6376000D01*
X30817666Y6409334D01*
X31484333Y6409334D02*
X31551000Y6409334D01*
X31617666Y6376000D01*
X31651000Y6342667D01*
X31684333Y6276000D01*
X31717666Y6142667D01*
X31717666Y5976000D01*
X31684333Y5842667D01*
X31651000Y5776000D01*
X31617666Y5742667D01*
X31551000Y5709334D01*
X31484333Y5709334D01*
X31417666Y5742667D01*
X31384333Y5776000D01*
X31351000Y5842667D01*
X31317666Y5976000D01*
X31317666Y6142667D01*
X31351000Y6276000D01*
X31384333Y6342667D01*
X31417666Y6376000D01*
X31484333Y6409334D01*
X32017666Y6176000D02*
X32017666Y5709334D01*
X32017666Y6109334D02*
X32051000Y6142667D01*
X32117666Y6176000D01*
X32217666Y6176000D01*
X32284333Y6142667D01*
X32317666Y6076000D01*
X32317666Y5709334D01*
G04 #@! TO.C,H1*
X17314666Y51683334D02*
X17314666Y52383334D01*
X17314666Y52050000D02*
X17714666Y52050000D01*
X17714666Y51683334D02*
X17714666Y52383334D01*
X18414666Y51683334D02*
X18014666Y51683334D01*
X18214666Y51683334D02*
X18214666Y52383334D01*
X18148000Y52283334D01*
X18081333Y52216667D01*
X18014666Y52183334D01*
G04 #@! TO.C,H2*
X45508666Y51683334D02*
X45508666Y52383334D01*
X45508666Y52050000D02*
X45908666Y52050000D01*
X45908666Y51683334D02*
X45908666Y52383334D01*
X46208666Y52316667D02*
X46242000Y52350000D01*
X46308666Y52383334D01*
X46475333Y52383334D01*
X46542000Y52350000D01*
X46575333Y52316667D01*
X46608666Y52250000D01*
X46608666Y52183334D01*
X46575333Y52083334D01*
X46175333Y51683334D01*
X46608666Y51683334D01*
G04 #@! TO.C,H3*
X8170666Y-5466666D02*
X8170666Y-4766666D01*
X8170666Y-5100000D02*
X8570666Y-5100000D01*
X8570666Y-5466666D02*
X8570666Y-4766666D01*
X8837333Y-4766666D02*
X9270666Y-4766666D01*
X9037333Y-5033333D01*
X9137333Y-5033333D01*
X9204000Y-5066666D01*
X9237333Y-5100000D01*
X9270666Y-5166666D01*
X9270666Y-5333333D01*
X9237333Y-5400000D01*
X9204000Y-5433333D01*
X9137333Y-5466666D01*
X8937333Y-5466666D01*
X8870666Y-5433333D01*
X8837333Y-5400000D01*
G04 #@! TO.C,H4*
X36618666Y-4323666D02*
X36618666Y-3623666D01*
X36618666Y-3957000D02*
X37018666Y-3957000D01*
X37018666Y-4323666D02*
X37018666Y-3623666D01*
X37652000Y-3857000D02*
X37652000Y-4323666D01*
X37485333Y-3590333D02*
X37318666Y-4090333D01*
X37752000Y-4090333D01*
G04 #@! TO.C,J1*
D14*
X7304666Y35764667D02*
X7804666Y35764667D01*
X7904666Y35731334D01*
X7971333Y35664667D01*
X8004666Y35564667D01*
X8004666Y35498000D01*
X8004666Y36464667D02*
X8004666Y36064667D01*
X8004666Y36264667D02*
X7304666Y36264667D01*
X7404666Y36198000D01*
X7471333Y36131334D01*
X7504666Y36064667D01*
X8320666Y35926667D02*
X8320666Y35593334D01*
X8654000Y35560000D01*
X8620666Y35593334D01*
X8587333Y35660000D01*
X8587333Y35826667D01*
X8620666Y35893334D01*
X8654000Y35926667D01*
X8720666Y35960000D01*
X8887333Y35960000D01*
X8954000Y35926667D01*
X8987333Y35893334D01*
X9020666Y35826667D01*
X9020666Y35660000D01*
X8987333Y35593334D01*
X8954000Y35560000D01*
X8320666Y36160000D02*
X9020666Y36393334D01*
X8320666Y36626667D01*
X9020666Y36860000D02*
X8320666Y36860000D01*
X8320666Y37026667D01*
X8354000Y37126667D01*
X8420666Y37193334D01*
X8487333Y37226667D01*
X8620666Y37260000D01*
X8720666Y37260000D01*
X8854000Y37226667D01*
X8920666Y37193334D01*
X8987333Y37126667D01*
X9020666Y37026667D01*
X9020666Y36860000D01*
X8954000Y37960000D02*
X8987333Y37926667D01*
X9020666Y37826667D01*
X9020666Y37760000D01*
X8987333Y37660000D01*
X8920666Y37593334D01*
X8854000Y37560000D01*
X8720666Y37526667D01*
X8620666Y37526667D01*
X8487333Y37560000D01*
X8420666Y37593334D01*
X8354000Y37660000D01*
X8320666Y37760000D01*
X8320666Y37826667D01*
X8354000Y37926667D01*
X8387333Y37960000D01*
G04 #@! TO.C,JP1*
D10*
X18788666Y20887334D02*
X18788666Y20387334D01*
X18755333Y20287334D01*
X18688666Y20220667D01*
X18588666Y20187334D01*
X18522000Y20187334D01*
X19122000Y20187334D02*
X19122000Y20887334D01*
X19388666Y20887334D01*
X19455333Y20854000D01*
X19488666Y20820667D01*
X19522000Y20754000D01*
X19522000Y20654000D01*
X19488666Y20587334D01*
X19455333Y20554000D01*
X19388666Y20520667D01*
X19122000Y20520667D01*
X20188666Y20187334D02*
X19788666Y20187334D01*
X19988666Y20187334D02*
X19988666Y20887334D01*
X19922000Y20787334D01*
X19855333Y20720667D01*
X19788666Y20687334D01*
G04 #@! TO.C,L1*
D14*
X20017333Y46349334D02*
X19684000Y46349334D01*
X19684000Y47049334D01*
X20617333Y46349334D02*
X20217333Y46349334D01*
X20417333Y46349334D02*
X20417333Y47049334D01*
X20350666Y46949334D01*
X20284000Y46882667D01*
X20217333Y46849334D01*
X19317333Y39237334D02*
X18917333Y39237334D01*
X19117333Y39237334D02*
X19117333Y39937334D01*
X19050666Y39837334D01*
X18984000Y39770667D01*
X18917333Y39737334D01*
X19984000Y39237334D02*
X19584000Y39237334D01*
X19784000Y39237334D02*
X19784000Y39937334D01*
X19717333Y39837334D01*
X19650666Y39770667D01*
X19584000Y39737334D01*
X20584000Y39704000D02*
X20584000Y39237334D01*
X20284000Y39704000D02*
X20284000Y39337334D01*
X20317333Y39270667D01*
X20384000Y39237334D01*
X20484000Y39237334D01*
X20550666Y39270667D01*
X20584000Y39304000D01*
X20917333Y39237334D02*
X20917333Y39937334D01*
X20917333Y39604000D02*
X21317333Y39604000D01*
X21317333Y39237334D02*
X21317333Y39937334D01*
G04 #@! TO.C,R1*
D10*
X21795333Y48127334D02*
X21562000Y48460667D01*
X21395333Y48127334D02*
X21395333Y48827334D01*
X21662000Y48827334D01*
X21728666Y48794000D01*
X21762000Y48760667D01*
X21795333Y48694000D01*
X21795333Y48594000D01*
X21762000Y48527334D01*
X21728666Y48494000D01*
X21662000Y48460667D01*
X21395333Y48460667D01*
X22462000Y48127334D02*
X22062000Y48127334D01*
X22262000Y48127334D02*
X22262000Y48827334D01*
X22195333Y48727334D01*
X22128666Y48660667D01*
X22062000Y48627334D01*
X21495333Y49143334D02*
X21095333Y49143334D01*
X21295333Y49143334D02*
X21295333Y49843334D01*
X21228666Y49743334D01*
X21162000Y49676667D01*
X21095333Y49643334D01*
X21795333Y49143334D02*
X21795333Y49843334D01*
X21862000Y49410000D02*
X22062000Y49143334D01*
X22062000Y49610000D02*
X21795333Y49343334D01*
X22495333Y49843334D02*
X22562000Y49843334D01*
X22628666Y49810000D01*
X22662000Y49776667D01*
X22695333Y49710000D01*
X22728666Y49576667D01*
X22728666Y49410000D01*
X22695333Y49276667D01*
X22662000Y49210000D01*
X22628666Y49176667D01*
X22562000Y49143334D01*
X22495333Y49143334D01*
X22428666Y49176667D01*
X22395333Y49210000D01*
X22362000Y49276667D01*
X22328666Y49410000D01*
X22328666Y49576667D01*
X22362000Y49710000D01*
X22395333Y49776667D01*
X22428666Y49810000D01*
X22495333Y49843334D01*
G04 #@! TO.C,R2*
X1654666Y19611667D02*
X1321333Y19378334D01*
X1654666Y19211667D02*
X954666Y19211667D01*
X954666Y19478334D01*
X988000Y19545000D01*
X1021333Y19578334D01*
X1088000Y19611667D01*
X1188000Y19611667D01*
X1254666Y19578334D01*
X1288000Y19545000D01*
X1321333Y19478334D01*
X1321333Y19211667D01*
X1021333Y19878334D02*
X988000Y19911667D01*
X954666Y19978334D01*
X954666Y20145000D01*
X988000Y20211667D01*
X1021333Y20245000D01*
X1088000Y20278334D01*
X1154666Y20278334D01*
X1254666Y20245000D01*
X1654666Y19845000D01*
X1654666Y20278334D01*
X2670666Y19578334D02*
X2670666Y19178334D01*
X2670666Y19378334D02*
X1970666Y19378334D01*
X2070666Y19311667D01*
X2137333Y19245000D01*
X2170666Y19178334D01*
X1970666Y20011667D02*
X1970666Y20078334D01*
X2004000Y20145000D01*
X2037333Y20178334D01*
X2104000Y20211667D01*
X2237333Y20245000D01*
X2404000Y20245000D01*
X2537333Y20211667D01*
X2604000Y20178334D01*
X2637333Y20145000D01*
X2670666Y20078334D01*
X2670666Y20011667D01*
X2637333Y19945000D01*
X2604000Y19911667D01*
X2537333Y19878334D01*
X2404000Y19845000D01*
X2237333Y19845000D01*
X2104000Y19878334D01*
X2037333Y19911667D01*
X2004000Y19945000D01*
X1970666Y20011667D01*
X1970666Y20678334D02*
X1970666Y20745000D01*
X2004000Y20811667D01*
X2037333Y20845000D01*
X2104000Y20878334D01*
X2237333Y20911667D01*
X2404000Y20911667D01*
X2537333Y20878334D01*
X2604000Y20845000D01*
X2637333Y20811667D01*
X2670666Y20745000D01*
X2670666Y20678334D01*
X2637333Y20611667D01*
X2604000Y20578334D01*
X2537333Y20545000D01*
X2404000Y20511667D01*
X2237333Y20511667D01*
X2104000Y20545000D01*
X2037333Y20578334D01*
X2004000Y20611667D01*
X1970666Y20678334D01*
X2670666Y21611667D02*
X2337333Y21378334D01*
X2670666Y21211667D02*
X1970666Y21211667D01*
X1970666Y21478334D01*
X2004000Y21545000D01*
X2037333Y21578334D01*
X2104000Y21611667D01*
X2204000Y21611667D01*
X2270666Y21578334D01*
X2304000Y21545000D01*
X2337333Y21478334D01*
X2337333Y21211667D01*
G04 #@! TO.C,R3*
X1654666Y12273000D02*
X1321333Y12039667D01*
X1654666Y11873000D02*
X954666Y11873000D01*
X954666Y12139667D01*
X988000Y12206334D01*
X1021333Y12239667D01*
X1088000Y12273000D01*
X1188000Y12273000D01*
X1254666Y12239667D01*
X1288000Y12206334D01*
X1321333Y12139667D01*
X1321333Y11873000D01*
X954666Y12506334D02*
X954666Y12939667D01*
X1221333Y12706334D01*
X1221333Y12806334D01*
X1254666Y12873000D01*
X1288000Y12906334D01*
X1354666Y12939667D01*
X1521333Y12939667D01*
X1588000Y12906334D01*
X1621333Y12873000D01*
X1654666Y12806334D01*
X1654666Y12606334D01*
X1621333Y12539667D01*
X1588000Y12506334D01*
X2670666Y10906334D02*
X2670666Y10506334D01*
X2670666Y10706334D02*
X1970666Y10706334D01*
X2070666Y10639667D01*
X2137333Y10573000D01*
X2170666Y10506334D01*
X1970666Y11339667D02*
X1970666Y11406334D01*
X2004000Y11473000D01*
X2037333Y11506334D01*
X2104000Y11539667D01*
X2237333Y11573000D01*
X2404000Y11573000D01*
X2537333Y11539667D01*
X2604000Y11506334D01*
X2637333Y11473000D01*
X2670666Y11406334D01*
X2670666Y11339667D01*
X2637333Y11273000D01*
X2604000Y11239667D01*
X2537333Y11206334D01*
X2404000Y11173000D01*
X2237333Y11173000D01*
X2104000Y11206334D01*
X2037333Y11239667D01*
X2004000Y11273000D01*
X1970666Y11339667D01*
X1970666Y12006334D02*
X1970666Y12073000D01*
X2004000Y12139667D01*
X2037333Y12173000D01*
X2104000Y12206334D01*
X2237333Y12239667D01*
X2404000Y12239667D01*
X2537333Y12206334D01*
X2604000Y12173000D01*
X2637333Y12139667D01*
X2670666Y12073000D01*
X2670666Y12006334D01*
X2637333Y11939667D01*
X2604000Y11906334D01*
X2537333Y11873000D01*
X2404000Y11839667D01*
X2237333Y11839667D01*
X2104000Y11873000D01*
X2037333Y11906334D01*
X2004000Y11939667D01*
X1970666Y12006334D01*
X2670666Y12939667D02*
X2337333Y12706334D01*
X2670666Y12539667D02*
X1970666Y12539667D01*
X1970666Y12806334D01*
X2004000Y12873000D01*
X2037333Y12906334D01*
X2104000Y12939667D01*
X2204000Y12939667D01*
X2270666Y12906334D01*
X2304000Y12873000D01*
X2337333Y12806334D01*
X2337333Y12539667D01*
G04 #@! TO.C,R4*
X6226666Y19611667D02*
X5893333Y19378334D01*
X6226666Y19211667D02*
X5526666Y19211667D01*
X5526666Y19478334D01*
X5560000Y19545000D01*
X5593333Y19578334D01*
X5660000Y19611667D01*
X5760000Y19611667D01*
X5826666Y19578334D01*
X5860000Y19545000D01*
X5893333Y19478334D01*
X5893333Y19211667D01*
X5760000Y20211667D02*
X6226666Y20211667D01*
X5493333Y20045000D02*
X5993333Y19878334D01*
X5993333Y20311667D01*
X6609333Y19178334D02*
X6576000Y19211667D01*
X6542666Y19278334D01*
X6542666Y19445000D01*
X6576000Y19511667D01*
X6609333Y19545000D01*
X6676000Y19578334D01*
X6742666Y19578334D01*
X6842666Y19545000D01*
X7242666Y19145000D01*
X7242666Y19578334D01*
X7242666Y19878334D02*
X6542666Y19878334D01*
X6976000Y19945000D02*
X7242666Y20145000D01*
X6776000Y20145000D02*
X7042666Y19878334D01*
X6609333Y20411667D02*
X6576000Y20445000D01*
X6542666Y20511667D01*
X6542666Y20678334D01*
X6576000Y20745000D01*
X6609333Y20778334D01*
X6676000Y20811667D01*
X6742666Y20811667D01*
X6842666Y20778334D01*
X7242666Y20378334D01*
X7242666Y20811667D01*
G04 #@! TO.C,R5*
X6226666Y12273000D02*
X5893333Y12039667D01*
X6226666Y11873000D02*
X5526666Y11873000D01*
X5526666Y12139667D01*
X5560000Y12206334D01*
X5593333Y12239667D01*
X5660000Y12273000D01*
X5760000Y12273000D01*
X5826666Y12239667D01*
X5860000Y12206334D01*
X5893333Y12139667D01*
X5893333Y11873000D01*
X5526666Y12906334D02*
X5526666Y12573000D01*
X5860000Y12539667D01*
X5826666Y12573000D01*
X5793333Y12639667D01*
X5793333Y12806334D01*
X5826666Y12873000D01*
X5860000Y12906334D01*
X5926666Y12939667D01*
X6093333Y12939667D01*
X6160000Y12906334D01*
X6193333Y12873000D01*
X6226666Y12806334D01*
X6226666Y12639667D01*
X6193333Y12573000D01*
X6160000Y12539667D01*
X6609333Y11306334D02*
X6576000Y11339667D01*
X6542666Y11406334D01*
X6542666Y11573000D01*
X6576000Y11639667D01*
X6609333Y11673000D01*
X6676000Y11706334D01*
X6742666Y11706334D01*
X6842666Y11673000D01*
X7242666Y11273000D01*
X7242666Y11706334D01*
X7242666Y12006334D02*
X6542666Y12006334D01*
X6976000Y12073000D02*
X7242666Y12273000D01*
X6776000Y12273000D02*
X7042666Y12006334D01*
X6609333Y12539667D02*
X6576000Y12573000D01*
X6542666Y12639667D01*
X6542666Y12806334D01*
X6576000Y12873000D01*
X6609333Y12906334D01*
X6676000Y12939667D01*
X6742666Y12939667D01*
X6842666Y12906334D01*
X7242666Y12506334D01*
X7242666Y12939667D01*
G04 #@! TO.C,R6*
X13427000Y32887334D02*
X13193666Y33220667D01*
X13027000Y32887334D02*
X13027000Y33587334D01*
X13293666Y33587334D01*
X13360333Y33554000D01*
X13393666Y33520667D01*
X13427000Y33454000D01*
X13427000Y33354000D01*
X13393666Y33287334D01*
X13360333Y33254000D01*
X13293666Y33220667D01*
X13027000Y33220667D01*
X14027000Y33587334D02*
X13893666Y33587334D01*
X13827000Y33554000D01*
X13793666Y33520667D01*
X13727000Y33420667D01*
X13693666Y33287334D01*
X13693666Y33020667D01*
X13727000Y32954000D01*
X13760333Y32920667D01*
X13827000Y32887334D01*
X13960333Y32887334D01*
X14027000Y32920667D01*
X14060333Y32954000D01*
X14093666Y33020667D01*
X14093666Y33187334D01*
X14060333Y33254000D01*
X14027000Y33287334D01*
X13960333Y33320667D01*
X13827000Y33320667D01*
X13760333Y33287334D01*
X13727000Y33254000D01*
X13693666Y33187334D01*
X12793666Y32338000D02*
X12793666Y31871334D01*
X12627000Y32604667D02*
X12460333Y32104667D01*
X12893666Y32104667D01*
X13093666Y32571334D02*
X13560333Y32571334D01*
X13260333Y31871334D01*
X13827000Y31871334D02*
X13827000Y32571334D01*
X13893666Y32138000D02*
X14093666Y31871334D01*
X14093666Y32338000D02*
X13827000Y32071334D01*
G04 #@! TO.C,R7*
X13427000Y29585334D02*
X13193666Y29918667D01*
X13027000Y29585334D02*
X13027000Y30285334D01*
X13293666Y30285334D01*
X13360333Y30252000D01*
X13393666Y30218667D01*
X13427000Y30152000D01*
X13427000Y30052000D01*
X13393666Y29985334D01*
X13360333Y29952000D01*
X13293666Y29918667D01*
X13027000Y29918667D01*
X13660333Y30285334D02*
X14127000Y30285334D01*
X13827000Y29585334D01*
X12427000Y28507334D02*
X12860333Y28507334D01*
X12627000Y28240667D01*
X12727000Y28240667D01*
X12793666Y28207334D01*
X12827000Y28174000D01*
X12860333Y28107334D01*
X12860333Y27940667D01*
X12827000Y27874000D01*
X12793666Y27840667D01*
X12727000Y27807334D01*
X12527000Y27807334D01*
X12460333Y27840667D01*
X12427000Y27874000D01*
X13093666Y28507334D02*
X13527000Y28507334D01*
X13293666Y28240667D01*
X13393666Y28240667D01*
X13460333Y28207334D01*
X13493666Y28174000D01*
X13527000Y28107334D01*
X13527000Y27940667D01*
X13493666Y27874000D01*
X13460333Y27840667D01*
X13393666Y27807334D01*
X13193666Y27807334D01*
X13127000Y27840667D01*
X13093666Y27874000D01*
X13827000Y27807334D02*
X13827000Y28507334D01*
X13893666Y28074000D02*
X14093666Y27807334D01*
X14093666Y28274000D02*
X13827000Y28007334D01*
G04 #@! TO.C,R8*
X8512666Y20373667D02*
X8179333Y20140334D01*
X8512666Y19973667D02*
X7812666Y19973667D01*
X7812666Y20240334D01*
X7846000Y20307000D01*
X7879333Y20340334D01*
X7946000Y20373667D01*
X8046000Y20373667D01*
X8112666Y20340334D01*
X8146000Y20307000D01*
X8179333Y20240334D01*
X8179333Y19973667D01*
X8112666Y20773667D02*
X8079333Y20707000D01*
X8046000Y20673667D01*
X7979333Y20640334D01*
X7946000Y20640334D01*
X7879333Y20673667D01*
X7846000Y20707000D01*
X7812666Y20773667D01*
X7812666Y20907000D01*
X7846000Y20973667D01*
X7879333Y21007000D01*
X7946000Y21040334D01*
X7979333Y21040334D01*
X8046000Y21007000D01*
X8079333Y20973667D01*
X8112666Y20907000D01*
X8112666Y20773667D01*
X8146000Y20707000D01*
X8179333Y20673667D01*
X8246000Y20640334D01*
X8379333Y20640334D01*
X8446000Y20673667D01*
X8479333Y20707000D01*
X8512666Y20773667D01*
X8512666Y20907000D01*
X8479333Y20973667D01*
X8446000Y21007000D01*
X8379333Y21040334D01*
X8246000Y21040334D01*
X8179333Y21007000D01*
X8146000Y20973667D01*
X8112666Y20907000D01*
X8895333Y19940334D02*
X8862000Y19973667D01*
X8828666Y20040334D01*
X8828666Y20207000D01*
X8862000Y20273667D01*
X8895333Y20307000D01*
X8962000Y20340334D01*
X9028666Y20340334D01*
X9128666Y20307000D01*
X9528666Y19907000D01*
X9528666Y20340334D01*
X9528666Y20640334D02*
X8828666Y20640334D01*
X9262000Y20707000D02*
X9528666Y20907000D01*
X9062000Y20907000D02*
X9328666Y20640334D01*
X8895333Y21173667D02*
X8862000Y21207000D01*
X8828666Y21273667D01*
X8828666Y21440334D01*
X8862000Y21507000D01*
X8895333Y21540334D01*
X8962000Y21573667D01*
X9028666Y21573667D01*
X9128666Y21540334D01*
X9528666Y21140334D01*
X9528666Y21573667D01*
G04 #@! TO.C,R9*
X8841333Y15107334D02*
X8608000Y15440667D01*
X8441333Y15107334D02*
X8441333Y15807334D01*
X8708000Y15807334D01*
X8774666Y15774000D01*
X8808000Y15740667D01*
X8841333Y15674000D01*
X8841333Y15574000D01*
X8808000Y15507334D01*
X8774666Y15474000D01*
X8708000Y15440667D01*
X8441333Y15440667D01*
X9174666Y15107334D02*
X9308000Y15107334D01*
X9374666Y15140667D01*
X9408000Y15174000D01*
X9474666Y15274000D01*
X9508000Y15407334D01*
X9508000Y15674000D01*
X9474666Y15740667D01*
X9441333Y15774000D01*
X9374666Y15807334D01*
X9241333Y15807334D01*
X9174666Y15774000D01*
X9141333Y15740667D01*
X9108000Y15674000D01*
X9108000Y15507334D01*
X9141333Y15440667D01*
X9174666Y15407334D01*
X9241333Y15374000D01*
X9374666Y15374000D01*
X9441333Y15407334D01*
X9474666Y15440667D01*
X9508000Y15507334D01*
X7625333Y12702334D02*
X7592000Y12735667D01*
X7558666Y12802334D01*
X7558666Y12969000D01*
X7592000Y13035667D01*
X7625333Y13069000D01*
X7692000Y13102334D01*
X7758666Y13102334D01*
X7858666Y13069000D01*
X8258666Y12669000D01*
X8258666Y13102334D01*
X8258666Y13402334D02*
X7558666Y13402334D01*
X7992000Y13469000D02*
X8258666Y13669000D01*
X7792000Y13669000D02*
X8058666Y13402334D01*
X7625333Y13935667D02*
X7592000Y13969000D01*
X7558666Y14035667D01*
X7558666Y14202334D01*
X7592000Y14269000D01*
X7625333Y14302334D01*
X7692000Y14335667D01*
X7758666Y14335667D01*
X7858666Y14302334D01*
X8258666Y13902334D01*
X8258666Y14335667D01*
G04 #@! TO.C,R12*
X11052666Y23167667D02*
X10719333Y22934334D01*
X11052666Y22767667D02*
X10352666Y22767667D01*
X10352666Y23034334D01*
X10386000Y23101000D01*
X10419333Y23134334D01*
X10486000Y23167667D01*
X10586000Y23167667D01*
X10652666Y23134334D01*
X10686000Y23101000D01*
X10719333Y23034334D01*
X10719333Y22767667D01*
X11052666Y23834334D02*
X11052666Y23434334D01*
X11052666Y23634334D02*
X10352666Y23634334D01*
X10452666Y23567667D01*
X10519333Y23501000D01*
X10552666Y23434334D01*
X10419333Y24101000D02*
X10386000Y24134334D01*
X10352666Y24201000D01*
X10352666Y24367667D01*
X10386000Y24434334D01*
X10419333Y24467667D01*
X10486000Y24501000D01*
X10552666Y24501000D01*
X10652666Y24467667D01*
X11052666Y24067667D01*
X11052666Y24501000D01*
X12068666Y23134334D02*
X12068666Y22734334D01*
X12068666Y22934334D02*
X11368666Y22934334D01*
X11468666Y22867667D01*
X11535333Y22801000D01*
X11568666Y22734334D01*
X12068666Y23434334D02*
X11368666Y23434334D01*
X11802000Y23501000D02*
X12068666Y23701000D01*
X11602000Y23701000D02*
X11868666Y23434334D01*
X11368666Y24134334D02*
X11368666Y24201000D01*
X11402000Y24267667D01*
X11435333Y24301000D01*
X11502000Y24334334D01*
X11635333Y24367667D01*
X11802000Y24367667D01*
X11935333Y24334334D01*
X12002000Y24301000D01*
X12035333Y24267667D01*
X12068666Y24201000D01*
X12068666Y24134334D01*
X12035333Y24067667D01*
X12002000Y24034334D01*
X11935333Y24001000D01*
X11802000Y23967667D01*
X11635333Y23967667D01*
X11502000Y24001000D01*
X11435333Y24034334D01*
X11402000Y24067667D01*
X11368666Y24134334D01*
G04 #@! TO.C,R13*
X14100666Y10336334D02*
X13767333Y10103000D01*
X14100666Y9936334D02*
X13400666Y9936334D01*
X13400666Y10203000D01*
X13434000Y10269667D01*
X13467333Y10303000D01*
X13534000Y10336334D01*
X13634000Y10336334D01*
X13700666Y10303000D01*
X13734000Y10269667D01*
X13767333Y10203000D01*
X13767333Y9936334D01*
X14100666Y11003000D02*
X14100666Y10603000D01*
X14100666Y10803000D02*
X13400666Y10803000D01*
X13500666Y10736334D01*
X13567333Y10669667D01*
X13600666Y10603000D01*
X13400666Y11236334D02*
X13400666Y11669667D01*
X13667333Y11436334D01*
X13667333Y11536334D01*
X13700666Y11603000D01*
X13734000Y11636334D01*
X13800666Y11669667D01*
X13967333Y11669667D01*
X14034000Y11636334D01*
X14067333Y11603000D01*
X14100666Y11536334D01*
X14100666Y11336334D01*
X14067333Y11269667D01*
X14034000Y11236334D01*
X14100666Y8150334D02*
X14100666Y7750334D01*
X14100666Y7950334D02*
X13400666Y7950334D01*
X13500666Y7883667D01*
X13567333Y7817000D01*
X13600666Y7750334D01*
X14100666Y8450334D02*
X13400666Y8450334D01*
X13834000Y8517000D02*
X14100666Y8717000D01*
X13634000Y8717000D02*
X13900666Y8450334D01*
X13400666Y9350334D02*
X13400666Y9017000D01*
X13734000Y8983667D01*
X13700666Y9017000D01*
X13667333Y9083667D01*
X13667333Y9250334D01*
X13700666Y9317000D01*
X13734000Y9350334D01*
X13800666Y9383667D01*
X13967333Y9383667D01*
X14034000Y9350334D01*
X14067333Y9317000D01*
X14100666Y9250334D01*
X14100666Y9083667D01*
X14067333Y9017000D01*
X14034000Y8983667D01*
G04 #@! TO.C,R14*
X18418666Y14593000D02*
X18085333Y14359667D01*
X18418666Y14193000D02*
X17718666Y14193000D01*
X17718666Y14459667D01*
X17752000Y14526334D01*
X17785333Y14559667D01*
X17852000Y14593000D01*
X17952000Y14593000D01*
X18018666Y14559667D01*
X18052000Y14526334D01*
X18085333Y14459667D01*
X18085333Y14193000D01*
X18418666Y15259667D02*
X18418666Y14859667D01*
X18418666Y15059667D02*
X17718666Y15059667D01*
X17818666Y14993000D01*
X17885333Y14926334D01*
X17918666Y14859667D01*
X17952000Y15859667D02*
X18418666Y15859667D01*
X17685333Y15693000D02*
X18185333Y15526334D01*
X18185333Y15959667D01*
X20492000Y14159667D02*
X20958666Y14159667D01*
X20225333Y13993000D02*
X20725333Y13826334D01*
X20725333Y14259667D01*
X20958666Y14559667D02*
X20958666Y14693000D01*
X20925333Y14759667D01*
X20892000Y14793000D01*
X20792000Y14859667D01*
X20658666Y14893000D01*
X20392000Y14893000D01*
X20325333Y14859667D01*
X20292000Y14826334D01*
X20258666Y14759667D01*
X20258666Y14626334D01*
X20292000Y14559667D01*
X20325333Y14526334D01*
X20392000Y14493000D01*
X20558666Y14493000D01*
X20625333Y14526334D01*
X20658666Y14559667D01*
X20692000Y14626334D01*
X20692000Y14759667D01*
X20658666Y14826334D01*
X20625333Y14859667D01*
X20558666Y14893000D01*
X20958666Y15593000D02*
X20625333Y15359667D01*
X20958666Y15193000D02*
X20258666Y15193000D01*
X20258666Y15459667D01*
X20292000Y15526334D01*
X20325333Y15559667D01*
X20392000Y15593000D01*
X20492000Y15593000D01*
X20558666Y15559667D01*
X20592000Y15526334D01*
X20625333Y15459667D01*
X20625333Y15193000D01*
X20958666Y15926334D02*
X20958666Y16059667D01*
X20925333Y16126334D01*
X20892000Y16159667D01*
X20792000Y16226334D01*
X20658666Y16259667D01*
X20392000Y16259667D01*
X20325333Y16226334D01*
X20292000Y16193000D01*
X20258666Y16126334D01*
X20258666Y15993000D01*
X20292000Y15926334D01*
X20325333Y15893000D01*
X20392000Y15859667D01*
X20558666Y15859667D01*
X20625333Y15893000D01*
X20658666Y15926334D01*
X20692000Y15993000D01*
X20692000Y16126334D01*
X20658666Y16193000D01*
X20625333Y16226334D01*
X20558666Y16259667D01*
G04 #@! TO.C,R15*
X18418666Y17641000D02*
X18085333Y17407667D01*
X18418666Y17241000D02*
X17718666Y17241000D01*
X17718666Y17507667D01*
X17752000Y17574334D01*
X17785333Y17607667D01*
X17852000Y17641000D01*
X17952000Y17641000D01*
X18018666Y17607667D01*
X18052000Y17574334D01*
X18085333Y17507667D01*
X18085333Y17241000D01*
X18418666Y18307667D02*
X18418666Y17907667D01*
X18418666Y18107667D02*
X17718666Y18107667D01*
X17818666Y18041000D01*
X17885333Y17974334D01*
X17918666Y17907667D01*
X17718666Y18941000D02*
X17718666Y18607667D01*
X18052000Y18574334D01*
X18018666Y18607667D01*
X17985333Y18674334D01*
X17985333Y18841000D01*
X18018666Y18907667D01*
X18052000Y18941000D01*
X18118666Y18974334D01*
X18285333Y18974334D01*
X18352000Y18941000D01*
X18385333Y18907667D01*
X18418666Y18841000D01*
X18418666Y18674334D01*
X18385333Y18607667D01*
X18352000Y18574334D01*
X20492000Y17207667D02*
X20958666Y17207667D01*
X20225333Y17041000D02*
X20725333Y16874334D01*
X20725333Y17307667D01*
X20958666Y17607667D02*
X20958666Y17741000D01*
X20925333Y17807667D01*
X20892000Y17841000D01*
X20792000Y17907667D01*
X20658666Y17941000D01*
X20392000Y17941000D01*
X20325333Y17907667D01*
X20292000Y17874334D01*
X20258666Y17807667D01*
X20258666Y17674334D01*
X20292000Y17607667D01*
X20325333Y17574334D01*
X20392000Y17541000D01*
X20558666Y17541000D01*
X20625333Y17574334D01*
X20658666Y17607667D01*
X20692000Y17674334D01*
X20692000Y17807667D01*
X20658666Y17874334D01*
X20625333Y17907667D01*
X20558666Y17941000D01*
X20958666Y18641000D02*
X20625333Y18407667D01*
X20958666Y18241000D02*
X20258666Y18241000D01*
X20258666Y18507667D01*
X20292000Y18574334D01*
X20325333Y18607667D01*
X20392000Y18641000D01*
X20492000Y18641000D01*
X20558666Y18607667D01*
X20592000Y18574334D01*
X20625333Y18507667D01*
X20625333Y18241000D01*
X20958666Y18974334D02*
X20958666Y19107667D01*
X20925333Y19174334D01*
X20892000Y19207667D01*
X20792000Y19274334D01*
X20658666Y19307667D01*
X20392000Y19307667D01*
X20325333Y19274334D01*
X20292000Y19241000D01*
X20258666Y19174334D01*
X20258666Y19041000D01*
X20292000Y18974334D01*
X20325333Y18941000D01*
X20392000Y18907667D01*
X20558666Y18907667D01*
X20625333Y18941000D01*
X20658666Y18974334D01*
X20692000Y19041000D01*
X20692000Y19174334D01*
X20658666Y19241000D01*
X20625333Y19274334D01*
X20558666Y19307667D01*
G04 #@! TO.C,R16*
X17529666Y8812334D02*
X17196333Y8579000D01*
X17529666Y8412334D02*
X16829666Y8412334D01*
X16829666Y8679000D01*
X16863000Y8745667D01*
X16896333Y8779000D01*
X16963000Y8812334D01*
X17063000Y8812334D01*
X17129666Y8779000D01*
X17163000Y8745667D01*
X17196333Y8679000D01*
X17196333Y8412334D01*
X17529666Y9479000D02*
X17529666Y9079000D01*
X17529666Y9279000D02*
X16829666Y9279000D01*
X16929666Y9212334D01*
X16996333Y9145667D01*
X17029666Y9079000D01*
X16829666Y10079000D02*
X16829666Y9945667D01*
X16863000Y9879000D01*
X16896333Y9845667D01*
X16996333Y9779000D01*
X17129666Y9745667D01*
X17396333Y9745667D01*
X17463000Y9779000D01*
X17496333Y9812334D01*
X17529666Y9879000D01*
X17529666Y10012334D01*
X17496333Y10079000D01*
X17463000Y10112334D01*
X17396333Y10145667D01*
X17229666Y10145667D01*
X17163000Y10112334D01*
X17129666Y10079000D01*
X17096333Y10012334D01*
X17096333Y9879000D01*
X17129666Y9812334D01*
X17163000Y9779000D01*
X17229666Y9745667D01*
X17785333Y7712334D02*
X17752000Y7745667D01*
X17718666Y7812334D01*
X17718666Y7979000D01*
X17752000Y8045667D01*
X17785333Y8079000D01*
X17852000Y8112334D01*
X17918666Y8112334D01*
X18018666Y8079000D01*
X18418666Y7679000D01*
X18418666Y8112334D01*
X17718666Y8545667D02*
X17718666Y8612334D01*
X17752000Y8679000D01*
X17785333Y8712334D01*
X17852000Y8745667D01*
X17985333Y8779000D01*
X18152000Y8779000D01*
X18285333Y8745667D01*
X18352000Y8712334D01*
X18385333Y8679000D01*
X18418666Y8612334D01*
X18418666Y8545667D01*
X18385333Y8479000D01*
X18352000Y8445667D01*
X18285333Y8412334D01*
X18152000Y8379000D01*
X17985333Y8379000D01*
X17852000Y8412334D01*
X17785333Y8445667D01*
X17752000Y8479000D01*
X17718666Y8545667D01*
X17718666Y9212334D02*
X17718666Y9279000D01*
X17752000Y9345667D01*
X17785333Y9379000D01*
X17852000Y9412334D01*
X17985333Y9445667D01*
X18152000Y9445667D01*
X18285333Y9412334D01*
X18352000Y9379000D01*
X18385333Y9345667D01*
X18418666Y9279000D01*
X18418666Y9212334D01*
X18385333Y9145667D01*
X18352000Y9112334D01*
X18285333Y9079000D01*
X18152000Y9045667D01*
X17985333Y9045667D01*
X17852000Y9079000D01*
X17785333Y9112334D01*
X17752000Y9145667D01*
X17718666Y9212334D01*
X18418666Y10145667D02*
X18085333Y9912334D01*
X18418666Y9745667D02*
X17718666Y9745667D01*
X17718666Y10012334D01*
X17752000Y10079000D01*
X17785333Y10112334D01*
X17852000Y10145667D01*
X17952000Y10145667D01*
X18018666Y10112334D01*
X18052000Y10079000D01*
X18085333Y10012334D01*
X18085333Y9745667D01*
G04 #@! TO.C,R17*
X19684000Y9265334D02*
X19450666Y9598667D01*
X19284000Y9265334D02*
X19284000Y9965334D01*
X19550666Y9965334D01*
X19617333Y9932000D01*
X19650666Y9898667D01*
X19684000Y9832000D01*
X19684000Y9732000D01*
X19650666Y9665334D01*
X19617333Y9632000D01*
X19550666Y9598667D01*
X19284000Y9598667D01*
X20350666Y9265334D02*
X19950666Y9265334D01*
X20150666Y9265334D02*
X20150666Y9965334D01*
X20084000Y9865334D01*
X20017333Y9798667D01*
X19950666Y9765334D01*
X20584000Y9965334D02*
X21050666Y9965334D01*
X20750666Y9265334D01*
X18884000Y8949334D02*
X19350666Y8949334D01*
X19050666Y8249334D01*
X19950666Y8949334D02*
X19617333Y8949334D01*
X19584000Y8616000D01*
X19617333Y8649334D01*
X19684000Y8682667D01*
X19850666Y8682667D01*
X19917333Y8649334D01*
X19950666Y8616000D01*
X19984000Y8549334D01*
X19984000Y8382667D01*
X19950666Y8316000D01*
X19917333Y8282667D01*
X19850666Y8249334D01*
X19684000Y8249334D01*
X19617333Y8282667D01*
X19584000Y8316000D01*
X20417333Y8949334D02*
X20484000Y8949334D01*
X20550666Y8916000D01*
X20584000Y8882667D01*
X20617333Y8816000D01*
X20650666Y8682667D01*
X20650666Y8516000D01*
X20617333Y8382667D01*
X20584000Y8316000D01*
X20550666Y8282667D01*
X20484000Y8249334D01*
X20417333Y8249334D01*
X20350666Y8282667D01*
X20317333Y8316000D01*
X20284000Y8382667D01*
X20250666Y8516000D01*
X20250666Y8682667D01*
X20284000Y8816000D01*
X20317333Y8882667D01*
X20350666Y8916000D01*
X20417333Y8949334D01*
X21350666Y8249334D02*
X21117333Y8582667D01*
X20950666Y8249334D02*
X20950666Y8949334D01*
X21217333Y8949334D01*
X21284000Y8916000D01*
X21317333Y8882667D01*
X21350666Y8816000D01*
X21350666Y8716000D01*
X21317333Y8649334D01*
X21284000Y8616000D01*
X21217333Y8582667D01*
X20950666Y8582667D01*
G04 #@! TO.C,R18*
X24256000Y11551334D02*
X24022666Y11884667D01*
X23856000Y11551334D02*
X23856000Y12251334D01*
X24122666Y12251334D01*
X24189333Y12218000D01*
X24222666Y12184667D01*
X24256000Y12118000D01*
X24256000Y12018000D01*
X24222666Y11951334D01*
X24189333Y11918000D01*
X24122666Y11884667D01*
X23856000Y11884667D01*
X24922666Y11551334D02*
X24522666Y11551334D01*
X24722666Y11551334D02*
X24722666Y12251334D01*
X24656000Y12151334D01*
X24589333Y12084667D01*
X24522666Y12051334D01*
X25322666Y11951334D02*
X25256000Y11984667D01*
X25222666Y12018000D01*
X25189333Y12084667D01*
X25189333Y12118000D01*
X25222666Y12184667D01*
X25256000Y12218000D01*
X25322666Y12251334D01*
X25456000Y12251334D01*
X25522666Y12218000D01*
X25556000Y12184667D01*
X25589333Y12118000D01*
X25589333Y12084667D01*
X25556000Y12018000D01*
X25522666Y11984667D01*
X25456000Y11951334D01*
X25322666Y11951334D01*
X25256000Y11918000D01*
X25222666Y11884667D01*
X25189333Y11818000D01*
X25189333Y11684667D01*
X25222666Y11618000D01*
X25256000Y11584667D01*
X25322666Y11551334D01*
X25456000Y11551334D01*
X25522666Y11584667D01*
X25556000Y11618000D01*
X25589333Y11684667D01*
X25589333Y11818000D01*
X25556000Y11884667D01*
X25522666Y11918000D01*
X25456000Y11951334D01*
X23822666Y9898667D02*
X23856000Y9932000D01*
X23922666Y9965334D01*
X24089333Y9965334D01*
X24156000Y9932000D01*
X24189333Y9898667D01*
X24222666Y9832000D01*
X24222666Y9765334D01*
X24189333Y9665334D01*
X23789333Y9265334D01*
X24222666Y9265334D01*
X24456000Y9965334D02*
X24922666Y9965334D01*
X24622666Y9265334D01*
X25589333Y9265334D02*
X25356000Y9598667D01*
X25189333Y9265334D02*
X25189333Y9965334D01*
X25456000Y9965334D01*
X25522666Y9932000D01*
X25556000Y9898667D01*
X25589333Y9832000D01*
X25589333Y9732000D01*
X25556000Y9665334D01*
X25522666Y9632000D01*
X25456000Y9598667D01*
X25189333Y9598667D01*
G04 #@! TO.C,R19*
X30098000Y17901334D02*
X29864666Y18234667D01*
X29698000Y17901334D02*
X29698000Y18601334D01*
X29964666Y18601334D01*
X30031333Y18568000D01*
X30064666Y18534667D01*
X30098000Y18468000D01*
X30098000Y18368000D01*
X30064666Y18301334D01*
X30031333Y18268000D01*
X29964666Y18234667D01*
X29698000Y18234667D01*
X30764666Y17901334D02*
X30364666Y17901334D01*
X30564666Y17901334D02*
X30564666Y18601334D01*
X30498000Y18501334D01*
X30431333Y18434667D01*
X30364666Y18401334D01*
X31098000Y17901334D02*
X31231333Y17901334D01*
X31298000Y17934667D01*
X31331333Y17968000D01*
X31398000Y18068000D01*
X31431333Y18201334D01*
X31431333Y18468000D01*
X31398000Y18534667D01*
X31364666Y18568000D01*
X31298000Y18601334D01*
X31164666Y18601334D01*
X31098000Y18568000D01*
X31064666Y18534667D01*
X31031333Y18468000D01*
X31031333Y18301334D01*
X31064666Y18234667D01*
X31098000Y18201334D01*
X31164666Y18168000D01*
X31298000Y18168000D01*
X31364666Y18201334D01*
X31398000Y18234667D01*
X31431333Y18301334D01*
X29664666Y19550667D02*
X29698000Y19584000D01*
X29764666Y19617334D01*
X29931333Y19617334D01*
X29998000Y19584000D01*
X30031333Y19550667D01*
X30064666Y19484000D01*
X30064666Y19417334D01*
X30031333Y19317334D01*
X29631333Y18917334D01*
X30064666Y18917334D01*
X30298000Y19617334D02*
X30764666Y19617334D01*
X30464666Y18917334D01*
X31431333Y18917334D02*
X31198000Y19250667D01*
X31031333Y18917334D02*
X31031333Y19617334D01*
X31298000Y19617334D01*
X31364666Y19584000D01*
X31398000Y19550667D01*
X31431333Y19484000D01*
X31431333Y19384000D01*
X31398000Y19317334D01*
X31364666Y19284000D01*
X31298000Y19250667D01*
X31031333Y19250667D01*
G04 #@! TO.C,R20*
X48959666Y26791334D02*
X48726333Y27124667D01*
X48559666Y26791334D02*
X48559666Y27491334D01*
X48826333Y27491334D01*
X48893000Y27458000D01*
X48926333Y27424667D01*
X48959666Y27358000D01*
X48959666Y27258000D01*
X48926333Y27191334D01*
X48893000Y27158000D01*
X48826333Y27124667D01*
X48559666Y27124667D01*
X49226333Y27424667D02*
X49259666Y27458000D01*
X49326333Y27491334D01*
X49493000Y27491334D01*
X49559666Y27458000D01*
X49593000Y27424667D01*
X49626333Y27358000D01*
X49626333Y27291334D01*
X49593000Y27191334D01*
X49193000Y26791334D01*
X49626333Y26791334D01*
X50059666Y27491334D02*
X50126333Y27491334D01*
X50193000Y27458000D01*
X50226333Y27424667D01*
X50259666Y27358000D01*
X50293000Y27224667D01*
X50293000Y27058000D01*
X50259666Y26924667D01*
X50226333Y26858000D01*
X50193000Y26824667D01*
X50126333Y26791334D01*
X50059666Y26791334D01*
X49993000Y26824667D01*
X49959666Y26858000D01*
X49926333Y26924667D01*
X49893000Y27058000D01*
X49893000Y27224667D01*
X49926333Y27358000D01*
X49959666Y27424667D01*
X49993000Y27458000D01*
X50059666Y27491334D01*
X48493000Y26602334D02*
X48926333Y26602334D01*
X48693000Y26335667D01*
X48793000Y26335667D01*
X48859666Y26302334D01*
X48893000Y26269000D01*
X48926333Y26202334D01*
X48926333Y26035667D01*
X48893000Y25969000D01*
X48859666Y25935667D01*
X48793000Y25902334D01*
X48593000Y25902334D01*
X48526333Y25935667D01*
X48493000Y25969000D01*
X49359666Y26602334D02*
X49426333Y26602334D01*
X49493000Y26569000D01*
X49526333Y26535667D01*
X49559666Y26469000D01*
X49593000Y26335667D01*
X49593000Y26169000D01*
X49559666Y26035667D01*
X49526333Y25969000D01*
X49493000Y25935667D01*
X49426333Y25902334D01*
X49359666Y25902334D01*
X49293000Y25935667D01*
X49259666Y25969000D01*
X49226333Y26035667D01*
X49193000Y26169000D01*
X49193000Y26335667D01*
X49226333Y26469000D01*
X49259666Y26535667D01*
X49293000Y26569000D01*
X49359666Y26602334D01*
X50026333Y26602334D02*
X50093000Y26602334D01*
X50159666Y26569000D01*
X50193000Y26535667D01*
X50226333Y26469000D01*
X50259666Y26335667D01*
X50259666Y26169000D01*
X50226333Y26035667D01*
X50193000Y25969000D01*
X50159666Y25935667D01*
X50093000Y25902334D01*
X50026333Y25902334D01*
X49959666Y25935667D01*
X49926333Y25969000D01*
X49893000Y26035667D01*
X49859666Y26169000D01*
X49859666Y26335667D01*
X49893000Y26469000D01*
X49926333Y26535667D01*
X49959666Y26569000D01*
X50026333Y26602334D01*
X50959666Y25902334D02*
X50726333Y26235667D01*
X50559666Y25902334D02*
X50559666Y26602334D01*
X50826333Y26602334D01*
X50893000Y26569000D01*
X50926333Y26535667D01*
X50959666Y26469000D01*
X50959666Y26369000D01*
X50926333Y26302334D01*
X50893000Y26269000D01*
X50826333Y26235667D01*
X50559666Y26235667D01*
G04 #@! TO.C,R21*
X48959666Y24886334D02*
X48726333Y25219667D01*
X48559666Y24886334D02*
X48559666Y25586334D01*
X48826333Y25586334D01*
X48893000Y25553000D01*
X48926333Y25519667D01*
X48959666Y25453000D01*
X48959666Y25353000D01*
X48926333Y25286334D01*
X48893000Y25253000D01*
X48826333Y25219667D01*
X48559666Y25219667D01*
X49226333Y25519667D02*
X49259666Y25553000D01*
X49326333Y25586334D01*
X49493000Y25586334D01*
X49559666Y25553000D01*
X49593000Y25519667D01*
X49626333Y25453000D01*
X49626333Y25386334D01*
X49593000Y25286334D01*
X49193000Y24886334D01*
X49626333Y24886334D01*
X50293000Y24886334D02*
X49893000Y24886334D01*
X50093000Y24886334D02*
X50093000Y25586334D01*
X50026333Y25486334D01*
X49959666Y25419667D01*
X49893000Y25386334D01*
X48493000Y24697334D02*
X48926333Y24697334D01*
X48693000Y24430667D01*
X48793000Y24430667D01*
X48859666Y24397334D01*
X48893000Y24364000D01*
X48926333Y24297334D01*
X48926333Y24130667D01*
X48893000Y24064000D01*
X48859666Y24030667D01*
X48793000Y23997334D01*
X48593000Y23997334D01*
X48526333Y24030667D01*
X48493000Y24064000D01*
X49359666Y24697334D02*
X49426333Y24697334D01*
X49493000Y24664000D01*
X49526333Y24630667D01*
X49559666Y24564000D01*
X49593000Y24430667D01*
X49593000Y24264000D01*
X49559666Y24130667D01*
X49526333Y24064000D01*
X49493000Y24030667D01*
X49426333Y23997334D01*
X49359666Y23997334D01*
X49293000Y24030667D01*
X49259666Y24064000D01*
X49226333Y24130667D01*
X49193000Y24264000D01*
X49193000Y24430667D01*
X49226333Y24564000D01*
X49259666Y24630667D01*
X49293000Y24664000D01*
X49359666Y24697334D01*
X50026333Y24697334D02*
X50093000Y24697334D01*
X50159666Y24664000D01*
X50193000Y24630667D01*
X50226333Y24564000D01*
X50259666Y24430667D01*
X50259666Y24264000D01*
X50226333Y24130667D01*
X50193000Y24064000D01*
X50159666Y24030667D01*
X50093000Y23997334D01*
X50026333Y23997334D01*
X49959666Y24030667D01*
X49926333Y24064000D01*
X49893000Y24130667D01*
X49859666Y24264000D01*
X49859666Y24430667D01*
X49893000Y24564000D01*
X49926333Y24630667D01*
X49959666Y24664000D01*
X50026333Y24697334D01*
X50959666Y23997334D02*
X50726333Y24330667D01*
X50559666Y23997334D02*
X50559666Y24697334D01*
X50826333Y24697334D01*
X50893000Y24664000D01*
X50926333Y24630667D01*
X50959666Y24564000D01*
X50959666Y24464000D01*
X50926333Y24397334D01*
X50893000Y24364000D01*
X50826333Y24330667D01*
X50559666Y24330667D01*
G04 #@! TO.C,R22*
X48959666Y23108334D02*
X48726333Y23441667D01*
X48559666Y23108334D02*
X48559666Y23808334D01*
X48826333Y23808334D01*
X48893000Y23775000D01*
X48926333Y23741667D01*
X48959666Y23675000D01*
X48959666Y23575000D01*
X48926333Y23508334D01*
X48893000Y23475000D01*
X48826333Y23441667D01*
X48559666Y23441667D01*
X49226333Y23741667D02*
X49259666Y23775000D01*
X49326333Y23808334D01*
X49493000Y23808334D01*
X49559666Y23775000D01*
X49593000Y23741667D01*
X49626333Y23675000D01*
X49626333Y23608334D01*
X49593000Y23508334D01*
X49193000Y23108334D01*
X49626333Y23108334D01*
X49893000Y23741667D02*
X49926333Y23775000D01*
X49993000Y23808334D01*
X50159666Y23808334D01*
X50226333Y23775000D01*
X50259666Y23741667D01*
X50293000Y23675000D01*
X50293000Y23608334D01*
X50259666Y23508334D01*
X49859666Y23108334D01*
X50293000Y23108334D01*
X48493000Y22919334D02*
X48926333Y22919334D01*
X48693000Y22652667D01*
X48793000Y22652667D01*
X48859666Y22619334D01*
X48893000Y22586000D01*
X48926333Y22519334D01*
X48926333Y22352667D01*
X48893000Y22286000D01*
X48859666Y22252667D01*
X48793000Y22219334D01*
X48593000Y22219334D01*
X48526333Y22252667D01*
X48493000Y22286000D01*
X49359666Y22919334D02*
X49426333Y22919334D01*
X49493000Y22886000D01*
X49526333Y22852667D01*
X49559666Y22786000D01*
X49593000Y22652667D01*
X49593000Y22486000D01*
X49559666Y22352667D01*
X49526333Y22286000D01*
X49493000Y22252667D01*
X49426333Y22219334D01*
X49359666Y22219334D01*
X49293000Y22252667D01*
X49259666Y22286000D01*
X49226333Y22352667D01*
X49193000Y22486000D01*
X49193000Y22652667D01*
X49226333Y22786000D01*
X49259666Y22852667D01*
X49293000Y22886000D01*
X49359666Y22919334D01*
X50026333Y22919334D02*
X50093000Y22919334D01*
X50159666Y22886000D01*
X50193000Y22852667D01*
X50226333Y22786000D01*
X50259666Y22652667D01*
X50259666Y22486000D01*
X50226333Y22352667D01*
X50193000Y22286000D01*
X50159666Y22252667D01*
X50093000Y22219334D01*
X50026333Y22219334D01*
X49959666Y22252667D01*
X49926333Y22286000D01*
X49893000Y22352667D01*
X49859666Y22486000D01*
X49859666Y22652667D01*
X49893000Y22786000D01*
X49926333Y22852667D01*
X49959666Y22886000D01*
X50026333Y22919334D01*
X50959666Y22219334D02*
X50726333Y22552667D01*
X50559666Y22219334D02*
X50559666Y22919334D01*
X50826333Y22919334D01*
X50893000Y22886000D01*
X50926333Y22852667D01*
X50959666Y22786000D01*
X50959666Y22686000D01*
X50926333Y22619334D01*
X50893000Y22586000D01*
X50826333Y22552667D01*
X50559666Y22552667D01*
G04 #@! TO.C,R23*
X48959666Y21330334D02*
X48726333Y21663667D01*
X48559666Y21330334D02*
X48559666Y22030334D01*
X48826333Y22030334D01*
X48893000Y21997000D01*
X48926333Y21963667D01*
X48959666Y21897000D01*
X48959666Y21797000D01*
X48926333Y21730334D01*
X48893000Y21697000D01*
X48826333Y21663667D01*
X48559666Y21663667D01*
X49226333Y21963667D02*
X49259666Y21997000D01*
X49326333Y22030334D01*
X49493000Y22030334D01*
X49559666Y21997000D01*
X49593000Y21963667D01*
X49626333Y21897000D01*
X49626333Y21830334D01*
X49593000Y21730334D01*
X49193000Y21330334D01*
X49626333Y21330334D01*
X49859666Y22030334D02*
X50293000Y22030334D01*
X50059666Y21763667D01*
X50159666Y21763667D01*
X50226333Y21730334D01*
X50259666Y21697000D01*
X50293000Y21630334D01*
X50293000Y21463667D01*
X50259666Y21397000D01*
X50226333Y21363667D01*
X50159666Y21330334D01*
X49959666Y21330334D01*
X49893000Y21363667D01*
X49859666Y21397000D01*
X48493000Y21141334D02*
X48926333Y21141334D01*
X48693000Y20874667D01*
X48793000Y20874667D01*
X48859666Y20841334D01*
X48893000Y20808000D01*
X48926333Y20741334D01*
X48926333Y20574667D01*
X48893000Y20508000D01*
X48859666Y20474667D01*
X48793000Y20441334D01*
X48593000Y20441334D01*
X48526333Y20474667D01*
X48493000Y20508000D01*
X49359666Y21141334D02*
X49426333Y21141334D01*
X49493000Y21108000D01*
X49526333Y21074667D01*
X49559666Y21008000D01*
X49593000Y20874667D01*
X49593000Y20708000D01*
X49559666Y20574667D01*
X49526333Y20508000D01*
X49493000Y20474667D01*
X49426333Y20441334D01*
X49359666Y20441334D01*
X49293000Y20474667D01*
X49259666Y20508000D01*
X49226333Y20574667D01*
X49193000Y20708000D01*
X49193000Y20874667D01*
X49226333Y21008000D01*
X49259666Y21074667D01*
X49293000Y21108000D01*
X49359666Y21141334D01*
X50026333Y21141334D02*
X50093000Y21141334D01*
X50159666Y21108000D01*
X50193000Y21074667D01*
X50226333Y21008000D01*
X50259666Y20874667D01*
X50259666Y20708000D01*
X50226333Y20574667D01*
X50193000Y20508000D01*
X50159666Y20474667D01*
X50093000Y20441334D01*
X50026333Y20441334D01*
X49959666Y20474667D01*
X49926333Y20508000D01*
X49893000Y20574667D01*
X49859666Y20708000D01*
X49859666Y20874667D01*
X49893000Y21008000D01*
X49926333Y21074667D01*
X49959666Y21108000D01*
X50026333Y21141334D01*
X50959666Y20441334D02*
X50726333Y20774667D01*
X50559666Y20441334D02*
X50559666Y21141334D01*
X50826333Y21141334D01*
X50893000Y21108000D01*
X50926333Y21074667D01*
X50959666Y21008000D01*
X50959666Y20908000D01*
X50926333Y20841334D01*
X50893000Y20808000D01*
X50826333Y20774667D01*
X50559666Y20774667D01*
G04 #@! TO.C,R24*
X48959666Y19552334D02*
X48726333Y19885667D01*
X48559666Y19552334D02*
X48559666Y20252334D01*
X48826333Y20252334D01*
X48893000Y20219000D01*
X48926333Y20185667D01*
X48959666Y20119000D01*
X48959666Y20019000D01*
X48926333Y19952334D01*
X48893000Y19919000D01*
X48826333Y19885667D01*
X48559666Y19885667D01*
X49226333Y20185667D02*
X49259666Y20219000D01*
X49326333Y20252334D01*
X49493000Y20252334D01*
X49559666Y20219000D01*
X49593000Y20185667D01*
X49626333Y20119000D01*
X49626333Y20052334D01*
X49593000Y19952334D01*
X49193000Y19552334D01*
X49626333Y19552334D01*
X50226333Y20019000D02*
X50226333Y19552334D01*
X50059666Y20285667D02*
X49893000Y19785667D01*
X50326333Y19785667D01*
X48493000Y19363334D02*
X48926333Y19363334D01*
X48693000Y19096667D01*
X48793000Y19096667D01*
X48859666Y19063334D01*
X48893000Y19030000D01*
X48926333Y18963334D01*
X48926333Y18796667D01*
X48893000Y18730000D01*
X48859666Y18696667D01*
X48793000Y18663334D01*
X48593000Y18663334D01*
X48526333Y18696667D01*
X48493000Y18730000D01*
X49359666Y19363334D02*
X49426333Y19363334D01*
X49493000Y19330000D01*
X49526333Y19296667D01*
X49559666Y19230000D01*
X49593000Y19096667D01*
X49593000Y18930000D01*
X49559666Y18796667D01*
X49526333Y18730000D01*
X49493000Y18696667D01*
X49426333Y18663334D01*
X49359666Y18663334D01*
X49293000Y18696667D01*
X49259666Y18730000D01*
X49226333Y18796667D01*
X49193000Y18930000D01*
X49193000Y19096667D01*
X49226333Y19230000D01*
X49259666Y19296667D01*
X49293000Y19330000D01*
X49359666Y19363334D01*
X50026333Y19363334D02*
X50093000Y19363334D01*
X50159666Y19330000D01*
X50193000Y19296667D01*
X50226333Y19230000D01*
X50259666Y19096667D01*
X50259666Y18930000D01*
X50226333Y18796667D01*
X50193000Y18730000D01*
X50159666Y18696667D01*
X50093000Y18663334D01*
X50026333Y18663334D01*
X49959666Y18696667D01*
X49926333Y18730000D01*
X49893000Y18796667D01*
X49859666Y18930000D01*
X49859666Y19096667D01*
X49893000Y19230000D01*
X49926333Y19296667D01*
X49959666Y19330000D01*
X50026333Y19363334D01*
X50959666Y18663334D02*
X50726333Y18996667D01*
X50559666Y18663334D02*
X50559666Y19363334D01*
X50826333Y19363334D01*
X50893000Y19330000D01*
X50926333Y19296667D01*
X50959666Y19230000D01*
X50959666Y19130000D01*
X50926333Y19063334D01*
X50893000Y19030000D01*
X50826333Y18996667D01*
X50559666Y18996667D01*
G04 #@! TO.C,R25*
X48959666Y17647334D02*
X48726333Y17980667D01*
X48559666Y17647334D02*
X48559666Y18347334D01*
X48826333Y18347334D01*
X48893000Y18314000D01*
X48926333Y18280667D01*
X48959666Y18214000D01*
X48959666Y18114000D01*
X48926333Y18047334D01*
X48893000Y18014000D01*
X48826333Y17980667D01*
X48559666Y17980667D01*
X49226333Y18280667D02*
X49259666Y18314000D01*
X49326333Y18347334D01*
X49493000Y18347334D01*
X49559666Y18314000D01*
X49593000Y18280667D01*
X49626333Y18214000D01*
X49626333Y18147334D01*
X49593000Y18047334D01*
X49193000Y17647334D01*
X49626333Y17647334D01*
X50259666Y18347334D02*
X49926333Y18347334D01*
X49893000Y18014000D01*
X49926333Y18047334D01*
X49993000Y18080667D01*
X50159666Y18080667D01*
X50226333Y18047334D01*
X50259666Y18014000D01*
X50293000Y17947334D01*
X50293000Y17780667D01*
X50259666Y17714000D01*
X50226333Y17680667D01*
X50159666Y17647334D01*
X49993000Y17647334D01*
X49926333Y17680667D01*
X49893000Y17714000D01*
X48493000Y17458334D02*
X48926333Y17458334D01*
X48693000Y17191667D01*
X48793000Y17191667D01*
X48859666Y17158334D01*
X48893000Y17125000D01*
X48926333Y17058334D01*
X48926333Y16891667D01*
X48893000Y16825000D01*
X48859666Y16791667D01*
X48793000Y16758334D01*
X48593000Y16758334D01*
X48526333Y16791667D01*
X48493000Y16825000D01*
X49359666Y17458334D02*
X49426333Y17458334D01*
X49493000Y17425000D01*
X49526333Y17391667D01*
X49559666Y17325000D01*
X49593000Y17191667D01*
X49593000Y17025000D01*
X49559666Y16891667D01*
X49526333Y16825000D01*
X49493000Y16791667D01*
X49426333Y16758334D01*
X49359666Y16758334D01*
X49293000Y16791667D01*
X49259666Y16825000D01*
X49226333Y16891667D01*
X49193000Y17025000D01*
X49193000Y17191667D01*
X49226333Y17325000D01*
X49259666Y17391667D01*
X49293000Y17425000D01*
X49359666Y17458334D01*
X50026333Y17458334D02*
X50093000Y17458334D01*
X50159666Y17425000D01*
X50193000Y17391667D01*
X50226333Y17325000D01*
X50259666Y17191667D01*
X50259666Y17025000D01*
X50226333Y16891667D01*
X50193000Y16825000D01*
X50159666Y16791667D01*
X50093000Y16758334D01*
X50026333Y16758334D01*
X49959666Y16791667D01*
X49926333Y16825000D01*
X49893000Y16891667D01*
X49859666Y17025000D01*
X49859666Y17191667D01*
X49893000Y17325000D01*
X49926333Y17391667D01*
X49959666Y17425000D01*
X50026333Y17458334D01*
X50959666Y16758334D02*
X50726333Y17091667D01*
X50559666Y16758334D02*
X50559666Y17458334D01*
X50826333Y17458334D01*
X50893000Y17425000D01*
X50926333Y17391667D01*
X50959666Y17325000D01*
X50959666Y17225000D01*
X50926333Y17158334D01*
X50893000Y17125000D01*
X50826333Y17091667D01*
X50559666Y17091667D01*
G04 #@! TO.C,U1*
X18333666Y35873334D02*
X18333666Y35306667D01*
X18367000Y35240000D01*
X18400333Y35206667D01*
X18467000Y35173334D01*
X18600333Y35173334D01*
X18667000Y35206667D01*
X18700333Y35240000D01*
X18733666Y35306667D01*
X18733666Y35873334D01*
X19433666Y35173334D02*
X19033666Y35173334D01*
X19233666Y35173334D02*
X19233666Y35873334D01*
X19167000Y35773334D01*
X19100333Y35706667D01*
X19033666Y35673334D01*
X12962333Y35173334D02*
X12962333Y35873334D01*
X13195666Y35373334D01*
X13429000Y35873334D01*
X13429000Y35173334D01*
X13729000Y35373334D02*
X14062333Y35373334D01*
X13662333Y35173334D02*
X13895666Y35873334D01*
X14129000Y35173334D01*
X14295666Y35873334D02*
X14762333Y35173334D01*
X14762333Y35873334D02*
X14295666Y35173334D01*
X15395666Y35173334D02*
X14995666Y35173334D01*
X15195666Y35173334D02*
X15195666Y35873334D01*
X15129000Y35773334D01*
X15062333Y35706667D01*
X14995666Y35673334D01*
X15629000Y35873334D02*
X16095666Y35873334D01*
X15795666Y35173334D01*
X16295666Y35873334D02*
X16729000Y35873334D01*
X16495666Y35606667D01*
X16595666Y35606667D01*
X16662333Y35573334D01*
X16695666Y35540000D01*
X16729000Y35473334D01*
X16729000Y35306667D01*
X16695666Y35240000D01*
X16662333Y35206667D01*
X16595666Y35173334D01*
X16395666Y35173334D01*
X16329000Y35206667D01*
X16295666Y35240000D01*
X17362333Y35873334D02*
X17029000Y35873334D01*
X16995666Y35540000D01*
X17029000Y35573334D01*
X17095666Y35606667D01*
X17262333Y35606667D01*
X17329000Y35573334D01*
X17362333Y35540000D01*
X17395666Y35473334D01*
X17395666Y35306667D01*
X17362333Y35240000D01*
X17329000Y35206667D01*
X17262333Y35173334D01*
X17095666Y35173334D01*
X17029000Y35206667D01*
X16995666Y35240000D01*
G04 #@! TO.C,U2*
X25950666Y39429334D02*
X25950666Y38862667D01*
X25984000Y38796000D01*
X26017333Y38762667D01*
X26084000Y38729334D01*
X26217333Y38729334D01*
X26284000Y38762667D01*
X26317333Y38796000D01*
X26350666Y38862667D01*
X26350666Y39429334D01*
X26650666Y39362667D02*
X26684000Y39396000D01*
X26750666Y39429334D01*
X26917333Y39429334D01*
X26984000Y39396000D01*
X27017333Y39362667D01*
X27050666Y39296000D01*
X27050666Y39229334D01*
X27017333Y39129334D01*
X26617333Y38729334D01*
X27050666Y38729334D01*
X22517333Y30347334D02*
X22517333Y31047334D01*
X22750666Y30547334D01*
X22984000Y31047334D01*
X22984000Y30347334D01*
X23717333Y30414000D02*
X23684000Y30380667D01*
X23584000Y30347334D01*
X23517333Y30347334D01*
X23417333Y30380667D01*
X23350666Y30447334D01*
X23317333Y30514000D01*
X23284000Y30647334D01*
X23284000Y30747334D01*
X23317333Y30880667D01*
X23350666Y30947334D01*
X23417333Y31014000D01*
X23517333Y31047334D01*
X23584000Y31047334D01*
X23684000Y31014000D01*
X23717333Y30980667D01*
X24017333Y30347334D02*
X24017333Y31047334D01*
X24284000Y31047334D01*
X24350666Y31014000D01*
X24384000Y30980667D01*
X24417333Y30914000D01*
X24417333Y30814000D01*
X24384000Y30747334D01*
X24350666Y30714000D01*
X24284000Y30680667D01*
X24017333Y30680667D01*
X25084000Y30347334D02*
X24684000Y30347334D01*
X24884000Y30347334D02*
X24884000Y31047334D01*
X24817333Y30947334D01*
X24750666Y30880667D01*
X24684000Y30847334D01*
X25484000Y30747334D02*
X25417333Y30780667D01*
X25384000Y30814000D01*
X25350666Y30880667D01*
X25350666Y30914000D01*
X25384000Y30980667D01*
X25417333Y31014000D01*
X25484000Y31047334D01*
X25617333Y31047334D01*
X25684000Y31014000D01*
X25717333Y30980667D01*
X25750666Y30914000D01*
X25750666Y30880667D01*
X25717333Y30814000D01*
X25684000Y30780667D01*
X25617333Y30747334D01*
X25484000Y30747334D01*
X25417333Y30714000D01*
X25384000Y30680667D01*
X25350666Y30614000D01*
X25350666Y30480667D01*
X25384000Y30414000D01*
X25417333Y30380667D01*
X25484000Y30347334D01*
X25617333Y30347334D01*
X25684000Y30380667D01*
X25717333Y30414000D01*
X25750666Y30480667D01*
X25750666Y30614000D01*
X25717333Y30680667D01*
X25684000Y30714000D01*
X25617333Y30747334D01*
X26017333Y30980667D02*
X26050666Y31014000D01*
X26117333Y31047334D01*
X26284000Y31047334D01*
X26350666Y31014000D01*
X26384000Y30980667D01*
X26417333Y30914000D01*
X26417333Y30847334D01*
X26384000Y30747334D01*
X25984000Y30347334D01*
X26417333Y30347334D01*
X27017333Y30814000D02*
X27017333Y30347334D01*
X26850666Y31080667D02*
X26684000Y30580667D01*
X27117333Y30580667D01*
X27350666Y30380667D02*
X27450666Y30347334D01*
X27617333Y30347334D01*
X27684000Y30380667D01*
X27717333Y30414000D01*
X27750666Y30480667D01*
X27750666Y30547334D01*
X27717333Y30614000D01*
X27684000Y30647334D01*
X27617333Y30680667D01*
X27484000Y30714000D01*
X27417333Y30747334D01*
X27384000Y30780667D01*
X27350666Y30847334D01*
X27350666Y30914000D01*
X27384000Y30980667D01*
X27417333Y31014000D01*
X27484000Y31047334D01*
X27650666Y31047334D01*
X27750666Y31014000D01*
X27950666Y31047334D02*
X28350666Y31047334D01*
X28150666Y30347334D02*
X28150666Y31047334D01*
X28584000Y30614000D02*
X29117333Y30614000D01*
X29384000Y31047334D02*
X29817333Y31047334D01*
X29584000Y30780667D01*
X29684000Y30780667D01*
X29750666Y30747334D01*
X29784000Y30714000D01*
X29817333Y30647334D01*
X29817333Y30480667D01*
X29784000Y30414000D01*
X29750666Y30380667D01*
X29684000Y30347334D01*
X29484000Y30347334D01*
X29417333Y30380667D01*
X29384000Y30414000D01*
X30050666Y31047334D02*
X30484000Y31047334D01*
X30250666Y30780667D01*
X30350666Y30780667D01*
X30417333Y30747334D01*
X30450666Y30714000D01*
X30484000Y30647334D01*
X30484000Y30480667D01*
X30450666Y30414000D01*
X30417333Y30380667D01*
X30350666Y30347334D01*
X30150666Y30347334D01*
X30084000Y30380667D01*
X30050666Y30414000D01*
G04 #@! TO.C,U3*
X44749666Y48319334D02*
X44749666Y47752667D01*
X44783000Y47686000D01*
X44816333Y47652667D01*
X44883000Y47619334D01*
X45016333Y47619334D01*
X45083000Y47652667D01*
X45116333Y47686000D01*
X45149666Y47752667D01*
X45149666Y48319334D01*
X45416333Y48319334D02*
X45849666Y48319334D01*
X45616333Y48052667D01*
X45716333Y48052667D01*
X45783000Y48019334D01*
X45816333Y47986000D01*
X45849666Y47919334D01*
X45849666Y47752667D01*
X45816333Y47686000D01*
X45783000Y47652667D01*
X45716333Y47619334D01*
X45516333Y47619334D01*
X45449666Y47652667D01*
X45416333Y47686000D01*
X44749666Y45333334D02*
X44749666Y46033334D01*
X44983000Y45533334D01*
X45216333Y46033334D01*
X45216333Y45333334D01*
X45949666Y45400000D02*
X45916333Y45366667D01*
X45816333Y45333334D01*
X45749666Y45333334D01*
X45649666Y45366667D01*
X45583000Y45433334D01*
X45549666Y45500000D01*
X45516333Y45633334D01*
X45516333Y45733334D01*
X45549666Y45866667D01*
X45583000Y45933334D01*
X45649666Y46000000D01*
X45749666Y46033334D01*
X45816333Y46033334D01*
X45916333Y46000000D01*
X45949666Y45966667D01*
X46249666Y45333334D02*
X46249666Y46033334D01*
X46516333Y46033334D01*
X46583000Y46000000D01*
X46616333Y45966667D01*
X46649666Y45900000D01*
X46649666Y45800000D01*
X46616333Y45733334D01*
X46583000Y45700000D01*
X46516333Y45666667D01*
X46249666Y45666667D01*
X47316333Y45333334D02*
X46916333Y45333334D01*
X47116333Y45333334D02*
X47116333Y46033334D01*
X47049666Y45933334D01*
X46983000Y45866667D01*
X46916333Y45833334D01*
X47716333Y45733334D02*
X47649666Y45766667D01*
X47616333Y45800000D01*
X47583000Y45866667D01*
X47583000Y45900000D01*
X47616333Y45966667D01*
X47649666Y46000000D01*
X47716333Y46033334D01*
X47849666Y46033334D01*
X47916333Y46000000D01*
X47949666Y45966667D01*
X47983000Y45900000D01*
X47983000Y45866667D01*
X47949666Y45800000D01*
X47916333Y45766667D01*
X47849666Y45733334D01*
X47716333Y45733334D01*
X47649666Y45700000D01*
X47616333Y45666667D01*
X47583000Y45600000D01*
X47583000Y45466667D01*
X47616333Y45400000D01*
X47649666Y45366667D01*
X47716333Y45333334D01*
X47849666Y45333334D01*
X47916333Y45366667D01*
X47949666Y45400000D01*
X47983000Y45466667D01*
X47983000Y45600000D01*
X47949666Y45666667D01*
X47916333Y45700000D01*
X47849666Y45733334D01*
X48249666Y45966667D02*
X48283000Y46000000D01*
X48349666Y46033334D01*
X48516333Y46033334D01*
X48583000Y46000000D01*
X48616333Y45966667D01*
X48649666Y45900000D01*
X48649666Y45833334D01*
X48616333Y45733334D01*
X48216333Y45333334D01*
X48649666Y45333334D01*
X49249666Y45800000D02*
X49249666Y45333334D01*
X49083000Y46066667D02*
X48916333Y45566667D01*
X49349666Y45566667D01*
X49583000Y45366667D02*
X49683000Y45333334D01*
X49849666Y45333334D01*
X49916333Y45366667D01*
X49949666Y45400000D01*
X49983000Y45466667D01*
X49983000Y45533334D01*
X49949666Y45600000D01*
X49916333Y45633334D01*
X49849666Y45666667D01*
X49716333Y45700000D01*
X49649666Y45733334D01*
X49616333Y45766667D01*
X49583000Y45833334D01*
X49583000Y45900000D01*
X49616333Y45966667D01*
X49649666Y46000000D01*
X49716333Y46033334D01*
X49883000Y46033334D01*
X49983000Y46000000D01*
X50183000Y46033334D02*
X50583000Y46033334D01*
X50383000Y45333334D02*
X50383000Y46033334D01*
X50816333Y45600000D02*
X51349666Y45600000D01*
X51649666Y45966667D02*
X51683000Y46000000D01*
X51749666Y46033334D01*
X51916333Y46033334D01*
X51983000Y46000000D01*
X52016333Y45966667D01*
X52049666Y45900000D01*
X52049666Y45833334D01*
X52016333Y45733334D01*
X51616333Y45333334D01*
X52049666Y45333334D01*
X52683000Y46033334D02*
X52349666Y46033334D01*
X52316333Y45700000D01*
X52349666Y45733334D01*
X52416333Y45766667D01*
X52583000Y45766667D01*
X52649666Y45733334D01*
X52683000Y45700000D01*
X52716333Y45633334D01*
X52716333Y45466667D01*
X52683000Y45400000D01*
X52649666Y45366667D01*
X52583000Y45333334D01*
X52416333Y45333334D01*
X52349666Y45366667D01*
X52316333Y45400000D01*
G04 #@! TO.C,U4*
X12130666Y12601667D02*
X12697333Y12601667D01*
X12764000Y12635000D01*
X12797333Y12668334D01*
X12830666Y12735000D01*
X12830666Y12868334D01*
X12797333Y12935000D01*
X12764000Y12968334D01*
X12697333Y13001667D01*
X12130666Y13001667D01*
X12364000Y13635000D02*
X12830666Y13635000D01*
X12097333Y13468334D02*
X12597333Y13301667D01*
X12597333Y13735000D01*
X11814666Y6801667D02*
X11114666Y6801667D01*
X11614666Y7035000D01*
X11114666Y7268334D01*
X11814666Y7268334D01*
X11748000Y8001667D02*
X11781333Y7968334D01*
X11814666Y7868334D01*
X11814666Y7801667D01*
X11781333Y7701667D01*
X11714666Y7635000D01*
X11648000Y7601667D01*
X11514666Y7568334D01*
X11414666Y7568334D01*
X11281333Y7601667D01*
X11214666Y7635000D01*
X11148000Y7701667D01*
X11114666Y7801667D01*
X11114666Y7868334D01*
X11148000Y7968334D01*
X11181333Y8001667D01*
X11814666Y8668334D02*
X11814666Y8268334D01*
X11814666Y8468334D02*
X11114666Y8468334D01*
X11214666Y8401667D01*
X11281333Y8335000D01*
X11314666Y8268334D01*
X11114666Y9101667D02*
X11114666Y9168334D01*
X11148000Y9235000D01*
X11181333Y9268334D01*
X11248000Y9301667D01*
X11381333Y9335000D01*
X11548000Y9335000D01*
X11681333Y9301667D01*
X11748000Y9268334D01*
X11781333Y9235000D01*
X11814666Y9168334D01*
X11814666Y9101667D01*
X11781333Y9035000D01*
X11748000Y9001667D01*
X11681333Y8968334D01*
X11548000Y8935000D01*
X11381333Y8935000D01*
X11248000Y8968334D01*
X11181333Y9001667D01*
X11148000Y9035000D01*
X11114666Y9101667D01*
X11114666Y9768334D02*
X11114666Y9835000D01*
X11148000Y9901667D01*
X11181333Y9935000D01*
X11248000Y9968334D01*
X11381333Y10001667D01*
X11548000Y10001667D01*
X11681333Y9968334D01*
X11748000Y9935000D01*
X11781333Y9901667D01*
X11814666Y9835000D01*
X11814666Y9768334D01*
X11781333Y9701667D01*
X11748000Y9668334D01*
X11681333Y9635000D01*
X11548000Y9601667D01*
X11381333Y9601667D01*
X11248000Y9635000D01*
X11181333Y9668334D01*
X11148000Y9701667D01*
X11114666Y9768334D01*
X11814666Y10635000D02*
X11814666Y10301667D01*
X11114666Y10301667D01*
X11114666Y10768334D02*
X11814666Y11001667D01*
X11114666Y11235000D01*
X11448000Y11468334D02*
X11448000Y11701667D01*
X11814666Y11801667D02*
X11814666Y11468334D01*
X11114666Y11468334D01*
X11114666Y11801667D01*
X11814666Y12435000D02*
X11814666Y12101667D01*
X11114666Y12101667D01*
X11114666Y12601667D02*
X11114666Y13035000D01*
X11381333Y12801667D01*
X11381333Y12901667D01*
X11414666Y12968334D01*
X11448000Y13001667D01*
X11514666Y13035000D01*
X11681333Y13035000D01*
X11748000Y13001667D01*
X11781333Y12968334D01*
X11814666Y12901667D01*
X11814666Y12701667D01*
X11781333Y12635000D01*
X11748000Y12601667D01*
X11814666Y13701667D02*
X11814666Y13301667D01*
X11814666Y13501667D02*
X11114666Y13501667D01*
X11214666Y13435000D01*
X11281333Y13368334D01*
X11314666Y13301667D01*
G04 #@! TO.C,U5*
X21886666Y20125334D02*
X21886666Y19558667D01*
X21920000Y19492000D01*
X21953333Y19458667D01*
X22020000Y19425334D01*
X22153333Y19425334D01*
X22220000Y19458667D01*
X22253333Y19492000D01*
X22286666Y19558667D01*
X22286666Y20125334D01*
X22953333Y20125334D02*
X22620000Y20125334D01*
X22586666Y19792000D01*
X22620000Y19825334D01*
X22686666Y19858667D01*
X22853333Y19858667D01*
X22920000Y19825334D01*
X22953333Y19792000D01*
X22986666Y19725334D01*
X22986666Y19558667D01*
X22953333Y19492000D01*
X22920000Y19458667D01*
X22853333Y19425334D01*
X22686666Y19425334D01*
X22620000Y19458667D01*
X22586666Y19492000D01*
X21897333Y13108667D02*
X21997333Y13075334D01*
X22164000Y13075334D01*
X22230666Y13108667D01*
X22264000Y13142000D01*
X22297333Y13208667D01*
X22297333Y13275334D01*
X22264000Y13342000D01*
X22230666Y13375334D01*
X22164000Y13408667D01*
X22030666Y13442000D01*
X21964000Y13475334D01*
X21930666Y13508667D01*
X21897333Y13575334D01*
X21897333Y13642000D01*
X21930666Y13708667D01*
X21964000Y13742000D01*
X22030666Y13775334D01*
X22197333Y13775334D01*
X22297333Y13742000D01*
X22730666Y13408667D02*
X22730666Y13075334D01*
X22497333Y13775334D02*
X22730666Y13408667D01*
X22964000Y13775334D01*
X23564000Y13075334D02*
X23164000Y13075334D01*
X23364000Y13075334D02*
X23364000Y13775334D01*
X23297333Y13675334D01*
X23230666Y13608667D01*
X23164000Y13575334D01*
X23997333Y13775334D02*
X24064000Y13775334D01*
X24130666Y13742000D01*
X24164000Y13708667D01*
X24197333Y13642000D01*
X24230666Y13508667D01*
X24230666Y13342000D01*
X24197333Y13208667D01*
X24164000Y13142000D01*
X24130666Y13108667D01*
X24064000Y13075334D01*
X23997333Y13075334D01*
X23930666Y13108667D01*
X23897333Y13142000D01*
X23864000Y13208667D01*
X23830666Y13342000D01*
X23830666Y13508667D01*
X23864000Y13642000D01*
X23897333Y13708667D01*
X23930666Y13742000D01*
X23997333Y13775334D01*
X24664000Y13775334D02*
X24730666Y13775334D01*
X24797333Y13742000D01*
X24830666Y13708667D01*
X24864000Y13642000D01*
X24897333Y13508667D01*
X24897333Y13342000D01*
X24864000Y13208667D01*
X24830666Y13142000D01*
X24797333Y13108667D01*
X24730666Y13075334D01*
X24664000Y13075334D01*
X24597333Y13108667D01*
X24564000Y13142000D01*
X24530666Y13208667D01*
X24497333Y13342000D01*
X24497333Y13508667D01*
X24530666Y13642000D01*
X24564000Y13708667D01*
X24597333Y13742000D01*
X24664000Y13775334D01*
X25197333Y13442000D02*
X25430666Y13442000D01*
X25530666Y13075334D02*
X25197333Y13075334D01*
X25197333Y13775334D01*
X25530666Y13775334D01*
X26164000Y13075334D02*
X25830666Y13075334D01*
X25830666Y13775334D01*
X26297333Y13775334D02*
X26697333Y13775334D01*
X26497333Y13075334D02*
X26497333Y13775334D01*
X26897333Y13708667D02*
X26930666Y13742000D01*
X26997333Y13775334D01*
X27164000Y13775334D01*
X27230666Y13742000D01*
X27264000Y13708667D01*
X27297333Y13642000D01*
X27297333Y13575334D01*
X27264000Y13475334D01*
X26864000Y13075334D01*
X27297333Y13075334D01*
X27964000Y13075334D02*
X27564000Y13075334D01*
X27764000Y13075334D02*
X27764000Y13775334D01*
X27697333Y13675334D01*
X27630666Y13608667D01*
X27564000Y13575334D01*
X28597333Y13075334D02*
X28264000Y13075334D01*
X28264000Y13775334D01*
G04 #@! TO.C,U8*
X39917666Y26983334D02*
X39917666Y26416667D01*
X39951000Y26350000D01*
X39984333Y26316667D01*
X40051000Y26283334D01*
X40184333Y26283334D01*
X40251000Y26316667D01*
X40284333Y26350000D01*
X40317666Y26416667D01*
X40317666Y26983334D01*
X40751000Y26683334D02*
X40684333Y26716667D01*
X40651000Y26750000D01*
X40617666Y26816667D01*
X40617666Y26850000D01*
X40651000Y26916667D01*
X40684333Y26950000D01*
X40751000Y26983334D01*
X40884333Y26983334D01*
X40951000Y26950000D01*
X40984333Y26916667D01*
X41017666Y26850000D01*
X41017666Y26816667D01*
X40984333Y26750000D01*
X40951000Y26716667D01*
X40884333Y26683334D01*
X40751000Y26683334D01*
X40684333Y26650000D01*
X40651000Y26616667D01*
X40617666Y26550000D01*
X40617666Y26416667D01*
X40651000Y26350000D01*
X40684333Y26316667D01*
X40751000Y26283334D01*
X40884333Y26283334D01*
X40951000Y26316667D01*
X40984333Y26350000D01*
X41017666Y26416667D01*
X41017666Y26550000D01*
X40984333Y26616667D01*
X40951000Y26650000D01*
X40884333Y26683334D01*
X36551000Y24705334D02*
X36884333Y24705334D01*
X36484333Y24505334D02*
X36717666Y25205334D01*
X36951000Y24505334D01*
X37184333Y25205334D02*
X37184333Y24638667D01*
X37217666Y24572000D01*
X37251000Y24538667D01*
X37317666Y24505334D01*
X37451000Y24505334D01*
X37517666Y24538667D01*
X37551000Y24572000D01*
X37584333Y24638667D01*
X37584333Y25205334D01*
X38317666Y24572000D02*
X38284333Y24538667D01*
X38184333Y24505334D01*
X38117666Y24505334D01*
X38017666Y24538667D01*
X37951000Y24605334D01*
X37917666Y24672000D01*
X37884333Y24805334D01*
X37884333Y24905334D01*
X37917666Y25038667D01*
X37951000Y25105334D01*
X38017666Y25172000D01*
X38117666Y25205334D01*
X38184333Y25205334D01*
X38284333Y25172000D01*
X38317666Y25138667D01*
X38584333Y25138667D02*
X38617666Y25172000D01*
X38684333Y25205334D01*
X38851000Y25205334D01*
X38917666Y25172000D01*
X38951000Y25138667D01*
X38984333Y25072000D01*
X38984333Y25005334D01*
X38951000Y24905334D01*
X38551000Y24505334D01*
X38984333Y24505334D01*
X39651000Y25172000D02*
X39584333Y25205334D01*
X39484333Y25205334D01*
X39384333Y25172000D01*
X39317666Y25105334D01*
X39284333Y25038667D01*
X39251000Y24905334D01*
X39251000Y24805334D01*
X39284333Y24672000D01*
X39317666Y24605334D01*
X39384333Y24538667D01*
X39484333Y24505334D01*
X39551000Y24505334D01*
X39651000Y24538667D01*
X39684333Y24572000D01*
X39684333Y24805334D01*
X39551000Y24805334D01*
X40117666Y25205334D02*
X40184333Y25205334D01*
X40251000Y25172000D01*
X40284333Y25138667D01*
X40317666Y25072000D01*
X40351000Y24938667D01*
X40351000Y24772000D01*
X40317666Y24638667D01*
X40284333Y24572000D01*
X40251000Y24538667D01*
X40184333Y24505334D01*
X40117666Y24505334D01*
X40051000Y24538667D01*
X40017666Y24572000D01*
X39984333Y24638667D01*
X39951000Y24772000D01*
X39951000Y24938667D01*
X39984333Y25072000D01*
X40017666Y25138667D01*
X40051000Y25172000D01*
X40117666Y25205334D01*
X40951000Y24972000D02*
X40951000Y24505334D01*
X40784333Y25238667D02*
X40617666Y24738667D01*
X41051000Y24738667D01*
G04 #@! TO.C,U9*
X39917666Y23427334D02*
X39917666Y22860667D01*
X39951000Y22794000D01*
X39984333Y22760667D01*
X40051000Y22727334D01*
X40184333Y22727334D01*
X40251000Y22760667D01*
X40284333Y22794000D01*
X40317666Y22860667D01*
X40317666Y23427334D01*
X40684333Y22727334D02*
X40817666Y22727334D01*
X40884333Y22760667D01*
X40917666Y22794000D01*
X40984333Y22894000D01*
X41017666Y23027334D01*
X41017666Y23294000D01*
X40984333Y23360667D01*
X40951000Y23394000D01*
X40884333Y23427334D01*
X40751000Y23427334D01*
X40684333Y23394000D01*
X40651000Y23360667D01*
X40617666Y23294000D01*
X40617666Y23127334D01*
X40651000Y23060667D01*
X40684333Y23027334D01*
X40751000Y22994000D01*
X40884333Y22994000D01*
X40951000Y23027334D01*
X40984333Y23060667D01*
X41017666Y23127334D01*
X36551000Y21149334D02*
X36884333Y21149334D01*
X36484333Y20949334D02*
X36717666Y21649334D01*
X36951000Y20949334D01*
X37184333Y21649334D02*
X37184333Y21082667D01*
X37217666Y21016000D01*
X37251000Y20982667D01*
X37317666Y20949334D01*
X37451000Y20949334D01*
X37517666Y20982667D01*
X37551000Y21016000D01*
X37584333Y21082667D01*
X37584333Y21649334D01*
X38317666Y21016000D02*
X38284333Y20982667D01*
X38184333Y20949334D01*
X38117666Y20949334D01*
X38017666Y20982667D01*
X37951000Y21049334D01*
X37917666Y21116000D01*
X37884333Y21249334D01*
X37884333Y21349334D01*
X37917666Y21482667D01*
X37951000Y21549334D01*
X38017666Y21616000D01*
X38117666Y21649334D01*
X38184333Y21649334D01*
X38284333Y21616000D01*
X38317666Y21582667D01*
X38584333Y21582667D02*
X38617666Y21616000D01*
X38684333Y21649334D01*
X38851000Y21649334D01*
X38917666Y21616000D01*
X38951000Y21582667D01*
X38984333Y21516000D01*
X38984333Y21449334D01*
X38951000Y21349334D01*
X38551000Y20949334D01*
X38984333Y20949334D01*
X39651000Y21616000D02*
X39584333Y21649334D01*
X39484333Y21649334D01*
X39384333Y21616000D01*
X39317666Y21549334D01*
X39284333Y21482667D01*
X39251000Y21349334D01*
X39251000Y21249334D01*
X39284333Y21116000D01*
X39317666Y21049334D01*
X39384333Y20982667D01*
X39484333Y20949334D01*
X39551000Y20949334D01*
X39651000Y20982667D01*
X39684333Y21016000D01*
X39684333Y21249334D01*
X39551000Y21249334D01*
X40117666Y21649334D02*
X40184333Y21649334D01*
X40251000Y21616000D01*
X40284333Y21582667D01*
X40317666Y21516000D01*
X40351000Y21382667D01*
X40351000Y21216000D01*
X40317666Y21082667D01*
X40284333Y21016000D01*
X40251000Y20982667D01*
X40184333Y20949334D01*
X40117666Y20949334D01*
X40051000Y20982667D01*
X40017666Y21016000D01*
X39984333Y21082667D01*
X39951000Y21216000D01*
X39951000Y21382667D01*
X39984333Y21516000D01*
X40017666Y21582667D01*
X40051000Y21616000D01*
X40117666Y21649334D01*
X40951000Y21416000D02*
X40951000Y20949334D01*
X40784333Y21682667D02*
X40617666Y21182667D01*
X41051000Y21182667D01*
G04 #@! TO.C,U10*
X39251000Y19871334D02*
X39251000Y19304667D01*
X39284333Y19238000D01*
X39317666Y19204667D01*
X39384333Y19171334D01*
X39517666Y19171334D01*
X39584333Y19204667D01*
X39617666Y19238000D01*
X39651000Y19304667D01*
X39651000Y19871334D01*
X40351000Y19171334D02*
X39951000Y19171334D01*
X40151000Y19171334D02*
X40151000Y19871334D01*
X40084333Y19771334D01*
X40017666Y19704667D01*
X39951000Y19671334D01*
X40784333Y19871334D02*
X40851000Y19871334D01*
X40917666Y19838000D01*
X40951000Y19804667D01*
X40984333Y19738000D01*
X41017666Y19604667D01*
X41017666Y19438000D01*
X40984333Y19304667D01*
X40951000Y19238000D01*
X40917666Y19204667D01*
X40851000Y19171334D01*
X40784333Y19171334D01*
X40717666Y19204667D01*
X40684333Y19238000D01*
X40651000Y19304667D01*
X40617666Y19438000D01*
X40617666Y19604667D01*
X40651000Y19738000D01*
X40684333Y19804667D01*
X40717666Y19838000D01*
X40784333Y19871334D01*
X36551000Y17593334D02*
X36884333Y17593334D01*
X36484333Y17393334D02*
X36717666Y18093334D01*
X36951000Y17393334D01*
X37184333Y18093334D02*
X37184333Y17526667D01*
X37217666Y17460000D01*
X37251000Y17426667D01*
X37317666Y17393334D01*
X37451000Y17393334D01*
X37517666Y17426667D01*
X37551000Y17460000D01*
X37584333Y17526667D01*
X37584333Y18093334D01*
X38317666Y17460000D02*
X38284333Y17426667D01*
X38184333Y17393334D01*
X38117666Y17393334D01*
X38017666Y17426667D01*
X37951000Y17493334D01*
X37917666Y17560000D01*
X37884333Y17693334D01*
X37884333Y17793334D01*
X37917666Y17926667D01*
X37951000Y17993334D01*
X38017666Y18060000D01*
X38117666Y18093334D01*
X38184333Y18093334D01*
X38284333Y18060000D01*
X38317666Y18026667D01*
X38584333Y18026667D02*
X38617666Y18060000D01*
X38684333Y18093334D01*
X38851000Y18093334D01*
X38917666Y18060000D01*
X38951000Y18026667D01*
X38984333Y17960000D01*
X38984333Y17893334D01*
X38951000Y17793334D01*
X38551000Y17393334D01*
X38984333Y17393334D01*
X39651000Y18060000D02*
X39584333Y18093334D01*
X39484333Y18093334D01*
X39384333Y18060000D01*
X39317666Y17993334D01*
X39284333Y17926667D01*
X39251000Y17793334D01*
X39251000Y17693334D01*
X39284333Y17560000D01*
X39317666Y17493334D01*
X39384333Y17426667D01*
X39484333Y17393334D01*
X39551000Y17393334D01*
X39651000Y17426667D01*
X39684333Y17460000D01*
X39684333Y17693334D01*
X39551000Y17693334D01*
X40117666Y18093334D02*
X40184333Y18093334D01*
X40251000Y18060000D01*
X40284333Y18026667D01*
X40317666Y17960000D01*
X40351000Y17826667D01*
X40351000Y17660000D01*
X40317666Y17526667D01*
X40284333Y17460000D01*
X40251000Y17426667D01*
X40184333Y17393334D01*
X40117666Y17393334D01*
X40051000Y17426667D01*
X40017666Y17460000D01*
X39984333Y17526667D01*
X39951000Y17660000D01*
X39951000Y17826667D01*
X39984333Y17960000D01*
X40017666Y18026667D01*
X40051000Y18060000D01*
X40117666Y18093334D01*
X40951000Y17860000D02*
X40951000Y17393334D01*
X40784333Y18126667D02*
X40617666Y17626667D01*
X41051000Y17626667D01*
G04 #@! TO.C,R10*
X23752666Y1700334D02*
X23419333Y1467000D01*
X23752666Y1300334D02*
X23052666Y1300334D01*
X23052666Y1567000D01*
X23086000Y1633667D01*
X23119333Y1667000D01*
X23186000Y1700334D01*
X23286000Y1700334D01*
X23352666Y1667000D01*
X23386000Y1633667D01*
X23419333Y1567000D01*
X23419333Y1300334D01*
X23752666Y2367000D02*
X23752666Y1967000D01*
X23752666Y2167000D02*
X23052666Y2167000D01*
X23152666Y2100334D01*
X23219333Y2033667D01*
X23252666Y1967000D01*
X23052666Y2800334D02*
X23052666Y2867000D01*
X23086000Y2933667D01*
X23119333Y2967000D01*
X23186000Y3000334D01*
X23319333Y3033667D01*
X23486000Y3033667D01*
X23619333Y3000334D01*
X23686000Y2967000D01*
X23719333Y2933667D01*
X23752666Y2867000D01*
X23752666Y2800334D01*
X23719333Y2733667D01*
X23686000Y2700334D01*
X23619333Y2667000D01*
X23486000Y2633667D01*
X23319333Y2633667D01*
X23186000Y2667000D01*
X23119333Y2700334D01*
X23086000Y2733667D01*
X23052666Y2800334D01*
X23752666Y4338334D02*
X23752666Y3938334D01*
X23752666Y4138334D02*
X23052666Y4138334D01*
X23152666Y4071667D01*
X23219333Y4005000D01*
X23252666Y3938334D01*
X23752666Y4638334D02*
X23052666Y4638334D01*
X23486000Y4705000D02*
X23752666Y4905000D01*
X23286000Y4905000D02*
X23552666Y4638334D01*
X23052666Y5338334D02*
X23052666Y5405000D01*
X23086000Y5471667D01*
X23119333Y5505000D01*
X23186000Y5538334D01*
X23319333Y5571667D01*
X23486000Y5571667D01*
X23619333Y5538334D01*
X23686000Y5505000D01*
X23719333Y5471667D01*
X23752666Y5405000D01*
X23752666Y5338334D01*
X23719333Y5271667D01*
X23686000Y5238334D01*
X23619333Y5205000D01*
X23486000Y5171667D01*
X23319333Y5171667D01*
X23186000Y5205000D01*
X23119333Y5238334D01*
X23086000Y5271667D01*
X23052666Y5338334D01*
G04 #@! TO.C,C17*
X22289000Y8558334D02*
X22322333Y8525000D01*
X22355666Y8425000D01*
X22355666Y8358334D01*
X22322333Y8258334D01*
X22255666Y8191667D01*
X22189000Y8158334D01*
X22055666Y8125000D01*
X21955666Y8125000D01*
X21822333Y8158334D01*
X21755666Y8191667D01*
X21689000Y8258334D01*
X21655666Y8358334D01*
X21655666Y8425000D01*
X21689000Y8525000D01*
X21722333Y8558334D01*
X22355666Y9225000D02*
X22355666Y8825000D01*
X22355666Y9025000D02*
X21655666Y9025000D01*
X21755666Y8958334D01*
X21822333Y8891667D01*
X21855666Y8825000D01*
X21655666Y9458334D02*
X21655666Y9925000D01*
X22355666Y9625000D01*
X22611333Y8191667D02*
X22578000Y8225000D01*
X22544666Y8291667D01*
X22544666Y8458334D01*
X22578000Y8525000D01*
X22611333Y8558334D01*
X22678000Y8591667D01*
X22744666Y8591667D01*
X22844666Y8558334D01*
X23244666Y8158334D01*
X23244666Y8591667D01*
X22544666Y9025000D02*
X22544666Y9091667D01*
X22578000Y9158334D01*
X22611333Y9191667D01*
X22678000Y9225000D01*
X22811333Y9258334D01*
X22978000Y9258334D01*
X23111333Y9225000D01*
X23178000Y9191667D01*
X23211333Y9158334D01*
X23244666Y9091667D01*
X23244666Y9025000D01*
X23211333Y8958334D01*
X23178000Y8925000D01*
X23111333Y8891667D01*
X22978000Y8858334D01*
X22811333Y8858334D01*
X22678000Y8891667D01*
X22611333Y8925000D01*
X22578000Y8958334D01*
X22544666Y9025000D01*
X22778000Y9558334D02*
X23478000Y9558334D01*
X22811333Y9558334D02*
X22778000Y9625000D01*
X22778000Y9758334D01*
X22811333Y9825000D01*
X22844666Y9858334D01*
X22911333Y9891667D01*
X23111333Y9891667D01*
X23178000Y9858334D01*
X23211333Y9825000D01*
X23244666Y9758334D01*
X23244666Y9625000D01*
X23211333Y9558334D01*
G04 #@! TO.C,C22*
X30098000Y13396000D02*
X30064666Y13362667D01*
X29964666Y13329334D01*
X29898000Y13329334D01*
X29798000Y13362667D01*
X29731333Y13429334D01*
X29698000Y13496000D01*
X29664666Y13629334D01*
X29664666Y13729334D01*
X29698000Y13862667D01*
X29731333Y13929334D01*
X29798000Y13996000D01*
X29898000Y14029334D01*
X29964666Y14029334D01*
X30064666Y13996000D01*
X30098000Y13962667D01*
X30364666Y13962667D02*
X30398000Y13996000D01*
X30464666Y14029334D01*
X30631333Y14029334D01*
X30698000Y13996000D01*
X30731333Y13962667D01*
X30764666Y13896000D01*
X30764666Y13829334D01*
X30731333Y13729334D01*
X30331333Y13329334D01*
X30764666Y13329334D01*
X31031333Y13962667D02*
X31064666Y13996000D01*
X31131333Y14029334D01*
X31298000Y14029334D01*
X31364666Y13996000D01*
X31398000Y13962667D01*
X31431333Y13896000D01*
X31431333Y13829334D01*
X31398000Y13729334D01*
X30998000Y13329334D01*
X31431333Y13329334D01*
X29698000Y12946667D02*
X29731333Y12980000D01*
X29798000Y13013334D01*
X29964666Y13013334D01*
X30031333Y12980000D01*
X30064666Y12946667D01*
X30098000Y12880000D01*
X30098000Y12813334D01*
X30064666Y12713334D01*
X29664666Y12313334D01*
X30098000Y12313334D01*
X30531333Y13013334D02*
X30598000Y13013334D01*
X30664666Y12980000D01*
X30698000Y12946667D01*
X30731333Y12880000D01*
X30764666Y12746667D01*
X30764666Y12580000D01*
X30731333Y12446667D01*
X30698000Y12380000D01*
X30664666Y12346667D01*
X30598000Y12313334D01*
X30531333Y12313334D01*
X30464666Y12346667D01*
X30431333Y12380000D01*
X30398000Y12446667D01*
X30364666Y12580000D01*
X30364666Y12746667D01*
X30398000Y12880000D01*
X30431333Y12946667D01*
X30464666Y12980000D01*
X30531333Y13013334D01*
X31064666Y12780000D02*
X31064666Y12080000D01*
X31064666Y12746667D02*
X31131333Y12780000D01*
X31264666Y12780000D01*
X31331333Y12746667D01*
X31364666Y12713334D01*
X31398000Y12646667D01*
X31398000Y12446667D01*
X31364666Y12380000D01*
X31331333Y12346667D01*
X31264666Y12313334D01*
X31131333Y12313334D01*
X31064666Y12346667D01*
G04 #@! TD*
M02*
