G04 #@! TF.GenerationSoftware,KiCad,Pcbnew,5.1.10-88a1d61d58~90~ubuntu20.04.1*
G04 #@! TF.CreationDate,2021-11-15T23:18:05+00:00*
G04 #@! TF.ProjectId,pulse_stretcher,70756c73-655f-4737-9472-657463686572,rev?*
G04 #@! TF.SameCoordinates,PX5ee3fe0PY6209a80*
G04 #@! TF.FileFunction,Profile,NP*
%FSLAX46Y46*%
G04 Gerber Fmt 4.6, Leading zero omitted, Abs format (unit mm)*
G04 Created by KiCad (PCBNEW 5.1.10-88a1d61d58~90~ubuntu20.04.1) date 2021-11-15 23:18:05*
%MOMM*%
%LPD*%
G01*
G04 APERTURE LIST*
G04 #@! TA.AperFunction,Profile*
%ADD10C,0.150000*%
G04 #@! TD*
G04 APERTURE END LIST*
D10*
X-8000000Y46000000D02*
X-8000000Y2000000D01*
X46000000Y0D02*
X61000000Y0D01*
X63000000Y46000000D02*
X63000000Y2000000D01*
X55000000Y48000000D02*
X61000000Y48000000D01*
X63000000Y2000000D02*
G75*
G02*
X61000000Y0I-2000000J0D01*
G01*
X61000000Y48000000D02*
G75*
G02*
X63000000Y46000000I0J-2000000D01*
G01*
X-6000000Y48000000D02*
X9000000Y48000000D01*
X-6000000Y0D02*
X0Y0D01*
X-6000000Y0D02*
G75*
G02*
X-8000000Y2000000I0J2000000D01*
G01*
X-8000000Y46000000D02*
G75*
G02*
X-6000000Y48000000I2000000J0D01*
G01*
X46000000Y-4000000D02*
X46000000Y0D01*
X0Y-4000000D02*
X0Y0D01*
X55000000Y52000000D02*
X55000000Y48000000D01*
X9000000Y52000000D02*
X9000000Y48000000D01*
X51000000Y56000000D02*
X13000000Y56000000D01*
X51000000Y56000000D02*
G75*
G02*
X55000000Y52000000I0J-4000000D01*
G01*
X9000000Y52000000D02*
G75*
G02*
X13000000Y56000000I4000000J0D01*
G01*
X4000000Y-8000000D02*
X42000000Y-8000000D01*
X46000000Y-4000000D02*
G75*
G02*
X42000000Y-8000000I-4000000J0D01*
G01*
X4000000Y-8000000D02*
G75*
G02*
X0Y-4000000I0J4000000D01*
G01*
M02*
