M48
; DRILL file {KiCad 5.1.10-88a1d61d58~90~ubuntu20.04.1} date Mon Nov 15 23:24:03 2021
; FORMAT={-:-/ absolute / metric / decimal}
; #@! TF.CreationDate,2021-11-15T23:24:03+00:00
; #@! TF.GenerationSoftware,Kicad,Pcbnew,5.1.10-88a1d61d58~90~ubuntu20.04.1
FMAT,2
METRIC
T1C0.400
T2C0.600
T3C0.800
T4C0.900
T5C1.000
T6C1.500
T7C1.600
T8C4.300
%
G90
G05
T1
X14.569Y20.885
X14.569Y19.869
X14.8Y9.201
X15.054Y31.909
X15.308Y14.662
X16.748Y32.254
X17.086Y14.662
X17.822Y25.457
X17.848Y19.996
X18.125Y24.187
X18.61Y18.878
X18.61Y14.255
X19.372Y18.878
X19.372Y14.255
X19.398Y24.489
X19.88Y9.201
X20.134Y18.878
X20.134Y14.255
X21.15Y19.996
X24.96Y9.201
X25.999Y20.885
X25.999Y19.869
X26.738Y14.662
X26.738Y13.9
X26.738Y3.509
X28.516Y14.662
X28.516Y13.9
X28.747Y7.423
X29.049Y6.153
X29.761Y14.662
X29.974Y2.132
X30.12Y10.659
X40.454Y25.711
X40.454Y22.155
X40.454Y18.599
X41.216Y25.711
X41.216Y22.155
X41.216Y18.599
X41.978Y25.711
X41.978Y22.155
X41.978Y18.599
X43.248Y25.711
X43.248Y22.155
X43.248Y18.599
X44.264Y25.711
X44.264Y22.155
X44.264Y18.599
X45.788Y25.711
X45.788Y22.155
X45.788Y18.599
X46.55Y25.711
X46.55Y22.155
X46.55Y18.599
X47.312Y25.711
X47.312Y22.155
X47.312Y18.599
T2
X1.846Y18.37
X1.846Y13.747
X8.958Y12.731
X10.228Y22.028
X11.244Y21.672
X12.26Y22.028
X12.514Y11.106
X12.514Y10.09
X12.514Y9.074
X14.266Y22.155
X14.577Y15.139
X15.333Y12.757
X16.259Y13.835
X16.476Y12.528
X16.91Y30.41
X17.594Y12.528
X19.398Y25.457
X20.515Y25.457
X25.697Y22.155
X29.024Y0.463
X30.573Y0.463
T3
X-5.52Y46.92
X-5.52Y41.84
X-5.52Y36.76
X-5.52Y31.68
X-5.52Y26.6
X-5.52Y21.52
X-5.52Y6.28
X-5.52Y1.2
X-2.98Y44.38
X-2.98Y39.3
X-2.98Y34.22
X-2.98Y29.14
X-2.98Y24.06
X-2.98Y8.82
X-2.98Y3.74
X-0.44Y46.92
X-0.44Y36.76
X-0.44Y31.68
X-0.44Y26.6
X-0.44Y21.52
X-0.44Y6.28
X-0.44Y1.2
X2.1Y29.14
X2.1Y24.06
X2.1Y8.82
X2.1Y3.74
X4.64Y46.92
X4.64Y31.68
X4.64Y26.6
X4.64Y21.52
X4.64Y11.36
X4.64Y6.28
X4.64Y1.2
X7.18Y34.22
X7.18Y29.14
X7.18Y24.06
X7.18Y8.82
X7.18Y3.74
X9.72Y46.92
X9.72Y36.76
X9.72Y31.68
X9.72Y26.6
X9.72Y11.36
X9.72Y6.28
X9.72Y1.2
X9.72Y-3.88
X12.26Y39.3
X12.26Y34.22
X12.26Y34.22
X12.26Y29.14
X12.26Y3.74
X12.26Y-1.34
X12.26Y-6.42
X14.8Y46.92
X14.8Y36.76
X14.8Y1.2
X14.8Y-3.88
X17.34Y54.54
X17.34Y49.46
X17.34Y39.3
X17.34Y3.74
X17.34Y-1.34
X17.34Y-6.42
X19.88Y52.0
X19.88Y1.2
X19.88Y-3.88
X19.992Y41.728
X22.42Y54.54
X22.42Y3.74
X22.42Y-1.34
X22.42Y-6.42
X24.96Y52.0
X24.96Y-3.88
X26.992Y44.51
X27.5Y54.54
X27.5Y49.46
X27.5Y34.22
X27.5Y29.14
X27.5Y-6.42
X29.34Y44.572
X30.04Y52.0
X30.04Y46.92
X30.04Y36.76
X30.04Y31.68
X30.04Y26.6
X30.04Y21.52
X30.04Y-3.88
X32.58Y54.54
X32.58Y49.46
X32.58Y44.38
X32.58Y39.3
X32.58Y34.22
X32.58Y29.14
X32.58Y24.06
X32.58Y8.82
X32.58Y3.74
X32.58Y-6.42
X35.12Y52.0
X35.12Y46.92
X35.12Y36.76
X35.12Y31.68
X35.12Y26.6
X35.12Y16.44
X35.12Y11.36
X35.12Y6.28
X35.12Y1.2
X35.12Y-3.88
X37.66Y54.54
X37.66Y49.46
X37.66Y39.3
X37.66Y34.22
X37.66Y29.14
X37.66Y13.9
X37.66Y8.82
X37.66Y3.74
X37.66Y-1.34
X37.66Y-6.42
X40.2Y52.0
X40.2Y46.92
X40.2Y36.76
X40.2Y31.68
X40.2Y16.44
X40.2Y11.36
X40.2Y6.28
X40.2Y1.2
X42.74Y54.54
X42.74Y49.46
X42.74Y39.3
X42.74Y34.22
X42.74Y13.9
X42.74Y8.82
X42.74Y3.74
X42.968Y27.997
X42.968Y15.805
X44.543Y27.997
X45.28Y46.92
X45.28Y11.36
X45.28Y6.28
X45.28Y1.2
X45.407Y28.886
X46.296Y27.997
X47.185Y28.886
X47.82Y44.38
X47.82Y13.9
X47.82Y8.82
X47.82Y3.74
X48.074Y27.997
X50.36Y46.92
X50.36Y41.84
X50.36Y36.76
X50.36Y31.68
X50.36Y16.44
X50.36Y11.36
X50.36Y6.28
X50.36Y1.2
X52.9Y44.38
X52.9Y39.3
X52.9Y34.22
X52.9Y29.14
X52.9Y18.98
X52.9Y13.9
X52.9Y8.82
X52.9Y3.74
X55.44Y46.92
X55.44Y41.84
X55.44Y36.76
X55.44Y21.52
X55.44Y6.28
X55.44Y1.2
X57.98Y44.38
X57.98Y39.3
X57.98Y24.06
X57.98Y8.82
X57.98Y3.74
X60.52Y46.92
X60.52Y41.84
X60.52Y36.76
X60.52Y26.6
X60.52Y21.52
X60.52Y6.28
X60.52Y1.2
T4
X24.5Y50.0
X24.5Y47.46
X24.5Y0.54
X24.5Y-2.0
T6
X-3.488Y15.932
X58.488Y32.068
X58.488Y15.932
T7
X-5.988Y18.432
X-5.988Y13.432
X-0.988Y18.432
X-0.988Y13.432
X55.988Y34.568
X55.988Y29.568
X55.988Y18.432
X55.988Y13.432
X60.988Y34.568
X60.988Y29.568
X60.988Y18.432
X60.988Y13.432
T8
X3.5Y-4.0
X12.5Y52.0
X42.5Y-4.0
X51.5Y52.0
T5
G00X-0.036Y41.212
M15
G01X-0.036Y38.912
M16
G05
G00X1.914Y35.062
M15
G01X4.214Y35.062
M16
G05
G00X6.164Y41.212
M15
G01X6.164Y38.912
M16
G05
T0
M30
