G04 #@! TF.GenerationSoftware,KiCad,Pcbnew,5.1.10-88a1d61d58~90~ubuntu20.04.1*
G04 #@! TF.CreationDate,2021-11-15T23:18:05+00:00*
G04 #@! TF.ProjectId,pulse_stretcher,70756c73-655f-4737-9472-657463686572,rev?*
G04 #@! TF.SameCoordinates,PX5ee3fe0PY6209a80*
G04 #@! TF.FileFunction,Legend,Bot*
G04 #@! TF.FilePolarity,Positive*
%FSLAX46Y46*%
G04 Gerber Fmt 4.6, Leading zero omitted, Abs format (unit mm)*
G04 Created by KiCad (PCBNEW 5.1.10-88a1d61d58~90~ubuntu20.04.1) date 2021-11-15 23:18:05*
%MOMM*%
%LPD*%
G01*
G04 APERTURE LIST*
%ADD10C,0.120000*%
%ADD11C,0.100000*%
G04 APERTURE END LIST*
D10*
G04 #@! TO.C,C35*
X43918779Y28507000D02*
X43593221Y28507000D01*
X43918779Y27487000D02*
X43593221Y27487000D01*
G04 #@! TO.C,C36*
X43918779Y15295000D02*
X43593221Y15295000D01*
X43918779Y16315000D02*
X43593221Y16315000D01*
G04 #@! TO.C,C26*
X43593221Y23931000D02*
X43918779Y23931000D01*
X43593221Y24951000D02*
X43918779Y24951000D01*
G04 #@! TO.C,C29*
X43593221Y21395000D02*
X43918779Y21395000D01*
X43593221Y20375000D02*
X43918779Y20375000D01*
G04 #@! TO.C,C32*
X43593221Y16819000D02*
X43918779Y16819000D01*
X43593221Y17839000D02*
X43918779Y17839000D01*
G04 #@! TO.C,D1*
X23264000Y50290000D02*
X23420000Y50290000D01*
X25580000Y50290000D02*
X25736000Y50290000D01*
X23421392Y47057665D02*
G75*
G02*
X23264484Y50290000I1078608J1672335D01*
G01*
X25578608Y47057665D02*
G75*
G03*
X25735516Y50290000I-1078608J1672335D01*
G01*
X23420163Y47688870D02*
G75*
G02*
X23420000Y49770961I1079837J1041130D01*
G01*
X25579837Y47688870D02*
G75*
G03*
X25580000Y49770961I-1079837J1041130D01*
G01*
G04 #@! TO.C,D2*
X23420000Y-2290000D02*
X23264000Y-2290000D01*
X25736000Y-2290000D02*
X25580000Y-2290000D01*
X25578608Y942335D02*
G75*
G02*
X25735516Y-2290000I-1078608J-1672335D01*
G01*
X23421392Y942335D02*
G75*
G03*
X23264484Y-2290000I1078608J-1672335D01*
G01*
X25579837Y311130D02*
G75*
G02*
X25580000Y-1770961I-1079837J-1041130D01*
G01*
X23420163Y311130D02*
G75*
G03*
X23420000Y-1770961I1079837J-1041130D01*
G01*
G04 #@! TO.C,C35*
D11*
X44206000Y28890000D02*
X44239333Y28856667D01*
X44339333Y28823334D01*
X44406000Y28823334D01*
X44506000Y28856667D01*
X44572666Y28923334D01*
X44606000Y28990000D01*
X44639333Y29123334D01*
X44639333Y29223334D01*
X44606000Y29356667D01*
X44572666Y29423334D01*
X44506000Y29490000D01*
X44406000Y29523334D01*
X44339333Y29523334D01*
X44239333Y29490000D01*
X44206000Y29456667D01*
X43972666Y29523334D02*
X43539333Y29523334D01*
X43772666Y29256667D01*
X43672666Y29256667D01*
X43606000Y29223334D01*
X43572666Y29190000D01*
X43539333Y29123334D01*
X43539333Y28956667D01*
X43572666Y28890000D01*
X43606000Y28856667D01*
X43672666Y28823334D01*
X43872666Y28823334D01*
X43939333Y28856667D01*
X43972666Y28890000D01*
X42906000Y29523334D02*
X43239333Y29523334D01*
X43272666Y29190000D01*
X43239333Y29223334D01*
X43172666Y29256667D01*
X43006000Y29256667D01*
X42939333Y29223334D01*
X42906000Y29190000D01*
X42872666Y29123334D01*
X42872666Y28956667D01*
X42906000Y28890000D01*
X42939333Y28856667D01*
X43006000Y28823334D01*
X43172666Y28823334D01*
X43239333Y28856667D01*
X43272666Y28890000D01*
X41633666Y27680334D02*
X42033666Y27680334D01*
X41833666Y27680334D02*
X41833666Y28380334D01*
X41900333Y28280334D01*
X41967000Y28213667D01*
X42033666Y28180334D01*
X41033666Y28147000D02*
X41033666Y27680334D01*
X41333666Y28147000D02*
X41333666Y27780334D01*
X41300333Y27713667D01*
X41233666Y27680334D01*
X41133666Y27680334D01*
X41067000Y27713667D01*
X41033666Y27747000D01*
X40300333Y27747000D02*
X40333666Y27713667D01*
X40433666Y27680334D01*
X40500333Y27680334D01*
X40600333Y27713667D01*
X40667000Y27780334D01*
X40700333Y27847000D01*
X40733666Y27980334D01*
X40733666Y28080334D01*
X40700333Y28213667D01*
X40667000Y28280334D01*
X40600333Y28347000D01*
X40500333Y28380334D01*
X40433666Y28380334D01*
X40333666Y28347000D01*
X40300333Y28313667D01*
G04 #@! TO.C,C36*
X46811666Y15428000D02*
X46845000Y15394667D01*
X46945000Y15361334D01*
X47011666Y15361334D01*
X47111666Y15394667D01*
X47178333Y15461334D01*
X47211666Y15528000D01*
X47245000Y15661334D01*
X47245000Y15761334D01*
X47211666Y15894667D01*
X47178333Y15961334D01*
X47111666Y16028000D01*
X47011666Y16061334D01*
X46945000Y16061334D01*
X46845000Y16028000D01*
X46811666Y15994667D01*
X46578333Y16061334D02*
X46145000Y16061334D01*
X46378333Y15794667D01*
X46278333Y15794667D01*
X46211666Y15761334D01*
X46178333Y15728000D01*
X46145000Y15661334D01*
X46145000Y15494667D01*
X46178333Y15428000D01*
X46211666Y15394667D01*
X46278333Y15361334D01*
X46478333Y15361334D01*
X46545000Y15394667D01*
X46578333Y15428000D01*
X45545000Y16061334D02*
X45678333Y16061334D01*
X45745000Y16028000D01*
X45778333Y15994667D01*
X45845000Y15894667D01*
X45878333Y15761334D01*
X45878333Y15494667D01*
X45845000Y15428000D01*
X45811666Y15394667D01*
X45745000Y15361334D01*
X45611666Y15361334D01*
X45545000Y15394667D01*
X45511666Y15428000D01*
X45478333Y15494667D01*
X45478333Y15661334D01*
X45511666Y15728000D01*
X45545000Y15761334D01*
X45611666Y15794667D01*
X45745000Y15794667D01*
X45811666Y15761334D01*
X45845000Y15728000D01*
X45878333Y15661334D01*
X41633666Y15361334D02*
X42033666Y15361334D01*
X41833666Y15361334D02*
X41833666Y16061334D01*
X41900333Y15961334D01*
X41967000Y15894667D01*
X42033666Y15861334D01*
X41033666Y15828000D02*
X41033666Y15361334D01*
X41333666Y15828000D02*
X41333666Y15461334D01*
X41300333Y15394667D01*
X41233666Y15361334D01*
X41133666Y15361334D01*
X41067000Y15394667D01*
X41033666Y15428000D01*
X40300333Y15428000D02*
X40333666Y15394667D01*
X40433666Y15361334D01*
X40500333Y15361334D01*
X40600333Y15394667D01*
X40667000Y15461334D01*
X40700333Y15528000D01*
X40733666Y15661334D01*
X40733666Y15761334D01*
X40700333Y15894667D01*
X40667000Y15961334D01*
X40600333Y16028000D01*
X40500333Y16061334D01*
X40433666Y16061334D01*
X40333666Y16028000D01*
X40300333Y15994667D01*
G04 #@! TO.C,C26*
X46811666Y24191000D02*
X46845000Y24157667D01*
X46945000Y24124334D01*
X47011666Y24124334D01*
X47111666Y24157667D01*
X47178333Y24224334D01*
X47211666Y24291000D01*
X47245000Y24424334D01*
X47245000Y24524334D01*
X47211666Y24657667D01*
X47178333Y24724334D01*
X47111666Y24791000D01*
X47011666Y24824334D01*
X46945000Y24824334D01*
X46845000Y24791000D01*
X46811666Y24757667D01*
X46545000Y24757667D02*
X46511666Y24791000D01*
X46445000Y24824334D01*
X46278333Y24824334D01*
X46211666Y24791000D01*
X46178333Y24757667D01*
X46145000Y24691000D01*
X46145000Y24624334D01*
X46178333Y24524334D01*
X46578333Y24124334D01*
X46145000Y24124334D01*
X45545000Y24824334D02*
X45678333Y24824334D01*
X45745000Y24791000D01*
X45778333Y24757667D01*
X45845000Y24657667D01*
X45878333Y24524334D01*
X45878333Y24257667D01*
X45845000Y24191000D01*
X45811666Y24157667D01*
X45745000Y24124334D01*
X45611666Y24124334D01*
X45545000Y24157667D01*
X45511666Y24191000D01*
X45478333Y24257667D01*
X45478333Y24424334D01*
X45511666Y24491000D01*
X45545000Y24524334D01*
X45611666Y24557667D01*
X45745000Y24557667D01*
X45811666Y24524334D01*
X45845000Y24491000D01*
X45878333Y24424334D01*
X41633666Y24124334D02*
X42033666Y24124334D01*
X41833666Y24124334D02*
X41833666Y24824334D01*
X41900333Y24724334D01*
X41967000Y24657667D01*
X42033666Y24624334D01*
X41200333Y24824334D02*
X41133666Y24824334D01*
X41067000Y24791000D01*
X41033666Y24757667D01*
X41000333Y24691000D01*
X40967000Y24557667D01*
X40967000Y24391000D01*
X41000333Y24257667D01*
X41033666Y24191000D01*
X41067000Y24157667D01*
X41133666Y24124334D01*
X41200333Y24124334D01*
X41267000Y24157667D01*
X41300333Y24191000D01*
X41333666Y24257667D01*
X41367000Y24391000D01*
X41367000Y24557667D01*
X41333666Y24691000D01*
X41300333Y24757667D01*
X41267000Y24791000D01*
X41200333Y24824334D01*
X40533666Y24824334D02*
X40467000Y24824334D01*
X40400333Y24791000D01*
X40367000Y24757667D01*
X40333666Y24691000D01*
X40300333Y24557667D01*
X40300333Y24391000D01*
X40333666Y24257667D01*
X40367000Y24191000D01*
X40400333Y24157667D01*
X40467000Y24124334D01*
X40533666Y24124334D01*
X40600333Y24157667D01*
X40633666Y24191000D01*
X40667000Y24257667D01*
X40700333Y24391000D01*
X40700333Y24557667D01*
X40667000Y24691000D01*
X40633666Y24757667D01*
X40600333Y24791000D01*
X40533666Y24824334D01*
X40000333Y24591000D02*
X40000333Y24124334D01*
X40000333Y24524334D02*
X39967000Y24557667D01*
X39900333Y24591000D01*
X39800333Y24591000D01*
X39733666Y24557667D01*
X39700333Y24491000D01*
X39700333Y24124334D01*
G04 #@! TO.C,C27*
X46303666Y26477000D02*
X46337000Y26443667D01*
X46437000Y26410334D01*
X46503666Y26410334D01*
X46603666Y26443667D01*
X46670333Y26510334D01*
X46703666Y26577000D01*
X46737000Y26710334D01*
X46737000Y26810334D01*
X46703666Y26943667D01*
X46670333Y27010334D01*
X46603666Y27077000D01*
X46503666Y27110334D01*
X46437000Y27110334D01*
X46337000Y27077000D01*
X46303666Y27043667D01*
X46037000Y27043667D02*
X46003666Y27077000D01*
X45937000Y27110334D01*
X45770333Y27110334D01*
X45703666Y27077000D01*
X45670333Y27043667D01*
X45637000Y26977000D01*
X45637000Y26910334D01*
X45670333Y26810334D01*
X46070333Y26410334D01*
X45637000Y26410334D01*
X45403666Y27110334D02*
X44937000Y27110334D01*
X45237000Y26410334D01*
X42141666Y26410334D02*
X42541666Y26410334D01*
X42341666Y26410334D02*
X42341666Y27110334D01*
X42408333Y27010334D01*
X42475000Y26943667D01*
X42541666Y26910334D01*
X41708333Y27110334D02*
X41641666Y27110334D01*
X41575000Y27077000D01*
X41541666Y27043667D01*
X41508333Y26977000D01*
X41475000Y26843667D01*
X41475000Y26677000D01*
X41508333Y26543667D01*
X41541666Y26477000D01*
X41575000Y26443667D01*
X41641666Y26410334D01*
X41708333Y26410334D01*
X41775000Y26443667D01*
X41808333Y26477000D01*
X41841666Y26543667D01*
X41875000Y26677000D01*
X41875000Y26843667D01*
X41841666Y26977000D01*
X41808333Y27043667D01*
X41775000Y27077000D01*
X41708333Y27110334D01*
X41175000Y26877000D02*
X41175000Y26410334D01*
X41175000Y26810334D02*
X41141666Y26843667D01*
X41075000Y26877000D01*
X40975000Y26877000D01*
X40908333Y26843667D01*
X40875000Y26777000D01*
X40875000Y26410334D01*
G04 #@! TO.C,C28*
X49478666Y25461000D02*
X49512000Y25427667D01*
X49612000Y25394334D01*
X49678666Y25394334D01*
X49778666Y25427667D01*
X49845333Y25494334D01*
X49878666Y25561000D01*
X49912000Y25694334D01*
X49912000Y25794334D01*
X49878666Y25927667D01*
X49845333Y25994334D01*
X49778666Y26061000D01*
X49678666Y26094334D01*
X49612000Y26094334D01*
X49512000Y26061000D01*
X49478666Y26027667D01*
X49212000Y26027667D02*
X49178666Y26061000D01*
X49112000Y26094334D01*
X48945333Y26094334D01*
X48878666Y26061000D01*
X48845333Y26027667D01*
X48812000Y25961000D01*
X48812000Y25894334D01*
X48845333Y25794334D01*
X49245333Y25394334D01*
X48812000Y25394334D01*
X48412000Y25794334D02*
X48478666Y25827667D01*
X48512000Y25861000D01*
X48545333Y25927667D01*
X48545333Y25961000D01*
X48512000Y26027667D01*
X48478666Y26061000D01*
X48412000Y26094334D01*
X48278666Y26094334D01*
X48212000Y26061000D01*
X48178666Y26027667D01*
X48145333Y25961000D01*
X48145333Y25927667D01*
X48178666Y25861000D01*
X48212000Y25827667D01*
X48278666Y25794334D01*
X48412000Y25794334D01*
X48478666Y25761000D01*
X48512000Y25727667D01*
X48545333Y25661000D01*
X48545333Y25527667D01*
X48512000Y25461000D01*
X48478666Y25427667D01*
X48412000Y25394334D01*
X48278666Y25394334D01*
X48212000Y25427667D01*
X48178666Y25461000D01*
X48145333Y25527667D01*
X48145333Y25661000D01*
X48178666Y25727667D01*
X48212000Y25761000D01*
X48278666Y25794334D01*
X39347666Y25394334D02*
X39747666Y25394334D01*
X39547666Y25394334D02*
X39547666Y26094334D01*
X39614333Y25994334D01*
X39681000Y25927667D01*
X39747666Y25894334D01*
X39047666Y25861000D02*
X39047666Y25394334D01*
X39047666Y25794334D02*
X39014333Y25827667D01*
X38947666Y25861000D01*
X38847666Y25861000D01*
X38781000Y25827667D01*
X38747666Y25761000D01*
X38747666Y25394334D01*
G04 #@! TO.C,C29*
X46303666Y20635000D02*
X46337000Y20601667D01*
X46437000Y20568334D01*
X46503666Y20568334D01*
X46603666Y20601667D01*
X46670333Y20668334D01*
X46703666Y20735000D01*
X46737000Y20868334D01*
X46737000Y20968334D01*
X46703666Y21101667D01*
X46670333Y21168334D01*
X46603666Y21235000D01*
X46503666Y21268334D01*
X46437000Y21268334D01*
X46337000Y21235000D01*
X46303666Y21201667D01*
X46037000Y21201667D02*
X46003666Y21235000D01*
X45937000Y21268334D01*
X45770333Y21268334D01*
X45703666Y21235000D01*
X45670333Y21201667D01*
X45637000Y21135000D01*
X45637000Y21068334D01*
X45670333Y20968334D01*
X46070333Y20568334D01*
X45637000Y20568334D01*
X45303666Y20568334D02*
X45170333Y20568334D01*
X45103666Y20601667D01*
X45070333Y20635000D01*
X45003666Y20735000D01*
X44970333Y20868334D01*
X44970333Y21135000D01*
X45003666Y21201667D01*
X45037000Y21235000D01*
X45103666Y21268334D01*
X45237000Y21268334D01*
X45303666Y21235000D01*
X45337000Y21201667D01*
X45370333Y21135000D01*
X45370333Y20968334D01*
X45337000Y20901667D01*
X45303666Y20868334D01*
X45237000Y20835000D01*
X45103666Y20835000D01*
X45037000Y20868334D01*
X45003666Y20901667D01*
X44970333Y20968334D01*
X41633666Y20568334D02*
X42033666Y20568334D01*
X41833666Y20568334D02*
X41833666Y21268334D01*
X41900333Y21168334D01*
X41967000Y21101667D01*
X42033666Y21068334D01*
X41200333Y21268334D02*
X41133666Y21268334D01*
X41067000Y21235000D01*
X41033666Y21201667D01*
X41000333Y21135000D01*
X40967000Y21001667D01*
X40967000Y20835000D01*
X41000333Y20701667D01*
X41033666Y20635000D01*
X41067000Y20601667D01*
X41133666Y20568334D01*
X41200333Y20568334D01*
X41267000Y20601667D01*
X41300333Y20635000D01*
X41333666Y20701667D01*
X41367000Y20835000D01*
X41367000Y21001667D01*
X41333666Y21135000D01*
X41300333Y21201667D01*
X41267000Y21235000D01*
X41200333Y21268334D01*
X40533666Y21268334D02*
X40467000Y21268334D01*
X40400333Y21235000D01*
X40367000Y21201667D01*
X40333666Y21135000D01*
X40300333Y21001667D01*
X40300333Y20835000D01*
X40333666Y20701667D01*
X40367000Y20635000D01*
X40400333Y20601667D01*
X40467000Y20568334D01*
X40533666Y20568334D01*
X40600333Y20601667D01*
X40633666Y20635000D01*
X40667000Y20701667D01*
X40700333Y20835000D01*
X40700333Y21001667D01*
X40667000Y21135000D01*
X40633666Y21201667D01*
X40600333Y21235000D01*
X40533666Y21268334D01*
X40000333Y21035000D02*
X40000333Y20568334D01*
X40000333Y20968334D02*
X39967000Y21001667D01*
X39900333Y21035000D01*
X39800333Y21035000D01*
X39733666Y21001667D01*
X39700333Y20935000D01*
X39700333Y20568334D01*
G04 #@! TO.C,C30*
X46303666Y22921000D02*
X46337000Y22887667D01*
X46437000Y22854334D01*
X46503666Y22854334D01*
X46603666Y22887667D01*
X46670333Y22954334D01*
X46703666Y23021000D01*
X46737000Y23154334D01*
X46737000Y23254334D01*
X46703666Y23387667D01*
X46670333Y23454334D01*
X46603666Y23521000D01*
X46503666Y23554334D01*
X46437000Y23554334D01*
X46337000Y23521000D01*
X46303666Y23487667D01*
X46070333Y23554334D02*
X45637000Y23554334D01*
X45870333Y23287667D01*
X45770333Y23287667D01*
X45703666Y23254334D01*
X45670333Y23221000D01*
X45637000Y23154334D01*
X45637000Y22987667D01*
X45670333Y22921000D01*
X45703666Y22887667D01*
X45770333Y22854334D01*
X45970333Y22854334D01*
X46037000Y22887667D01*
X46070333Y22921000D01*
X45203666Y23554334D02*
X45137000Y23554334D01*
X45070333Y23521000D01*
X45037000Y23487667D01*
X45003666Y23421000D01*
X44970333Y23287667D01*
X44970333Y23121000D01*
X45003666Y22987667D01*
X45037000Y22921000D01*
X45070333Y22887667D01*
X45137000Y22854334D01*
X45203666Y22854334D01*
X45270333Y22887667D01*
X45303666Y22921000D01*
X45337000Y22987667D01*
X45370333Y23121000D01*
X45370333Y23287667D01*
X45337000Y23421000D01*
X45303666Y23487667D01*
X45270333Y23521000D01*
X45203666Y23554334D01*
X42141666Y22854334D02*
X42541666Y22854334D01*
X42341666Y22854334D02*
X42341666Y23554334D01*
X42408333Y23454334D01*
X42475000Y23387667D01*
X42541666Y23354334D01*
X41708333Y23554334D02*
X41641666Y23554334D01*
X41575000Y23521000D01*
X41541666Y23487667D01*
X41508333Y23421000D01*
X41475000Y23287667D01*
X41475000Y23121000D01*
X41508333Y22987667D01*
X41541666Y22921000D01*
X41575000Y22887667D01*
X41641666Y22854334D01*
X41708333Y22854334D01*
X41775000Y22887667D01*
X41808333Y22921000D01*
X41841666Y22987667D01*
X41875000Y23121000D01*
X41875000Y23287667D01*
X41841666Y23421000D01*
X41808333Y23487667D01*
X41775000Y23521000D01*
X41708333Y23554334D01*
X41175000Y23321000D02*
X41175000Y22854334D01*
X41175000Y23254334D02*
X41141666Y23287667D01*
X41075000Y23321000D01*
X40975000Y23321000D01*
X40908333Y23287667D01*
X40875000Y23221000D01*
X40875000Y22854334D01*
G04 #@! TO.C,C31*
X49478666Y21905000D02*
X49512000Y21871667D01*
X49612000Y21838334D01*
X49678666Y21838334D01*
X49778666Y21871667D01*
X49845333Y21938334D01*
X49878666Y22005000D01*
X49912000Y22138334D01*
X49912000Y22238334D01*
X49878666Y22371667D01*
X49845333Y22438334D01*
X49778666Y22505000D01*
X49678666Y22538334D01*
X49612000Y22538334D01*
X49512000Y22505000D01*
X49478666Y22471667D01*
X49245333Y22538334D02*
X48812000Y22538334D01*
X49045333Y22271667D01*
X48945333Y22271667D01*
X48878666Y22238334D01*
X48845333Y22205000D01*
X48812000Y22138334D01*
X48812000Y21971667D01*
X48845333Y21905000D01*
X48878666Y21871667D01*
X48945333Y21838334D01*
X49145333Y21838334D01*
X49212000Y21871667D01*
X49245333Y21905000D01*
X48145333Y21838334D02*
X48545333Y21838334D01*
X48345333Y21838334D02*
X48345333Y22538334D01*
X48412000Y22438334D01*
X48478666Y22371667D01*
X48545333Y22338334D01*
X39347666Y21838334D02*
X39747666Y21838334D01*
X39547666Y21838334D02*
X39547666Y22538334D01*
X39614333Y22438334D01*
X39681000Y22371667D01*
X39747666Y22338334D01*
X39047666Y22305000D02*
X39047666Y21838334D01*
X39047666Y22238334D02*
X39014333Y22271667D01*
X38947666Y22305000D01*
X38847666Y22305000D01*
X38781000Y22271667D01*
X38747666Y22205000D01*
X38747666Y21838334D01*
G04 #@! TO.C,C32*
X46811666Y17079000D02*
X46845000Y17045667D01*
X46945000Y17012334D01*
X47011666Y17012334D01*
X47111666Y17045667D01*
X47178333Y17112334D01*
X47211666Y17179000D01*
X47245000Y17312334D01*
X47245000Y17412334D01*
X47211666Y17545667D01*
X47178333Y17612334D01*
X47111666Y17679000D01*
X47011666Y17712334D01*
X46945000Y17712334D01*
X46845000Y17679000D01*
X46811666Y17645667D01*
X46578333Y17712334D02*
X46145000Y17712334D01*
X46378333Y17445667D01*
X46278333Y17445667D01*
X46211666Y17412334D01*
X46178333Y17379000D01*
X46145000Y17312334D01*
X46145000Y17145667D01*
X46178333Y17079000D01*
X46211666Y17045667D01*
X46278333Y17012334D01*
X46478333Y17012334D01*
X46545000Y17045667D01*
X46578333Y17079000D01*
X45878333Y17645667D02*
X45845000Y17679000D01*
X45778333Y17712334D01*
X45611666Y17712334D01*
X45545000Y17679000D01*
X45511666Y17645667D01*
X45478333Y17579000D01*
X45478333Y17512334D01*
X45511666Y17412334D01*
X45911666Y17012334D01*
X45478333Y17012334D01*
X41633666Y17012334D02*
X42033666Y17012334D01*
X41833666Y17012334D02*
X41833666Y17712334D01*
X41900333Y17612334D01*
X41967000Y17545667D01*
X42033666Y17512334D01*
X41200333Y17712334D02*
X41133666Y17712334D01*
X41067000Y17679000D01*
X41033666Y17645667D01*
X41000333Y17579000D01*
X40967000Y17445667D01*
X40967000Y17279000D01*
X41000333Y17145667D01*
X41033666Y17079000D01*
X41067000Y17045667D01*
X41133666Y17012334D01*
X41200333Y17012334D01*
X41267000Y17045667D01*
X41300333Y17079000D01*
X41333666Y17145667D01*
X41367000Y17279000D01*
X41367000Y17445667D01*
X41333666Y17579000D01*
X41300333Y17645667D01*
X41267000Y17679000D01*
X41200333Y17712334D01*
X40533666Y17712334D02*
X40467000Y17712334D01*
X40400333Y17679000D01*
X40367000Y17645667D01*
X40333666Y17579000D01*
X40300333Y17445667D01*
X40300333Y17279000D01*
X40333666Y17145667D01*
X40367000Y17079000D01*
X40400333Y17045667D01*
X40467000Y17012334D01*
X40533666Y17012334D01*
X40600333Y17045667D01*
X40633666Y17079000D01*
X40667000Y17145667D01*
X40700333Y17279000D01*
X40700333Y17445667D01*
X40667000Y17579000D01*
X40633666Y17645667D01*
X40600333Y17679000D01*
X40533666Y17712334D01*
X40000333Y17479000D02*
X40000333Y17012334D01*
X40000333Y17412334D02*
X39967000Y17445667D01*
X39900333Y17479000D01*
X39800333Y17479000D01*
X39733666Y17445667D01*
X39700333Y17379000D01*
X39700333Y17012334D01*
G04 #@! TO.C,C33*
X46303666Y19365000D02*
X46337000Y19331667D01*
X46437000Y19298334D01*
X46503666Y19298334D01*
X46603666Y19331667D01*
X46670333Y19398334D01*
X46703666Y19465000D01*
X46737000Y19598334D01*
X46737000Y19698334D01*
X46703666Y19831667D01*
X46670333Y19898334D01*
X46603666Y19965000D01*
X46503666Y19998334D01*
X46437000Y19998334D01*
X46337000Y19965000D01*
X46303666Y19931667D01*
X46070333Y19998334D02*
X45637000Y19998334D01*
X45870333Y19731667D01*
X45770333Y19731667D01*
X45703666Y19698334D01*
X45670333Y19665000D01*
X45637000Y19598334D01*
X45637000Y19431667D01*
X45670333Y19365000D01*
X45703666Y19331667D01*
X45770333Y19298334D01*
X45970333Y19298334D01*
X46037000Y19331667D01*
X46070333Y19365000D01*
X45403666Y19998334D02*
X44970333Y19998334D01*
X45203666Y19731667D01*
X45103666Y19731667D01*
X45037000Y19698334D01*
X45003666Y19665000D01*
X44970333Y19598334D01*
X44970333Y19431667D01*
X45003666Y19365000D01*
X45037000Y19331667D01*
X45103666Y19298334D01*
X45303666Y19298334D01*
X45370333Y19331667D01*
X45403666Y19365000D01*
X42141666Y19298334D02*
X42541666Y19298334D01*
X42341666Y19298334D02*
X42341666Y19998334D01*
X42408333Y19898334D01*
X42475000Y19831667D01*
X42541666Y19798334D01*
X41708333Y19998334D02*
X41641666Y19998334D01*
X41575000Y19965000D01*
X41541666Y19931667D01*
X41508333Y19865000D01*
X41475000Y19731667D01*
X41475000Y19565000D01*
X41508333Y19431667D01*
X41541666Y19365000D01*
X41575000Y19331667D01*
X41641666Y19298334D01*
X41708333Y19298334D01*
X41775000Y19331667D01*
X41808333Y19365000D01*
X41841666Y19431667D01*
X41875000Y19565000D01*
X41875000Y19731667D01*
X41841666Y19865000D01*
X41808333Y19931667D01*
X41775000Y19965000D01*
X41708333Y19998334D01*
X41175000Y19765000D02*
X41175000Y19298334D01*
X41175000Y19698334D02*
X41141666Y19731667D01*
X41075000Y19765000D01*
X40975000Y19765000D01*
X40908333Y19731667D01*
X40875000Y19665000D01*
X40875000Y19298334D01*
G04 #@! TO.C,C34*
X49478666Y18349000D02*
X49512000Y18315667D01*
X49612000Y18282334D01*
X49678666Y18282334D01*
X49778666Y18315667D01*
X49845333Y18382334D01*
X49878666Y18449000D01*
X49912000Y18582334D01*
X49912000Y18682334D01*
X49878666Y18815667D01*
X49845333Y18882334D01*
X49778666Y18949000D01*
X49678666Y18982334D01*
X49612000Y18982334D01*
X49512000Y18949000D01*
X49478666Y18915667D01*
X49245333Y18982334D02*
X48812000Y18982334D01*
X49045333Y18715667D01*
X48945333Y18715667D01*
X48878666Y18682334D01*
X48845333Y18649000D01*
X48812000Y18582334D01*
X48812000Y18415667D01*
X48845333Y18349000D01*
X48878666Y18315667D01*
X48945333Y18282334D01*
X49145333Y18282334D01*
X49212000Y18315667D01*
X49245333Y18349000D01*
X48212000Y18749000D02*
X48212000Y18282334D01*
X48378666Y19015667D02*
X48545333Y18515667D01*
X48112000Y18515667D01*
X39347666Y18282334D02*
X39747666Y18282334D01*
X39547666Y18282334D02*
X39547666Y18982334D01*
X39614333Y18882334D01*
X39681000Y18815667D01*
X39747666Y18782334D01*
X39047666Y18749000D02*
X39047666Y18282334D01*
X39047666Y18682334D02*
X39014333Y18715667D01*
X38947666Y18749000D01*
X38847666Y18749000D01*
X38781000Y18715667D01*
X38747666Y18649000D01*
X38747666Y18282334D01*
G04 #@! TO.C,D1*
X24206666Y51429334D02*
X24206666Y52129334D01*
X24040000Y52129334D01*
X23940000Y52096000D01*
X23873333Y52029334D01*
X23840000Y51962667D01*
X23806666Y51829334D01*
X23806666Y51729334D01*
X23840000Y51596000D01*
X23873333Y51529334D01*
X23940000Y51462667D01*
X24040000Y51429334D01*
X24206666Y51429334D01*
X23140000Y51429334D02*
X23540000Y51429334D01*
X23340000Y51429334D02*
X23340000Y52129334D01*
X23406666Y52029334D01*
X23473333Y51962667D01*
X23540000Y51929334D01*
X25435333Y46054000D02*
X25435333Y45487334D01*
X25468666Y45420667D01*
X25502000Y45387334D01*
X25568666Y45354000D01*
X25668666Y45354000D01*
X25735333Y45387334D01*
X25435333Y45620667D02*
X25502000Y45587334D01*
X25635333Y45587334D01*
X25702000Y45620667D01*
X25735333Y45654000D01*
X25768666Y45720667D01*
X25768666Y45920667D01*
X25735333Y45987334D01*
X25702000Y46020667D01*
X25635333Y46054000D01*
X25502000Y46054000D01*
X25435333Y46020667D01*
X25102000Y45587334D02*
X25102000Y46054000D01*
X25102000Y45920667D02*
X25068666Y45987334D01*
X25035333Y46020667D01*
X24968666Y46054000D01*
X24902000Y46054000D01*
X24402000Y45620667D02*
X24468666Y45587334D01*
X24602000Y45587334D01*
X24668666Y45620667D01*
X24702000Y45687334D01*
X24702000Y45954000D01*
X24668666Y46020667D01*
X24602000Y46054000D01*
X24468666Y46054000D01*
X24402000Y46020667D01*
X24368666Y45954000D01*
X24368666Y45887334D01*
X24702000Y45820667D01*
X23802000Y45620667D02*
X23868666Y45587334D01*
X24002000Y45587334D01*
X24068666Y45620667D01*
X24102000Y45687334D01*
X24102000Y45954000D01*
X24068666Y46020667D01*
X24002000Y46054000D01*
X23868666Y46054000D01*
X23802000Y46020667D01*
X23768666Y45954000D01*
X23768666Y45887334D01*
X24102000Y45820667D01*
X23468666Y46054000D02*
X23468666Y45587334D01*
X23468666Y45987334D02*
X23435333Y46020667D01*
X23368666Y46054000D01*
X23268666Y46054000D01*
X23202000Y46020667D01*
X23168666Y45954000D01*
X23168666Y45587334D01*
G04 #@! TO.C,D2*
X24968666Y1899334D02*
X24968666Y2599334D01*
X24802000Y2599334D01*
X24702000Y2566000D01*
X24635333Y2499334D01*
X24602000Y2432667D01*
X24568666Y2299334D01*
X24568666Y2199334D01*
X24602000Y2066000D01*
X24635333Y1999334D01*
X24702000Y1932667D01*
X24802000Y1899334D01*
X24968666Y1899334D01*
X24302000Y2532667D02*
X24268666Y2566000D01*
X24202000Y2599334D01*
X24035333Y2599334D01*
X23968666Y2566000D01*
X23935333Y2532667D01*
X23902000Y2466000D01*
X23902000Y2399334D01*
X23935333Y2299334D01*
X24335333Y1899334D01*
X23902000Y1899334D01*
X25968666Y-5212666D02*
X26035333Y-5179333D01*
X26068666Y-5146000D01*
X26102000Y-5079333D01*
X26102000Y-4879333D01*
X26068666Y-4812666D01*
X26035333Y-4779333D01*
X25968666Y-4746000D01*
X25868666Y-4746000D01*
X25802000Y-4779333D01*
X25768666Y-4812666D01*
X25735333Y-4879333D01*
X25735333Y-5079333D01*
X25768666Y-5146000D01*
X25802000Y-5179333D01*
X25868666Y-5212666D01*
X25968666Y-5212666D01*
X25435333Y-5212666D02*
X25435333Y-4746000D01*
X25435333Y-4879333D02*
X25402000Y-4812666D01*
X25368666Y-4779333D01*
X25302000Y-4746000D01*
X25235333Y-4746000D01*
X24702000Y-5212666D02*
X24702000Y-4846000D01*
X24735333Y-4779333D01*
X24802000Y-4746000D01*
X24935333Y-4746000D01*
X25002000Y-4779333D01*
X24702000Y-5179333D02*
X24768666Y-5212666D01*
X24935333Y-5212666D01*
X25002000Y-5179333D01*
X25035333Y-5112666D01*
X25035333Y-5046000D01*
X25002000Y-4979333D01*
X24935333Y-4946000D01*
X24768666Y-4946000D01*
X24702000Y-4912666D01*
X24368666Y-4746000D02*
X24368666Y-5212666D01*
X24368666Y-4812666D02*
X24335333Y-4779333D01*
X24268666Y-4746000D01*
X24168666Y-4746000D01*
X24102000Y-4779333D01*
X24068666Y-4846000D01*
X24068666Y-5212666D01*
X23435333Y-4746000D02*
X23435333Y-5312666D01*
X23468666Y-5379333D01*
X23502000Y-5412666D01*
X23568666Y-5446000D01*
X23668666Y-5446000D01*
X23735333Y-5412666D01*
X23435333Y-5179333D02*
X23502000Y-5212666D01*
X23635333Y-5212666D01*
X23702000Y-5179333D01*
X23735333Y-5146000D01*
X23768666Y-5079333D01*
X23768666Y-4879333D01*
X23735333Y-4812666D01*
X23702000Y-4779333D01*
X23635333Y-4746000D01*
X23502000Y-4746000D01*
X23435333Y-4779333D01*
X22835333Y-5179333D02*
X22902000Y-5212666D01*
X23035333Y-5212666D01*
X23102000Y-5179333D01*
X23135333Y-5112666D01*
X23135333Y-4846000D01*
X23102000Y-4779333D01*
X23035333Y-4746000D01*
X22902000Y-4746000D01*
X22835333Y-4779333D01*
X22802000Y-4846000D01*
X22802000Y-4912666D01*
X23135333Y-4979333D01*
G04 #@! TD*
M02*
