G04 #@! TF.GenerationSoftware,KiCad,Pcbnew,5.1.10-88a1d61d58~90~ubuntu20.04.1*
G04 #@! TF.CreationDate,2021-11-15T23:18:05+00:00*
G04 #@! TF.ProjectId,pulse_stretcher,70756c73-655f-4737-9472-657463686572,rev?*
G04 #@! TF.SameCoordinates,PX5ee3fe0PY6209a80*
G04 #@! TF.FileFunction,Soldermask,Top*
G04 #@! TF.FilePolarity,Negative*
%FSLAX46Y46*%
G04 Gerber Fmt 4.6, Leading zero omitted, Abs format (unit mm)*
G04 Created by KiCad (PCBNEW 5.1.10-88a1d61d58~90~ubuntu20.04.1) date 2021-11-15 23:18:05*
%MOMM*%
%LPD*%
G01*
G04 APERTURE LIST*
%ADD10C,0.100000*%
%ADD11C,3.200000*%
%ADD12C,2.200000*%
%ADD13C,8.000000*%
G04 APERTURE END LIST*
D10*
G36*
X43502000Y25330000D02*
G01*
X40200000Y25330000D01*
X40200000Y26092000D01*
X43502000Y26092000D01*
X43502000Y25330000D01*
G37*
X43502000Y25330000D02*
X40200000Y25330000D01*
X40200000Y26092000D01*
X43502000Y26092000D01*
X43502000Y25330000D01*
G36*
X43502000Y21774000D02*
G01*
X40200000Y21774000D01*
X40200000Y22536000D01*
X43502000Y22536000D01*
X43502000Y21774000D01*
G37*
X43502000Y21774000D02*
X40200000Y21774000D01*
X40200000Y22536000D01*
X43502000Y22536000D01*
X43502000Y21774000D01*
G36*
X43502000Y18218000D02*
G01*
X40200000Y18218000D01*
X40200000Y18980000D01*
X43502000Y18980000D01*
X43502000Y18218000D01*
G37*
X43502000Y18218000D02*
X40200000Y18218000D01*
X40200000Y18980000D01*
X43502000Y18980000D01*
X43502000Y18218000D01*
G36*
X47566000Y18218000D02*
G01*
X44010000Y18218000D01*
X44010000Y18980000D01*
X47566000Y18980000D01*
X47566000Y18218000D01*
G37*
X47566000Y18218000D02*
X44010000Y18218000D01*
X44010000Y18980000D01*
X47566000Y18980000D01*
X47566000Y18218000D01*
G36*
X47566000Y25330000D02*
G01*
X44010000Y25330000D01*
X44010000Y26092000D01*
X47566000Y26092000D01*
X47566000Y25330000D01*
G37*
X47566000Y25330000D02*
X44010000Y25330000D01*
X44010000Y26092000D01*
X47566000Y26092000D01*
X47566000Y25330000D01*
G36*
X47566000Y21774000D02*
G01*
X44010000Y21774000D01*
X44010000Y22536000D01*
X47566000Y22536000D01*
X47566000Y21774000D01*
G37*
X47566000Y21774000D02*
X44010000Y21774000D01*
X44010000Y22536000D01*
X47566000Y22536000D01*
X47566000Y21774000D01*
G04 #@! TO.C,U7*
G36*
G01*
X28399000Y3602000D02*
X27749000Y3602000D01*
G75*
G02*
X27549000Y3802000I0J200000D01*
G01*
X27549000Y4862000D01*
G75*
G02*
X27749000Y5062000I200000J0D01*
G01*
X28399000Y5062000D01*
G75*
G02*
X28599000Y4862000I0J-200000D01*
G01*
X28599000Y3802000D01*
G75*
G02*
X28399000Y3602000I-200000J0D01*
G01*
G37*
G36*
G01*
X30299000Y3602000D02*
X29649000Y3602000D01*
G75*
G02*
X29449000Y3802000I0J200000D01*
G01*
X29449000Y4862000D01*
G75*
G02*
X29649000Y5062000I200000J0D01*
G01*
X30299000Y5062000D01*
G75*
G02*
X30499000Y4862000I0J-200000D01*
G01*
X30499000Y3802000D01*
G75*
G02*
X30299000Y3602000I-200000J0D01*
G01*
G37*
G36*
G01*
X30299000Y1402000D02*
X29649000Y1402000D01*
G75*
G02*
X29449000Y1602000I0J200000D01*
G01*
X29449000Y2662000D01*
G75*
G02*
X29649000Y2862000I200000J0D01*
G01*
X30299000Y2862000D01*
G75*
G02*
X30499000Y2662000I0J-200000D01*
G01*
X30499000Y1602000D01*
G75*
G02*
X30299000Y1402000I-200000J0D01*
G01*
G37*
G36*
G01*
X29349000Y1402000D02*
X28699000Y1402000D01*
G75*
G02*
X28499000Y1602000I0J200000D01*
G01*
X28499000Y2662000D01*
G75*
G02*
X28699000Y2862000I200000J0D01*
G01*
X29349000Y2862000D01*
G75*
G02*
X29549000Y2662000I0J-200000D01*
G01*
X29549000Y1602000D01*
G75*
G02*
X29349000Y1402000I-200000J0D01*
G01*
G37*
G36*
G01*
X28399000Y1402000D02*
X27749000Y1402000D01*
G75*
G02*
X27549000Y1602000I0J200000D01*
G01*
X27549000Y2662000D01*
G75*
G02*
X27749000Y2862000I200000J0D01*
G01*
X28399000Y2862000D01*
G75*
G02*
X28599000Y2662000I0J-200000D01*
G01*
X28599000Y1602000D01*
G75*
G02*
X28399000Y1402000I-200000J0D01*
G01*
G37*
G04 #@! TD*
G04 #@! TO.C,U6*
G36*
G01*
X28400000Y9084000D02*
X28400000Y8434000D01*
G75*
G02*
X28200000Y8234000I-200000J0D01*
G01*
X27140000Y8234000D01*
G75*
G02*
X26940000Y8434000I0J200000D01*
G01*
X26940000Y9084000D01*
G75*
G02*
X27140000Y9284000I200000J0D01*
G01*
X28200000Y9284000D01*
G75*
G02*
X28400000Y9084000I0J-200000D01*
G01*
G37*
G36*
G01*
X28400000Y10984000D02*
X28400000Y10334000D01*
G75*
G02*
X28200000Y10134000I-200000J0D01*
G01*
X27140000Y10134000D01*
G75*
G02*
X26940000Y10334000I0J200000D01*
G01*
X26940000Y10984000D01*
G75*
G02*
X27140000Y11184000I200000J0D01*
G01*
X28200000Y11184000D01*
G75*
G02*
X28400000Y10984000I0J-200000D01*
G01*
G37*
G36*
G01*
X30600000Y10984000D02*
X30600000Y10334000D01*
G75*
G02*
X30400000Y10134000I-200000J0D01*
G01*
X29340000Y10134000D01*
G75*
G02*
X29140000Y10334000I0J200000D01*
G01*
X29140000Y10984000D01*
G75*
G02*
X29340000Y11184000I200000J0D01*
G01*
X30400000Y11184000D01*
G75*
G02*
X30600000Y10984000I0J-200000D01*
G01*
G37*
G36*
G01*
X30600000Y10034000D02*
X30600000Y9384000D01*
G75*
G02*
X30400000Y9184000I-200000J0D01*
G01*
X29340000Y9184000D01*
G75*
G02*
X29140000Y9384000I0J200000D01*
G01*
X29140000Y10034000D01*
G75*
G02*
X29340000Y10234000I200000J0D01*
G01*
X30400000Y10234000D01*
G75*
G02*
X30600000Y10034000I0J-200000D01*
G01*
G37*
G36*
G01*
X30600000Y9084000D02*
X30600000Y8434000D01*
G75*
G02*
X30400000Y8234000I-200000J0D01*
G01*
X29340000Y8234000D01*
G75*
G02*
X29140000Y8434000I0J200000D01*
G01*
X29140000Y9084000D01*
G75*
G02*
X29340000Y9284000I200000J0D01*
G01*
X30400000Y9284000D01*
G75*
G02*
X30600000Y9084000I0J-200000D01*
G01*
G37*
G04 #@! TD*
G04 #@! TO.C,R26*
G36*
G01*
X29636000Y794250D02*
X29636000Y81750D01*
G75*
G02*
X29317250Y-237000I-318750J0D01*
G01*
X28679750Y-237000D01*
G75*
G02*
X28361000Y81750I0J318750D01*
G01*
X28361000Y794250D01*
G75*
G02*
X28679750Y1113000I318750J0D01*
G01*
X29317250Y1113000D01*
G75*
G02*
X29636000Y794250I0J-318750D01*
G01*
G37*
G36*
G01*
X31211000Y794250D02*
X31211000Y81750D01*
G75*
G02*
X30892250Y-237000I-318750J0D01*
G01*
X30254750Y-237000D01*
G75*
G02*
X29936000Y81750I0J318750D01*
G01*
X29936000Y794250D01*
G75*
G02*
X30254750Y1113000I318750J0D01*
G01*
X30892250Y1113000D01*
G75*
G02*
X31211000Y794250I0J-318750D01*
G01*
G37*
G04 #@! TD*
G04 #@! TO.C,R11*
G36*
G01*
X10125750Y8670000D02*
X10838250Y8670000D01*
G75*
G02*
X11157000Y8351250I0J-318750D01*
G01*
X11157000Y7713750D01*
G75*
G02*
X10838250Y7395000I-318750J0D01*
G01*
X10125750Y7395000D01*
G75*
G02*
X9807000Y7713750I0J318750D01*
G01*
X9807000Y8351250D01*
G75*
G02*
X10125750Y8670000I318750J0D01*
G01*
G37*
G36*
G01*
X10125750Y10245000D02*
X10838250Y10245000D01*
G75*
G02*
X11157000Y9926250I0J-318750D01*
G01*
X11157000Y9288750D01*
G75*
G02*
X10838250Y8970000I-318750J0D01*
G01*
X10125750Y8970000D01*
G75*
G02*
X9807000Y9288750I0J318750D01*
G01*
X9807000Y9926250D01*
G75*
G02*
X10125750Y10245000I318750J0D01*
G01*
G37*
G04 #@! TD*
D11*
G04 #@! TO.C,J4*
X55988000Y13432000D03*
X55988000Y18432000D03*
X60988000Y18432000D03*
X60988000Y13432000D03*
X58488000Y15932000D03*
G04 #@! TD*
G04 #@! TO.C,C25*
G36*
G01*
X26465500Y4004000D02*
X27010500Y4004000D01*
G75*
G02*
X27258000Y3756500I0J-247500D01*
G01*
X27258000Y3261500D01*
G75*
G02*
X27010500Y3014000I-247500J0D01*
G01*
X26465500Y3014000D01*
G75*
G02*
X26218000Y3261500I0J247500D01*
G01*
X26218000Y3756500D01*
G75*
G02*
X26465500Y4004000I247500J0D01*
G01*
G37*
G36*
G01*
X26465500Y4974000D02*
X27010500Y4974000D01*
G75*
G02*
X27258000Y4726500I0J-247500D01*
G01*
X27258000Y4231500D01*
G75*
G02*
X27010500Y3984000I-247500J0D01*
G01*
X26465500Y3984000D01*
G75*
G02*
X26218000Y4231500I0J247500D01*
G01*
X26218000Y4726500D01*
G75*
G02*
X26465500Y4974000I247500J0D01*
G01*
G37*
G04 #@! TD*
G04 #@! TO.C,J3*
X55988000Y29568000D03*
X55988000Y34568000D03*
X60988000Y34568000D03*
X60988000Y29568000D03*
X58488000Y32068000D03*
G04 #@! TD*
G04 #@! TO.C,J2*
X-988000Y18432000D03*
X-988000Y13432000D03*
X-5988000Y13432000D03*
X-5988000Y18432000D03*
X-3488000Y15932000D03*
G04 #@! TD*
G04 #@! TO.C,C1*
G36*
G01*
X11735000Y40885000D02*
X10245000Y40885000D01*
G75*
G02*
X9915000Y41215000I0J330000D01*
G01*
X9915000Y42205000D01*
G75*
G02*
X10245000Y42535000I330000J0D01*
G01*
X11735000Y42535000D01*
G75*
G02*
X12065000Y42205000I0J-330000D01*
G01*
X12065000Y41215000D01*
G75*
G02*
X11735000Y40885000I-330000J0D01*
G01*
G37*
G36*
G01*
X11735000Y43685000D02*
X10245000Y43685000D01*
G75*
G02*
X9915000Y44015000I0J330000D01*
G01*
X9915000Y45005000D01*
G75*
G02*
X10245000Y45335000I330000J0D01*
G01*
X11735000Y45335000D01*
G75*
G02*
X12065000Y45005000I0J-330000D01*
G01*
X12065000Y44015000D01*
G75*
G02*
X11735000Y43685000I-330000J0D01*
G01*
G37*
G04 #@! TD*
G04 #@! TO.C,C2*
G36*
G01*
X14021000Y43685000D02*
X12531000Y43685000D01*
G75*
G02*
X12201000Y44015000I0J330000D01*
G01*
X12201000Y45005000D01*
G75*
G02*
X12531000Y45335000I330000J0D01*
G01*
X14021000Y45335000D01*
G75*
G02*
X14351000Y45005000I0J-330000D01*
G01*
X14351000Y44015000D01*
G75*
G02*
X14021000Y43685000I-330000J0D01*
G01*
G37*
G36*
G01*
X14021000Y40885000D02*
X12531000Y40885000D01*
G75*
G02*
X12201000Y41215000I0J330000D01*
G01*
X12201000Y42205000D01*
G75*
G02*
X12531000Y42535000I330000J0D01*
G01*
X14021000Y42535000D01*
G75*
G02*
X14351000Y42205000I0J-330000D01*
G01*
X14351000Y41215000D01*
G75*
G02*
X14021000Y40885000I-330000J0D01*
G01*
G37*
G04 #@! TD*
G04 #@! TO.C,C3*
G36*
G01*
X27737000Y40885000D02*
X26247000Y40885000D01*
G75*
G02*
X25917000Y41215000I0J330000D01*
G01*
X25917000Y42205000D01*
G75*
G02*
X26247000Y42535000I330000J0D01*
G01*
X27737000Y42535000D01*
G75*
G02*
X28067000Y42205000I0J-330000D01*
G01*
X28067000Y41215000D01*
G75*
G02*
X27737000Y40885000I-330000J0D01*
G01*
G37*
G36*
G01*
X27737000Y43685000D02*
X26247000Y43685000D01*
G75*
G02*
X25917000Y44015000I0J330000D01*
G01*
X25917000Y45005000D01*
G75*
G02*
X26247000Y45335000I330000J0D01*
G01*
X27737000Y45335000D01*
G75*
G02*
X28067000Y45005000I0J-330000D01*
G01*
X28067000Y44015000D01*
G75*
G02*
X27737000Y43685000I-330000J0D01*
G01*
G37*
G04 #@! TD*
G04 #@! TO.C,C4*
G36*
G01*
X30023000Y43685000D02*
X28533000Y43685000D01*
G75*
G02*
X28203000Y44015000I0J330000D01*
G01*
X28203000Y45005000D01*
G75*
G02*
X28533000Y45335000I330000J0D01*
G01*
X30023000Y45335000D01*
G75*
G02*
X30353000Y45005000I0J-330000D01*
G01*
X30353000Y44015000D01*
G75*
G02*
X30023000Y43685000I-330000J0D01*
G01*
G37*
G36*
G01*
X30023000Y40885000D02*
X28533000Y40885000D01*
G75*
G02*
X28203000Y41215000I0J330000D01*
G01*
X28203000Y42205000D01*
G75*
G02*
X28533000Y42535000I330000J0D01*
G01*
X30023000Y42535000D01*
G75*
G02*
X30353000Y42205000I0J-330000D01*
G01*
X30353000Y41215000D01*
G75*
G02*
X30023000Y40885000I-330000J0D01*
G01*
G37*
G04 #@! TD*
G04 #@! TO.C,C5*
G36*
G01*
X5112000Y16331500D02*
X5112000Y15786500D01*
G75*
G02*
X4864500Y15539000I-247500J0D01*
G01*
X4369500Y15539000D01*
G75*
G02*
X4122000Y15786500I0J247500D01*
G01*
X4122000Y16331500D01*
G75*
G02*
X4369500Y16579000I247500J0D01*
G01*
X4864500Y16579000D01*
G75*
G02*
X5112000Y16331500I0J-247500D01*
G01*
G37*
G36*
G01*
X4142000Y16331500D02*
X4142000Y15786500D01*
G75*
G02*
X3894500Y15539000I-247500J0D01*
G01*
X3399500Y15539000D01*
G75*
G02*
X3152000Y15786500I0J247500D01*
G01*
X3152000Y16331500D01*
G75*
G02*
X3399500Y16579000I247500J0D01*
G01*
X3894500Y16579000D01*
G75*
G02*
X4142000Y16331500I0J-247500D01*
G01*
G37*
G04 #@! TD*
G04 #@! TO.C,C6*
G36*
G01*
X20539750Y38185000D02*
X21252250Y38185000D01*
G75*
G02*
X21571000Y37866250I0J-318750D01*
G01*
X21571000Y37228750D01*
G75*
G02*
X21252250Y36910000I-318750J0D01*
G01*
X20539750Y36910000D01*
G75*
G02*
X20221000Y37228750I0J318750D01*
G01*
X20221000Y37866250D01*
G75*
G02*
X20539750Y38185000I318750J0D01*
G01*
G37*
G36*
G01*
X20539750Y36610000D02*
X21252250Y36610000D01*
G75*
G02*
X21571000Y36291250I0J-318750D01*
G01*
X21571000Y35653750D01*
G75*
G02*
X21252250Y35335000I-318750J0D01*
G01*
X20539750Y35335000D01*
G75*
G02*
X20221000Y35653750I0J318750D01*
G01*
X20221000Y36291250D01*
G75*
G02*
X20539750Y36610000I318750J0D01*
G01*
G37*
G04 #@! TD*
G04 #@! TO.C,C7*
G36*
G01*
X39334000Y41483750D02*
X39334000Y42196250D01*
G75*
G02*
X39652750Y42515000I318750J0D01*
G01*
X40290250Y42515000D01*
G75*
G02*
X40609000Y42196250I0J-318750D01*
G01*
X40609000Y41483750D01*
G75*
G02*
X40290250Y41165000I-318750J0D01*
G01*
X39652750Y41165000D01*
G75*
G02*
X39334000Y41483750I0J318750D01*
G01*
G37*
G36*
G01*
X37759000Y41483750D02*
X37759000Y42196250D01*
G75*
G02*
X38077750Y42515000I318750J0D01*
G01*
X38715250Y42515000D01*
G75*
G02*
X39034000Y42196250I0J-318750D01*
G01*
X39034000Y41483750D01*
G75*
G02*
X38715250Y41165000I-318750J0D01*
G01*
X38077750Y41165000D01*
G75*
G02*
X37759000Y41483750I0J318750D01*
G01*
G37*
G04 #@! TD*
G04 #@! TO.C,C8*
G36*
G01*
X16223000Y29853750D02*
X16223000Y30966250D01*
G75*
G02*
X16566750Y31310000I343750J0D01*
G01*
X17254250Y31310000D01*
G75*
G02*
X17598000Y30966250I0J-343750D01*
G01*
X17598000Y29853750D01*
G75*
G02*
X17254250Y29510000I-343750J0D01*
G01*
X16566750Y29510000D01*
G75*
G02*
X16223000Y29853750I0J343750D01*
G01*
G37*
G36*
G01*
X18098000Y29853750D02*
X18098000Y30966250D01*
G75*
G02*
X18441750Y31310000I343750J0D01*
G01*
X19129250Y31310000D01*
G75*
G02*
X19473000Y30966250I0J-343750D01*
G01*
X19473000Y29853750D01*
G75*
G02*
X19129250Y29510000I-343750J0D01*
G01*
X18441750Y29510000D01*
G75*
G02*
X18098000Y29853750I0J343750D01*
G01*
G37*
G04 #@! TD*
G04 #@! TO.C,C9*
G36*
G01*
X21452250Y31579000D02*
X20339750Y31579000D01*
G75*
G02*
X19996000Y31922750I0J343750D01*
G01*
X19996000Y32610250D01*
G75*
G02*
X20339750Y32954000I343750J0D01*
G01*
X21452250Y32954000D01*
G75*
G02*
X21796000Y32610250I0J-343750D01*
G01*
X21796000Y31922750D01*
G75*
G02*
X21452250Y31579000I-343750J0D01*
G01*
G37*
G36*
G01*
X21452250Y33454000D02*
X20339750Y33454000D01*
G75*
G02*
X19996000Y33797750I0J343750D01*
G01*
X19996000Y34485250D01*
G75*
G02*
X20339750Y34829000I343750J0D01*
G01*
X21452250Y34829000D01*
G75*
G02*
X21796000Y34485250I0J-343750D01*
G01*
X21796000Y33797750D01*
G75*
G02*
X21452250Y33454000I-343750J0D01*
G01*
G37*
G04 #@! TD*
G04 #@! TO.C,C10*
G36*
G01*
X42490000Y42396250D02*
X42490000Y41283750D01*
G75*
G02*
X42146250Y40940000I-343750J0D01*
G01*
X41458750Y40940000D01*
G75*
G02*
X41115000Y41283750I0J343750D01*
G01*
X41115000Y42396250D01*
G75*
G02*
X41458750Y42740000I343750J0D01*
G01*
X42146250Y42740000D01*
G75*
G02*
X42490000Y42396250I0J-343750D01*
G01*
G37*
G36*
G01*
X44365000Y42396250D02*
X44365000Y41283750D01*
G75*
G02*
X44021250Y40940000I-343750J0D01*
G01*
X43333750Y40940000D01*
G75*
G02*
X42990000Y41283750I0J343750D01*
G01*
X42990000Y42396250D01*
G75*
G02*
X43333750Y42740000I343750J0D01*
G01*
X44021250Y42740000D01*
G75*
G02*
X44365000Y42396250I0J-343750D01*
G01*
G37*
G04 #@! TD*
G04 #@! TO.C,C11*
G36*
G01*
X16034000Y20141500D02*
X16034000Y19596500D01*
G75*
G02*
X15786500Y19349000I-247500J0D01*
G01*
X15291500Y19349000D01*
G75*
G02*
X15044000Y19596500I0J247500D01*
G01*
X15044000Y20141500D01*
G75*
G02*
X15291500Y20389000I247500J0D01*
G01*
X15786500Y20389000D01*
G75*
G02*
X16034000Y20141500I0J-247500D01*
G01*
G37*
G36*
G01*
X15064000Y20141500D02*
X15064000Y19596500D01*
G75*
G02*
X14816500Y19349000I-247500J0D01*
G01*
X14321500Y19349000D01*
G75*
G02*
X14074000Y19596500I0J247500D01*
G01*
X14074000Y20141500D01*
G75*
G02*
X14321500Y20389000I247500J0D01*
G01*
X14816500Y20389000D01*
G75*
G02*
X15064000Y20141500I0J-247500D01*
G01*
G37*
G04 #@! TD*
G04 #@! TO.C,C12*
G36*
G01*
X15064000Y21157500D02*
X15064000Y20612500D01*
G75*
G02*
X14816500Y20365000I-247500J0D01*
G01*
X14321500Y20365000D01*
G75*
G02*
X14074000Y20612500I0J247500D01*
G01*
X14074000Y21157500D01*
G75*
G02*
X14321500Y21405000I247500J0D01*
G01*
X14816500Y21405000D01*
G75*
G02*
X15064000Y21157500I0J-247500D01*
G01*
G37*
G36*
G01*
X16034000Y21157500D02*
X16034000Y20612500D01*
G75*
G02*
X15786500Y20365000I-247500J0D01*
G01*
X15291500Y20365000D01*
G75*
G02*
X15044000Y20612500I0J247500D01*
G01*
X15044000Y21157500D01*
G75*
G02*
X15291500Y21405000I247500J0D01*
G01*
X15786500Y21405000D01*
G75*
G02*
X16034000Y21157500I0J-247500D01*
G01*
G37*
G04 #@! TD*
G04 #@! TO.C,C13*
G36*
G01*
X14904000Y22511250D02*
X14904000Y21798750D01*
G75*
G02*
X14585250Y21480000I-318750J0D01*
G01*
X13947750Y21480000D01*
G75*
G02*
X13629000Y21798750I0J318750D01*
G01*
X13629000Y22511250D01*
G75*
G02*
X13947750Y22830000I318750J0D01*
G01*
X14585250Y22830000D01*
G75*
G02*
X14904000Y22511250I0J-318750D01*
G01*
G37*
G36*
G01*
X16479000Y22511250D02*
X16479000Y21798750D01*
G75*
G02*
X16160250Y21480000I-318750J0D01*
G01*
X15522750Y21480000D01*
G75*
G02*
X15204000Y21798750I0J318750D01*
G01*
X15204000Y22511250D01*
G75*
G02*
X15522750Y22830000I318750J0D01*
G01*
X16160250Y22830000D01*
G75*
G02*
X16479000Y22511250I0J-318750D01*
G01*
G37*
G04 #@! TD*
G04 #@! TO.C,C14*
G36*
G01*
X15699000Y11124500D02*
X15699000Y10579500D01*
G75*
G02*
X15451500Y10332000I-247500J0D01*
G01*
X14956500Y10332000D01*
G75*
G02*
X14709000Y10579500I0J247500D01*
G01*
X14709000Y11124500D01*
G75*
G02*
X14956500Y11372000I247500J0D01*
G01*
X15451500Y11372000D01*
G75*
G02*
X15699000Y11124500I0J-247500D01*
G01*
G37*
G36*
G01*
X16669000Y11124500D02*
X16669000Y10579500D01*
G75*
G02*
X16421500Y10332000I-247500J0D01*
G01*
X15926500Y10332000D01*
G75*
G02*
X15679000Y10579500I0J247500D01*
G01*
X15679000Y11124500D01*
G75*
G02*
X15926500Y11372000I247500J0D01*
G01*
X16421500Y11372000D01*
G75*
G02*
X16669000Y11124500I0J-247500D01*
G01*
G37*
G04 #@! TD*
G04 #@! TO.C,C15*
G36*
G01*
X17630000Y23914500D02*
X17630000Y24459500D01*
G75*
G02*
X17877500Y24707000I247500J0D01*
G01*
X18372500Y24707000D01*
G75*
G02*
X18620000Y24459500I0J-247500D01*
G01*
X18620000Y23914500D01*
G75*
G02*
X18372500Y23667000I-247500J0D01*
G01*
X17877500Y23667000D01*
G75*
G02*
X17630000Y23914500I0J247500D01*
G01*
G37*
G36*
G01*
X18600000Y23914500D02*
X18600000Y24459500D01*
G75*
G02*
X18847500Y24707000I247500J0D01*
G01*
X19342500Y24707000D01*
G75*
G02*
X19590000Y24459500I0J-247500D01*
G01*
X19590000Y23914500D01*
G75*
G02*
X19342500Y23667000I-247500J0D01*
G01*
X18847500Y23667000D01*
G75*
G02*
X18600000Y23914500I0J247500D01*
G01*
G37*
G04 #@! TD*
G04 #@! TO.C,C16*
G36*
G01*
X17185000Y25100750D02*
X17185000Y25813250D01*
G75*
G02*
X17503750Y26132000I318750J0D01*
G01*
X18141250Y26132000D01*
G75*
G02*
X18460000Y25813250I0J-318750D01*
G01*
X18460000Y25100750D01*
G75*
G02*
X18141250Y24782000I-318750J0D01*
G01*
X17503750Y24782000D01*
G75*
G02*
X17185000Y25100750I0J318750D01*
G01*
G37*
G36*
G01*
X18760000Y25100750D02*
X18760000Y25813250D01*
G75*
G02*
X19078750Y26132000I318750J0D01*
G01*
X19716250Y26132000D01*
G75*
G02*
X20035000Y25813250I0J-318750D01*
G01*
X20035000Y25100750D01*
G75*
G02*
X19716250Y24782000I-318750J0D01*
G01*
X19078750Y24782000D01*
G75*
G02*
X18760000Y25100750I0J318750D01*
G01*
G37*
G04 #@! TD*
G04 #@! TO.C,C18*
G36*
G01*
X26494000Y20141500D02*
X26494000Y19596500D01*
G75*
G02*
X26246500Y19349000I-247500J0D01*
G01*
X25751500Y19349000D01*
G75*
G02*
X25504000Y19596500I0J247500D01*
G01*
X25504000Y20141500D01*
G75*
G02*
X25751500Y20389000I247500J0D01*
G01*
X26246500Y20389000D01*
G75*
G02*
X26494000Y20141500I0J-247500D01*
G01*
G37*
G36*
G01*
X27464000Y20141500D02*
X27464000Y19596500D01*
G75*
G02*
X27216500Y19349000I-247500J0D01*
G01*
X26721500Y19349000D01*
G75*
G02*
X26474000Y19596500I0J247500D01*
G01*
X26474000Y20141500D01*
G75*
G02*
X26721500Y20389000I247500J0D01*
G01*
X27216500Y20389000D01*
G75*
G02*
X27464000Y20141500I0J-247500D01*
G01*
G37*
G04 #@! TD*
G04 #@! TO.C,C19*
G36*
G01*
X27464000Y21157500D02*
X27464000Y20612500D01*
G75*
G02*
X27216500Y20365000I-247500J0D01*
G01*
X26721500Y20365000D01*
G75*
G02*
X26474000Y20612500I0J247500D01*
G01*
X26474000Y21157500D01*
G75*
G02*
X26721500Y21405000I247500J0D01*
G01*
X27216500Y21405000D01*
G75*
G02*
X27464000Y21157500I0J-247500D01*
G01*
G37*
G36*
G01*
X26494000Y21157500D02*
X26494000Y20612500D01*
G75*
G02*
X26246500Y20365000I-247500J0D01*
G01*
X25751500Y20365000D01*
G75*
G02*
X25504000Y20612500I0J247500D01*
G01*
X25504000Y21157500D01*
G75*
G02*
X25751500Y21405000I247500J0D01*
G01*
X26246500Y21405000D01*
G75*
G02*
X26494000Y21157500I0J-247500D01*
G01*
G37*
G04 #@! TD*
G04 #@! TO.C,C20*
G36*
G01*
X26334000Y22511250D02*
X26334000Y21798750D01*
G75*
G02*
X26015250Y21480000I-318750J0D01*
G01*
X25377750Y21480000D01*
G75*
G02*
X25059000Y21798750I0J318750D01*
G01*
X25059000Y22511250D01*
G75*
G02*
X25377750Y22830000I318750J0D01*
G01*
X26015250Y22830000D01*
G75*
G02*
X26334000Y22511250I0J-318750D01*
G01*
G37*
G36*
G01*
X27909000Y22511250D02*
X27909000Y21798750D01*
G75*
G02*
X27590250Y21480000I-318750J0D01*
G01*
X26952750Y21480000D01*
G75*
G02*
X26634000Y21798750I0J318750D01*
G01*
X26634000Y22511250D01*
G75*
G02*
X26952750Y22830000I318750J0D01*
G01*
X27590250Y22830000D01*
G75*
G02*
X27909000Y22511250I0J-318750D01*
G01*
G37*
G04 #@! TD*
G04 #@! TO.C,C21*
G36*
G01*
X22938000Y22427500D02*
X22938000Y21882500D01*
G75*
G02*
X22690500Y21635000I-247500J0D01*
G01*
X22195500Y21635000D01*
G75*
G02*
X21948000Y21882500I0J247500D01*
G01*
X21948000Y22427500D01*
G75*
G02*
X22195500Y22675000I247500J0D01*
G01*
X22690500Y22675000D01*
G75*
G02*
X22938000Y22427500I0J-247500D01*
G01*
G37*
G36*
G01*
X23908000Y22427500D02*
X23908000Y21882500D01*
G75*
G02*
X23660500Y21635000I-247500J0D01*
G01*
X23165500Y21635000D01*
G75*
G02*
X22918000Y21882500I0J247500D01*
G01*
X22918000Y22427500D01*
G75*
G02*
X23165500Y22675000I247500J0D01*
G01*
X23660500Y22675000D01*
G75*
G02*
X23908000Y22427500I0J-247500D01*
G01*
G37*
G04 #@! TD*
G04 #@! TO.C,C23*
G36*
G01*
X27282000Y7150500D02*
X27282000Y7695500D01*
G75*
G02*
X27529500Y7943000I247500J0D01*
G01*
X28024500Y7943000D01*
G75*
G02*
X28272000Y7695500I0J-247500D01*
G01*
X28272000Y7150500D01*
G75*
G02*
X28024500Y6903000I-247500J0D01*
G01*
X27529500Y6903000D01*
G75*
G02*
X27282000Y7150500I0J247500D01*
G01*
G37*
G36*
G01*
X28252000Y7150500D02*
X28252000Y7695500D01*
G75*
G02*
X28499500Y7943000I247500J0D01*
G01*
X28994500Y7943000D01*
G75*
G02*
X29242000Y7695500I0J-247500D01*
G01*
X29242000Y7150500D01*
G75*
G02*
X28994500Y6903000I-247500J0D01*
G01*
X28499500Y6903000D01*
G75*
G02*
X28252000Y7150500I0J247500D01*
G01*
G37*
G04 #@! TD*
G04 #@! TO.C,C24*
G36*
G01*
X26837000Y5796750D02*
X26837000Y6509250D01*
G75*
G02*
X27155750Y6828000I318750J0D01*
G01*
X27793250Y6828000D01*
G75*
G02*
X28112000Y6509250I0J-318750D01*
G01*
X28112000Y5796750D01*
G75*
G02*
X27793250Y5478000I-318750J0D01*
G01*
X27155750Y5478000D01*
G75*
G02*
X26837000Y5796750I0J318750D01*
G01*
G37*
G36*
G01*
X28412000Y5796750D02*
X28412000Y6509250D01*
G75*
G02*
X28730750Y6828000I318750J0D01*
G01*
X29368250Y6828000D01*
G75*
G02*
X29687000Y6509250I0J-318750D01*
G01*
X29687000Y5796750D01*
G75*
G02*
X29368250Y5478000I-318750J0D01*
G01*
X28730750Y5478000D01*
G75*
G02*
X28412000Y5796750I0J318750D01*
G01*
G37*
G04 #@! TD*
G04 #@! TO.C,D1*
G36*
G01*
X23600000Y51100000D02*
X25400000Y51100000D01*
G75*
G02*
X25600000Y50900000I0J-200000D01*
G01*
X25600000Y49100000D01*
G75*
G02*
X25400000Y48900000I-200000J0D01*
G01*
X23600000Y48900000D01*
G75*
G02*
X23400000Y49100000I0J200000D01*
G01*
X23400000Y50900000D01*
G75*
G02*
X23600000Y51100000I200000J0D01*
G01*
G37*
D12*
X24500000Y47460000D03*
G04 #@! TD*
D13*
G04 #@! TO.C,H1*
X12500000Y52000000D03*
G04 #@! TD*
G04 #@! TO.C,H2*
X51500000Y52000000D03*
G04 #@! TD*
G04 #@! TO.C,H3*
X3500000Y-4000000D03*
G04 #@! TD*
G04 #@! TO.C,H4*
X42500000Y-4000000D03*
G04 #@! TD*
G04 #@! TO.C,J1*
G36*
G01*
X4214000Y38062000D02*
X4214000Y42062000D01*
G75*
G02*
X4414000Y42262000I200000J0D01*
G01*
X7914000Y42262000D01*
G75*
G02*
X8114000Y42062000I0J-200000D01*
G01*
X8114000Y38062000D01*
G75*
G02*
X7914000Y37862000I-200000J0D01*
G01*
X4414000Y37862000D01*
G75*
G02*
X4214000Y38062000I0J200000D01*
G01*
G37*
G36*
G01*
X-1986000Y38062000D02*
X-1986000Y42062000D01*
G75*
G02*
X-1786000Y42262000I200000J0D01*
G01*
X1714000Y42262000D01*
G75*
G02*
X1914000Y42062000I0J-200000D01*
G01*
X1914000Y38062000D01*
G75*
G02*
X1714000Y37862000I-200000J0D01*
G01*
X-1786000Y37862000D01*
G75*
G02*
X-1986000Y38062000I0J200000D01*
G01*
G37*
G36*
G01*
X864000Y33312000D02*
X864000Y36812000D01*
G75*
G02*
X1064000Y37012000I200000J0D01*
G01*
X5064000Y37012000D01*
G75*
G02*
X5264000Y36812000I0J-200000D01*
G01*
X5264000Y33312000D01*
G75*
G02*
X5064000Y33112000I-200000J0D01*
G01*
X1064000Y33112000D01*
G75*
G02*
X864000Y33312000I0J200000D01*
G01*
G37*
G04 #@! TD*
D10*
G04 #@! TO.C,JP1*
G36*
X20082982Y21208843D02*
G01*
X20045463Y21220224D01*
X20010886Y21238706D01*
X19980579Y21263579D01*
X19955706Y21293886D01*
X19937224Y21328463D01*
X19925843Y21365982D01*
X19922000Y21405000D01*
X19922000Y22905000D01*
X19925843Y22944018D01*
X19937224Y22981537D01*
X19955706Y23016114D01*
X19980579Y23046421D01*
X20010886Y23071294D01*
X20045463Y23089776D01*
X20082982Y23101157D01*
X20122000Y23105000D01*
X20672000Y23105000D01*
X20678112Y23104398D01*
X20696534Y23104398D01*
X20716140Y23103435D01*
X20764971Y23098625D01*
X20784380Y23095746D01*
X20832505Y23086174D01*
X20851548Y23081404D01*
X20898503Y23067160D01*
X20916980Y23060549D01*
X20962313Y23041772D01*
X20980061Y23033377D01*
X21023334Y23010246D01*
X21040162Y23000160D01*
X21080961Y22972900D01*
X21096730Y22961205D01*
X21134659Y22930077D01*
X21149200Y22916897D01*
X21183897Y22882200D01*
X21197077Y22867659D01*
X21228205Y22829730D01*
X21239900Y22813961D01*
X21267160Y22773162D01*
X21277246Y22756334D01*
X21300377Y22713061D01*
X21308772Y22695313D01*
X21327549Y22649980D01*
X21334160Y22631503D01*
X21348404Y22584548D01*
X21353174Y22565505D01*
X21362746Y22517380D01*
X21365625Y22497971D01*
X21370435Y22449140D01*
X21371398Y22429534D01*
X21371398Y22411112D01*
X21372000Y22405000D01*
X21372000Y21905000D01*
X21371398Y21898888D01*
X21371398Y21880466D01*
X21370435Y21860860D01*
X21365625Y21812029D01*
X21362746Y21792620D01*
X21353174Y21744495D01*
X21348404Y21725452D01*
X21334160Y21678497D01*
X21327549Y21660020D01*
X21308772Y21614687D01*
X21300377Y21596939D01*
X21277246Y21553666D01*
X21267160Y21536838D01*
X21239900Y21496039D01*
X21228205Y21480270D01*
X21197077Y21442341D01*
X21183897Y21427800D01*
X21149200Y21393103D01*
X21134659Y21379923D01*
X21096730Y21348795D01*
X21080961Y21337100D01*
X21040162Y21309840D01*
X21023334Y21299754D01*
X20980061Y21276623D01*
X20962313Y21268228D01*
X20916980Y21249451D01*
X20898503Y21242840D01*
X20851548Y21228596D01*
X20832505Y21223826D01*
X20784380Y21214254D01*
X20764971Y21211375D01*
X20716140Y21206565D01*
X20696534Y21205602D01*
X20678112Y21205602D01*
X20672000Y21205000D01*
X20122000Y21205000D01*
X20082982Y21208843D01*
G37*
G36*
X18065888Y21205602D02*
G01*
X18047466Y21205602D01*
X18027860Y21206565D01*
X17979029Y21211375D01*
X17959620Y21214254D01*
X17911495Y21223826D01*
X17892452Y21228596D01*
X17845497Y21242840D01*
X17827020Y21249451D01*
X17781687Y21268228D01*
X17763939Y21276623D01*
X17720666Y21299754D01*
X17703838Y21309840D01*
X17663039Y21337100D01*
X17647270Y21348795D01*
X17609341Y21379923D01*
X17594800Y21393103D01*
X17560103Y21427800D01*
X17546923Y21442341D01*
X17515795Y21480270D01*
X17504100Y21496039D01*
X17476840Y21536838D01*
X17466754Y21553666D01*
X17443623Y21596939D01*
X17435228Y21614687D01*
X17416451Y21660020D01*
X17409840Y21678497D01*
X17395596Y21725452D01*
X17390826Y21744495D01*
X17381254Y21792620D01*
X17378375Y21812029D01*
X17373565Y21860860D01*
X17372602Y21880466D01*
X17372602Y21898888D01*
X17372000Y21905000D01*
X17372000Y22405000D01*
X17372602Y22411112D01*
X17372602Y22429534D01*
X17373565Y22449140D01*
X17378375Y22497971D01*
X17381254Y22517380D01*
X17390826Y22565505D01*
X17395596Y22584548D01*
X17409840Y22631503D01*
X17416451Y22649980D01*
X17435228Y22695313D01*
X17443623Y22713061D01*
X17466754Y22756334D01*
X17476840Y22773162D01*
X17504100Y22813961D01*
X17515795Y22829730D01*
X17546923Y22867659D01*
X17560103Y22882200D01*
X17594800Y22916897D01*
X17609341Y22930077D01*
X17647270Y22961205D01*
X17663039Y22972900D01*
X17703838Y23000160D01*
X17720666Y23010246D01*
X17763939Y23033377D01*
X17781687Y23041772D01*
X17827020Y23060549D01*
X17845497Y23067160D01*
X17892452Y23081404D01*
X17911495Y23086174D01*
X17959620Y23095746D01*
X17979029Y23098625D01*
X18027860Y23103435D01*
X18047466Y23104398D01*
X18065888Y23104398D01*
X18072000Y23105000D01*
X18622000Y23105000D01*
X18661018Y23101157D01*
X18698537Y23089776D01*
X18733114Y23071294D01*
X18763421Y23046421D01*
X18788294Y23016114D01*
X18806776Y22981537D01*
X18818157Y22944018D01*
X18822000Y22905000D01*
X18822000Y21405000D01*
X18818157Y21365982D01*
X18806776Y21328463D01*
X18788294Y21293886D01*
X18763421Y21263579D01*
X18733114Y21238706D01*
X18698537Y21220224D01*
X18661018Y21208843D01*
X18622000Y21205000D01*
X18072000Y21205000D01*
X18065888Y21205602D01*
G37*
G36*
G01*
X20072000Y22905000D02*
X20072000Y21405000D01*
G75*
G02*
X19872000Y21205000I-200000J0D01*
G01*
X18872000Y21205000D01*
G75*
G02*
X18672000Y21405000I0J200000D01*
G01*
X18672000Y22905000D01*
G75*
G02*
X18872000Y23105000I200000J0D01*
G01*
X19872000Y23105000D01*
G75*
G02*
X20072000Y22905000I0J-200000D01*
G01*
G37*
G04 #@! TD*
G04 #@! TO.C,L1*
G36*
G01*
X15184000Y43760000D02*
X15184000Y44960000D01*
G75*
G02*
X15384000Y45160000I200000J0D01*
G01*
X17384000Y45160000D01*
G75*
G02*
X17584000Y44960000I0J-200000D01*
G01*
X17584000Y43760000D01*
G75*
G02*
X17384000Y43560000I-200000J0D01*
G01*
X15384000Y43560000D01*
G75*
G02*
X15184000Y43760000I0J200000D01*
G01*
G37*
G36*
G01*
X15184000Y41260000D02*
X15184000Y42460000D01*
G75*
G02*
X15384000Y42660000I200000J0D01*
G01*
X17384000Y42660000D01*
G75*
G02*
X17584000Y42460000I0J-200000D01*
G01*
X17584000Y41260000D01*
G75*
G02*
X17384000Y41060000I-200000J0D01*
G01*
X15384000Y41060000D01*
G75*
G02*
X15184000Y41260000I0J200000D01*
G01*
G37*
G36*
G01*
X22684000Y41260000D02*
X22684000Y42460000D01*
G75*
G02*
X22884000Y42660000I200000J0D01*
G01*
X24884000Y42660000D01*
G75*
G02*
X25084000Y42460000I0J-200000D01*
G01*
X25084000Y41260000D01*
G75*
G02*
X24884000Y41060000I-200000J0D01*
G01*
X22884000Y41060000D01*
G75*
G02*
X22684000Y41260000I0J200000D01*
G01*
G37*
G36*
G01*
X22684000Y43760000D02*
X22684000Y44960000D01*
G75*
G02*
X22884000Y45160000I200000J0D01*
G01*
X24884000Y45160000D01*
G75*
G02*
X25084000Y44960000I0J-200000D01*
G01*
X25084000Y43760000D01*
G75*
G02*
X24884000Y43560000I-200000J0D01*
G01*
X22884000Y43560000D01*
G75*
G02*
X22684000Y43760000I0J200000D01*
G01*
G37*
G04 #@! TD*
G04 #@! TO.C,R1*
G36*
G01*
X22062000Y47071750D02*
X22062000Y47784250D01*
G75*
G02*
X22380750Y48103000I318750J0D01*
G01*
X23018250Y48103000D01*
G75*
G02*
X23337000Y47784250I0J-318750D01*
G01*
X23337000Y47071750D01*
G75*
G02*
X23018250Y46753000I-318750J0D01*
G01*
X22380750Y46753000D01*
G75*
G02*
X22062000Y47071750I0J318750D01*
G01*
G37*
G36*
G01*
X20487000Y47071750D02*
X20487000Y47784250D01*
G75*
G02*
X20805750Y48103000I318750J0D01*
G01*
X21443250Y48103000D01*
G75*
G02*
X21762000Y47784250I0J-318750D01*
G01*
X21762000Y47071750D01*
G75*
G02*
X21443250Y46753000I-318750J0D01*
G01*
X20805750Y46753000D01*
G75*
G02*
X20487000Y47071750I0J318750D01*
G01*
G37*
G04 #@! TD*
G04 #@! TO.C,R2*
G36*
G01*
X2202250Y16158000D02*
X1489750Y16158000D01*
G75*
G02*
X1171000Y16476750I0J318750D01*
G01*
X1171000Y17114250D01*
G75*
G02*
X1489750Y17433000I318750J0D01*
G01*
X2202250Y17433000D01*
G75*
G02*
X2521000Y17114250I0J-318750D01*
G01*
X2521000Y16476750D01*
G75*
G02*
X2202250Y16158000I-318750J0D01*
G01*
G37*
G36*
G01*
X2202250Y17733000D02*
X1489750Y17733000D01*
G75*
G02*
X1171000Y18051750I0J318750D01*
G01*
X1171000Y18689250D01*
G75*
G02*
X1489750Y19008000I318750J0D01*
G01*
X2202250Y19008000D01*
G75*
G02*
X2521000Y18689250I0J-318750D01*
G01*
X2521000Y18051750D01*
G75*
G02*
X2202250Y17733000I-318750J0D01*
G01*
G37*
G04 #@! TD*
G04 #@! TO.C,R3*
G36*
G01*
X1489750Y14385000D02*
X2202250Y14385000D01*
G75*
G02*
X2521000Y14066250I0J-318750D01*
G01*
X2521000Y13428750D01*
G75*
G02*
X2202250Y13110000I-318750J0D01*
G01*
X1489750Y13110000D01*
G75*
G02*
X1171000Y13428750I0J318750D01*
G01*
X1171000Y14066250D01*
G75*
G02*
X1489750Y14385000I318750J0D01*
G01*
G37*
G36*
G01*
X1489750Y15960000D02*
X2202250Y15960000D01*
G75*
G02*
X2521000Y15641250I0J-318750D01*
G01*
X2521000Y15003750D01*
G75*
G02*
X2202250Y14685000I-318750J0D01*
G01*
X1489750Y14685000D01*
G75*
G02*
X1171000Y15003750I0J318750D01*
G01*
X1171000Y15641250D01*
G75*
G02*
X1489750Y15960000I318750J0D01*
G01*
G37*
G04 #@! TD*
G04 #@! TO.C,R4*
G36*
G01*
X6061750Y19008000D02*
X6774250Y19008000D01*
G75*
G02*
X7093000Y18689250I0J-318750D01*
G01*
X7093000Y18051750D01*
G75*
G02*
X6774250Y17733000I-318750J0D01*
G01*
X6061750Y17733000D01*
G75*
G02*
X5743000Y18051750I0J318750D01*
G01*
X5743000Y18689250D01*
G75*
G02*
X6061750Y19008000I318750J0D01*
G01*
G37*
G36*
G01*
X6061750Y17433000D02*
X6774250Y17433000D01*
G75*
G02*
X7093000Y17114250I0J-318750D01*
G01*
X7093000Y16476750D01*
G75*
G02*
X6774250Y16158000I-318750J0D01*
G01*
X6061750Y16158000D01*
G75*
G02*
X5743000Y16476750I0J318750D01*
G01*
X5743000Y17114250D01*
G75*
G02*
X6061750Y17433000I318750J0D01*
G01*
G37*
G04 #@! TD*
G04 #@! TO.C,R5*
G36*
G01*
X6061750Y14385000D02*
X6774250Y14385000D01*
G75*
G02*
X7093000Y14066250I0J-318750D01*
G01*
X7093000Y13428750D01*
G75*
G02*
X6774250Y13110000I-318750J0D01*
G01*
X6061750Y13110000D01*
G75*
G02*
X5743000Y13428750I0J318750D01*
G01*
X5743000Y14066250D01*
G75*
G02*
X6061750Y14385000I318750J0D01*
G01*
G37*
G36*
G01*
X6061750Y15960000D02*
X6774250Y15960000D01*
G75*
G02*
X7093000Y15641250I0J-318750D01*
G01*
X7093000Y15003750D01*
G75*
G02*
X6774250Y14685000I-318750J0D01*
G01*
X6061750Y14685000D01*
G75*
G02*
X5743000Y15003750I0J318750D01*
G01*
X5743000Y15641250D01*
G75*
G02*
X6061750Y15960000I318750J0D01*
G01*
G37*
G04 #@! TD*
G04 #@! TO.C,R6*
G36*
G01*
X15410250Y31271000D02*
X14697750Y31271000D01*
G75*
G02*
X14379000Y31589750I0J318750D01*
G01*
X14379000Y32227250D01*
G75*
G02*
X14697750Y32546000I318750J0D01*
G01*
X15410250Y32546000D01*
G75*
G02*
X15729000Y32227250I0J-318750D01*
G01*
X15729000Y31589750D01*
G75*
G02*
X15410250Y31271000I-318750J0D01*
G01*
G37*
G36*
G01*
X15410250Y32846000D02*
X14697750Y32846000D01*
G75*
G02*
X14379000Y33164750I0J318750D01*
G01*
X14379000Y33802250D01*
G75*
G02*
X14697750Y34121000I318750J0D01*
G01*
X15410250Y34121000D01*
G75*
G02*
X15729000Y33802250I0J-318750D01*
G01*
X15729000Y33164750D01*
G75*
G02*
X15410250Y32846000I-318750J0D01*
G01*
G37*
G04 #@! TD*
G04 #@! TO.C,R7*
G36*
G01*
X14697750Y29498000D02*
X15410250Y29498000D01*
G75*
G02*
X15729000Y29179250I0J-318750D01*
G01*
X15729000Y28541750D01*
G75*
G02*
X15410250Y28223000I-318750J0D01*
G01*
X14697750Y28223000D01*
G75*
G02*
X14379000Y28541750I0J318750D01*
G01*
X14379000Y29179250D01*
G75*
G02*
X14697750Y29498000I318750J0D01*
G01*
G37*
G36*
G01*
X14697750Y31073000D02*
X15410250Y31073000D01*
G75*
G02*
X15729000Y30754250I0J-318750D01*
G01*
X15729000Y30116750D01*
G75*
G02*
X15410250Y29798000I-318750J0D01*
G01*
X14697750Y29798000D01*
G75*
G02*
X14379000Y30116750I0J318750D01*
G01*
X14379000Y30754250D01*
G75*
G02*
X14697750Y31073000I318750J0D01*
G01*
G37*
G04 #@! TD*
G04 #@! TO.C,R8*
G36*
G01*
X8601750Y19770000D02*
X9314250Y19770000D01*
G75*
G02*
X9633000Y19451250I0J-318750D01*
G01*
X9633000Y18813750D01*
G75*
G02*
X9314250Y18495000I-318750J0D01*
G01*
X8601750Y18495000D01*
G75*
G02*
X8283000Y18813750I0J318750D01*
G01*
X8283000Y19451250D01*
G75*
G02*
X8601750Y19770000I318750J0D01*
G01*
G37*
G36*
G01*
X8601750Y18195000D02*
X9314250Y18195000D01*
G75*
G02*
X9633000Y17876250I0J-318750D01*
G01*
X9633000Y17238750D01*
G75*
G02*
X9314250Y16920000I-318750J0D01*
G01*
X8601750Y16920000D01*
G75*
G02*
X8283000Y17238750I0J318750D01*
G01*
X8283000Y17876250D01*
G75*
G02*
X8601750Y18195000I318750J0D01*
G01*
G37*
G04 #@! TD*
G04 #@! TO.C,R9*
G36*
G01*
X8601750Y13369000D02*
X9314250Y13369000D01*
G75*
G02*
X9633000Y13050250I0J-318750D01*
G01*
X9633000Y12412750D01*
G75*
G02*
X9314250Y12094000I-318750J0D01*
G01*
X8601750Y12094000D01*
G75*
G02*
X8283000Y12412750I0J318750D01*
G01*
X8283000Y13050250D01*
G75*
G02*
X8601750Y13369000I318750J0D01*
G01*
G37*
G36*
G01*
X8601750Y14944000D02*
X9314250Y14944000D01*
G75*
G02*
X9633000Y14625250I0J-318750D01*
G01*
X9633000Y13987750D01*
G75*
G02*
X9314250Y13669000I-318750J0D01*
G01*
X8601750Y13669000D01*
G75*
G02*
X8283000Y13987750I0J318750D01*
G01*
X8283000Y14625250D01*
G75*
G02*
X8601750Y14944000I318750J0D01*
G01*
G37*
G04 #@! TD*
G04 #@! TO.C,R12*
G36*
G01*
X10887750Y22310000D02*
X11600250Y22310000D01*
G75*
G02*
X11919000Y21991250I0J-318750D01*
G01*
X11919000Y21353750D01*
G75*
G02*
X11600250Y21035000I-318750J0D01*
G01*
X10887750Y21035000D01*
G75*
G02*
X10569000Y21353750I0J318750D01*
G01*
X10569000Y21991250D01*
G75*
G02*
X10887750Y22310000I318750J0D01*
G01*
G37*
G36*
G01*
X10887750Y20735000D02*
X11600250Y20735000D01*
G75*
G02*
X11919000Y20416250I0J-318750D01*
G01*
X11919000Y19778750D01*
G75*
G02*
X11600250Y19460000I-318750J0D01*
G01*
X10887750Y19460000D01*
G75*
G02*
X10569000Y19778750I0J318750D01*
G01*
X10569000Y20416250D01*
G75*
G02*
X10887750Y20735000I318750J0D01*
G01*
G37*
G04 #@! TD*
G04 #@! TO.C,R13*
G36*
G01*
X14696000Y12400750D02*
X14696000Y13113250D01*
G75*
G02*
X15014750Y13432000I318750J0D01*
G01*
X15652250Y13432000D01*
G75*
G02*
X15971000Y13113250I0J-318750D01*
G01*
X15971000Y12400750D01*
G75*
G02*
X15652250Y12082000I-318750J0D01*
G01*
X15014750Y12082000D01*
G75*
G02*
X14696000Y12400750I0J318750D01*
G01*
G37*
G36*
G01*
X13121000Y12400750D02*
X13121000Y13113250D01*
G75*
G02*
X13439750Y13432000I318750J0D01*
G01*
X14077250Y13432000D01*
G75*
G02*
X14396000Y13113250I0J-318750D01*
G01*
X14396000Y12400750D01*
G75*
G02*
X14077250Y12082000I-318750J0D01*
G01*
X13439750Y12082000D01*
G75*
G02*
X13121000Y12400750I0J318750D01*
G01*
G37*
G04 #@! TD*
G04 #@! TO.C,R14*
G36*
G01*
X19728250Y13618000D02*
X19015750Y13618000D01*
G75*
G02*
X18697000Y13936750I0J318750D01*
G01*
X18697000Y14574250D01*
G75*
G02*
X19015750Y14893000I318750J0D01*
G01*
X19728250Y14893000D01*
G75*
G02*
X20047000Y14574250I0J-318750D01*
G01*
X20047000Y13936750D01*
G75*
G02*
X19728250Y13618000I-318750J0D01*
G01*
G37*
G36*
G01*
X19728250Y15193000D02*
X19015750Y15193000D01*
G75*
G02*
X18697000Y15511750I0J318750D01*
G01*
X18697000Y16149250D01*
G75*
G02*
X19015750Y16468000I318750J0D01*
G01*
X19728250Y16468000D01*
G75*
G02*
X20047000Y16149250I0J-318750D01*
G01*
X20047000Y15511750D01*
G75*
G02*
X19728250Y15193000I-318750J0D01*
G01*
G37*
G04 #@! TD*
G04 #@! TO.C,R15*
G36*
G01*
X19015750Y19516000D02*
X19728250Y19516000D01*
G75*
G02*
X20047000Y19197250I0J-318750D01*
G01*
X20047000Y18559750D01*
G75*
G02*
X19728250Y18241000I-318750J0D01*
G01*
X19015750Y18241000D01*
G75*
G02*
X18697000Y18559750I0J318750D01*
G01*
X18697000Y19197250D01*
G75*
G02*
X19015750Y19516000I318750J0D01*
G01*
G37*
G36*
G01*
X19015750Y17941000D02*
X19728250Y17941000D01*
G75*
G02*
X20047000Y17622250I0J-318750D01*
G01*
X20047000Y16984750D01*
G75*
G02*
X19728250Y16666000I-318750J0D01*
G01*
X19015750Y16666000D01*
G75*
G02*
X18697000Y16984750I0J318750D01*
G01*
X18697000Y17622250D01*
G75*
G02*
X19015750Y17941000I318750J0D01*
G01*
G37*
G04 #@! TD*
G04 #@! TO.C,R16*
G36*
G01*
X17950250Y10316000D02*
X17237750Y10316000D01*
G75*
G02*
X16919000Y10634750I0J318750D01*
G01*
X16919000Y11272250D01*
G75*
G02*
X17237750Y11591000I318750J0D01*
G01*
X17950250Y11591000D01*
G75*
G02*
X18269000Y11272250I0J-318750D01*
G01*
X18269000Y10634750D01*
G75*
G02*
X17950250Y10316000I-318750J0D01*
G01*
G37*
G36*
G01*
X17950250Y11891000D02*
X17237750Y11891000D01*
G75*
G02*
X16919000Y12209750I0J318750D01*
G01*
X16919000Y12847250D01*
G75*
G02*
X17237750Y13166000I318750J0D01*
G01*
X17950250Y13166000D01*
G75*
G02*
X18269000Y12847250I0J-318750D01*
G01*
X18269000Y12209750D01*
G75*
G02*
X17950250Y11891000I-318750J0D01*
G01*
G37*
G04 #@! TD*
G04 #@! TO.C,R17*
G36*
G01*
X19984000Y11081250D02*
X19984000Y10368750D01*
G75*
G02*
X19665250Y10050000I-318750J0D01*
G01*
X19027750Y10050000D01*
G75*
G02*
X18709000Y10368750I0J318750D01*
G01*
X18709000Y11081250D01*
G75*
G02*
X19027750Y11400000I318750J0D01*
G01*
X19665250Y11400000D01*
G75*
G02*
X19984000Y11081250I0J-318750D01*
G01*
G37*
G36*
G01*
X21559000Y11081250D02*
X21559000Y10368750D01*
G75*
G02*
X21240250Y10050000I-318750J0D01*
G01*
X20602750Y10050000D01*
G75*
G02*
X20284000Y10368750I0J318750D01*
G01*
X20284000Y11081250D01*
G75*
G02*
X20602750Y11400000I318750J0D01*
G01*
X21240250Y11400000D01*
G75*
G02*
X21559000Y11081250I0J-318750D01*
G01*
G37*
G04 #@! TD*
G04 #@! TO.C,R18*
G36*
G01*
X24556000Y11081250D02*
X24556000Y10368750D01*
G75*
G02*
X24237250Y10050000I-318750J0D01*
G01*
X23599750Y10050000D01*
G75*
G02*
X23281000Y10368750I0J318750D01*
G01*
X23281000Y11081250D01*
G75*
G02*
X23599750Y11400000I318750J0D01*
G01*
X24237250Y11400000D01*
G75*
G02*
X24556000Y11081250I0J-318750D01*
G01*
G37*
G36*
G01*
X26131000Y11081250D02*
X26131000Y10368750D01*
G75*
G02*
X25812250Y10050000I-318750J0D01*
G01*
X25174750Y10050000D01*
G75*
G02*
X24856000Y10368750I0J318750D01*
G01*
X24856000Y11081250D01*
G75*
G02*
X25174750Y11400000I318750J0D01*
G01*
X25812250Y11400000D01*
G75*
G02*
X26131000Y11081250I0J-318750D01*
G01*
G37*
G04 #@! TD*
G04 #@! TO.C,R19*
G36*
G01*
X31973000Y17431250D02*
X31973000Y16718750D01*
G75*
G02*
X31654250Y16400000I-318750J0D01*
G01*
X31016750Y16400000D01*
G75*
G02*
X30698000Y16718750I0J318750D01*
G01*
X30698000Y17431250D01*
G75*
G02*
X31016750Y17750000I318750J0D01*
G01*
X31654250Y17750000D01*
G75*
G02*
X31973000Y17431250I0J-318750D01*
G01*
G37*
G36*
G01*
X30398000Y17431250D02*
X30398000Y16718750D01*
G75*
G02*
X30079250Y16400000I-318750J0D01*
G01*
X29441750Y16400000D01*
G75*
G02*
X29123000Y16718750I0J318750D01*
G01*
X29123000Y17431250D01*
G75*
G02*
X29441750Y17750000I318750J0D01*
G01*
X30079250Y17750000D01*
G75*
G02*
X30398000Y17431250I0J-318750D01*
G01*
G37*
G04 #@! TD*
G04 #@! TO.C,R20*
G36*
G01*
X48292000Y26933500D02*
X48292000Y26388500D01*
G75*
G02*
X48044500Y26141000I-247500J0D01*
G01*
X47549500Y26141000D01*
G75*
G02*
X47302000Y26388500I0J247500D01*
G01*
X47302000Y26933500D01*
G75*
G02*
X47549500Y27181000I247500J0D01*
G01*
X48044500Y27181000D01*
G75*
G02*
X48292000Y26933500I0J-247500D01*
G01*
G37*
G36*
G01*
X47322000Y26933500D02*
X47322000Y26388500D01*
G75*
G02*
X47074500Y26141000I-247500J0D01*
G01*
X46579500Y26141000D01*
G75*
G02*
X46332000Y26388500I0J247500D01*
G01*
X46332000Y26933500D01*
G75*
G02*
X46579500Y27181000I247500J0D01*
G01*
X47074500Y27181000D01*
G75*
G02*
X47322000Y26933500I0J-247500D01*
G01*
G37*
G04 #@! TD*
G04 #@! TO.C,R21*
G36*
G01*
X47322000Y25033500D02*
X47322000Y24488500D01*
G75*
G02*
X47074500Y24241000I-247500J0D01*
G01*
X46579500Y24241000D01*
G75*
G02*
X46332000Y24488500I0J247500D01*
G01*
X46332000Y25033500D01*
G75*
G02*
X46579500Y25281000I247500J0D01*
G01*
X47074500Y25281000D01*
G75*
G02*
X47322000Y25033500I0J-247500D01*
G01*
G37*
G36*
G01*
X48292000Y25033500D02*
X48292000Y24488500D01*
G75*
G02*
X48044500Y24241000I-247500J0D01*
G01*
X47549500Y24241000D01*
G75*
G02*
X47302000Y24488500I0J247500D01*
G01*
X47302000Y25033500D01*
G75*
G02*
X47549500Y25281000I247500J0D01*
G01*
X48044500Y25281000D01*
G75*
G02*
X48292000Y25033500I0J-247500D01*
G01*
G37*
G04 #@! TD*
G04 #@! TO.C,R22*
G36*
G01*
X48292000Y23377500D02*
X48292000Y22832500D01*
G75*
G02*
X48044500Y22585000I-247500J0D01*
G01*
X47549500Y22585000D01*
G75*
G02*
X47302000Y22832500I0J247500D01*
G01*
X47302000Y23377500D01*
G75*
G02*
X47549500Y23625000I247500J0D01*
G01*
X48044500Y23625000D01*
G75*
G02*
X48292000Y23377500I0J-247500D01*
G01*
G37*
G36*
G01*
X47322000Y23377500D02*
X47322000Y22832500D01*
G75*
G02*
X47074500Y22585000I-247500J0D01*
G01*
X46579500Y22585000D01*
G75*
G02*
X46332000Y22832500I0J247500D01*
G01*
X46332000Y23377500D01*
G75*
G02*
X46579500Y23625000I247500J0D01*
G01*
X47074500Y23625000D01*
G75*
G02*
X47322000Y23377500I0J-247500D01*
G01*
G37*
G04 #@! TD*
G04 #@! TO.C,R23*
G36*
G01*
X47322000Y21477500D02*
X47322000Y20932500D01*
G75*
G02*
X47074500Y20685000I-247500J0D01*
G01*
X46579500Y20685000D01*
G75*
G02*
X46332000Y20932500I0J247500D01*
G01*
X46332000Y21477500D01*
G75*
G02*
X46579500Y21725000I247500J0D01*
G01*
X47074500Y21725000D01*
G75*
G02*
X47322000Y21477500I0J-247500D01*
G01*
G37*
G36*
G01*
X48292000Y21477500D02*
X48292000Y20932500D01*
G75*
G02*
X48044500Y20685000I-247500J0D01*
G01*
X47549500Y20685000D01*
G75*
G02*
X47302000Y20932500I0J247500D01*
G01*
X47302000Y21477500D01*
G75*
G02*
X47549500Y21725000I247500J0D01*
G01*
X48044500Y21725000D01*
G75*
G02*
X48292000Y21477500I0J-247500D01*
G01*
G37*
G04 #@! TD*
G04 #@! TO.C,R24*
G36*
G01*
X48292000Y19821500D02*
X48292000Y19276500D01*
G75*
G02*
X48044500Y19029000I-247500J0D01*
G01*
X47549500Y19029000D01*
G75*
G02*
X47302000Y19276500I0J247500D01*
G01*
X47302000Y19821500D01*
G75*
G02*
X47549500Y20069000I247500J0D01*
G01*
X48044500Y20069000D01*
G75*
G02*
X48292000Y19821500I0J-247500D01*
G01*
G37*
G36*
G01*
X47322000Y19821500D02*
X47322000Y19276500D01*
G75*
G02*
X47074500Y19029000I-247500J0D01*
G01*
X46579500Y19029000D01*
G75*
G02*
X46332000Y19276500I0J247500D01*
G01*
X46332000Y19821500D01*
G75*
G02*
X46579500Y20069000I247500J0D01*
G01*
X47074500Y20069000D01*
G75*
G02*
X47322000Y19821500I0J-247500D01*
G01*
G37*
G04 #@! TD*
G04 #@! TO.C,R25*
G36*
G01*
X47322000Y17921500D02*
X47322000Y17376500D01*
G75*
G02*
X47074500Y17129000I-247500J0D01*
G01*
X46579500Y17129000D01*
G75*
G02*
X46332000Y17376500I0J247500D01*
G01*
X46332000Y17921500D01*
G75*
G02*
X46579500Y18169000I247500J0D01*
G01*
X47074500Y18169000D01*
G75*
G02*
X47322000Y17921500I0J-247500D01*
G01*
G37*
G36*
G01*
X48292000Y17921500D02*
X48292000Y17376500D01*
G75*
G02*
X48044500Y17129000I-247500J0D01*
G01*
X47549500Y17129000D01*
G75*
G02*
X47302000Y17376500I0J247500D01*
G01*
X47302000Y17921500D01*
G75*
G02*
X47549500Y18169000I247500J0D01*
G01*
X48044500Y18169000D01*
G75*
G02*
X48292000Y17921500I0J-247500D01*
G01*
G37*
G04 #@! TD*
G04 #@! TO.C,U1*
G36*
G01*
X19678000Y32579000D02*
X19678000Y31929000D01*
G75*
G02*
X19478000Y31729000I-200000J0D01*
G01*
X18418000Y31729000D01*
G75*
G02*
X18218000Y31929000I0J200000D01*
G01*
X18218000Y32579000D01*
G75*
G02*
X18418000Y32779000I200000J0D01*
G01*
X19478000Y32779000D01*
G75*
G02*
X19678000Y32579000I0J-200000D01*
G01*
G37*
G36*
G01*
X19678000Y33529000D02*
X19678000Y32879000D01*
G75*
G02*
X19478000Y32679000I-200000J0D01*
G01*
X18418000Y32679000D01*
G75*
G02*
X18218000Y32879000I0J200000D01*
G01*
X18218000Y33529000D01*
G75*
G02*
X18418000Y33729000I200000J0D01*
G01*
X19478000Y33729000D01*
G75*
G02*
X19678000Y33529000I0J-200000D01*
G01*
G37*
G36*
G01*
X19678000Y34479000D02*
X19678000Y33829000D01*
G75*
G02*
X19478000Y33629000I-200000J0D01*
G01*
X18418000Y33629000D01*
G75*
G02*
X18218000Y33829000I0J200000D01*
G01*
X18218000Y34479000D01*
G75*
G02*
X18418000Y34679000I200000J0D01*
G01*
X19478000Y34679000D01*
G75*
G02*
X19678000Y34479000I0J-200000D01*
G01*
G37*
G36*
G01*
X17478000Y34479000D02*
X17478000Y33829000D01*
G75*
G02*
X17278000Y33629000I-200000J0D01*
G01*
X16218000Y33629000D01*
G75*
G02*
X16018000Y33829000I0J200000D01*
G01*
X16018000Y34479000D01*
G75*
G02*
X16218000Y34679000I200000J0D01*
G01*
X17278000Y34679000D01*
G75*
G02*
X17478000Y34479000I0J-200000D01*
G01*
G37*
G36*
G01*
X17478000Y32579000D02*
X17478000Y31929000D01*
G75*
G02*
X17278000Y31729000I-200000J0D01*
G01*
X16218000Y31729000D01*
G75*
G02*
X16018000Y31929000I0J200000D01*
G01*
X16018000Y32579000D01*
G75*
G02*
X16218000Y32779000I200000J0D01*
G01*
X17278000Y32779000D01*
G75*
G02*
X17478000Y32579000I0J-200000D01*
G01*
G37*
G04 #@! TD*
G04 #@! TO.C,U2*
G36*
G01*
X22134000Y36532000D02*
X22134000Y38032000D01*
G75*
G02*
X22334000Y38232000I200000J0D01*
G01*
X24334000Y38232000D01*
G75*
G02*
X24534000Y38032000I0J-200000D01*
G01*
X24534000Y36532000D01*
G75*
G02*
X24334000Y36332000I-200000J0D01*
G01*
X22334000Y36332000D01*
G75*
G02*
X22134000Y36532000I0J200000D01*
G01*
G37*
G36*
G01*
X22134000Y31932000D02*
X22134000Y33432000D01*
G75*
G02*
X22334000Y33632000I200000J0D01*
G01*
X24334000Y33632000D01*
G75*
G02*
X24534000Y33432000I0J-200000D01*
G01*
X24534000Y31932000D01*
G75*
G02*
X24334000Y31732000I-200000J0D01*
G01*
X22334000Y31732000D01*
G75*
G02*
X22134000Y31932000I0J200000D01*
G01*
G37*
G36*
G01*
X22134000Y34232000D02*
X22134000Y35732000D01*
G75*
G02*
X22334000Y35932000I200000J0D01*
G01*
X24334000Y35932000D01*
G75*
G02*
X24534000Y35732000I0J-200000D01*
G01*
X24534000Y34232000D01*
G75*
G02*
X24334000Y34032000I-200000J0D01*
G01*
X22334000Y34032000D01*
G75*
G02*
X22134000Y34232000I0J200000D01*
G01*
G37*
G36*
G01*
X28434000Y33082000D02*
X28434000Y36882000D01*
G75*
G02*
X28634000Y37082000I200000J0D01*
G01*
X30634000Y37082000D01*
G75*
G02*
X30834000Y36882000I0J-200000D01*
G01*
X30834000Y33082000D01*
G75*
G02*
X30634000Y32882000I-200000J0D01*
G01*
X28634000Y32882000D01*
G75*
G02*
X28434000Y33082000I0J200000D01*
G01*
G37*
G04 #@! TD*
G04 #@! TO.C,U3*
G36*
G01*
X42862000Y49378000D02*
X39062000Y49378000D01*
G75*
G02*
X38862000Y49578000I0J200000D01*
G01*
X38862000Y51578000D01*
G75*
G02*
X39062000Y51778000I200000J0D01*
G01*
X42862000Y51778000D01*
G75*
G02*
X43062000Y51578000I0J-200000D01*
G01*
X43062000Y49578000D01*
G75*
G02*
X42862000Y49378000I-200000J0D01*
G01*
G37*
G36*
G01*
X41712000Y43078000D02*
X40212000Y43078000D01*
G75*
G02*
X40012000Y43278000I0J200000D01*
G01*
X40012000Y45278000D01*
G75*
G02*
X40212000Y45478000I200000J0D01*
G01*
X41712000Y45478000D01*
G75*
G02*
X41912000Y45278000I0J-200000D01*
G01*
X41912000Y43278000D01*
G75*
G02*
X41712000Y43078000I-200000J0D01*
G01*
G37*
G36*
G01*
X44012000Y43078000D02*
X42512000Y43078000D01*
G75*
G02*
X42312000Y43278000I0J200000D01*
G01*
X42312000Y45278000D01*
G75*
G02*
X42512000Y45478000I200000J0D01*
G01*
X44012000Y45478000D01*
G75*
G02*
X44212000Y45278000I0J-200000D01*
G01*
X44212000Y43278000D01*
G75*
G02*
X44012000Y43078000I-200000J0D01*
G01*
G37*
G36*
G01*
X39412000Y43078000D02*
X37912000Y43078000D01*
G75*
G02*
X37712000Y43278000I0J200000D01*
G01*
X37712000Y45278000D01*
G75*
G02*
X37912000Y45478000I200000J0D01*
G01*
X39412000Y45478000D01*
G75*
G02*
X39612000Y45278000I0J-200000D01*
G01*
X39612000Y43278000D01*
G75*
G02*
X39412000Y43078000I-200000J0D01*
G01*
G37*
G04 #@! TD*
G04 #@! TO.C,U4*
G36*
G01*
X10134000Y18222000D02*
X10134000Y18722000D01*
G75*
G02*
X10384000Y18972000I250000J0D01*
G01*
X12234000Y18972000D01*
G75*
G02*
X12484000Y18722000I0J-250000D01*
G01*
X12484000Y18222000D01*
G75*
G02*
X12234000Y17972000I-250000J0D01*
G01*
X10384000Y17972000D01*
G75*
G02*
X10134000Y18222000I0J250000D01*
G01*
G37*
G36*
G01*
X10134000Y16952000D02*
X10134000Y17452000D01*
G75*
G02*
X10384000Y17702000I250000J0D01*
G01*
X12234000Y17702000D01*
G75*
G02*
X12484000Y17452000I0J-250000D01*
G01*
X12484000Y16952000D01*
G75*
G02*
X12234000Y16702000I-250000J0D01*
G01*
X10384000Y16702000D01*
G75*
G02*
X10134000Y16952000I0J250000D01*
G01*
G37*
G36*
G01*
X10134000Y15682000D02*
X10134000Y16182000D01*
G75*
G02*
X10384000Y16432000I250000J0D01*
G01*
X12234000Y16432000D01*
G75*
G02*
X12484000Y16182000I0J-250000D01*
G01*
X12484000Y15682000D01*
G75*
G02*
X12234000Y15432000I-250000J0D01*
G01*
X10384000Y15432000D01*
G75*
G02*
X10134000Y15682000I0J250000D01*
G01*
G37*
G36*
G01*
X10134000Y14412000D02*
X10134000Y14912000D01*
G75*
G02*
X10384000Y15162000I250000J0D01*
G01*
X12234000Y15162000D01*
G75*
G02*
X12484000Y14912000I0J-250000D01*
G01*
X12484000Y14412000D01*
G75*
G02*
X12234000Y14162000I-250000J0D01*
G01*
X10384000Y14162000D01*
G75*
G02*
X10134000Y14412000I0J250000D01*
G01*
G37*
G36*
G01*
X15084000Y14412000D02*
X15084000Y14912000D01*
G75*
G02*
X15334000Y15162000I250000J0D01*
G01*
X17184000Y15162000D01*
G75*
G02*
X17434000Y14912000I0J-250000D01*
G01*
X17434000Y14412000D01*
G75*
G02*
X17184000Y14162000I-250000J0D01*
G01*
X15334000Y14162000D01*
G75*
G02*
X15084000Y14412000I0J250000D01*
G01*
G37*
G36*
G01*
X15084000Y15682000D02*
X15084000Y16182000D01*
G75*
G02*
X15334000Y16432000I250000J0D01*
G01*
X17184000Y16432000D01*
G75*
G02*
X17434000Y16182000I0J-250000D01*
G01*
X17434000Y15682000D01*
G75*
G02*
X17184000Y15432000I-250000J0D01*
G01*
X15334000Y15432000D01*
G75*
G02*
X15084000Y15682000I0J250000D01*
G01*
G37*
G36*
G01*
X15084000Y16952000D02*
X15084000Y17452000D01*
G75*
G02*
X15334000Y17702000I250000J0D01*
G01*
X17184000Y17702000D01*
G75*
G02*
X17434000Y17452000I0J-250000D01*
G01*
X17434000Y16952000D01*
G75*
G02*
X17184000Y16702000I-250000J0D01*
G01*
X15334000Y16702000D01*
G75*
G02*
X15084000Y16952000I0J250000D01*
G01*
G37*
G36*
G01*
X15084000Y18222000D02*
X15084000Y18722000D01*
G75*
G02*
X15334000Y18972000I250000J0D01*
G01*
X17184000Y18972000D01*
G75*
G02*
X17434000Y18722000I0J-250000D01*
G01*
X17434000Y18222000D01*
G75*
G02*
X17184000Y17972000I-250000J0D01*
G01*
X15334000Y17972000D01*
G75*
G02*
X15084000Y18222000I0J250000D01*
G01*
G37*
G04 #@! TD*
G04 #@! TO.C,U5*
G36*
G01*
X26514000Y18222000D02*
X26514000Y18722000D01*
G75*
G02*
X26764000Y18972000I250000J0D01*
G01*
X28614000Y18972000D01*
G75*
G02*
X28864000Y18722000I0J-250000D01*
G01*
X28864000Y18222000D01*
G75*
G02*
X28614000Y17972000I-250000J0D01*
G01*
X26764000Y17972000D01*
G75*
G02*
X26514000Y18222000I0J250000D01*
G01*
G37*
G36*
G01*
X26514000Y16952000D02*
X26514000Y17452000D01*
G75*
G02*
X26764000Y17702000I250000J0D01*
G01*
X28614000Y17702000D01*
G75*
G02*
X28864000Y17452000I0J-250000D01*
G01*
X28864000Y16952000D01*
G75*
G02*
X28614000Y16702000I-250000J0D01*
G01*
X26764000Y16702000D01*
G75*
G02*
X26514000Y16952000I0J250000D01*
G01*
G37*
G36*
G01*
X26514000Y15682000D02*
X26514000Y16182000D01*
G75*
G02*
X26764000Y16432000I250000J0D01*
G01*
X28614000Y16432000D01*
G75*
G02*
X28864000Y16182000I0J-250000D01*
G01*
X28864000Y15682000D01*
G75*
G02*
X28614000Y15432000I-250000J0D01*
G01*
X26764000Y15432000D01*
G75*
G02*
X26514000Y15682000I0J250000D01*
G01*
G37*
G36*
G01*
X26514000Y14412000D02*
X26514000Y14912000D01*
G75*
G02*
X26764000Y15162000I250000J0D01*
G01*
X28614000Y15162000D01*
G75*
G02*
X28864000Y14912000I0J-250000D01*
G01*
X28864000Y14412000D01*
G75*
G02*
X28614000Y14162000I-250000J0D01*
G01*
X26764000Y14162000D01*
G75*
G02*
X26514000Y14412000I0J250000D01*
G01*
G37*
G36*
G01*
X21564000Y14412000D02*
X21564000Y14912000D01*
G75*
G02*
X21814000Y15162000I250000J0D01*
G01*
X23664000Y15162000D01*
G75*
G02*
X23914000Y14912000I0J-250000D01*
G01*
X23914000Y14412000D01*
G75*
G02*
X23664000Y14162000I-250000J0D01*
G01*
X21814000Y14162000D01*
G75*
G02*
X21564000Y14412000I0J250000D01*
G01*
G37*
G36*
G01*
X21564000Y15682000D02*
X21564000Y16182000D01*
G75*
G02*
X21814000Y16432000I250000J0D01*
G01*
X23664000Y16432000D01*
G75*
G02*
X23914000Y16182000I0J-250000D01*
G01*
X23914000Y15682000D01*
G75*
G02*
X23664000Y15432000I-250000J0D01*
G01*
X21814000Y15432000D01*
G75*
G02*
X21564000Y15682000I0J250000D01*
G01*
G37*
G36*
G01*
X21564000Y16952000D02*
X21564000Y17452000D01*
G75*
G02*
X21814000Y17702000I250000J0D01*
G01*
X23664000Y17702000D01*
G75*
G02*
X23914000Y17452000I0J-250000D01*
G01*
X23914000Y16952000D01*
G75*
G02*
X23664000Y16702000I-250000J0D01*
G01*
X21814000Y16702000D01*
G75*
G02*
X21564000Y16952000I0J250000D01*
G01*
G37*
G36*
G01*
X21564000Y18222000D02*
X21564000Y18722000D01*
G75*
G02*
X21814000Y18972000I250000J0D01*
G01*
X23664000Y18972000D01*
G75*
G02*
X23914000Y18722000I0J-250000D01*
G01*
X23914000Y18222000D01*
G75*
G02*
X23664000Y17972000I-250000J0D01*
G01*
X21814000Y17972000D01*
G75*
G02*
X21564000Y18222000I0J250000D01*
G01*
G37*
G04 #@! TD*
G04 #@! TO.C,U8*
G36*
G01*
X41426000Y26336000D02*
X41426000Y26986000D01*
G75*
G02*
X41626000Y27186000I200000J0D01*
G01*
X43186000Y27186000D01*
G75*
G02*
X43386000Y26986000I0J-200000D01*
G01*
X43386000Y26336000D01*
G75*
G02*
X43186000Y26136000I-200000J0D01*
G01*
X41626000Y26136000D01*
G75*
G02*
X41426000Y26336000I0J200000D01*
G01*
G37*
G36*
G01*
X41426000Y25386000D02*
X41426000Y26036000D01*
G75*
G02*
X41626000Y26236000I200000J0D01*
G01*
X43186000Y26236000D01*
G75*
G02*
X43386000Y26036000I0J-200000D01*
G01*
X43386000Y25386000D01*
G75*
G02*
X43186000Y25186000I-200000J0D01*
G01*
X41626000Y25186000D01*
G75*
G02*
X41426000Y25386000I0J200000D01*
G01*
G37*
G36*
G01*
X41426000Y24436000D02*
X41426000Y25086000D01*
G75*
G02*
X41626000Y25286000I200000J0D01*
G01*
X43186000Y25286000D01*
G75*
G02*
X43386000Y25086000I0J-200000D01*
G01*
X43386000Y24436000D01*
G75*
G02*
X43186000Y24236000I-200000J0D01*
G01*
X41626000Y24236000D01*
G75*
G02*
X41426000Y24436000I0J200000D01*
G01*
G37*
G36*
G01*
X44126000Y24436000D02*
X44126000Y25086000D01*
G75*
G02*
X44326000Y25286000I200000J0D01*
G01*
X45886000Y25286000D01*
G75*
G02*
X46086000Y25086000I0J-200000D01*
G01*
X46086000Y24436000D01*
G75*
G02*
X45886000Y24236000I-200000J0D01*
G01*
X44326000Y24236000D01*
G75*
G02*
X44126000Y24436000I0J200000D01*
G01*
G37*
G36*
G01*
X44126000Y26336000D02*
X44126000Y26986000D01*
G75*
G02*
X44326000Y27186000I200000J0D01*
G01*
X45886000Y27186000D01*
G75*
G02*
X46086000Y26986000I0J-200000D01*
G01*
X46086000Y26336000D01*
G75*
G02*
X45886000Y26136000I-200000J0D01*
G01*
X44326000Y26136000D01*
G75*
G02*
X44126000Y26336000I0J200000D01*
G01*
G37*
G36*
G01*
X44126000Y25386000D02*
X44126000Y26036000D01*
G75*
G02*
X44326000Y26236000I200000J0D01*
G01*
X45886000Y26236000D01*
G75*
G02*
X46086000Y26036000I0J-200000D01*
G01*
X46086000Y25386000D01*
G75*
G02*
X45886000Y25186000I-200000J0D01*
G01*
X44326000Y25186000D01*
G75*
G02*
X44126000Y25386000I0J200000D01*
G01*
G37*
G04 #@! TD*
G04 #@! TO.C,U9*
G36*
G01*
X44126000Y21830000D02*
X44126000Y22480000D01*
G75*
G02*
X44326000Y22680000I200000J0D01*
G01*
X45886000Y22680000D01*
G75*
G02*
X46086000Y22480000I0J-200000D01*
G01*
X46086000Y21830000D01*
G75*
G02*
X45886000Y21630000I-200000J0D01*
G01*
X44326000Y21630000D01*
G75*
G02*
X44126000Y21830000I0J200000D01*
G01*
G37*
G36*
G01*
X44126000Y22780000D02*
X44126000Y23430000D01*
G75*
G02*
X44326000Y23630000I200000J0D01*
G01*
X45886000Y23630000D01*
G75*
G02*
X46086000Y23430000I0J-200000D01*
G01*
X46086000Y22780000D01*
G75*
G02*
X45886000Y22580000I-200000J0D01*
G01*
X44326000Y22580000D01*
G75*
G02*
X44126000Y22780000I0J200000D01*
G01*
G37*
G36*
G01*
X44126000Y20880000D02*
X44126000Y21530000D01*
G75*
G02*
X44326000Y21730000I200000J0D01*
G01*
X45886000Y21730000D01*
G75*
G02*
X46086000Y21530000I0J-200000D01*
G01*
X46086000Y20880000D01*
G75*
G02*
X45886000Y20680000I-200000J0D01*
G01*
X44326000Y20680000D01*
G75*
G02*
X44126000Y20880000I0J200000D01*
G01*
G37*
G36*
G01*
X41426000Y20880000D02*
X41426000Y21530000D01*
G75*
G02*
X41626000Y21730000I200000J0D01*
G01*
X43186000Y21730000D01*
G75*
G02*
X43386000Y21530000I0J-200000D01*
G01*
X43386000Y20880000D01*
G75*
G02*
X43186000Y20680000I-200000J0D01*
G01*
X41626000Y20680000D01*
G75*
G02*
X41426000Y20880000I0J200000D01*
G01*
G37*
G36*
G01*
X41426000Y21830000D02*
X41426000Y22480000D01*
G75*
G02*
X41626000Y22680000I200000J0D01*
G01*
X43186000Y22680000D01*
G75*
G02*
X43386000Y22480000I0J-200000D01*
G01*
X43386000Y21830000D01*
G75*
G02*
X43186000Y21630000I-200000J0D01*
G01*
X41626000Y21630000D01*
G75*
G02*
X41426000Y21830000I0J200000D01*
G01*
G37*
G36*
G01*
X41426000Y22780000D02*
X41426000Y23430000D01*
G75*
G02*
X41626000Y23630000I200000J0D01*
G01*
X43186000Y23630000D01*
G75*
G02*
X43386000Y23430000I0J-200000D01*
G01*
X43386000Y22780000D01*
G75*
G02*
X43186000Y22580000I-200000J0D01*
G01*
X41626000Y22580000D01*
G75*
G02*
X41426000Y22780000I0J200000D01*
G01*
G37*
G04 #@! TD*
G04 #@! TO.C,U10*
G36*
G01*
X41426000Y19224000D02*
X41426000Y19874000D01*
G75*
G02*
X41626000Y20074000I200000J0D01*
G01*
X43186000Y20074000D01*
G75*
G02*
X43386000Y19874000I0J-200000D01*
G01*
X43386000Y19224000D01*
G75*
G02*
X43186000Y19024000I-200000J0D01*
G01*
X41626000Y19024000D01*
G75*
G02*
X41426000Y19224000I0J200000D01*
G01*
G37*
G36*
G01*
X41426000Y18274000D02*
X41426000Y18924000D01*
G75*
G02*
X41626000Y19124000I200000J0D01*
G01*
X43186000Y19124000D01*
G75*
G02*
X43386000Y18924000I0J-200000D01*
G01*
X43386000Y18274000D01*
G75*
G02*
X43186000Y18074000I-200000J0D01*
G01*
X41626000Y18074000D01*
G75*
G02*
X41426000Y18274000I0J200000D01*
G01*
G37*
G36*
G01*
X41426000Y17324000D02*
X41426000Y17974000D01*
G75*
G02*
X41626000Y18174000I200000J0D01*
G01*
X43186000Y18174000D01*
G75*
G02*
X43386000Y17974000I0J-200000D01*
G01*
X43386000Y17324000D01*
G75*
G02*
X43186000Y17124000I-200000J0D01*
G01*
X41626000Y17124000D01*
G75*
G02*
X41426000Y17324000I0J200000D01*
G01*
G37*
G36*
G01*
X44126000Y17324000D02*
X44126000Y17974000D01*
G75*
G02*
X44326000Y18174000I200000J0D01*
G01*
X45886000Y18174000D01*
G75*
G02*
X46086000Y17974000I0J-200000D01*
G01*
X46086000Y17324000D01*
G75*
G02*
X45886000Y17124000I-200000J0D01*
G01*
X44326000Y17124000D01*
G75*
G02*
X44126000Y17324000I0J200000D01*
G01*
G37*
G36*
G01*
X44126000Y19224000D02*
X44126000Y19874000D01*
G75*
G02*
X44326000Y20074000I200000J0D01*
G01*
X45886000Y20074000D01*
G75*
G02*
X46086000Y19874000I0J-200000D01*
G01*
X46086000Y19224000D01*
G75*
G02*
X45886000Y19024000I-200000J0D01*
G01*
X44326000Y19024000D01*
G75*
G02*
X44126000Y19224000I0J200000D01*
G01*
G37*
G36*
G01*
X44126000Y18274000D02*
X44126000Y18924000D01*
G75*
G02*
X44326000Y19124000I200000J0D01*
G01*
X45886000Y19124000D01*
G75*
G02*
X46086000Y18924000I0J-200000D01*
G01*
X46086000Y18274000D01*
G75*
G02*
X45886000Y18074000I-200000J0D01*
G01*
X44326000Y18074000D01*
G75*
G02*
X44126000Y18274000I0J200000D01*
G01*
G37*
G04 #@! TD*
G04 #@! TO.C,D2*
G36*
G01*
X25400000Y-3100000D02*
X23600000Y-3100000D01*
G75*
G02*
X23400000Y-2900000I0J200000D01*
G01*
X23400000Y-1100000D01*
G75*
G02*
X23600000Y-900000I200000J0D01*
G01*
X25400000Y-900000D01*
G75*
G02*
X25600000Y-1100000I0J-200000D01*
G01*
X25600000Y-2900000D01*
G75*
G02*
X25400000Y-3100000I-200000J0D01*
G01*
G37*
D12*
X24500000Y540000D03*
G04 #@! TD*
G04 #@! TO.C,R10*
G36*
G01*
X24095750Y4936500D02*
X24808250Y4936500D01*
G75*
G02*
X25127000Y4617750I0J-318750D01*
G01*
X25127000Y3980250D01*
G75*
G02*
X24808250Y3661500I-318750J0D01*
G01*
X24095750Y3661500D01*
G75*
G02*
X23777000Y3980250I0J318750D01*
G01*
X23777000Y4617750D01*
G75*
G02*
X24095750Y4936500I318750J0D01*
G01*
G37*
G36*
G01*
X24095750Y3361500D02*
X24808250Y3361500D01*
G75*
G02*
X25127000Y3042750I0J-318750D01*
G01*
X25127000Y2405250D01*
G75*
G02*
X24808250Y2086500I-318750J0D01*
G01*
X24095750Y2086500D01*
G75*
G02*
X23777000Y2405250I0J318750D01*
G01*
X23777000Y3042750D01*
G75*
G02*
X24095750Y3361500I318750J0D01*
G01*
G37*
G04 #@! TD*
G04 #@! TO.C,C17*
G36*
G01*
X22776250Y11637000D02*
X22063750Y11637000D01*
G75*
G02*
X21745000Y11955750I0J318750D01*
G01*
X21745000Y12593250D01*
G75*
G02*
X22063750Y12912000I318750J0D01*
G01*
X22776250Y12912000D01*
G75*
G02*
X23095000Y12593250I0J-318750D01*
G01*
X23095000Y11955750D01*
G75*
G02*
X22776250Y11637000I-318750J0D01*
G01*
G37*
G36*
G01*
X22776250Y10062000D02*
X22063750Y10062000D01*
G75*
G02*
X21745000Y10380750I0J318750D01*
G01*
X21745000Y11018250D01*
G75*
G02*
X22063750Y11337000I318750J0D01*
G01*
X22776250Y11337000D01*
G75*
G02*
X23095000Y11018250I0J-318750D01*
G01*
X23095000Y10380750D01*
G75*
G02*
X22776250Y10062000I-318750J0D01*
G01*
G37*
G04 #@! TD*
G04 #@! TO.C,C22*
G36*
G01*
X31973000Y15018250D02*
X31973000Y14305750D01*
G75*
G02*
X31654250Y13987000I-318750J0D01*
G01*
X31016750Y13987000D01*
G75*
G02*
X30698000Y14305750I0J318750D01*
G01*
X30698000Y15018250D01*
G75*
G02*
X31016750Y15337000I318750J0D01*
G01*
X31654250Y15337000D01*
G75*
G02*
X31973000Y15018250I0J-318750D01*
G01*
G37*
G36*
G01*
X30398000Y15018250D02*
X30398000Y14305750D01*
G75*
G02*
X30079250Y13987000I-318750J0D01*
G01*
X29441750Y13987000D01*
G75*
G02*
X29123000Y14305750I0J318750D01*
G01*
X29123000Y15018250D01*
G75*
G02*
X29441750Y15337000I318750J0D01*
G01*
X30079250Y15337000D01*
G75*
G02*
X30398000Y15018250I0J-318750D01*
G01*
G37*
G04 #@! TD*
M02*
