G04 #@! TF.GenerationSoftware,KiCad,Pcbnew,5.1.10-88a1d61d58~90~ubuntu20.04.1*
G04 #@! TF.CreationDate,2021-11-15T23:18:05+00:00*
G04 #@! TF.ProjectId,pulse_stretcher,70756c73-655f-4737-9472-657463686572,rev?*
G04 #@! TF.SameCoordinates,PX5ee3fe0PY6209a80*
G04 #@! TF.FileFunction,Soldermask,Bot*
G04 #@! TF.FilePolarity,Negative*
%FSLAX46Y46*%
G04 Gerber Fmt 4.6, Leading zero omitted, Abs format (unit mm)*
G04 Created by KiCad (PCBNEW 5.1.10-88a1d61d58~90~ubuntu20.04.1) date 2021-11-15 23:18:05*
%MOMM*%
%LPD*%
G01*
G04 APERTURE LIST*
%ADD10C,0.100000*%
%ADD11C,3.200000*%
%ADD12C,2.200000*%
%ADD13C,8.000000*%
G04 APERTURE END LIST*
D10*
G36*
X43502000Y21774000D02*
G01*
X40200000Y21774000D01*
X40200000Y22536000D01*
X43502000Y22536000D01*
X43502000Y21774000D01*
G37*
X43502000Y21774000D02*
X40200000Y21774000D01*
X40200000Y22536000D01*
X43502000Y22536000D01*
X43502000Y21774000D01*
G36*
X47566000Y18218000D02*
G01*
X44010000Y18218000D01*
X44010000Y18980000D01*
X47566000Y18980000D01*
X47566000Y18218000D01*
G37*
X47566000Y18218000D02*
X44010000Y18218000D01*
X44010000Y18980000D01*
X47566000Y18980000D01*
X47566000Y18218000D01*
G36*
X43502000Y18218000D02*
G01*
X40200000Y18218000D01*
X40200000Y18980000D01*
X43502000Y18980000D01*
X43502000Y18218000D01*
G37*
X43502000Y18218000D02*
X40200000Y18218000D01*
X40200000Y18980000D01*
X43502000Y18980000D01*
X43502000Y18218000D01*
G36*
X43502000Y25330000D02*
G01*
X40200000Y25330000D01*
X40200000Y26092000D01*
X43502000Y26092000D01*
X43502000Y25330000D01*
G37*
X43502000Y25330000D02*
X40200000Y25330000D01*
X40200000Y26092000D01*
X43502000Y26092000D01*
X43502000Y25330000D01*
G36*
X47566000Y25330000D02*
G01*
X44010000Y25330000D01*
X44010000Y26092000D01*
X47566000Y26092000D01*
X47566000Y25330000D01*
G37*
X47566000Y25330000D02*
X44010000Y25330000D01*
X44010000Y26092000D01*
X47566000Y26092000D01*
X47566000Y25330000D01*
G36*
X47566000Y21774000D02*
G01*
X44010000Y21774000D01*
X44010000Y22536000D01*
X47566000Y22536000D01*
X47566000Y21774000D01*
G37*
X47566000Y21774000D02*
X44010000Y21774000D01*
X44010000Y22536000D01*
X47566000Y22536000D01*
X47566000Y21774000D01*
D11*
G04 #@! TO.C,J4*
X55988000Y13432000D03*
X55988000Y18432000D03*
X60988000Y18432000D03*
X60988000Y13432000D03*
X58488000Y15932000D03*
G04 #@! TD*
G04 #@! TO.C,J3*
X55988000Y29568000D03*
X55988000Y34568000D03*
X60988000Y34568000D03*
X60988000Y29568000D03*
X58488000Y32068000D03*
G04 #@! TD*
G04 #@! TO.C,J2*
X-988000Y18432000D03*
X-988000Y13432000D03*
X-5988000Y13432000D03*
X-5988000Y18432000D03*
X-3488000Y15932000D03*
G04 #@! TD*
G04 #@! TO.C,C35*
G36*
G01*
X45181000Y28353250D02*
X45181000Y27640750D01*
G75*
G02*
X44862250Y27322000I-318750J0D01*
G01*
X44224750Y27322000D01*
G75*
G02*
X43906000Y27640750I0J318750D01*
G01*
X43906000Y28353250D01*
G75*
G02*
X44224750Y28672000I318750J0D01*
G01*
X44862250Y28672000D01*
G75*
G02*
X45181000Y28353250I0J-318750D01*
G01*
G37*
G36*
G01*
X43606000Y28353250D02*
X43606000Y27640750D01*
G75*
G02*
X43287250Y27322000I-318750J0D01*
G01*
X42649750Y27322000D01*
G75*
G02*
X42331000Y27640750I0J318750D01*
G01*
X42331000Y28353250D01*
G75*
G02*
X42649750Y28672000I318750J0D01*
G01*
X43287250Y28672000D01*
G75*
G02*
X43606000Y28353250I0J-318750D01*
G01*
G37*
G04 #@! TD*
G04 #@! TO.C,C36*
G36*
G01*
X43606000Y16161250D02*
X43606000Y15448750D01*
G75*
G02*
X43287250Y15130000I-318750J0D01*
G01*
X42649750Y15130000D01*
G75*
G02*
X42331000Y15448750I0J318750D01*
G01*
X42331000Y16161250D01*
G75*
G02*
X42649750Y16480000I318750J0D01*
G01*
X43287250Y16480000D01*
G75*
G02*
X43606000Y16161250I0J-318750D01*
G01*
G37*
G36*
G01*
X45181000Y16161250D02*
X45181000Y15448750D01*
G75*
G02*
X44862250Y15130000I-318750J0D01*
G01*
X44224750Y15130000D01*
G75*
G02*
X43906000Y15448750I0J318750D01*
G01*
X43906000Y16161250D01*
G75*
G02*
X44224750Y16480000I318750J0D01*
G01*
X44862250Y16480000D01*
G75*
G02*
X45181000Y16161250I0J-318750D01*
G01*
G37*
G04 #@! TD*
G04 #@! TO.C,C26*
G36*
G01*
X42331000Y24084750D02*
X42331000Y24797250D01*
G75*
G02*
X42649750Y25116000I318750J0D01*
G01*
X43287250Y25116000D01*
G75*
G02*
X43606000Y24797250I0J-318750D01*
G01*
X43606000Y24084750D01*
G75*
G02*
X43287250Y23766000I-318750J0D01*
G01*
X42649750Y23766000D01*
G75*
G02*
X42331000Y24084750I0J318750D01*
G01*
G37*
G36*
G01*
X43906000Y24084750D02*
X43906000Y24797250D01*
G75*
G02*
X44224750Y25116000I318750J0D01*
G01*
X44862250Y25116000D01*
G75*
G02*
X45181000Y24797250I0J-318750D01*
G01*
X45181000Y24084750D01*
G75*
G02*
X44862250Y23766000I-318750J0D01*
G01*
X44224750Y23766000D01*
G75*
G02*
X43906000Y24084750I0J318750D01*
G01*
G37*
G04 #@! TD*
G04 #@! TO.C,C27*
G36*
G01*
X43746000Y26454500D02*
X43746000Y26999500D01*
G75*
G02*
X43993500Y27247000I247500J0D01*
G01*
X44488500Y27247000D01*
G75*
G02*
X44736000Y26999500I0J-247500D01*
G01*
X44736000Y26454500D01*
G75*
G02*
X44488500Y26207000I-247500J0D01*
G01*
X43993500Y26207000D01*
G75*
G02*
X43746000Y26454500I0J247500D01*
G01*
G37*
G36*
G01*
X42776000Y26454500D02*
X42776000Y26999500D01*
G75*
G02*
X43023500Y27247000I247500J0D01*
G01*
X43518500Y27247000D01*
G75*
G02*
X43766000Y26999500I0J-247500D01*
G01*
X43766000Y26454500D01*
G75*
G02*
X43518500Y26207000I-247500J0D01*
G01*
X43023500Y26207000D01*
G75*
G02*
X42776000Y26454500I0J247500D01*
G01*
G37*
G04 #@! TD*
G04 #@! TO.C,C28*
G36*
G01*
X43766000Y25983500D02*
X43766000Y25438500D01*
G75*
G02*
X43518500Y25191000I-247500J0D01*
G01*
X43023500Y25191000D01*
G75*
G02*
X42776000Y25438500I0J247500D01*
G01*
X42776000Y25983500D01*
G75*
G02*
X43023500Y26231000I247500J0D01*
G01*
X43518500Y26231000D01*
G75*
G02*
X43766000Y25983500I0J-247500D01*
G01*
G37*
G36*
G01*
X44736000Y25983500D02*
X44736000Y25438500D01*
G75*
G02*
X44488500Y25191000I-247500J0D01*
G01*
X43993500Y25191000D01*
G75*
G02*
X43746000Y25438500I0J247500D01*
G01*
X43746000Y25983500D01*
G75*
G02*
X43993500Y26231000I247500J0D01*
G01*
X44488500Y26231000D01*
G75*
G02*
X44736000Y25983500I0J-247500D01*
G01*
G37*
G04 #@! TD*
G04 #@! TO.C,C29*
G36*
G01*
X43906000Y20528750D02*
X43906000Y21241250D01*
G75*
G02*
X44224750Y21560000I318750J0D01*
G01*
X44862250Y21560000D01*
G75*
G02*
X45181000Y21241250I0J-318750D01*
G01*
X45181000Y20528750D01*
G75*
G02*
X44862250Y20210000I-318750J0D01*
G01*
X44224750Y20210000D01*
G75*
G02*
X43906000Y20528750I0J318750D01*
G01*
G37*
G36*
G01*
X42331000Y20528750D02*
X42331000Y21241250D01*
G75*
G02*
X42649750Y21560000I318750J0D01*
G01*
X43287250Y21560000D01*
G75*
G02*
X43606000Y21241250I0J-318750D01*
G01*
X43606000Y20528750D01*
G75*
G02*
X43287250Y20210000I-318750J0D01*
G01*
X42649750Y20210000D01*
G75*
G02*
X42331000Y20528750I0J318750D01*
G01*
G37*
G04 #@! TD*
G04 #@! TO.C,C30*
G36*
G01*
X42776000Y22898500D02*
X42776000Y23443500D01*
G75*
G02*
X43023500Y23691000I247500J0D01*
G01*
X43518500Y23691000D01*
G75*
G02*
X43766000Y23443500I0J-247500D01*
G01*
X43766000Y22898500D01*
G75*
G02*
X43518500Y22651000I-247500J0D01*
G01*
X43023500Y22651000D01*
G75*
G02*
X42776000Y22898500I0J247500D01*
G01*
G37*
G36*
G01*
X43746000Y22898500D02*
X43746000Y23443500D01*
G75*
G02*
X43993500Y23691000I247500J0D01*
G01*
X44488500Y23691000D01*
G75*
G02*
X44736000Y23443500I0J-247500D01*
G01*
X44736000Y22898500D01*
G75*
G02*
X44488500Y22651000I-247500J0D01*
G01*
X43993500Y22651000D01*
G75*
G02*
X43746000Y22898500I0J247500D01*
G01*
G37*
G04 #@! TD*
G04 #@! TO.C,C31*
G36*
G01*
X44736000Y22427500D02*
X44736000Y21882500D01*
G75*
G02*
X44488500Y21635000I-247500J0D01*
G01*
X43993500Y21635000D01*
G75*
G02*
X43746000Y21882500I0J247500D01*
G01*
X43746000Y22427500D01*
G75*
G02*
X43993500Y22675000I247500J0D01*
G01*
X44488500Y22675000D01*
G75*
G02*
X44736000Y22427500I0J-247500D01*
G01*
G37*
G36*
G01*
X43766000Y22427500D02*
X43766000Y21882500D01*
G75*
G02*
X43518500Y21635000I-247500J0D01*
G01*
X43023500Y21635000D01*
G75*
G02*
X42776000Y21882500I0J247500D01*
G01*
X42776000Y22427500D01*
G75*
G02*
X43023500Y22675000I247500J0D01*
G01*
X43518500Y22675000D01*
G75*
G02*
X43766000Y22427500I0J-247500D01*
G01*
G37*
G04 #@! TD*
G04 #@! TO.C,C32*
G36*
G01*
X42331000Y16972750D02*
X42331000Y17685250D01*
G75*
G02*
X42649750Y18004000I318750J0D01*
G01*
X43287250Y18004000D01*
G75*
G02*
X43606000Y17685250I0J-318750D01*
G01*
X43606000Y16972750D01*
G75*
G02*
X43287250Y16654000I-318750J0D01*
G01*
X42649750Y16654000D01*
G75*
G02*
X42331000Y16972750I0J318750D01*
G01*
G37*
G36*
G01*
X43906000Y16972750D02*
X43906000Y17685250D01*
G75*
G02*
X44224750Y18004000I318750J0D01*
G01*
X44862250Y18004000D01*
G75*
G02*
X45181000Y17685250I0J-318750D01*
G01*
X45181000Y16972750D01*
G75*
G02*
X44862250Y16654000I-318750J0D01*
G01*
X44224750Y16654000D01*
G75*
G02*
X43906000Y16972750I0J318750D01*
G01*
G37*
G04 #@! TD*
G04 #@! TO.C,C33*
G36*
G01*
X42776000Y19342500D02*
X42776000Y19887500D01*
G75*
G02*
X43023500Y20135000I247500J0D01*
G01*
X43518500Y20135000D01*
G75*
G02*
X43766000Y19887500I0J-247500D01*
G01*
X43766000Y19342500D01*
G75*
G02*
X43518500Y19095000I-247500J0D01*
G01*
X43023500Y19095000D01*
G75*
G02*
X42776000Y19342500I0J247500D01*
G01*
G37*
G36*
G01*
X43746000Y19342500D02*
X43746000Y19887500D01*
G75*
G02*
X43993500Y20135000I247500J0D01*
G01*
X44488500Y20135000D01*
G75*
G02*
X44736000Y19887500I0J-247500D01*
G01*
X44736000Y19342500D01*
G75*
G02*
X44488500Y19095000I-247500J0D01*
G01*
X43993500Y19095000D01*
G75*
G02*
X43746000Y19342500I0J247500D01*
G01*
G37*
G04 #@! TD*
G04 #@! TO.C,C34*
G36*
G01*
X44736000Y18871500D02*
X44736000Y18326500D01*
G75*
G02*
X44488500Y18079000I-247500J0D01*
G01*
X43993500Y18079000D01*
G75*
G02*
X43746000Y18326500I0J247500D01*
G01*
X43746000Y18871500D01*
G75*
G02*
X43993500Y19119000I247500J0D01*
G01*
X44488500Y19119000D01*
G75*
G02*
X44736000Y18871500I0J-247500D01*
G01*
G37*
G36*
G01*
X43766000Y18871500D02*
X43766000Y18326500D01*
G75*
G02*
X43518500Y18079000I-247500J0D01*
G01*
X43023500Y18079000D01*
G75*
G02*
X42776000Y18326500I0J247500D01*
G01*
X42776000Y18871500D01*
G75*
G02*
X43023500Y19119000I247500J0D01*
G01*
X43518500Y19119000D01*
G75*
G02*
X43766000Y18871500I0J-247500D01*
G01*
G37*
G04 #@! TD*
G04 #@! TO.C,D1*
G36*
G01*
X23600000Y51100000D02*
X25400000Y51100000D01*
G75*
G02*
X25600000Y50900000I0J-200000D01*
G01*
X25600000Y49100000D01*
G75*
G02*
X25400000Y48900000I-200000J0D01*
G01*
X23600000Y48900000D01*
G75*
G02*
X23400000Y49100000I0J200000D01*
G01*
X23400000Y50900000D01*
G75*
G02*
X23600000Y51100000I200000J0D01*
G01*
G37*
D12*
X24500000Y47460000D03*
G04 #@! TD*
D13*
G04 #@! TO.C,H1*
X12500000Y52000000D03*
G04 #@! TD*
G04 #@! TO.C,H2*
X51500000Y52000000D03*
G04 #@! TD*
G04 #@! TO.C,H3*
X3500000Y-4000000D03*
G04 #@! TD*
G04 #@! TO.C,H4*
X42500000Y-4000000D03*
G04 #@! TD*
G04 #@! TO.C,J1*
G36*
G01*
X4214000Y38062000D02*
X4214000Y42062000D01*
G75*
G02*
X4414000Y42262000I200000J0D01*
G01*
X7914000Y42262000D01*
G75*
G02*
X8114000Y42062000I0J-200000D01*
G01*
X8114000Y38062000D01*
G75*
G02*
X7914000Y37862000I-200000J0D01*
G01*
X4414000Y37862000D01*
G75*
G02*
X4214000Y38062000I0J200000D01*
G01*
G37*
G36*
G01*
X-1986000Y38062000D02*
X-1986000Y42062000D01*
G75*
G02*
X-1786000Y42262000I200000J0D01*
G01*
X1714000Y42262000D01*
G75*
G02*
X1914000Y42062000I0J-200000D01*
G01*
X1914000Y38062000D01*
G75*
G02*
X1714000Y37862000I-200000J0D01*
G01*
X-1786000Y37862000D01*
G75*
G02*
X-1986000Y38062000I0J200000D01*
G01*
G37*
G36*
G01*
X864000Y33312000D02*
X864000Y36812000D01*
G75*
G02*
X1064000Y37012000I200000J0D01*
G01*
X5064000Y37012000D01*
G75*
G02*
X5264000Y36812000I0J-200000D01*
G01*
X5264000Y33312000D01*
G75*
G02*
X5064000Y33112000I-200000J0D01*
G01*
X1064000Y33112000D01*
G75*
G02*
X864000Y33312000I0J200000D01*
G01*
G37*
G04 #@! TD*
G04 #@! TO.C,D2*
G36*
G01*
X25400000Y-3100000D02*
X23600000Y-3100000D01*
G75*
G02*
X23400000Y-2900000I0J200000D01*
G01*
X23400000Y-1100000D01*
G75*
G02*
X23600000Y-900000I200000J0D01*
G01*
X25400000Y-900000D01*
G75*
G02*
X25600000Y-1100000I0J-200000D01*
G01*
X25600000Y-2900000D01*
G75*
G02*
X25400000Y-3100000I-200000J0D01*
G01*
G37*
D12*
X24500000Y540000D03*
G04 #@! TD*
M02*
