G04 #@! TF.GenerationSoftware,KiCad,Pcbnew,5.1.10-88a1d61d58~90~ubuntu20.04.1*
G04 #@! TF.CreationDate,2021-11-15T23:18:05+00:00*
G04 #@! TF.ProjectId,pulse_stretcher,70756c73-655f-4737-9472-657463686572,rev?*
G04 #@! TF.SameCoordinates,PX5ee3fe0PY6209a80*
G04 #@! TF.FileFunction,Copper,L2,Bot*
G04 #@! TF.FilePolarity,Positive*
%FSLAX46Y46*%
G04 Gerber Fmt 4.6, Leading zero omitted, Abs format (unit mm)*
G04 Created by KiCad (PCBNEW 5.1.10-88a1d61d58~90~ubuntu20.04.1) date 2021-11-15 23:18:05*
%MOMM*%
%LPD*%
G01*
G04 APERTURE LIST*
G04 #@! TA.AperFunction,ComponentPad*
%ADD10C,2.800000*%
G04 #@! TD*
G04 #@! TA.AperFunction,ComponentPad*
%ADD11R,1.800000X1.800000*%
G04 #@! TD*
G04 #@! TA.AperFunction,ComponentPad*
%ADD12C,1.800000*%
G04 #@! TD*
G04 #@! TA.AperFunction,ComponentPad*
%ADD13C,7.600000*%
G04 #@! TD*
G04 #@! TA.AperFunction,ComponentPad*
%ADD14R,3.500000X4.000000*%
G04 #@! TD*
G04 #@! TA.AperFunction,ComponentPad*
%ADD15R,4.000000X3.500000*%
G04 #@! TD*
G04 #@! TA.AperFunction,ViaPad*
%ADD16C,1.000000*%
G04 #@! TD*
G04 #@! TA.AperFunction,ViaPad*
%ADD17C,1.200000*%
G04 #@! TD*
G04 #@! TA.AperFunction,ViaPad*
%ADD18C,0.600000*%
G04 #@! TD*
G04 #@! TA.AperFunction,Conductor*
%ADD19C,2.000000*%
G04 #@! TD*
G04 #@! TA.AperFunction,Conductor*
%ADD20C,0.762000*%
G04 #@! TD*
G04 #@! TA.AperFunction,Conductor*
%ADD21C,0.508000*%
G04 #@! TD*
G04 #@! TA.AperFunction,Conductor*
%ADD22C,0.250000*%
G04 #@! TD*
G04 #@! TA.AperFunction,Conductor*
%ADD23C,1.024000*%
G04 #@! TD*
G04 #@! TA.AperFunction,Conductor*
%ADD24C,1.200000*%
G04 #@! TD*
G04 #@! TA.AperFunction,Conductor*
%ADD25C,0.254000*%
G04 #@! TD*
G04 #@! TA.AperFunction,Conductor*
%ADD26C,0.100000*%
G04 #@! TD*
G04 APERTURE END LIST*
D10*
G04 #@! TO.P,J4,4*
G04 #@! TO.N,GND*
X55988000Y13432000D03*
G04 #@! TO.P,J4,5*
X55988000Y18432000D03*
G04 #@! TO.P,J4,2*
X60988000Y18432000D03*
G04 #@! TO.P,J4,3*
X60988000Y13432000D03*
G04 #@! TO.P,J4,1*
G04 #@! TO.N,/~ENABLE*
X58488000Y15932000D03*
G04 #@! TD*
G04 #@! TO.P,J3,4*
G04 #@! TO.N,GND*
X55988000Y29568000D03*
G04 #@! TO.P,J3,5*
X55988000Y34568000D03*
G04 #@! TO.P,J3,2*
X60988000Y34568000D03*
G04 #@! TO.P,J3,3*
X60988000Y29568000D03*
G04 #@! TO.P,J3,1*
G04 #@! TO.N,/BUFFEREDOUT*
X58488000Y32068000D03*
G04 #@! TD*
G04 #@! TO.P,J2,4*
G04 #@! TO.N,GND*
X-988000Y18432000D03*
G04 #@! TO.P,J2,5*
X-988000Y13432000D03*
G04 #@! TO.P,J2,2*
X-5988000Y13432000D03*
G04 #@! TO.P,J2,3*
X-5988000Y18432000D03*
G04 #@! TO.P,J2,1*
G04 #@! TO.N,/INPUT*
X-3488000Y15932000D03*
G04 #@! TD*
G04 #@! TO.P,C35,1*
G04 #@! TO.N,+2V5*
G04 #@! TA.AperFunction,SMDPad,CuDef*
G36*
G01*
X44981000Y28253250D02*
X44981000Y27740750D01*
G75*
G02*
X44762250Y27522000I-218750J0D01*
G01*
X44324750Y27522000D01*
G75*
G02*
X44106000Y27740750I0J218750D01*
G01*
X44106000Y28253250D01*
G75*
G02*
X44324750Y28472000I218750J0D01*
G01*
X44762250Y28472000D01*
G75*
G02*
X44981000Y28253250I0J-218750D01*
G01*
G37*
G04 #@! TD.AperFunction*
G04 #@! TO.P,C35,2*
G04 #@! TO.N,GND*
G04 #@! TA.AperFunction,SMDPad,CuDef*
G36*
G01*
X43406000Y28253250D02*
X43406000Y27740750D01*
G75*
G02*
X43187250Y27522000I-218750J0D01*
G01*
X42749750Y27522000D01*
G75*
G02*
X42531000Y27740750I0J218750D01*
G01*
X42531000Y28253250D01*
G75*
G02*
X42749750Y28472000I218750J0D01*
G01*
X43187250Y28472000D01*
G75*
G02*
X43406000Y28253250I0J-218750D01*
G01*
G37*
G04 #@! TD.AperFunction*
G04 #@! TD*
G04 #@! TO.P,C36,2*
G04 #@! TO.N,GND*
G04 #@! TA.AperFunction,SMDPad,CuDef*
G36*
G01*
X43406000Y16061250D02*
X43406000Y15548750D01*
G75*
G02*
X43187250Y15330000I-218750J0D01*
G01*
X42749750Y15330000D01*
G75*
G02*
X42531000Y15548750I0J218750D01*
G01*
X42531000Y16061250D01*
G75*
G02*
X42749750Y16280000I218750J0D01*
G01*
X43187250Y16280000D01*
G75*
G02*
X43406000Y16061250I0J-218750D01*
G01*
G37*
G04 #@! TD.AperFunction*
G04 #@! TO.P,C36,1*
G04 #@! TO.N,+2V5*
G04 #@! TA.AperFunction,SMDPad,CuDef*
G36*
G01*
X44981000Y16061250D02*
X44981000Y15548750D01*
G75*
G02*
X44762250Y15330000I-218750J0D01*
G01*
X44324750Y15330000D01*
G75*
G02*
X44106000Y15548750I0J218750D01*
G01*
X44106000Y16061250D01*
G75*
G02*
X44324750Y16280000I218750J0D01*
G01*
X44762250Y16280000D01*
G75*
G02*
X44981000Y16061250I0J-218750D01*
G01*
G37*
G04 #@! TD.AperFunction*
G04 #@! TD*
G04 #@! TO.P,C26,1*
G04 #@! TO.N,GND*
G04 #@! TA.AperFunction,SMDPad,CuDef*
G36*
G01*
X42531000Y24184750D02*
X42531000Y24697250D01*
G75*
G02*
X42749750Y24916000I218750J0D01*
G01*
X43187250Y24916000D01*
G75*
G02*
X43406000Y24697250I0J-218750D01*
G01*
X43406000Y24184750D01*
G75*
G02*
X43187250Y23966000I-218750J0D01*
G01*
X42749750Y23966000D01*
G75*
G02*
X42531000Y24184750I0J218750D01*
G01*
G37*
G04 #@! TD.AperFunction*
G04 #@! TO.P,C26,2*
G04 #@! TO.N,+2V5*
G04 #@! TA.AperFunction,SMDPad,CuDef*
G36*
G01*
X44106000Y24184750D02*
X44106000Y24697250D01*
G75*
G02*
X44324750Y24916000I218750J0D01*
G01*
X44762250Y24916000D01*
G75*
G02*
X44981000Y24697250I0J-218750D01*
G01*
X44981000Y24184750D01*
G75*
G02*
X44762250Y23966000I-218750J0D01*
G01*
X44324750Y23966000D01*
G75*
G02*
X44106000Y24184750I0J218750D01*
G01*
G37*
G04 #@! TD.AperFunction*
G04 #@! TD*
G04 #@! TO.P,C27,2*
G04 #@! TO.N,+2V5*
G04 #@! TA.AperFunction,SMDPad,CuDef*
G36*
G01*
X43946000Y26554500D02*
X43946000Y26899500D01*
G75*
G02*
X44093500Y27047000I147500J0D01*
G01*
X44388500Y27047000D01*
G75*
G02*
X44536000Y26899500I0J-147500D01*
G01*
X44536000Y26554500D01*
G75*
G02*
X44388500Y26407000I-147500J0D01*
G01*
X44093500Y26407000D01*
G75*
G02*
X43946000Y26554500I0J147500D01*
G01*
G37*
G04 #@! TD.AperFunction*
G04 #@! TO.P,C27,1*
G04 #@! TO.N,GND*
G04 #@! TA.AperFunction,SMDPad,CuDef*
G36*
G01*
X42976000Y26554500D02*
X42976000Y26899500D01*
G75*
G02*
X43123500Y27047000I147500J0D01*
G01*
X43418500Y27047000D01*
G75*
G02*
X43566000Y26899500I0J-147500D01*
G01*
X43566000Y26554500D01*
G75*
G02*
X43418500Y26407000I-147500J0D01*
G01*
X43123500Y26407000D01*
G75*
G02*
X42976000Y26554500I0J147500D01*
G01*
G37*
G04 #@! TD.AperFunction*
G04 #@! TD*
G04 #@! TO.P,C28,2*
G04 #@! TO.N,GND*
G04 #@! TA.AperFunction,SMDPad,CuDef*
G36*
G01*
X43566000Y25883500D02*
X43566000Y25538500D01*
G75*
G02*
X43418500Y25391000I-147500J0D01*
G01*
X43123500Y25391000D01*
G75*
G02*
X42976000Y25538500I0J147500D01*
G01*
X42976000Y25883500D01*
G75*
G02*
X43123500Y26031000I147500J0D01*
G01*
X43418500Y26031000D01*
G75*
G02*
X43566000Y25883500I0J-147500D01*
G01*
G37*
G04 #@! TD.AperFunction*
G04 #@! TO.P,C28,1*
G04 #@! TO.N,+2V5*
G04 #@! TA.AperFunction,SMDPad,CuDef*
G36*
G01*
X44536000Y25883500D02*
X44536000Y25538500D01*
G75*
G02*
X44388500Y25391000I-147500J0D01*
G01*
X44093500Y25391000D01*
G75*
G02*
X43946000Y25538500I0J147500D01*
G01*
X43946000Y25883500D01*
G75*
G02*
X44093500Y26031000I147500J0D01*
G01*
X44388500Y26031000D01*
G75*
G02*
X44536000Y25883500I0J-147500D01*
G01*
G37*
G04 #@! TD.AperFunction*
G04 #@! TD*
G04 #@! TO.P,C29,2*
G04 #@! TO.N,+2V5*
G04 #@! TA.AperFunction,SMDPad,CuDef*
G36*
G01*
X44106000Y20628750D02*
X44106000Y21141250D01*
G75*
G02*
X44324750Y21360000I218750J0D01*
G01*
X44762250Y21360000D01*
G75*
G02*
X44981000Y21141250I0J-218750D01*
G01*
X44981000Y20628750D01*
G75*
G02*
X44762250Y20410000I-218750J0D01*
G01*
X44324750Y20410000D01*
G75*
G02*
X44106000Y20628750I0J218750D01*
G01*
G37*
G04 #@! TD.AperFunction*
G04 #@! TO.P,C29,1*
G04 #@! TO.N,GND*
G04 #@! TA.AperFunction,SMDPad,CuDef*
G36*
G01*
X42531000Y20628750D02*
X42531000Y21141250D01*
G75*
G02*
X42749750Y21360000I218750J0D01*
G01*
X43187250Y21360000D01*
G75*
G02*
X43406000Y21141250I0J-218750D01*
G01*
X43406000Y20628750D01*
G75*
G02*
X43187250Y20410000I-218750J0D01*
G01*
X42749750Y20410000D01*
G75*
G02*
X42531000Y20628750I0J218750D01*
G01*
G37*
G04 #@! TD.AperFunction*
G04 #@! TD*
G04 #@! TO.P,C30,1*
G04 #@! TO.N,GND*
G04 #@! TA.AperFunction,SMDPad,CuDef*
G36*
G01*
X42976000Y22998500D02*
X42976000Y23343500D01*
G75*
G02*
X43123500Y23491000I147500J0D01*
G01*
X43418500Y23491000D01*
G75*
G02*
X43566000Y23343500I0J-147500D01*
G01*
X43566000Y22998500D01*
G75*
G02*
X43418500Y22851000I-147500J0D01*
G01*
X43123500Y22851000D01*
G75*
G02*
X42976000Y22998500I0J147500D01*
G01*
G37*
G04 #@! TD.AperFunction*
G04 #@! TO.P,C30,2*
G04 #@! TO.N,+2V5*
G04 #@! TA.AperFunction,SMDPad,CuDef*
G36*
G01*
X43946000Y22998500D02*
X43946000Y23343500D01*
G75*
G02*
X44093500Y23491000I147500J0D01*
G01*
X44388500Y23491000D01*
G75*
G02*
X44536000Y23343500I0J-147500D01*
G01*
X44536000Y22998500D01*
G75*
G02*
X44388500Y22851000I-147500J0D01*
G01*
X44093500Y22851000D01*
G75*
G02*
X43946000Y22998500I0J147500D01*
G01*
G37*
G04 #@! TD.AperFunction*
G04 #@! TD*
G04 #@! TO.P,C31,1*
G04 #@! TO.N,+2V5*
G04 #@! TA.AperFunction,SMDPad,CuDef*
G36*
G01*
X44536000Y22327500D02*
X44536000Y21982500D01*
G75*
G02*
X44388500Y21835000I-147500J0D01*
G01*
X44093500Y21835000D01*
G75*
G02*
X43946000Y21982500I0J147500D01*
G01*
X43946000Y22327500D01*
G75*
G02*
X44093500Y22475000I147500J0D01*
G01*
X44388500Y22475000D01*
G75*
G02*
X44536000Y22327500I0J-147500D01*
G01*
G37*
G04 #@! TD.AperFunction*
G04 #@! TO.P,C31,2*
G04 #@! TO.N,GND*
G04 #@! TA.AperFunction,SMDPad,CuDef*
G36*
G01*
X43566000Y22327500D02*
X43566000Y21982500D01*
G75*
G02*
X43418500Y21835000I-147500J0D01*
G01*
X43123500Y21835000D01*
G75*
G02*
X42976000Y21982500I0J147500D01*
G01*
X42976000Y22327500D01*
G75*
G02*
X43123500Y22475000I147500J0D01*
G01*
X43418500Y22475000D01*
G75*
G02*
X43566000Y22327500I0J-147500D01*
G01*
G37*
G04 #@! TD.AperFunction*
G04 #@! TD*
G04 #@! TO.P,C32,1*
G04 #@! TO.N,GND*
G04 #@! TA.AperFunction,SMDPad,CuDef*
G36*
G01*
X42531000Y17072750D02*
X42531000Y17585250D01*
G75*
G02*
X42749750Y17804000I218750J0D01*
G01*
X43187250Y17804000D01*
G75*
G02*
X43406000Y17585250I0J-218750D01*
G01*
X43406000Y17072750D01*
G75*
G02*
X43187250Y16854000I-218750J0D01*
G01*
X42749750Y16854000D01*
G75*
G02*
X42531000Y17072750I0J218750D01*
G01*
G37*
G04 #@! TD.AperFunction*
G04 #@! TO.P,C32,2*
G04 #@! TO.N,+2V5*
G04 #@! TA.AperFunction,SMDPad,CuDef*
G36*
G01*
X44106000Y17072750D02*
X44106000Y17585250D01*
G75*
G02*
X44324750Y17804000I218750J0D01*
G01*
X44762250Y17804000D01*
G75*
G02*
X44981000Y17585250I0J-218750D01*
G01*
X44981000Y17072750D01*
G75*
G02*
X44762250Y16854000I-218750J0D01*
G01*
X44324750Y16854000D01*
G75*
G02*
X44106000Y17072750I0J218750D01*
G01*
G37*
G04 #@! TD.AperFunction*
G04 #@! TD*
G04 #@! TO.P,C33,1*
G04 #@! TO.N,GND*
G04 #@! TA.AperFunction,SMDPad,CuDef*
G36*
G01*
X42976000Y19442500D02*
X42976000Y19787500D01*
G75*
G02*
X43123500Y19935000I147500J0D01*
G01*
X43418500Y19935000D01*
G75*
G02*
X43566000Y19787500I0J-147500D01*
G01*
X43566000Y19442500D01*
G75*
G02*
X43418500Y19295000I-147500J0D01*
G01*
X43123500Y19295000D01*
G75*
G02*
X42976000Y19442500I0J147500D01*
G01*
G37*
G04 #@! TD.AperFunction*
G04 #@! TO.P,C33,2*
G04 #@! TO.N,+2V5*
G04 #@! TA.AperFunction,SMDPad,CuDef*
G36*
G01*
X43946000Y19442500D02*
X43946000Y19787500D01*
G75*
G02*
X44093500Y19935000I147500J0D01*
G01*
X44388500Y19935000D01*
G75*
G02*
X44536000Y19787500I0J-147500D01*
G01*
X44536000Y19442500D01*
G75*
G02*
X44388500Y19295000I-147500J0D01*
G01*
X44093500Y19295000D01*
G75*
G02*
X43946000Y19442500I0J147500D01*
G01*
G37*
G04 #@! TD.AperFunction*
G04 #@! TD*
G04 #@! TO.P,C34,1*
G04 #@! TO.N,+2V5*
G04 #@! TA.AperFunction,SMDPad,CuDef*
G36*
G01*
X44536000Y18771500D02*
X44536000Y18426500D01*
G75*
G02*
X44388500Y18279000I-147500J0D01*
G01*
X44093500Y18279000D01*
G75*
G02*
X43946000Y18426500I0J147500D01*
G01*
X43946000Y18771500D01*
G75*
G02*
X44093500Y18919000I147500J0D01*
G01*
X44388500Y18919000D01*
G75*
G02*
X44536000Y18771500I0J-147500D01*
G01*
G37*
G04 #@! TD.AperFunction*
G04 #@! TO.P,C34,2*
G04 #@! TO.N,GND*
G04 #@! TA.AperFunction,SMDPad,CuDef*
G36*
G01*
X43566000Y18771500D02*
X43566000Y18426500D01*
G75*
G02*
X43418500Y18279000I-147500J0D01*
G01*
X43123500Y18279000D01*
G75*
G02*
X42976000Y18426500I0J147500D01*
G01*
X42976000Y18771500D01*
G75*
G02*
X43123500Y18919000I147500J0D01*
G01*
X43418500Y18919000D01*
G75*
G02*
X43566000Y18771500I0J-147500D01*
G01*
G37*
G04 #@! TD.AperFunction*
G04 #@! TD*
D11*
G04 #@! TO.P,D1,1*
G04 #@! TO.N,Net-(C1-Pad2)*
X24500000Y50000000D03*
D12*
G04 #@! TO.P,D1,2*
G04 #@! TO.N,Net-(D1-Pad2)*
X24500000Y47460000D03*
G04 #@! TD*
D13*
G04 #@! TO.P,H1,1*
G04 #@! TO.N,GND*
X12500000Y52000000D03*
G04 #@! TD*
G04 #@! TO.P,H2,1*
G04 #@! TO.N,GND*
X51500000Y52000000D03*
G04 #@! TD*
G04 #@! TO.P,H3,1*
G04 #@! TO.N,GND*
X3500000Y-4000000D03*
G04 #@! TD*
G04 #@! TO.P,H4,1*
G04 #@! TO.N,GND*
X42500000Y-4000000D03*
G04 #@! TD*
D14*
G04 #@! TO.P,J1,1*
G04 #@! TO.N,Net-(C1-Pad1)*
X6164000Y40062000D03*
G04 #@! TO.P,J1,2*
G04 #@! TO.N,Net-(C1-Pad2)*
X-36000Y40062000D03*
D15*
G04 #@! TO.P,J1,3*
G04 #@! TO.N,N/C*
X3064000Y35062000D03*
G04 #@! TD*
D11*
G04 #@! TO.P,D2,1*
G04 #@! TO.N,/~ENABLEBUF*
X24500000Y-2000000D03*
D12*
G04 #@! TO.P,D2,2*
G04 #@! TO.N,Net-(D2-Pad2)*
X24500000Y540000D03*
G04 #@! TD*
D16*
G04 #@! TO.N,+3V3*
X12260000Y22028000D03*
X11244000Y21672500D03*
X10228000Y22028000D03*
X12514000Y9074000D03*
X12514000Y10090000D03*
X12514000Y11106000D03*
D17*
G04 #@! TO.N,GND*
X-440000Y1200000D03*
X-5520000Y1200000D03*
D18*
X41978000Y22155000D03*
X41216000Y25711000D03*
X40454000Y25711000D03*
X41978000Y25711000D03*
X43248000Y25711000D03*
X43248000Y22155000D03*
X43248000Y18599000D03*
X40454000Y22155000D03*
X40454000Y18599000D03*
X41978000Y18599000D03*
X41216000Y18599000D03*
X41216000Y22155000D03*
D16*
X14266500Y22155000D03*
D18*
X14569000Y19869000D03*
X14569000Y20885000D03*
X17086000Y14662000D03*
X15308000Y14662000D03*
D16*
X15333500Y12757000D03*
X17594000Y12528500D03*
X16259000Y13835000D03*
X16476500Y12528500D03*
D18*
X25999000Y19869000D03*
X25999000Y20885000D03*
D16*
X25696500Y22155000D03*
D18*
X28516000Y14662000D03*
X26738000Y14662000D03*
X28516000Y13900000D03*
X26738000Y13900000D03*
X28747000Y7423000D03*
X29049500Y6153000D03*
X30120000Y10659000D03*
D16*
X14576990Y15139010D03*
X1846000Y13747500D03*
X8958000Y12731500D03*
D17*
X42968500Y27997000D03*
X42968500Y15805000D03*
D16*
X19397500Y25457000D03*
D18*
X19397500Y24489500D03*
D16*
X20515000Y25457000D03*
X1846000Y18370500D03*
D17*
X2100000Y3740000D03*
X-2980000Y3740000D03*
X-440000Y6280000D03*
X-5520000Y6280000D03*
X2100000Y8820000D03*
X-2980000Y8820000D03*
X4640000Y11360000D03*
X9720000Y11360000D03*
X9720000Y6280000D03*
X4640000Y6280000D03*
X7180000Y3740000D03*
X12260000Y3740000D03*
X9720000Y1200000D03*
X4640000Y1200000D03*
X17340000Y-1340000D03*
X12260000Y-1340000D03*
X14800000Y-3880000D03*
X9720000Y-3880000D03*
X12260000Y-6420000D03*
X17340000Y-6420000D03*
X19880000Y1200000D03*
X14800000Y1200000D03*
X22420000Y3740000D03*
X24960000Y-3880000D03*
X19880000Y-3880000D03*
X22420000Y-1340000D03*
X27500000Y-6420000D03*
X22420000Y-6420000D03*
X32580000Y3740000D03*
X37660000Y-1340000D03*
X35120000Y-3880000D03*
X30040000Y-3880000D03*
X32580000Y-6420000D03*
X37660000Y-6420000D03*
X40200000Y1200000D03*
X35120000Y1200000D03*
X42740000Y3740000D03*
X37660000Y3740000D03*
X52900000Y3740000D03*
X47820000Y3740000D03*
X50360000Y1200000D03*
X45280000Y1200000D03*
X60520000Y1200000D03*
X55440000Y1200000D03*
X60520000Y6280000D03*
X55440000Y6280000D03*
X57980000Y8820000D03*
X52900000Y8820000D03*
X52900000Y13900000D03*
X52900000Y18980000D03*
X60520000Y21520000D03*
X55440000Y21520000D03*
X57980000Y24060000D03*
X60520000Y26600000D03*
X57980000Y3740000D03*
X7180000Y8820000D03*
X35120000Y6280000D03*
X40200000Y6280000D03*
X50360000Y6280000D03*
X45280000Y6280000D03*
X42740000Y8820000D03*
X47820000Y8820000D03*
X32580000Y8820000D03*
X37660000Y8820000D03*
X40200000Y11360000D03*
X35120000Y11360000D03*
X42740000Y13900000D03*
X37660000Y13900000D03*
X45280000Y11360000D03*
X50360000Y11360000D03*
X47820000Y13900000D03*
X50360000Y16440000D03*
X40200000Y16440000D03*
X35120000Y16440000D03*
X30040000Y21520000D03*
X32580000Y24060000D03*
X35120000Y26600000D03*
X37660000Y29140000D03*
X27500000Y29140000D03*
X40200000Y31680000D03*
X35120000Y31680000D03*
X30040000Y31680000D03*
X27500000Y34220000D03*
X30040000Y36760000D03*
X32580000Y34220000D03*
X35120000Y36760000D03*
X37660000Y34220000D03*
X40200000Y36760000D03*
X42740000Y34220000D03*
X42740000Y39300000D03*
X37660000Y39300000D03*
X32580000Y39300000D03*
X32580000Y44380000D03*
X35120000Y46920000D03*
X40200000Y46920000D03*
X45280000Y46920000D03*
X50360000Y46920000D03*
X55440000Y46920000D03*
X60520000Y46920000D03*
X57980000Y44380000D03*
X60520000Y41840000D03*
X57980000Y39300000D03*
X60520000Y36760000D03*
X55440000Y36760000D03*
X52900000Y39300000D03*
X55440000Y41840000D03*
X52900000Y44380000D03*
X50360000Y41840000D03*
X50360000Y36760000D03*
X52900000Y34220000D03*
X50360000Y31680000D03*
X52900000Y29140000D03*
X47820000Y44380000D03*
X42740000Y49460000D03*
X37660000Y49460000D03*
X40200000Y52000000D03*
X37660000Y54540000D03*
X42740000Y54540000D03*
X32580000Y54540000D03*
X35120000Y52000000D03*
X32580000Y49460000D03*
X30040000Y52000000D03*
X30040000Y46920000D03*
X27500000Y49460000D03*
X27500000Y54540000D03*
X24960000Y52000000D03*
X22420000Y54540000D03*
X19880000Y52000000D03*
X17340000Y54540000D03*
X17340000Y49460000D03*
X14800000Y46920000D03*
X19991999Y41728001D03*
X9720000Y46920000D03*
X4640000Y46920000D03*
X-440000Y46920000D03*
X-2980000Y44380000D03*
X-5520000Y46920000D03*
X-5520000Y41840000D03*
X-2980000Y39300000D03*
X-5520000Y36760000D03*
X-2980000Y34220000D03*
X-5520000Y31680000D03*
X-2980000Y29140000D03*
X-5520000Y26600000D03*
X-2980000Y24060000D03*
X-5520000Y21520000D03*
X-440000Y21520000D03*
X2100000Y24060000D03*
X4640000Y21520000D03*
X7180000Y24060000D03*
X9720000Y26600000D03*
X12260000Y29140000D03*
X9720000Y31680000D03*
X12260000Y34220000D03*
X12260000Y34220000D03*
X14800000Y36760000D03*
X17340000Y39300000D03*
X12260000Y39300000D03*
X9720000Y36760000D03*
X7180000Y34220000D03*
X7180000Y29140000D03*
X2100000Y29140000D03*
X4640000Y31680000D03*
X4640000Y26600000D03*
X-440000Y26600000D03*
X-440000Y31680000D03*
X-440000Y36760000D03*
X26992000Y44510000D03*
X29340000Y44572000D03*
D18*
X26738000Y3509000D03*
X29974000Y2132000D03*
D16*
X30573500Y463500D03*
D18*
X24960000Y9201000D03*
X19880000Y9201000D03*
X21150000Y19996000D03*
X17848000Y19996000D03*
X14800000Y9201000D03*
D17*
X17340000Y3740000D03*
X30040000Y26600000D03*
X32580000Y29140000D03*
D18*
X29760500Y14662000D03*
D16*
G04 #@! TO.N,VPP*
X16910500Y30410000D03*
D18*
X16748000Y32254000D03*
X15054000Y31908500D03*
X18125000Y24187000D03*
X17822500Y25457000D03*
G04 #@! TO.N,+2V5*
X44264000Y25711000D03*
X44264000Y22155000D03*
X44264000Y18599000D03*
X46550000Y25711000D03*
X45788000Y25711000D03*
X46550000Y22155000D03*
X45788000Y22155000D03*
X46550000Y18599000D03*
X45788000Y18599000D03*
X47312000Y18599000D03*
X47312000Y22155000D03*
X47312000Y25711000D03*
D17*
X44543500Y27997000D03*
X46296000Y27997000D03*
X48074000Y27997000D03*
X45407000Y28886000D03*
X47185000Y28886000D03*
D18*
G04 #@! TO.N,/TERMINATION*
X20134000Y14255500D03*
X18610000Y14255500D03*
X19372000Y14255500D03*
X20134000Y18878500D03*
X18610000Y18878500D03*
X19372000Y18878500D03*
D16*
G04 #@! TO.N,/~ENABLE*
X29024000Y463500D03*
G04 #@! TD*
D19*
G04 #@! TO.N,+3V3*
X10228000Y22028000D02*
X11498000Y22028000D01*
X11877498Y22028000D02*
X12514000Y21391498D01*
X11498000Y22028000D02*
X11877498Y22028000D01*
X12514000Y9074000D02*
X12514000Y9074000D01*
X12514000Y10090000D02*
X12514000Y9074000D01*
X12260000Y22028000D02*
X11877498Y22028000D01*
X12514000Y21774000D02*
X12514000Y21391498D01*
X12260000Y22028000D02*
X12514000Y21774000D01*
X10228000Y22028000D02*
X12514000Y19742000D01*
X12514000Y19742000D02*
X12514000Y11106000D01*
X12514000Y21391498D02*
X12514000Y19742000D01*
X12514000Y11106000D02*
X12514000Y10090000D01*
D20*
G04 #@! TO.N,GND*
X43271000Y27694500D02*
X42968500Y27997000D01*
X43271000Y26727000D02*
X43271000Y27694500D01*
X43271000Y16107500D02*
X42968500Y15805000D01*
X43271000Y26727000D02*
X43271000Y16107500D01*
X43271000Y18599000D02*
X41978000Y18599000D01*
X43271000Y22155000D02*
X41978000Y22155000D01*
X41978000Y25711000D02*
X43271000Y25711000D01*
X8958000Y12731500D02*
X8958000Y12731500D01*
X42968500Y27997000D02*
X42968500Y27997000D01*
X42968500Y15805000D02*
X42968500Y15805000D01*
D21*
X25696500Y22155000D02*
X25696500Y23018500D01*
X20515000Y24749894D02*
X20515000Y25457000D01*
X17920106Y22155000D02*
X20515000Y24749894D01*
X14266500Y22155000D02*
X17920106Y22155000D01*
X16476500Y12528500D02*
X16476500Y8972500D01*
X16476500Y8972500D02*
X14038000Y6534000D01*
X14038000Y6534000D02*
X11244000Y6534000D01*
X8958000Y8820000D02*
X8958000Y12731500D01*
X11244000Y6534000D02*
X8958000Y8820000D01*
X60988000Y27068000D02*
X60520000Y26600000D01*
X60988000Y29568000D02*
X60988000Y27068000D01*
X60520000Y26600000D02*
X60520000Y21520000D01*
X60520000Y21520000D02*
X60520000Y16440000D01*
X60520000Y16440000D02*
X60520000Y11360000D01*
X60520000Y11360000D02*
X60520000Y6280000D01*
X60520000Y6280000D02*
X60520000Y1200000D01*
X60520000Y1200000D02*
X57980000Y3740000D01*
X57980000Y3740000D02*
X57980000Y8820000D01*
X55440000Y21520000D02*
X57980000Y24060000D01*
X55440000Y11360000D02*
X55440000Y6280000D01*
X55440000Y6280000D02*
X55440000Y1200000D01*
X55440000Y1200000D02*
X52900000Y3740000D01*
X52900000Y3740000D02*
X52900000Y8820000D01*
X52900000Y8820000D02*
X52900000Y13900000D01*
X52900000Y18980000D02*
X50360000Y16440000D01*
X50360000Y11360000D02*
X50360000Y6280000D01*
X50360000Y6280000D02*
X50360000Y1200000D01*
X50360000Y1200000D02*
X47820000Y3740000D01*
X47820000Y3740000D02*
X47820000Y8820000D01*
X47820000Y13900000D02*
X45280000Y11360000D01*
X45280000Y6280000D02*
X45280000Y1200000D01*
X45280000Y1200000D02*
X42740000Y3740000D01*
D20*
X42740000Y8820000D02*
X42740000Y13900000D01*
D21*
X40200000Y11360000D02*
X40200000Y6280000D01*
X40200000Y1200000D02*
X37660000Y-1340000D01*
X37660000Y-1340000D02*
X37660000Y-6420000D01*
X37660000Y3740000D02*
X37660000Y8820000D01*
X37660000Y8820000D02*
X37660000Y13900000D01*
X40200000Y11360000D02*
X40200000Y16440000D01*
X35120000Y16440000D02*
X35120000Y11360000D01*
X37660000Y13900000D02*
X35120000Y16440000D01*
X35120000Y11360000D02*
X35120000Y6280000D01*
X32580000Y8820000D02*
X32580000Y3740000D01*
X35120000Y6280000D02*
X35120000Y1200000D01*
X35120000Y-3880000D02*
X32580000Y-6420000D01*
X42740000Y13900000D02*
X40200000Y11360000D01*
X32580000Y-6420000D02*
X30040000Y-3880000D01*
X11244000Y4756000D02*
X12260000Y3740000D01*
X11244000Y6534000D02*
X11244000Y4756000D01*
X9720000Y1200000D02*
X7180000Y3740000D01*
X7180000Y3740000D02*
X4640000Y1200000D01*
X7180000Y3740000D02*
X9720000Y6280000D01*
X9720000Y6280000D02*
X7180000Y8820000D01*
X7180000Y8820000D02*
X4640000Y6280000D01*
X4640000Y6280000D02*
X2100000Y8820000D01*
X4640000Y11360000D02*
X2100000Y8820000D01*
X2100000Y8820000D02*
X2100000Y3740000D01*
X2100000Y3740000D02*
X-440000Y1200000D01*
X-5520000Y1200000D02*
X-440000Y1200000D01*
X-2980000Y3740000D02*
X-5520000Y6280000D01*
X-5520000Y6280000D02*
X-2980000Y8820000D01*
X-2980000Y8820000D02*
X-440000Y6280000D01*
X-440000Y6280000D02*
X2100000Y8820000D01*
X-5988000Y21052000D02*
X-5520000Y21520000D01*
X-5988000Y18432000D02*
X-5988000Y21052000D01*
X-5520000Y21520000D02*
X-440000Y21520000D01*
X-440000Y21520000D02*
X4640000Y21520000D01*
X4640000Y21520000D02*
X7180000Y24060000D01*
X7180000Y24060000D02*
X9720000Y26600000D01*
X9720000Y26600000D02*
X12260000Y29140000D01*
X-5520000Y26600000D02*
X-2980000Y24060000D01*
X-2980000Y24060000D02*
X-440000Y26600000D01*
X-440000Y26600000D02*
X2100000Y24060000D01*
X2100000Y24060000D02*
X4640000Y26600000D01*
X4640000Y26600000D02*
X7180000Y29140000D01*
X7180000Y29140000D02*
X9720000Y31680000D01*
X9720000Y31680000D02*
X12260000Y34220000D01*
X12260000Y34220000D02*
X14800000Y36760000D01*
X14800000Y36760000D02*
X17340000Y39300000D01*
X17563998Y39300000D02*
X19991999Y41728001D01*
X17340000Y39300000D02*
X17563998Y39300000D01*
X12260000Y39300000D02*
X14800000Y36760000D01*
X12260000Y39300000D02*
X9720000Y36760000D01*
X9720000Y36760000D02*
X7180000Y34220000D01*
X7180000Y34220000D02*
X4640000Y31680000D01*
X4640000Y31680000D02*
X2100000Y29140000D01*
X2100000Y29140000D02*
X-440000Y31680000D01*
X-440000Y31680000D02*
X-2980000Y34220000D01*
X-2980000Y34220000D02*
X-5520000Y31680000D01*
X-2980000Y29140000D02*
X-440000Y26600000D01*
X-2980000Y34220000D02*
X-440000Y36760000D01*
X-2980000Y34220000D02*
X-5520000Y36760000D01*
X-5520000Y36760000D02*
X-2980000Y39300000D01*
X-2980000Y39300000D02*
X-5520000Y41840000D01*
X-5520000Y41840000D02*
X-2980000Y44380000D01*
X-2980000Y44380000D02*
X-5520000Y46920000D01*
X-2980000Y44380000D02*
X-440000Y46920000D01*
X-440000Y46920000D02*
X4640000Y46920000D01*
X4640000Y46920000D02*
X9720000Y46920000D01*
X9720000Y46920000D02*
X14292000Y46920000D01*
X14292000Y46920000D02*
X14800000Y46920000D01*
X30040000Y46920000D02*
X35120000Y46920000D01*
X35120000Y46920000D02*
X37660000Y49460000D01*
X37660000Y49460000D02*
X40200000Y46920000D01*
X40200000Y46920000D02*
X45280000Y46920000D01*
X32580000Y44380000D02*
X35120000Y46920000D01*
X45280000Y46920000D02*
X47820000Y44380000D01*
X47820000Y44380000D02*
X50360000Y46920000D01*
X50360000Y46920000D02*
X52900000Y44380000D01*
X52900000Y44380000D02*
X50360000Y41840000D01*
X50360000Y41840000D02*
X52900000Y39300000D01*
X50360000Y36760000D02*
X50360000Y31680000D01*
X50360000Y31680000D02*
X52900000Y34220000D01*
X52900000Y29140000D02*
X52900000Y34220000D01*
X53328000Y29568000D02*
X52900000Y29140000D01*
X55988000Y29568000D02*
X53328000Y29568000D01*
X55440000Y35116000D02*
X55988000Y34568000D01*
X55440000Y36760000D02*
X55440000Y35116000D01*
X60520000Y35036000D02*
X60988000Y34568000D01*
X60520000Y36760000D02*
X60520000Y35036000D01*
X60520000Y36760000D02*
X57980000Y39300000D01*
X57980000Y39300000D02*
X60520000Y41840000D01*
X60520000Y41840000D02*
X57980000Y44380000D01*
X57980000Y44380000D02*
X60520000Y46920000D01*
X57980000Y44380000D02*
X55440000Y46920000D01*
X55440000Y46920000D02*
X52900000Y44380000D01*
X52900000Y44380000D02*
X55440000Y41840000D01*
X45280000Y46920000D02*
X42740000Y49460000D01*
X42740000Y49460000D02*
X40200000Y52000000D01*
X40200000Y52000000D02*
X42740000Y54540000D01*
X40200000Y52000000D02*
X37660000Y54540000D01*
X37660000Y54540000D02*
X35120000Y52000000D01*
X35120000Y52000000D02*
X32580000Y54540000D01*
X32580000Y49460000D02*
X30040000Y52000000D01*
X32580000Y54540000D02*
X30040000Y52000000D01*
X30040000Y52000000D02*
X27500000Y49460000D01*
X27500000Y49460000D02*
X24960000Y52000000D01*
X24960000Y52000000D02*
X27500000Y54540000D01*
X24960000Y52000000D02*
X22420000Y54540000D01*
X22420000Y54540000D02*
X17340000Y54540000D01*
X17340000Y54540000D02*
X19880000Y52000000D01*
X19880000Y52000000D02*
X17340000Y49460000D01*
X45280000Y36760000D02*
X42740000Y39300000D01*
X50360000Y36760000D02*
X45280000Y36760000D01*
X42740000Y39300000D02*
X37660000Y39300000D01*
X37660000Y39300000D02*
X32580000Y39300000D01*
X32580000Y39300000D02*
X30040000Y36760000D01*
X30040000Y36760000D02*
X27500000Y34220000D01*
X27500000Y34220000D02*
X30040000Y31680000D01*
X30040000Y31680000D02*
X32580000Y29140000D01*
X32580000Y29140000D02*
X35120000Y26600000D01*
X35120000Y26600000D02*
X32580000Y24060000D01*
X30040000Y21520000D02*
X32580000Y24060000D01*
X35120000Y26600000D02*
X37660000Y29140000D01*
X37660000Y29140000D02*
X40200000Y31680000D01*
X40200000Y31680000D02*
X42740000Y34220000D01*
X42740000Y34220000D02*
X40200000Y36760000D01*
X40200000Y36760000D02*
X35120000Y36760000D01*
X35120000Y36760000D02*
X32326000Y33966000D01*
X32580000Y34220000D02*
X35120000Y31680000D01*
X35120000Y31680000D02*
X37660000Y34220000D01*
D22*
X9720000Y11969500D02*
X8958000Y12731500D01*
X9720000Y11360000D02*
X9720000Y11969500D01*
X4640000Y6280000D02*
X4640000Y6534000D01*
X9720000Y11360000D02*
X7180000Y8820000D01*
D23*
X39840000Y-1340000D02*
X42500000Y-4000000D01*
X37660000Y-1340000D02*
X39840000Y-1340000D01*
D24*
G04 #@! TO.N,VPP*
X16748000Y25564000D02*
X18125000Y24187000D01*
X16748000Y32254000D02*
X16748000Y25564000D01*
X17822500Y29140000D02*
X15054000Y31908500D01*
X17822500Y25457000D02*
X17822500Y29140000D01*
X17822500Y31179500D02*
X16748000Y32254000D01*
X17822500Y29140000D02*
X17822500Y31179500D01*
X15399500Y32254000D02*
X15054000Y31908500D01*
X16748000Y32254000D02*
X15399500Y32254000D01*
G04 #@! TO.N,+2V5*
X44543500Y15805000D02*
X46550000Y15805000D01*
X47312000Y16567000D02*
X47312000Y18599000D01*
X46550000Y15805000D02*
X47312000Y16567000D01*
X47312000Y18599000D02*
X47312000Y27997000D01*
X47312000Y27997000D02*
X46296000Y27997000D01*
X44543500Y27997000D02*
X44543500Y27997000D01*
D19*
X47312000Y27997000D02*
X47312000Y27997000D01*
D24*
X46296000Y27997000D02*
X44543500Y27997000D01*
X47312000Y27997000D02*
X48074000Y27997000D01*
X44543500Y27997000D02*
X44543500Y28022500D01*
X44543500Y28022500D02*
X45407000Y28886000D01*
X45407000Y28886000D02*
X45407000Y28886000D01*
X47185000Y28886000D02*
X47185000Y28886000D01*
X45407000Y28886000D02*
X47185000Y28886000D01*
D20*
X44241000Y27694500D02*
X44543500Y27997000D01*
X44241000Y26727000D02*
X44241000Y27694500D01*
X44241000Y16107500D02*
X44543500Y15805000D01*
X47289000Y16544000D02*
X47312000Y16567000D01*
X44241000Y26727000D02*
X44241000Y16544000D01*
X44241000Y16544000D02*
X44241000Y16107500D01*
D19*
X45176000Y26877000D02*
X46296000Y27997000D01*
X45176000Y16544000D02*
X45176000Y26877000D01*
D20*
X44241000Y16544000D02*
X45176000Y16544000D01*
D19*
X46296000Y27997000D02*
X46296000Y16648000D01*
D20*
X46400000Y16544000D02*
X47289000Y16544000D01*
D19*
X46296000Y16648000D02*
X46400000Y16544000D01*
D20*
X45176000Y16544000D02*
X46400000Y16544000D01*
D24*
X48074000Y17329000D02*
X46550000Y15805000D01*
X48074000Y27997000D02*
X48074000Y17329000D01*
X47185000Y28886000D02*
X48074000Y27997000D01*
G04 #@! TO.N,/TERMINATION*
X20134000Y14255500D02*
X20134000Y18878500D01*
X20134000Y14255500D02*
X18610000Y14255500D01*
X18610000Y14255500D02*
X18610000Y18878500D01*
X18610000Y18878500D02*
X20134000Y18878500D01*
X19372000Y18878500D02*
X19372000Y14255500D01*
D23*
G04 #@! TO.N,/~ENABLE*
X52392000Y15932000D02*
X58488000Y15932000D01*
X35628000Y-832000D02*
X52392000Y15932000D01*
X29793500Y-832000D02*
X35628000Y-832000D01*
X28998500Y-37000D02*
X29793500Y-832000D01*
X28998500Y438000D02*
X28998500Y-37000D01*
G04 #@! TD*
D25*
G04 #@! TO.N,GND*
X51638370Y55224002D02*
X52252424Y55038608D01*
X52818773Y54737475D01*
X53315848Y54332072D01*
X53724712Y53837841D01*
X54029790Y53273611D01*
X54219467Y52660863D01*
X54290000Y51989796D01*
X54290001Y48034887D01*
X54286565Y48000000D01*
X54300273Y47860816D01*
X54340872Y47726980D01*
X54406800Y47603637D01*
X54495525Y47495525D01*
X54603637Y47406800D01*
X54726980Y47340872D01*
X54860816Y47300273D01*
X54965123Y47290000D01*
X55000000Y47286565D01*
X55034877Y47290000D01*
X60965279Y47290000D01*
X61249899Y47262093D01*
X61490285Y47189516D01*
X61711991Y47071632D01*
X61906577Y46912932D01*
X62066635Y46719455D01*
X62186064Y46498576D01*
X62260317Y46258703D01*
X62290000Y45976284D01*
X62290001Y2034731D01*
X62262093Y1750101D01*
X62189517Y1509718D01*
X62071633Y1288011D01*
X61912929Y1093420D01*
X61719455Y933365D01*
X61498576Y813936D01*
X61258701Y739683D01*
X60976291Y710000D01*
X46034877Y710000D01*
X46000000Y713435D01*
X45965123Y710000D01*
X45860816Y699727D01*
X45726980Y659128D01*
X45603637Y593200D01*
X45495525Y504475D01*
X45406800Y396363D01*
X45340872Y273020D01*
X45300273Y139184D01*
X45286565Y0D01*
X45290001Y-34887D01*
X45290000Y-3965280D01*
X45224004Y-4638366D01*
X45038607Y-5252428D01*
X44737474Y-5818775D01*
X44332071Y-6315847D01*
X43837842Y-6724710D01*
X43273611Y-7029790D01*
X42660862Y-7219467D01*
X41989787Y-7290000D01*
X4034720Y-7290000D01*
X3361634Y-7224004D01*
X2747572Y-7038607D01*
X2181225Y-6737474D01*
X1684153Y-6332071D01*
X1275290Y-5837842D01*
X970210Y-5273611D01*
X780533Y-4660862D01*
X710000Y-3989787D01*
X710000Y-1100000D01*
X22961928Y-1100000D01*
X22961928Y-2900000D01*
X22974188Y-3024482D01*
X23010498Y-3144180D01*
X23069463Y-3254494D01*
X23148815Y-3351185D01*
X23245506Y-3430537D01*
X23355820Y-3489502D01*
X23475518Y-3525812D01*
X23600000Y-3538072D01*
X25400000Y-3538072D01*
X25524482Y-3525812D01*
X25644180Y-3489502D01*
X25754494Y-3430537D01*
X25851185Y-3351185D01*
X25930537Y-3254494D01*
X25989502Y-3144180D01*
X26025812Y-3024482D01*
X26038072Y-2900000D01*
X26038072Y-1100000D01*
X26025812Y-975518D01*
X25989502Y-855820D01*
X25930537Y-745506D01*
X25851185Y-648815D01*
X25754494Y-569463D01*
X25644180Y-510498D01*
X25625873Y-504944D01*
X25692312Y-438505D01*
X25860299Y-187095D01*
X25922470Y-37000D01*
X27845952Y-37000D01*
X27851500Y-93329D01*
X27851500Y-93340D01*
X27868097Y-261851D01*
X27933684Y-478061D01*
X28002684Y-607150D01*
X28040191Y-677321D01*
X28066967Y-709947D01*
X28183526Y-851975D01*
X28227285Y-887887D01*
X28942612Y-1603215D01*
X28978525Y-1646975D01*
X29022284Y-1682887D01*
X29022287Y-1682890D01*
X29153178Y-1790309D01*
X29352439Y-1896816D01*
X29568649Y-1962403D01*
X29737160Y-1979000D01*
X29737170Y-1979000D01*
X29793500Y-1984548D01*
X29849829Y-1979000D01*
X35571671Y-1979000D01*
X35628000Y-1984548D01*
X35684329Y-1979000D01*
X35684340Y-1979000D01*
X35852851Y-1962403D01*
X36069061Y-1896816D01*
X36268322Y-1790309D01*
X36442975Y-1646975D01*
X36478892Y-1603210D01*
X52867103Y14785000D01*
X56806928Y14785000D01*
X56907313Y14634763D01*
X57190763Y14351313D01*
X57524066Y14128607D01*
X57894413Y13975204D01*
X58287570Y13897000D01*
X58688430Y13897000D01*
X59081587Y13975204D01*
X59451934Y14128607D01*
X59785237Y14351313D01*
X60068687Y14634763D01*
X60291393Y14968066D01*
X60444796Y15338413D01*
X60523000Y15731570D01*
X60523000Y16132430D01*
X60444796Y16525587D01*
X60291393Y16895934D01*
X60068687Y17229237D01*
X59785237Y17512687D01*
X59451934Y17735393D01*
X59081587Y17888796D01*
X58688430Y17967000D01*
X58287570Y17967000D01*
X57894413Y17888796D01*
X57524066Y17735393D01*
X57190763Y17512687D01*
X56907313Y17229237D01*
X56806928Y17079000D01*
X52448329Y17079000D01*
X52391999Y17084548D01*
X52335670Y17079000D01*
X52335660Y17079000D01*
X52167149Y17062403D01*
X51950939Y16996816D01*
X51877734Y16957687D01*
X51751677Y16890309D01*
X51620786Y16782889D01*
X51577025Y16746975D01*
X51541113Y16703216D01*
X35152898Y315000D01*
X30268603Y315000D01*
X30159000Y424602D01*
X30159000Y575288D01*
X30115383Y794567D01*
X30029824Y1001124D01*
X29905612Y1187020D01*
X29747520Y1345112D01*
X29561624Y1469324D01*
X29355067Y1554883D01*
X29135788Y1598500D01*
X28912212Y1598500D01*
X28692933Y1554883D01*
X28594029Y1513916D01*
X28557439Y1502816D01*
X28523717Y1484791D01*
X28486376Y1469324D01*
X28452772Y1446870D01*
X28358178Y1396309D01*
X28183525Y1252975D01*
X28040191Y1078321D01*
X27933684Y879060D01*
X27868097Y662850D01*
X27851500Y494339D01*
X27851500Y19329D01*
X27845952Y-37000D01*
X25922470Y-37000D01*
X25976011Y92257D01*
X26035000Y388816D01*
X26035000Y691184D01*
X25976011Y987743D01*
X25860299Y1267095D01*
X25692312Y1518505D01*
X25478505Y1732312D01*
X25227095Y1900299D01*
X24947743Y2016011D01*
X24651184Y2075000D01*
X24348816Y2075000D01*
X24052257Y2016011D01*
X23772905Y1900299D01*
X23521495Y1732312D01*
X23307688Y1518505D01*
X23139701Y1267095D01*
X23023989Y987743D01*
X22965000Y691184D01*
X22965000Y388816D01*
X23023989Y92257D01*
X23139701Y-187095D01*
X23307688Y-438505D01*
X23374127Y-504944D01*
X23355820Y-510498D01*
X23245506Y-569463D01*
X23148815Y-648815D01*
X23069463Y-745506D01*
X23010498Y-855820D01*
X22974188Y-975518D01*
X22961928Y-1100000D01*
X710000Y-1100000D01*
X710000Y-34877D01*
X713435Y0D01*
X699727Y139184D01*
X659128Y273020D01*
X593200Y396363D01*
X504475Y504475D01*
X396363Y593200D01*
X273020Y659128D01*
X139184Y699727D01*
X34877Y710000D01*
X0Y713435D01*
X-34877Y710000D01*
X-5965279Y710000D01*
X-6249899Y737907D01*
X-6490282Y810483D01*
X-6711989Y928367D01*
X-6906580Y1087071D01*
X-7066635Y1280545D01*
X-7186064Y1501424D01*
X-7260317Y1741299D01*
X-7290000Y2023709D01*
X-7290000Y16132430D01*
X-5523000Y16132430D01*
X-5523000Y15731570D01*
X-5444796Y15338413D01*
X-5291393Y14968066D01*
X-5068687Y14634763D01*
X-4785237Y14351313D01*
X-4451934Y14128607D01*
X-4081587Y13975204D01*
X-3688430Y13897000D01*
X-3287570Y13897000D01*
X-2894413Y13975204D01*
X-2524066Y14128607D01*
X-2190763Y14351313D01*
X-1907313Y14634763D01*
X-1684607Y14968066D01*
X-1531204Y15338413D01*
X-1453000Y15731570D01*
X-1453000Y16132430D01*
X-1531204Y16525587D01*
X-1684607Y16895934D01*
X-1907313Y17229237D01*
X-2190763Y17512687D01*
X-2524066Y17735393D01*
X-2894413Y17888796D01*
X-3287570Y17967000D01*
X-3688430Y17967000D01*
X-4081587Y17888796D01*
X-4451934Y17735393D01*
X-4785237Y17512687D01*
X-5068687Y17229237D01*
X-5291393Y16895934D01*
X-5444796Y16525587D01*
X-5523000Y16132430D01*
X-7290000Y16132430D01*
X-7290000Y22028000D01*
X8585089Y22028000D01*
X8616657Y21707484D01*
X8710148Y21399285D01*
X8861969Y21115248D01*
X9066286Y20866286D01*
X9128687Y20815075D01*
X10879000Y19064761D01*
X10879001Y11186331D01*
X10879000Y11186321D01*
X10879000Y9154322D01*
X10871089Y9074000D01*
X10902657Y8753484D01*
X10996148Y8445285D01*
X11147969Y8161248D01*
X11352286Y7912286D01*
X11601248Y7707969D01*
X11885285Y7556148D01*
X12193484Y7462657D01*
X12433678Y7439000D01*
X12514000Y7431089D01*
X12834516Y7462657D01*
X13142715Y7556148D01*
X13426752Y7707969D01*
X13675714Y7912286D01*
X13880031Y8161248D01*
X14031852Y8445285D01*
X14125343Y8753484D01*
X14149000Y8993678D01*
X14156911Y9074000D01*
X14149000Y9154322D01*
X14149000Y18878500D01*
X17369025Y18878500D01*
X17375001Y18817825D01*
X17375000Y14316165D01*
X17369025Y14255500D01*
X17392870Y14013398D01*
X17463489Y13780599D01*
X17578167Y13566051D01*
X17608379Y13529238D01*
X17732498Y13377998D01*
X17920551Y13223667D01*
X18135099Y13108989D01*
X18367898Y13038370D01*
X18610000Y13014525D01*
X18670665Y13020500D01*
X19311335Y13020500D01*
X19372000Y13014525D01*
X19432665Y13020500D01*
X20073335Y13020500D01*
X20134000Y13014525D01*
X20194665Y13020500D01*
X20376102Y13038370D01*
X20608901Y13108989D01*
X20823449Y13223667D01*
X21011502Y13377998D01*
X21165833Y13566051D01*
X21280511Y13780599D01*
X21351130Y14013398D01*
X21374975Y14255500D01*
X21369000Y14316165D01*
X21369000Y18817835D01*
X21374975Y18878500D01*
X21351130Y19120602D01*
X21280511Y19353401D01*
X21165833Y19567949D01*
X21011502Y19756002D01*
X20823449Y19910333D01*
X20608901Y20025011D01*
X20376102Y20095630D01*
X20194665Y20113500D01*
X20134000Y20119475D01*
X20073335Y20113500D01*
X19432665Y20113500D01*
X19372000Y20119475D01*
X19311335Y20113500D01*
X18670665Y20113500D01*
X18610000Y20119475D01*
X18549335Y20113500D01*
X18367898Y20095630D01*
X18135099Y20025011D01*
X17920551Y19910333D01*
X17732498Y19756002D01*
X17578167Y19567949D01*
X17463489Y19353401D01*
X17392870Y19120602D01*
X17369025Y18878500D01*
X14149000Y18878500D01*
X14149000Y19661681D01*
X14156911Y19742001D01*
X14149000Y19822322D01*
X14149000Y21311177D01*
X14156911Y21391498D01*
X14149000Y21471820D01*
X14149000Y21693681D01*
X14156911Y21774001D01*
X14142904Y21916212D01*
X14125343Y22094516D01*
X14031852Y22402715D01*
X13880031Y22686752D01*
X13675714Y22935714D01*
X13613314Y22986924D01*
X13472925Y23127313D01*
X13421714Y23189714D01*
X13172752Y23394031D01*
X12888715Y23545852D01*
X12580516Y23639343D01*
X12340322Y23663000D01*
X12340319Y23663000D01*
X12260000Y23670911D01*
X12179681Y23663000D01*
X11957817Y23663000D01*
X11877498Y23670911D01*
X11797179Y23663000D01*
X10308319Y23663000D01*
X10228000Y23670911D01*
X10147681Y23663000D01*
X10147678Y23663000D01*
X9907484Y23639343D01*
X9599285Y23545852D01*
X9315248Y23394031D01*
X9066286Y23189714D01*
X8861969Y22940752D01*
X8710148Y22656715D01*
X8616657Y22348516D01*
X8585089Y22028000D01*
X-7290000Y22028000D01*
X-7290000Y31908500D01*
X13813025Y31908500D01*
X13836870Y31666398D01*
X13907489Y31433601D01*
X14022168Y31219052D01*
X14137827Y31078120D01*
X14137832Y31078115D01*
X14176499Y31030999D01*
X14223615Y30992332D01*
X15513000Y29702946D01*
X15513001Y25624675D01*
X15507025Y25564000D01*
X15530870Y25321898D01*
X15593641Y25114972D01*
X15601490Y25089099D01*
X15716168Y24874551D01*
X15870499Y24686498D01*
X15917621Y24647826D01*
X17294619Y23270827D01*
X17435551Y23155168D01*
X17650099Y23040489D01*
X17882897Y22969870D01*
X18124999Y22946025D01*
X18367101Y22969870D01*
X18599899Y23040489D01*
X18814448Y23155168D01*
X19002501Y23309499D01*
X19156832Y23497552D01*
X19271511Y23712101D01*
X19342130Y23944899D01*
X19365975Y24187001D01*
X19342130Y24429103D01*
X19271511Y24661901D01*
X19156832Y24876449D01*
X19041173Y25017381D01*
X18994018Y25064536D01*
X19039630Y25214898D01*
X19057500Y25396335D01*
X19057500Y27694500D01*
X43220085Y27694500D01*
X43225001Y27644589D01*
X43225000Y26776902D01*
X43225000Y26776901D01*
X43225001Y16593912D01*
X43220085Y16544000D01*
X43225000Y16494098D01*
X43225000Y16157402D01*
X43220085Y16107500D01*
X43225000Y16057599D01*
X43225000Y16057598D01*
X43239702Y15908329D01*
X43297798Y15716813D01*
X43314240Y15686051D01*
X43326370Y15562898D01*
X43396989Y15330099D01*
X43511667Y15115551D01*
X43665998Y14927498D01*
X43854051Y14773167D01*
X44068599Y14658489D01*
X44301398Y14587870D01*
X44482835Y14570000D01*
X46489335Y14570000D01*
X46550000Y14564025D01*
X46610665Y14570000D01*
X46792102Y14587870D01*
X47024901Y14658489D01*
X47239449Y14773167D01*
X47427502Y14927498D01*
X47466178Y14974625D01*
X48142378Y15650825D01*
X48189502Y15689498D01*
X48228176Y15736623D01*
X48904380Y16412826D01*
X48951502Y16451498D01*
X49105833Y16639551D01*
X49220511Y16854099D01*
X49291130Y17086898D01*
X49309000Y17268335D01*
X49309000Y17268344D01*
X49314974Y17328999D01*
X49309000Y17389654D01*
X49309000Y27936336D01*
X49314975Y27997000D01*
X49309000Y28057665D01*
X49309000Y28118637D01*
X49297105Y28178438D01*
X49291130Y28239102D01*
X49273436Y28297433D01*
X49261540Y28357236D01*
X49238205Y28413571D01*
X49220511Y28471901D01*
X49191777Y28525658D01*
X49168443Y28581992D01*
X49134568Y28632689D01*
X49105833Y28686449D01*
X49067161Y28733571D01*
X49033287Y28784267D01*
X48990173Y28827381D01*
X48951502Y28874502D01*
X48904380Y28913174D01*
X48861267Y28956287D01*
X48144289Y29673264D01*
X48144287Y29673267D01*
X48101174Y29716380D01*
X48062502Y29763502D01*
X48015380Y29802174D01*
X47972267Y29845287D01*
X47921571Y29879161D01*
X47874449Y29917833D01*
X47820689Y29946568D01*
X47769992Y29980443D01*
X47713658Y30003777D01*
X47659901Y30032511D01*
X47601571Y30050205D01*
X47545236Y30073540D01*
X47485433Y30085436D01*
X47427102Y30103130D01*
X47366438Y30109105D01*
X47306637Y30121000D01*
X47245665Y30121000D01*
X47185000Y30126975D01*
X47124335Y30121000D01*
X45467654Y30121000D01*
X45406999Y30126974D01*
X45346344Y30121000D01*
X45285363Y30121000D01*
X45225562Y30109105D01*
X45164898Y30103130D01*
X45106567Y30085436D01*
X45046764Y30073540D01*
X44990429Y30050205D01*
X44932099Y30032511D01*
X44878342Y30003777D01*
X44822008Y29980443D01*
X44771311Y29946568D01*
X44717551Y29917833D01*
X44670429Y29879161D01*
X44619733Y29845287D01*
X44576620Y29802174D01*
X44529498Y29763502D01*
X44490826Y29716380D01*
X43713124Y28938677D01*
X43665998Y28900002D01*
X43511667Y28711949D01*
X43396989Y28497401D01*
X43342421Y28317516D01*
X43326370Y28264602D01*
X43315420Y28153428D01*
X43308500Y28118637D01*
X43308500Y28105207D01*
X43297799Y28085187D01*
X43239702Y27893670D01*
X43220085Y27694500D01*
X19057500Y27694500D01*
X19057500Y29079338D01*
X19063475Y29140001D01*
X19057500Y29200665D01*
X19057500Y31118846D01*
X19063474Y31179501D01*
X19057500Y31240156D01*
X19057500Y31240165D01*
X19039630Y31421602D01*
X18969011Y31654401D01*
X18854333Y31868949D01*
X18700002Y32057002D01*
X18652880Y32095674D01*
X18480124Y32268430D01*
X56453000Y32268430D01*
X56453000Y31867570D01*
X56531204Y31474413D01*
X56684607Y31104066D01*
X56907313Y30770763D01*
X57190763Y30487313D01*
X57524066Y30264607D01*
X57894413Y30111204D01*
X58287570Y30033000D01*
X58688430Y30033000D01*
X59081587Y30111204D01*
X59451934Y30264607D01*
X59785237Y30487313D01*
X60068687Y30770763D01*
X60291393Y31104066D01*
X60444796Y31474413D01*
X60523000Y31867570D01*
X60523000Y32268430D01*
X60444796Y32661587D01*
X60291393Y33031934D01*
X60068687Y33365237D01*
X59785237Y33648687D01*
X59451934Y33871393D01*
X59081587Y34024796D01*
X58688430Y34103000D01*
X58287570Y34103000D01*
X57894413Y34024796D01*
X57524066Y33871393D01*
X57190763Y33648687D01*
X56907313Y33365237D01*
X56684607Y33031934D01*
X56531204Y32661587D01*
X56453000Y32268430D01*
X18480124Y32268430D01*
X17664178Y33084375D01*
X17625502Y33131502D01*
X17437449Y33285833D01*
X17222901Y33400511D01*
X16990102Y33471130D01*
X16808665Y33489000D01*
X16748000Y33494975D01*
X16687335Y33489000D01*
X15460165Y33489000D01*
X15399500Y33494975D01*
X15338835Y33489000D01*
X15157398Y33471130D01*
X14924599Y33400511D01*
X14710051Y33285833D01*
X14521998Y33131502D01*
X14483321Y33084374D01*
X14223615Y32824668D01*
X14176499Y32786001D01*
X14137832Y32738885D01*
X14137827Y32738880D01*
X14084523Y32673928D01*
X14022168Y32597948D01*
X13907489Y32383399D01*
X13836870Y32150602D01*
X13813025Y31908500D01*
X-7290000Y31908500D01*
X-7290000Y42062000D01*
X-2424072Y42062000D01*
X-2424072Y38062000D01*
X-2411812Y37937518D01*
X-2375502Y37817820D01*
X-2316537Y37707506D01*
X-2237185Y37610815D01*
X-2140494Y37531463D01*
X-2030180Y37472498D01*
X-1910482Y37436188D01*
X-1786000Y37423928D01*
X893749Y37423928D01*
X819820Y37401502D01*
X709506Y37342537D01*
X612815Y37263185D01*
X533463Y37166494D01*
X474498Y37056180D01*
X438188Y36936482D01*
X425928Y36812000D01*
X425928Y33312000D01*
X438188Y33187518D01*
X474498Y33067820D01*
X533463Y32957506D01*
X612815Y32860815D01*
X709506Y32781463D01*
X819820Y32722498D01*
X939518Y32686188D01*
X1064000Y32673928D01*
X5064000Y32673928D01*
X5188482Y32686188D01*
X5308180Y32722498D01*
X5418494Y32781463D01*
X5515185Y32860815D01*
X5594537Y32957506D01*
X5653502Y33067820D01*
X5689812Y33187518D01*
X5702072Y33312000D01*
X5702072Y36812000D01*
X5689812Y36936482D01*
X5653502Y37056180D01*
X5594537Y37166494D01*
X5515185Y37263185D01*
X5418494Y37342537D01*
X5308180Y37401502D01*
X5234251Y37423928D01*
X7914000Y37423928D01*
X8038482Y37436188D01*
X8158180Y37472498D01*
X8268494Y37531463D01*
X8365185Y37610815D01*
X8444537Y37707506D01*
X8503502Y37817820D01*
X8539812Y37937518D01*
X8552072Y38062000D01*
X8552072Y42062000D01*
X8539812Y42186482D01*
X8503502Y42306180D01*
X8444537Y42416494D01*
X8365185Y42513185D01*
X8268494Y42592537D01*
X8158180Y42651502D01*
X8038482Y42687812D01*
X7914000Y42700072D01*
X4414000Y42700072D01*
X4289518Y42687812D01*
X4169820Y42651502D01*
X4059506Y42592537D01*
X3962815Y42513185D01*
X3883463Y42416494D01*
X3824498Y42306180D01*
X3788188Y42186482D01*
X3775928Y42062000D01*
X3775928Y38062000D01*
X3788188Y37937518D01*
X3824498Y37817820D01*
X3883463Y37707506D01*
X3962815Y37610815D01*
X4059506Y37531463D01*
X4169820Y37472498D01*
X4243749Y37450072D01*
X1884251Y37450072D01*
X1958180Y37472498D01*
X2068494Y37531463D01*
X2165185Y37610815D01*
X2244537Y37707506D01*
X2303502Y37817820D01*
X2339812Y37937518D01*
X2352072Y38062000D01*
X2352072Y42062000D01*
X2339812Y42186482D01*
X2303502Y42306180D01*
X2244537Y42416494D01*
X2165185Y42513185D01*
X2068494Y42592537D01*
X1958180Y42651502D01*
X1838482Y42687812D01*
X1714000Y42700072D01*
X-1786000Y42700072D01*
X-1910482Y42687812D01*
X-2030180Y42651502D01*
X-2140494Y42592537D01*
X-2237185Y42513185D01*
X-2316537Y42416494D01*
X-2375502Y42306180D01*
X-2411812Y42186482D01*
X-2424072Y42062000D01*
X-7290000Y42062000D01*
X-7290000Y45965279D01*
X-7262093Y46249899D01*
X-7189516Y46490285D01*
X-7071632Y46711991D01*
X-6912932Y46906577D01*
X-6719455Y47066635D01*
X-6498576Y47186064D01*
X-6258703Y47260317D01*
X-5976284Y47290000D01*
X8965123Y47290000D01*
X9000000Y47286565D01*
X9034877Y47290000D01*
X9073867Y47293840D01*
X9139184Y47300273D01*
X9273020Y47340872D01*
X9396363Y47406800D01*
X9504475Y47495525D01*
X9593200Y47603637D01*
X9659128Y47726980D01*
X9699727Y47860816D01*
X9704349Y47907743D01*
X9713435Y48000000D01*
X9710000Y48034877D01*
X9710000Y50900000D01*
X22961928Y50900000D01*
X22961928Y49100000D01*
X22974188Y48975518D01*
X23010498Y48855820D01*
X23069463Y48745506D01*
X23148815Y48648815D01*
X23245506Y48569463D01*
X23355820Y48510498D01*
X23374127Y48504944D01*
X23307688Y48438505D01*
X23139701Y48187095D01*
X23023989Y47907743D01*
X22965000Y47611184D01*
X22965000Y47308816D01*
X23023989Y47012257D01*
X23139701Y46732905D01*
X23307688Y46481495D01*
X23521495Y46267688D01*
X23772905Y46099701D01*
X24052257Y45983989D01*
X24348816Y45925000D01*
X24651184Y45925000D01*
X24947743Y45983989D01*
X25227095Y46099701D01*
X25478505Y46267688D01*
X25692312Y46481495D01*
X25860299Y46732905D01*
X25976011Y47012257D01*
X26035000Y47308816D01*
X26035000Y47611184D01*
X25976011Y47907743D01*
X25860299Y48187095D01*
X25692312Y48438505D01*
X25625873Y48504944D01*
X25644180Y48510498D01*
X25754494Y48569463D01*
X25851185Y48648815D01*
X25930537Y48745506D01*
X25989502Y48855820D01*
X26025812Y48975518D01*
X26038072Y49100000D01*
X26038072Y50900000D01*
X26025812Y51024482D01*
X25989502Y51144180D01*
X25930537Y51254494D01*
X25851185Y51351185D01*
X25754494Y51430537D01*
X25644180Y51489502D01*
X25524482Y51525812D01*
X25400000Y51538072D01*
X23600000Y51538072D01*
X23475518Y51525812D01*
X23355820Y51489502D01*
X23245506Y51430537D01*
X23148815Y51351185D01*
X23069463Y51254494D01*
X23010498Y51144180D01*
X22974188Y51024482D01*
X22961928Y50900000D01*
X9710000Y50900000D01*
X9710000Y51965279D01*
X9775998Y52638370D01*
X9961392Y53252424D01*
X10262525Y53818773D01*
X10667928Y54315848D01*
X11162159Y54724712D01*
X11726389Y55029790D01*
X12339137Y55219467D01*
X13010204Y55290000D01*
X50965279Y55290000D01*
X51638370Y55224002D01*
G04 #@! TA.AperFunction,Conductor*
D26*
G36*
X51638370Y55224002D02*
G01*
X52252424Y55038608D01*
X52818773Y54737475D01*
X53315848Y54332072D01*
X53724712Y53837841D01*
X54029790Y53273611D01*
X54219467Y52660863D01*
X54290000Y51989796D01*
X54290001Y48034887D01*
X54286565Y48000000D01*
X54300273Y47860816D01*
X54340872Y47726980D01*
X54406800Y47603637D01*
X54495525Y47495525D01*
X54603637Y47406800D01*
X54726980Y47340872D01*
X54860816Y47300273D01*
X54965123Y47290000D01*
X55000000Y47286565D01*
X55034877Y47290000D01*
X60965279Y47290000D01*
X61249899Y47262093D01*
X61490285Y47189516D01*
X61711991Y47071632D01*
X61906577Y46912932D01*
X62066635Y46719455D01*
X62186064Y46498576D01*
X62260317Y46258703D01*
X62290000Y45976284D01*
X62290001Y2034731D01*
X62262093Y1750101D01*
X62189517Y1509718D01*
X62071633Y1288011D01*
X61912929Y1093420D01*
X61719455Y933365D01*
X61498576Y813936D01*
X61258701Y739683D01*
X60976291Y710000D01*
X46034877Y710000D01*
X46000000Y713435D01*
X45965123Y710000D01*
X45860816Y699727D01*
X45726980Y659128D01*
X45603637Y593200D01*
X45495525Y504475D01*
X45406800Y396363D01*
X45340872Y273020D01*
X45300273Y139184D01*
X45286565Y0D01*
X45290001Y-34887D01*
X45290000Y-3965280D01*
X45224004Y-4638366D01*
X45038607Y-5252428D01*
X44737474Y-5818775D01*
X44332071Y-6315847D01*
X43837842Y-6724710D01*
X43273611Y-7029790D01*
X42660862Y-7219467D01*
X41989787Y-7290000D01*
X4034720Y-7290000D01*
X3361634Y-7224004D01*
X2747572Y-7038607D01*
X2181225Y-6737474D01*
X1684153Y-6332071D01*
X1275290Y-5837842D01*
X970210Y-5273611D01*
X780533Y-4660862D01*
X710000Y-3989787D01*
X710000Y-1100000D01*
X22961928Y-1100000D01*
X22961928Y-2900000D01*
X22974188Y-3024482D01*
X23010498Y-3144180D01*
X23069463Y-3254494D01*
X23148815Y-3351185D01*
X23245506Y-3430537D01*
X23355820Y-3489502D01*
X23475518Y-3525812D01*
X23600000Y-3538072D01*
X25400000Y-3538072D01*
X25524482Y-3525812D01*
X25644180Y-3489502D01*
X25754494Y-3430537D01*
X25851185Y-3351185D01*
X25930537Y-3254494D01*
X25989502Y-3144180D01*
X26025812Y-3024482D01*
X26038072Y-2900000D01*
X26038072Y-1100000D01*
X26025812Y-975518D01*
X25989502Y-855820D01*
X25930537Y-745506D01*
X25851185Y-648815D01*
X25754494Y-569463D01*
X25644180Y-510498D01*
X25625873Y-504944D01*
X25692312Y-438505D01*
X25860299Y-187095D01*
X25922470Y-37000D01*
X27845952Y-37000D01*
X27851500Y-93329D01*
X27851500Y-93340D01*
X27868097Y-261851D01*
X27933684Y-478061D01*
X28002684Y-607150D01*
X28040191Y-677321D01*
X28066967Y-709947D01*
X28183526Y-851975D01*
X28227285Y-887887D01*
X28942612Y-1603215D01*
X28978525Y-1646975D01*
X29022284Y-1682887D01*
X29022287Y-1682890D01*
X29153178Y-1790309D01*
X29352439Y-1896816D01*
X29568649Y-1962403D01*
X29737160Y-1979000D01*
X29737170Y-1979000D01*
X29793500Y-1984548D01*
X29849829Y-1979000D01*
X35571671Y-1979000D01*
X35628000Y-1984548D01*
X35684329Y-1979000D01*
X35684340Y-1979000D01*
X35852851Y-1962403D01*
X36069061Y-1896816D01*
X36268322Y-1790309D01*
X36442975Y-1646975D01*
X36478892Y-1603210D01*
X52867103Y14785000D01*
X56806928Y14785000D01*
X56907313Y14634763D01*
X57190763Y14351313D01*
X57524066Y14128607D01*
X57894413Y13975204D01*
X58287570Y13897000D01*
X58688430Y13897000D01*
X59081587Y13975204D01*
X59451934Y14128607D01*
X59785237Y14351313D01*
X60068687Y14634763D01*
X60291393Y14968066D01*
X60444796Y15338413D01*
X60523000Y15731570D01*
X60523000Y16132430D01*
X60444796Y16525587D01*
X60291393Y16895934D01*
X60068687Y17229237D01*
X59785237Y17512687D01*
X59451934Y17735393D01*
X59081587Y17888796D01*
X58688430Y17967000D01*
X58287570Y17967000D01*
X57894413Y17888796D01*
X57524066Y17735393D01*
X57190763Y17512687D01*
X56907313Y17229237D01*
X56806928Y17079000D01*
X52448329Y17079000D01*
X52391999Y17084548D01*
X52335670Y17079000D01*
X52335660Y17079000D01*
X52167149Y17062403D01*
X51950939Y16996816D01*
X51877734Y16957687D01*
X51751677Y16890309D01*
X51620786Y16782889D01*
X51577025Y16746975D01*
X51541113Y16703216D01*
X35152898Y315000D01*
X30268603Y315000D01*
X30159000Y424602D01*
X30159000Y575288D01*
X30115383Y794567D01*
X30029824Y1001124D01*
X29905612Y1187020D01*
X29747520Y1345112D01*
X29561624Y1469324D01*
X29355067Y1554883D01*
X29135788Y1598500D01*
X28912212Y1598500D01*
X28692933Y1554883D01*
X28594029Y1513916D01*
X28557439Y1502816D01*
X28523717Y1484791D01*
X28486376Y1469324D01*
X28452772Y1446870D01*
X28358178Y1396309D01*
X28183525Y1252975D01*
X28040191Y1078321D01*
X27933684Y879060D01*
X27868097Y662850D01*
X27851500Y494339D01*
X27851500Y19329D01*
X27845952Y-37000D01*
X25922470Y-37000D01*
X25976011Y92257D01*
X26035000Y388816D01*
X26035000Y691184D01*
X25976011Y987743D01*
X25860299Y1267095D01*
X25692312Y1518505D01*
X25478505Y1732312D01*
X25227095Y1900299D01*
X24947743Y2016011D01*
X24651184Y2075000D01*
X24348816Y2075000D01*
X24052257Y2016011D01*
X23772905Y1900299D01*
X23521495Y1732312D01*
X23307688Y1518505D01*
X23139701Y1267095D01*
X23023989Y987743D01*
X22965000Y691184D01*
X22965000Y388816D01*
X23023989Y92257D01*
X23139701Y-187095D01*
X23307688Y-438505D01*
X23374127Y-504944D01*
X23355820Y-510498D01*
X23245506Y-569463D01*
X23148815Y-648815D01*
X23069463Y-745506D01*
X23010498Y-855820D01*
X22974188Y-975518D01*
X22961928Y-1100000D01*
X710000Y-1100000D01*
X710000Y-34877D01*
X713435Y0D01*
X699727Y139184D01*
X659128Y273020D01*
X593200Y396363D01*
X504475Y504475D01*
X396363Y593200D01*
X273020Y659128D01*
X139184Y699727D01*
X34877Y710000D01*
X0Y713435D01*
X-34877Y710000D01*
X-5965279Y710000D01*
X-6249899Y737907D01*
X-6490282Y810483D01*
X-6711989Y928367D01*
X-6906580Y1087071D01*
X-7066635Y1280545D01*
X-7186064Y1501424D01*
X-7260317Y1741299D01*
X-7290000Y2023709D01*
X-7290000Y16132430D01*
X-5523000Y16132430D01*
X-5523000Y15731570D01*
X-5444796Y15338413D01*
X-5291393Y14968066D01*
X-5068687Y14634763D01*
X-4785237Y14351313D01*
X-4451934Y14128607D01*
X-4081587Y13975204D01*
X-3688430Y13897000D01*
X-3287570Y13897000D01*
X-2894413Y13975204D01*
X-2524066Y14128607D01*
X-2190763Y14351313D01*
X-1907313Y14634763D01*
X-1684607Y14968066D01*
X-1531204Y15338413D01*
X-1453000Y15731570D01*
X-1453000Y16132430D01*
X-1531204Y16525587D01*
X-1684607Y16895934D01*
X-1907313Y17229237D01*
X-2190763Y17512687D01*
X-2524066Y17735393D01*
X-2894413Y17888796D01*
X-3287570Y17967000D01*
X-3688430Y17967000D01*
X-4081587Y17888796D01*
X-4451934Y17735393D01*
X-4785237Y17512687D01*
X-5068687Y17229237D01*
X-5291393Y16895934D01*
X-5444796Y16525587D01*
X-5523000Y16132430D01*
X-7290000Y16132430D01*
X-7290000Y22028000D01*
X8585089Y22028000D01*
X8616657Y21707484D01*
X8710148Y21399285D01*
X8861969Y21115248D01*
X9066286Y20866286D01*
X9128687Y20815075D01*
X10879000Y19064761D01*
X10879001Y11186331D01*
X10879000Y11186321D01*
X10879000Y9154322D01*
X10871089Y9074000D01*
X10902657Y8753484D01*
X10996148Y8445285D01*
X11147969Y8161248D01*
X11352286Y7912286D01*
X11601248Y7707969D01*
X11885285Y7556148D01*
X12193484Y7462657D01*
X12433678Y7439000D01*
X12514000Y7431089D01*
X12834516Y7462657D01*
X13142715Y7556148D01*
X13426752Y7707969D01*
X13675714Y7912286D01*
X13880031Y8161248D01*
X14031852Y8445285D01*
X14125343Y8753484D01*
X14149000Y8993678D01*
X14156911Y9074000D01*
X14149000Y9154322D01*
X14149000Y18878500D01*
X17369025Y18878500D01*
X17375001Y18817825D01*
X17375000Y14316165D01*
X17369025Y14255500D01*
X17392870Y14013398D01*
X17463489Y13780599D01*
X17578167Y13566051D01*
X17608379Y13529238D01*
X17732498Y13377998D01*
X17920551Y13223667D01*
X18135099Y13108989D01*
X18367898Y13038370D01*
X18610000Y13014525D01*
X18670665Y13020500D01*
X19311335Y13020500D01*
X19372000Y13014525D01*
X19432665Y13020500D01*
X20073335Y13020500D01*
X20134000Y13014525D01*
X20194665Y13020500D01*
X20376102Y13038370D01*
X20608901Y13108989D01*
X20823449Y13223667D01*
X21011502Y13377998D01*
X21165833Y13566051D01*
X21280511Y13780599D01*
X21351130Y14013398D01*
X21374975Y14255500D01*
X21369000Y14316165D01*
X21369000Y18817835D01*
X21374975Y18878500D01*
X21351130Y19120602D01*
X21280511Y19353401D01*
X21165833Y19567949D01*
X21011502Y19756002D01*
X20823449Y19910333D01*
X20608901Y20025011D01*
X20376102Y20095630D01*
X20194665Y20113500D01*
X20134000Y20119475D01*
X20073335Y20113500D01*
X19432665Y20113500D01*
X19372000Y20119475D01*
X19311335Y20113500D01*
X18670665Y20113500D01*
X18610000Y20119475D01*
X18549335Y20113500D01*
X18367898Y20095630D01*
X18135099Y20025011D01*
X17920551Y19910333D01*
X17732498Y19756002D01*
X17578167Y19567949D01*
X17463489Y19353401D01*
X17392870Y19120602D01*
X17369025Y18878500D01*
X14149000Y18878500D01*
X14149000Y19661681D01*
X14156911Y19742001D01*
X14149000Y19822322D01*
X14149000Y21311177D01*
X14156911Y21391498D01*
X14149000Y21471820D01*
X14149000Y21693681D01*
X14156911Y21774001D01*
X14142904Y21916212D01*
X14125343Y22094516D01*
X14031852Y22402715D01*
X13880031Y22686752D01*
X13675714Y22935714D01*
X13613314Y22986924D01*
X13472925Y23127313D01*
X13421714Y23189714D01*
X13172752Y23394031D01*
X12888715Y23545852D01*
X12580516Y23639343D01*
X12340322Y23663000D01*
X12340319Y23663000D01*
X12260000Y23670911D01*
X12179681Y23663000D01*
X11957817Y23663000D01*
X11877498Y23670911D01*
X11797179Y23663000D01*
X10308319Y23663000D01*
X10228000Y23670911D01*
X10147681Y23663000D01*
X10147678Y23663000D01*
X9907484Y23639343D01*
X9599285Y23545852D01*
X9315248Y23394031D01*
X9066286Y23189714D01*
X8861969Y22940752D01*
X8710148Y22656715D01*
X8616657Y22348516D01*
X8585089Y22028000D01*
X-7290000Y22028000D01*
X-7290000Y31908500D01*
X13813025Y31908500D01*
X13836870Y31666398D01*
X13907489Y31433601D01*
X14022168Y31219052D01*
X14137827Y31078120D01*
X14137832Y31078115D01*
X14176499Y31030999D01*
X14223615Y30992332D01*
X15513000Y29702946D01*
X15513001Y25624675D01*
X15507025Y25564000D01*
X15530870Y25321898D01*
X15593641Y25114972D01*
X15601490Y25089099D01*
X15716168Y24874551D01*
X15870499Y24686498D01*
X15917621Y24647826D01*
X17294619Y23270827D01*
X17435551Y23155168D01*
X17650099Y23040489D01*
X17882897Y22969870D01*
X18124999Y22946025D01*
X18367101Y22969870D01*
X18599899Y23040489D01*
X18814448Y23155168D01*
X19002501Y23309499D01*
X19156832Y23497552D01*
X19271511Y23712101D01*
X19342130Y23944899D01*
X19365975Y24187001D01*
X19342130Y24429103D01*
X19271511Y24661901D01*
X19156832Y24876449D01*
X19041173Y25017381D01*
X18994018Y25064536D01*
X19039630Y25214898D01*
X19057500Y25396335D01*
X19057500Y27694500D01*
X43220085Y27694500D01*
X43225001Y27644589D01*
X43225000Y26776902D01*
X43225000Y26776901D01*
X43225001Y16593912D01*
X43220085Y16544000D01*
X43225000Y16494098D01*
X43225000Y16157402D01*
X43220085Y16107500D01*
X43225000Y16057599D01*
X43225000Y16057598D01*
X43239702Y15908329D01*
X43297798Y15716813D01*
X43314240Y15686051D01*
X43326370Y15562898D01*
X43396989Y15330099D01*
X43511667Y15115551D01*
X43665998Y14927498D01*
X43854051Y14773167D01*
X44068599Y14658489D01*
X44301398Y14587870D01*
X44482835Y14570000D01*
X46489335Y14570000D01*
X46550000Y14564025D01*
X46610665Y14570000D01*
X46792102Y14587870D01*
X47024901Y14658489D01*
X47239449Y14773167D01*
X47427502Y14927498D01*
X47466178Y14974625D01*
X48142378Y15650825D01*
X48189502Y15689498D01*
X48228176Y15736623D01*
X48904380Y16412826D01*
X48951502Y16451498D01*
X49105833Y16639551D01*
X49220511Y16854099D01*
X49291130Y17086898D01*
X49309000Y17268335D01*
X49309000Y17268344D01*
X49314974Y17328999D01*
X49309000Y17389654D01*
X49309000Y27936336D01*
X49314975Y27997000D01*
X49309000Y28057665D01*
X49309000Y28118637D01*
X49297105Y28178438D01*
X49291130Y28239102D01*
X49273436Y28297433D01*
X49261540Y28357236D01*
X49238205Y28413571D01*
X49220511Y28471901D01*
X49191777Y28525658D01*
X49168443Y28581992D01*
X49134568Y28632689D01*
X49105833Y28686449D01*
X49067161Y28733571D01*
X49033287Y28784267D01*
X48990173Y28827381D01*
X48951502Y28874502D01*
X48904380Y28913174D01*
X48861267Y28956287D01*
X48144289Y29673264D01*
X48144287Y29673267D01*
X48101174Y29716380D01*
X48062502Y29763502D01*
X48015380Y29802174D01*
X47972267Y29845287D01*
X47921571Y29879161D01*
X47874449Y29917833D01*
X47820689Y29946568D01*
X47769992Y29980443D01*
X47713658Y30003777D01*
X47659901Y30032511D01*
X47601571Y30050205D01*
X47545236Y30073540D01*
X47485433Y30085436D01*
X47427102Y30103130D01*
X47366438Y30109105D01*
X47306637Y30121000D01*
X47245665Y30121000D01*
X47185000Y30126975D01*
X47124335Y30121000D01*
X45467654Y30121000D01*
X45406999Y30126974D01*
X45346344Y30121000D01*
X45285363Y30121000D01*
X45225562Y30109105D01*
X45164898Y30103130D01*
X45106567Y30085436D01*
X45046764Y30073540D01*
X44990429Y30050205D01*
X44932099Y30032511D01*
X44878342Y30003777D01*
X44822008Y29980443D01*
X44771311Y29946568D01*
X44717551Y29917833D01*
X44670429Y29879161D01*
X44619733Y29845287D01*
X44576620Y29802174D01*
X44529498Y29763502D01*
X44490826Y29716380D01*
X43713124Y28938677D01*
X43665998Y28900002D01*
X43511667Y28711949D01*
X43396989Y28497401D01*
X43342421Y28317516D01*
X43326370Y28264602D01*
X43315420Y28153428D01*
X43308500Y28118637D01*
X43308500Y28105207D01*
X43297799Y28085187D01*
X43239702Y27893670D01*
X43220085Y27694500D01*
X19057500Y27694500D01*
X19057500Y29079338D01*
X19063475Y29140001D01*
X19057500Y29200665D01*
X19057500Y31118846D01*
X19063474Y31179501D01*
X19057500Y31240156D01*
X19057500Y31240165D01*
X19039630Y31421602D01*
X18969011Y31654401D01*
X18854333Y31868949D01*
X18700002Y32057002D01*
X18652880Y32095674D01*
X18480124Y32268430D01*
X56453000Y32268430D01*
X56453000Y31867570D01*
X56531204Y31474413D01*
X56684607Y31104066D01*
X56907313Y30770763D01*
X57190763Y30487313D01*
X57524066Y30264607D01*
X57894413Y30111204D01*
X58287570Y30033000D01*
X58688430Y30033000D01*
X59081587Y30111204D01*
X59451934Y30264607D01*
X59785237Y30487313D01*
X60068687Y30770763D01*
X60291393Y31104066D01*
X60444796Y31474413D01*
X60523000Y31867570D01*
X60523000Y32268430D01*
X60444796Y32661587D01*
X60291393Y33031934D01*
X60068687Y33365237D01*
X59785237Y33648687D01*
X59451934Y33871393D01*
X59081587Y34024796D01*
X58688430Y34103000D01*
X58287570Y34103000D01*
X57894413Y34024796D01*
X57524066Y33871393D01*
X57190763Y33648687D01*
X56907313Y33365237D01*
X56684607Y33031934D01*
X56531204Y32661587D01*
X56453000Y32268430D01*
X18480124Y32268430D01*
X17664178Y33084375D01*
X17625502Y33131502D01*
X17437449Y33285833D01*
X17222901Y33400511D01*
X16990102Y33471130D01*
X16808665Y33489000D01*
X16748000Y33494975D01*
X16687335Y33489000D01*
X15460165Y33489000D01*
X15399500Y33494975D01*
X15338835Y33489000D01*
X15157398Y33471130D01*
X14924599Y33400511D01*
X14710051Y33285833D01*
X14521998Y33131502D01*
X14483321Y33084374D01*
X14223615Y32824668D01*
X14176499Y32786001D01*
X14137832Y32738885D01*
X14137827Y32738880D01*
X14084523Y32673928D01*
X14022168Y32597948D01*
X13907489Y32383399D01*
X13836870Y32150602D01*
X13813025Y31908500D01*
X-7290000Y31908500D01*
X-7290000Y42062000D01*
X-2424072Y42062000D01*
X-2424072Y38062000D01*
X-2411812Y37937518D01*
X-2375502Y37817820D01*
X-2316537Y37707506D01*
X-2237185Y37610815D01*
X-2140494Y37531463D01*
X-2030180Y37472498D01*
X-1910482Y37436188D01*
X-1786000Y37423928D01*
X893749Y37423928D01*
X819820Y37401502D01*
X709506Y37342537D01*
X612815Y37263185D01*
X533463Y37166494D01*
X474498Y37056180D01*
X438188Y36936482D01*
X425928Y36812000D01*
X425928Y33312000D01*
X438188Y33187518D01*
X474498Y33067820D01*
X533463Y32957506D01*
X612815Y32860815D01*
X709506Y32781463D01*
X819820Y32722498D01*
X939518Y32686188D01*
X1064000Y32673928D01*
X5064000Y32673928D01*
X5188482Y32686188D01*
X5308180Y32722498D01*
X5418494Y32781463D01*
X5515185Y32860815D01*
X5594537Y32957506D01*
X5653502Y33067820D01*
X5689812Y33187518D01*
X5702072Y33312000D01*
X5702072Y36812000D01*
X5689812Y36936482D01*
X5653502Y37056180D01*
X5594537Y37166494D01*
X5515185Y37263185D01*
X5418494Y37342537D01*
X5308180Y37401502D01*
X5234251Y37423928D01*
X7914000Y37423928D01*
X8038482Y37436188D01*
X8158180Y37472498D01*
X8268494Y37531463D01*
X8365185Y37610815D01*
X8444537Y37707506D01*
X8503502Y37817820D01*
X8539812Y37937518D01*
X8552072Y38062000D01*
X8552072Y42062000D01*
X8539812Y42186482D01*
X8503502Y42306180D01*
X8444537Y42416494D01*
X8365185Y42513185D01*
X8268494Y42592537D01*
X8158180Y42651502D01*
X8038482Y42687812D01*
X7914000Y42700072D01*
X4414000Y42700072D01*
X4289518Y42687812D01*
X4169820Y42651502D01*
X4059506Y42592537D01*
X3962815Y42513185D01*
X3883463Y42416494D01*
X3824498Y42306180D01*
X3788188Y42186482D01*
X3775928Y42062000D01*
X3775928Y38062000D01*
X3788188Y37937518D01*
X3824498Y37817820D01*
X3883463Y37707506D01*
X3962815Y37610815D01*
X4059506Y37531463D01*
X4169820Y37472498D01*
X4243749Y37450072D01*
X1884251Y37450072D01*
X1958180Y37472498D01*
X2068494Y37531463D01*
X2165185Y37610815D01*
X2244537Y37707506D01*
X2303502Y37817820D01*
X2339812Y37937518D01*
X2352072Y38062000D01*
X2352072Y42062000D01*
X2339812Y42186482D01*
X2303502Y42306180D01*
X2244537Y42416494D01*
X2165185Y42513185D01*
X2068494Y42592537D01*
X1958180Y42651502D01*
X1838482Y42687812D01*
X1714000Y42700072D01*
X-1786000Y42700072D01*
X-1910482Y42687812D01*
X-2030180Y42651502D01*
X-2140494Y42592537D01*
X-2237185Y42513185D01*
X-2316537Y42416494D01*
X-2375502Y42306180D01*
X-2411812Y42186482D01*
X-2424072Y42062000D01*
X-7290000Y42062000D01*
X-7290000Y45965279D01*
X-7262093Y46249899D01*
X-7189516Y46490285D01*
X-7071632Y46711991D01*
X-6912932Y46906577D01*
X-6719455Y47066635D01*
X-6498576Y47186064D01*
X-6258703Y47260317D01*
X-5976284Y47290000D01*
X8965123Y47290000D01*
X9000000Y47286565D01*
X9034877Y47290000D01*
X9073867Y47293840D01*
X9139184Y47300273D01*
X9273020Y47340872D01*
X9396363Y47406800D01*
X9504475Y47495525D01*
X9593200Y47603637D01*
X9659128Y47726980D01*
X9699727Y47860816D01*
X9704349Y47907743D01*
X9713435Y48000000D01*
X9710000Y48034877D01*
X9710000Y50900000D01*
X22961928Y50900000D01*
X22961928Y49100000D01*
X22974188Y48975518D01*
X23010498Y48855820D01*
X23069463Y48745506D01*
X23148815Y48648815D01*
X23245506Y48569463D01*
X23355820Y48510498D01*
X23374127Y48504944D01*
X23307688Y48438505D01*
X23139701Y48187095D01*
X23023989Y47907743D01*
X22965000Y47611184D01*
X22965000Y47308816D01*
X23023989Y47012257D01*
X23139701Y46732905D01*
X23307688Y46481495D01*
X23521495Y46267688D01*
X23772905Y46099701D01*
X24052257Y45983989D01*
X24348816Y45925000D01*
X24651184Y45925000D01*
X24947743Y45983989D01*
X25227095Y46099701D01*
X25478505Y46267688D01*
X25692312Y46481495D01*
X25860299Y46732905D01*
X25976011Y47012257D01*
X26035000Y47308816D01*
X26035000Y47611184D01*
X25976011Y47907743D01*
X25860299Y48187095D01*
X25692312Y48438505D01*
X25625873Y48504944D01*
X25644180Y48510498D01*
X25754494Y48569463D01*
X25851185Y48648815D01*
X25930537Y48745506D01*
X25989502Y48855820D01*
X26025812Y48975518D01*
X26038072Y49100000D01*
X26038072Y50900000D01*
X26025812Y51024482D01*
X25989502Y51144180D01*
X25930537Y51254494D01*
X25851185Y51351185D01*
X25754494Y51430537D01*
X25644180Y51489502D01*
X25524482Y51525812D01*
X25400000Y51538072D01*
X23600000Y51538072D01*
X23475518Y51525812D01*
X23355820Y51489502D01*
X23245506Y51430537D01*
X23148815Y51351185D01*
X23069463Y51254494D01*
X23010498Y51144180D01*
X22974188Y51024482D01*
X22961928Y50900000D01*
X9710000Y50900000D01*
X9710000Y51965279D01*
X9775998Y52638370D01*
X9961392Y53252424D01*
X10262525Y53818773D01*
X10667928Y54315848D01*
X11162159Y54724712D01*
X11726389Y55029790D01*
X12339137Y55219467D01*
X13010204Y55290000D01*
X50965279Y55290000D01*
X51638370Y55224002D01*
G37*
G04 #@! TD.AperFunction*
G04 #@! TD*
M02*
